<svg id="svg" xmlns="http://www.w3.org/2000/svg" xmlns:xlink="http://www.w3.org/1999/xlink" width="400" height="71.42857142857143" viewBox="0, 0, 400,71.42857142857143" version="1.1"><g id="svgg"><path id="path0" d="M32.250 11.241 C 29.174 11.515,29.148 11.541,29.577 13.828 C 29.974 15.947,28.978 17.578,17.487 33.604 L 4.964 51.071 9.446 51.291 C 13.441 51.486,14.045 51.334,15.000 49.892 C 18.750 44.227,18.616 44.286,27.879 44.286 L 36.346 44.286 37.303 47.679 L 38.261 51.071 49.487 51.268 C 59.838 51.449,60.714 51.366,60.716 50.197 C 60.718 47.925,52.686 12.526,51.960 11.607 C 51.273 10.738,40.197 10.533,32.250 11.241 M71.429 11.204 C 71.429 11.473,72.095 12.403,72.909 13.270 L 74.390 14.846 69.695 32.386 C 67.113 42.033,65.000 50.265,65.000 50.678 C 65.000 51.578,82.581 51.739,83.134 50.844 C 84.023 49.405,93.557 11.984,93.187 11.385 C 92.717 10.625,71.429 10.448,71.429 11.204 M119.180 11.236 L 115.860 11.501 116.191 14.143 C 116.502 16.622,115.766 17.835,104.333 33.682 C 90.197 53.275,91.021 51.429,96.415 51.429 L 100.687 51.429 103.368 47.837 L 106.050 44.244 114.609 44.444 L 123.169 44.643 124.126 48.036 L 125.083 51.429 136.470 51.429 C 142.733 51.429,147.857 51.164,147.857 50.841 C 147.857 49.691,139.319 12.061,138.907 11.394 C 138.510 10.752,126.465 10.656,119.180 11.236 M176.061 11.446 C 175.812 11.848,175.808 13.086,176.052 14.196 C 176.440 15.964,175.021 18.282,164.595 32.903 C 150.184 53.112,150.939 51.429,156.291 51.429 L 160.593 51.429 163.214 47.857 L 165.836 44.286 174.325 44.286 L 182.814 44.286 183.802 47.679 L 184.791 51.071 196.406 51.268 L 208.021 51.465 207.617 49.840 C 207.394 48.946,205.399 40.020,203.183 30.004 C 200.967 19.988,199.004 11.551,198.821 11.254 C 198.301 10.413,176.586 10.596,176.061 11.446 M306.917 11.730 C 301.123 13.837,300.535 14.953,296.092 32.256 C 290.994 52.106,290.351 51.429,314.321 51.429 C 336.955 51.429,338.772 50.332,341.238 35.179 L 341.615 32.857 333.038 32.857 C 322.973 32.857,323.567 32.441,321.318 41.071 L 319.643 47.500 315.179 47.713 C 309.768 47.970,309.793 49.760,314.940 30.714 L 319.091 15.357 323.474 15.144 C 328.615 14.895,328.719 15.129,326.429 21.786 C 325.643 24.069,325.000 26.701,325.000 27.633 L 325.000 29.328 334.063 29.128 L 343.125 28.929 344.404 23.929 C 347.574 11.526,346.999 11.122,325.837 10.905 C 313.470 10.778,308.999 10.973,306.917 11.730 M352.143 11.551 C 352.143 12.011,352.678 12.979,353.333 13.703 C 354.499 14.991,352.873 22.265,345.178 50.179 C 344.863 51.323,345.620 51.429,354.111 51.429 L 363.388 51.429 365.700 42.679 C 368.471 32.194,367.568 32.882,378.571 32.865 C 386.988 32.851,387.623 32.749,389.643 31.094 L 391.786 29.337 380.488 29.311 C 370.072 29.288,369.218 29.188,369.553 28.036 C 369.753 27.348,370.628 24.134,371.499 20.893 L 373.081 15.000 384.421 15.000 C 396.041 15.000,398.436 14.266,396.660 11.250 C 396.101 10.301,352.143 10.598,352.143 11.551 M244.286 12.055 C 244.286 12.400,244.768 13.082,245.357 13.571 C 246.861 14.820,246.868 14.779,242.468 31.422 C 236.927 52.383,236.079 51.429,260.240 51.429 C 278.729 51.429,281.128 50.959,283.846 46.812 C 284.621 45.628,293.571 13.451,293.571 11.846 C 293.571 11.616,289.447 11.429,284.407 11.429 L 275.243 11.429 271.801 24.464 C 269.908 31.634,267.727 39.830,266.955 42.679 L 265.550 47.857 261.347 47.857 C 256.120 47.857,256.113 49.332,261.429 29.468 C 263.786 20.659,265.714 12.997,265.714 12.440 C 265.714 11.612,263.767 11.429,255.000 11.429 C 249.107 11.429,244.286 11.711,244.286 12.055 M120.690 32.750 C 121.503 36.398,121.982 39.682,121.756 40.048 C 121.243 40.878,110.222 40.937,109.712 40.112 C 109.367 39.554,118.590 25.495,119.020 25.925 C 119.126 26.031,119.878 29.102,120.690 32.750 M33.785 32.321 C 35.643 41.283,35.969 40.714,28.971 40.714 C 21.389 40.714,21.443 40.920,26.936 33.036 C 32.514 25.029,32.279 25.053,33.785 32.321 M180.493 33.036 L 181.880 39.643 178.797 39.861 C 177.102 39.980,174.270 39.980,172.506 39.861 L 169.297 39.643 173.678 33.036 C 176.087 29.402,178.294 26.429,178.582 26.429 C 178.870 26.429,179.729 29.402,180.493 33.036 M381.786 44.286 L 370.374 55.714 187.687 55.714 L 5.000 55.714 5.000 58.216 L 5.000 60.717 193.621 60.537 L 382.243 60.357 387.857 46.607 C 390.946 39.045,393.410 32.857,393.335 32.857 C 393.259 32.857,388.062 38.000,381.786 44.286 " stroke="none" fill="#000000" fill-rule="evenodd"></path></g></svg>