<svg id="svg" xmlns="http://www.w3.org/2000/svg" xmlns:xlink="http://www.w3.org/1999/xlink" width="400" height="400" viewBox="0, 0, 400,400"><g id="svgg"><path id="path0" d="M222.455 13.112 C 221.837 13.857,221.601 14.849,220.579 21.002 C 220.299 22.686,219.788 24.592,219.442 25.238 C 219.096 25.884,218.028 30.330,217.068 35.118 C 216.108 39.906,214.797 45.310,214.155 47.127 C 211.183 55.530,208.487 78.393,209.412 87.356 C 209.700 90.144,209.809 92.756,209.654 93.159 C 209.499 93.562,209.782 95.597,210.283 97.681 C 210.827 99.945,211.344 105.860,211.567 112.375 L 211.941 123.279 210.354 124.319 L 208.767 125.358 209.984 122.973 C 211.840 119.334,210.382 120.023,205.290 125.190 L 200.756 129.792 200.353 110.043 C 200.131 99.181,199.849 89.368,199.726 88.235 C 199.603 87.103,199.217 81.676,198.868 76.176 C 198.221 65.992,197.549 62.540,193.602 49.118 C 191.290 41.256,187.497 31.442,184.343 25.159 C 182.925 22.334,181.765 19.471,181.765 18.797 C 181.765 16.766,180.648 15.294,179.108 15.294 C 177.317 15.294,177.218 15.733,176.793 25.588 C 176.612 29.794,176.058 35.353,175.563 37.941 C 173.847 46.904,173.581 50.964,173.555 68.553 C 173.536 81.808,173.734 87.026,174.350 89.435 C 174.801 91.202,175.485 94.632,175.869 97.059 C 177.001 104.199,180.570 118.162,182.482 122.932 C 184.781 128.668,185.158 129.965,186.130 135.487 L 186.940 140.092 185.001 144.310 C 182.817 149.063,181.982 154.391,181.530 166.471 C 181.378 170.515,180.936 174.712,180.547 175.798 C 179.996 177.340,179.997 177.870,180.552 178.213 C 181.097 178.550,181.047 179.172,180.338 180.869 C 179.700 182.394,179.412 184.958,179.412 189.097 C 179.412 197.609,175.299 203.155,164.750 208.867 C 162.401 210.139,157.079 213.823,150.882 218.468 C 148.618 220.166,145.441 222.511,143.824 223.680 C 139.153 227.056,130.935 235.828,128.536 239.997 C 127.327 242.099,125.368 245.011,124.183 246.468 C 120.393 251.127,119.074 254.711,117.077 265.783 C 116.567 268.609,116.571 269.706,117.093 270.336 C 117.630 270.982,117.510 271.744,116.549 273.787 C 112.129 283.192,113.322 292.256,119.947 299.598 C 121.871 301.731,121.975 302.069,122.022 306.363 C 122.055 309.323,122.513 312.201,123.351 314.706 C 124.055 316.809,125.191 320.364,125.876 322.607 C 127.367 327.490,130.508 333.274,133.624 336.874 C 134.876 338.320,136.333 340.341,136.863 341.366 C 138.529 344.587,142.215 349.028,145.252 351.471 C 146.860 352.765,148.190 353.996,148.206 354.207 C 148.249 354.770,136.120 355.344,127.647 355.180 C 114.123 354.918,103.529 358.279,103.529 362.832 C 103.529 363.292,102.748 364.558,101.794 365.645 C 96.231 371.981,104.548 384.171,113.448 382.726 C 115.204 382.442,115.836 382.652,117.230 383.986 C 120.940 387.537,131.138 385.927,143.137 379.897 C 149.809 376.544,153.640 375.293,162.647 373.526 C 178.769 370.364,183.459 367.820,185.081 361.356 C 185.269 360.610,185.489 360.000,185.572 360.000 C 185.654 360.000,187.117 359.735,188.823 359.412 C 190.810 359.035,192.687 359.024,194.050 359.381 C 205.154 362.290,219.027 363.436,251.475 364.124 C 259.061 364.285,263.203 363.224,265.681 360.485 C 266.264 359.841,267.577 358.965,268.600 358.538 C 275.415 355.690,277.452 349.066,272.943 344.414 C 271.854 343.290,271.133 342.201,271.340 341.993 C 272.698 340.635,266.973 335.882,263.980 335.882 C 261.423 335.882,261.222 335.285,262.930 332.750 C 266.854 326.927,273.083 312.574,274.372 306.388 C 274.622 305.189,275.132 304.764,276.613 304.518 C 285.575 303.035,286.999 302.375,291.325 297.703 C 296.952 291.624,300.276 281.137,298.519 275.000 C 297.963 273.059,297.541 270.599,297.580 269.533 C 297.661 267.295,296.345 264.421,295.002 263.906 C 294.494 263.711,293.302 261.821,292.353 259.705 C 289.817 254.054,286.107 247.999,281.773 242.435 C 279.665 239.730,277.421 236.818,276.785 235.964 C 273.715 231.843,264.181 220.192,263.239 219.412 C 262.653 218.928,261.128 217.075,259.850 215.295 C 258.572 213.515,256.242 210.868,254.672 209.412 L 251.818 206.765 252.483 197.471 C 253.114 188.642,253.089 188.054,251.973 185.706 C 250.430 182.458,251.289 178.585,253.585 178.440 C 256.137 178.280,256.201 178.155,254.118 177.403 C 251.253 176.369,251.014 172.841,253.775 172.359 C 254.719 172.194,255.597 171.741,255.726 171.353 C 255.900 170.829,255.471 170.788,254.049 171.196 C 252.997 171.498,252.119 171.683,252.098 171.608 C 252.076 171.532,251.711 170.851,251.285 170.093 C 250.613 168.897,250.651 168.602,251.579 167.847 C 252.567 167.044,252.521 167.006,250.972 167.339 C 249.732 167.605,248.814 167.333,247.442 166.292 C 246.423 165.518,244.829 164.490,243.900 164.007 C 242.278 163.163,242.203 162.936,241.987 158.182 C 241.716 152.228,240.318 147.395,238.440 145.917 C 237.680 145.320,237.059 144.647,237.059 144.423 C 237.059 143.059,230.579 134.962,228.009 133.117 C 226.354 131.928,224.900 130.883,224.777 130.794 C 224.436 130.548,225.681 125.756,228.191 117.647 C 233.523 100.428,234.502 88.241,232.657 62.059 C 230.286 28.423,226.164 8.644,222.455 13.112 M185.515 38.727 C 188.356 46.348,190.512 53.278,191.127 56.765 C 194.729 77.183,195.904 87.096,195.563 94.204 C 195.433 96.907,195.187 103.221,195.017 108.235 C 194.540 122.240,194.146 122.775,191.009 113.676 C 186.513 100.640,185.349 86.950,185.793 52.353 L 185.910 43.235 183.860 39.172 C 182.733 36.937,181.941 34.897,182.100 34.639 C 182.811 33.488,184.167 35.112,185.515 38.727 M225.623 37.911 C 229.816 44.311,230.890 79.876,227.453 98.529 C 223.452 120.243,222.686 122.941,220.516 122.941 C 219.116 122.941,219.073 119.935,220.263 105.000 C 220.726 99.176,221.271 86.338,221.473 76.471 C 221.675 66.603,222.062 56.941,222.334 55.000 C 222.605 53.059,222.863 48.559,222.906 45.000 C 223.012 36.219,223.566 34.773,225.623 37.911 M236.453 156.756 C 240.159 158.672,241.423 162.036,239.265 164.238 C 238.537 164.981,237.502 166.250,236.964 167.059 C 236.020 168.481,235.952 168.494,234.906 167.461 C 234.310 166.873,234.088 166.441,234.412 166.501 C 235.833 166.764,236.396 166.354,237.001 164.618 C 238.361 160.716,237.558 157.647,235.176 157.647 C 234.594 157.647,234.118 157.250,234.118 156.765 C 234.118 155.668,234.348 155.667,236.453 156.756 M217.930 161.912 C 221.028 168.775,220.442 173.238,216.760 170.825 C 215.971 170.308,214.193 169.554,212.810 169.150 C 209.067 168.058,206.635 162.074,209.344 160.624 C 210.486 160.013,210.588 160.108,210.588 161.773 C 210.588 165.016,213.094 168.349,214.759 167.320 C 215.690 166.745,215.339 163.301,214.117 161.021 L 212.939 158.824 214.737 158.824 C 216.338 158.824,216.689 159.164,217.930 161.912 M244.941 165.905 L 247.759 167.692 242.893 170.617 C 237.386 173.927,237.315 173.981,237.820 174.487 C 238.023 174.690,240.119 173.671,242.477 172.222 C 247.717 169.002,248.746 168.615,249.780 169.474 C 251.914 171.244,250.750 172.268,244.412 174.200 C 238.874 175.887,238.235 176.224,238.235 177.453 C 238.235 178.266,237.884 178.824,237.371 178.824 C 236.849 178.824,236.640 179.169,236.843 179.698 C 237.064 180.273,236.643 180.776,235.610 181.168 C 233.437 181.994,230.151 181.915,229.837 181.029 C 229.667 180.548,229.051 180.852,228.052 181.912 C 225.859 184.238,220.783 183.739,219.348 181.056 C 218.765 179.968,218.855 179.914,220.610 180.299 C 221.854 180.572,222.372 180.507,222.125 180.107 C 221.919 179.774,222.217 179.376,222.787 179.225 C 223.671 178.989,223.629 178.886,222.500 178.523 C 221.772 178.289,221.176 177.864,221.176 177.578 C 221.176 177.293,220.808 177.059,220.358 177.059 C 218.169 177.059,208.646 171.378,209.032 170.302 C 209.634 168.626,215.940 171.054,218.586 173.980 L 220.040 175.588 219.873 174.118 C 219.576 171.500,224.379 171.607,225.480 174.243 C 226.149 175.844,229.795 179.412,230.763 179.412 C 231.628 179.412,234.217 174.563,233.933 173.476 C 233.676 172.491,233.968 172.085,235.297 171.583 C 236.341 171.190,237.133 170.369,237.364 169.443 C 238.578 164.576,241.035 163.428,244.941 165.905 M204.265 168.918 C 205.801 169.254,207.064 169.834,207.071 170.206 C 207.087 171.045,210.907 173.782,215.581 176.302 C 219.271 178.291,219.334 178.587,215.882 177.700 C 214.750 177.409,211.971 176.999,209.706 176.790 C 203.855 176.249,205.471 177.517,211.514 178.209 C 220.280 179.213,220.960 180.931,212.486 180.662 C 209.530 180.569,206.570 180.664,205.909 180.874 C 203.856 181.525,204.587 182.298,206.912 181.933 L 209.118 181.588 207.941 182.952 L 206.765 184.317 207.941 183.857 C 211.352 182.521,211.171 182.343,212.074 187.914 C 213.713 198.021,222.177 200.291,228.787 192.396 C 230.271 190.624,231.798 189.435,232.862 189.222 C 235.344 188.725,236.471 187.311,236.471 184.691 C 236.471 180.463,240.737 178.256,248.942 178.240 L 251.120 178.235 250.342 180.822 C 249.914 182.244,249.132 184.024,248.605 184.776 C 247.523 186.321,247.391 187.059,248.196 187.059 C 248.497 187.059,248.912 186.529,249.118 185.882 C 249.634 184.257,250.327 184.411,251.096 186.324 C 251.978 188.515,252.026 191.438,251.310 199.279 C 250.107 212.459,251.269 216.981,259.736 232.059 C 262.097 236.265,264.353 241.029,264.748 242.647 C 265.143 244.265,266.500 248.209,267.764 251.412 C 273.928 267.037,273.224 275.554,266.152 270.921 C 262.456 268.499,259.212 273.362,261.140 278.433 C 262.286 281.448,264.684 282.941,268.376 282.941 C 270.789 282.941,271.765 283.165,271.765 283.717 C 271.765 285.175,269.870 290.879,268.464 293.657 C 265.809 298.899,267.481 303.223,271.577 301.710 C 274.406 300.665,273.595 307.928,269.919 316.568 C 260.639 338.376,251.595 346.485,230.588 351.836 C 217.768 355.101,216.690 355.286,202.059 356.734 C 189.621 357.965,182.579 359.080,181.479 359.993 C 177.368 363.405,161.268 352.375,153.664 340.936 C 150.894 336.769,145.778 324.932,145.125 321.176 C 144.927 320.044,144.346 317.171,143.833 314.792 C 142.532 308.759,142.725 308.396,147.065 308.710 C 153.356 309.165,153.992 306.549,149.575 298.381 C 146.938 293.503,146.796 293.007,146.781 288.584 L 146.765 283.925 149.979 283.195 C 156.341 281.749,157.582 274.899,151.694 273.721 C 150.762 273.535,150.000 273.293,150.000 273.184 C 150.000 272.283,152.721 266.403,153.786 265.000 C 154.524 264.029,155.861 261.779,156.758 260.000 C 158.608 256.329,162.837 250.832,166.487 247.353 C 173.102 241.049,185.667 217.135,186.738 208.812 C 186.966 207.039,187.390 204.656,187.680 203.517 C 188.157 201.648,187.765 196.274,186.759 190.882 C 186.400 188.954,186.346 188.904,189.118 193.099 C 189.765 194.078,190.949 195.304,191.748 195.822 C 192.969 196.613,192.850 196.301,191.010 193.882 C 189.804 192.297,188.513 189.981,188.139 188.735 C 187.269 185.830,186.582 185.860,186.108 188.824 C 185.478 192.766,183.264 189.903,183.263 185.143 C 183.262 182.211,182.224 182.652,181.419 185.926 L 180.779 188.529 180.358 186.298 C 179.815 183.419,181.862 178.752,185.008 175.696 C 187.439 173.336,186.632 172.685,183.380 174.382 C 181.112 175.565,182.151 173.590,184.861 171.568 C 189.964 167.761,195.509 167.003,204.265 168.918 M232.938 173.971 C 232.937 174.213,232.341 175.143,231.615 176.037 L 230.294 177.663 228.529 176.198 C 227.046 174.967,226.906 174.639,227.647 174.141 C 228.669 173.453,232.943 173.316,232.938 173.971 M251.176 175.200 L 251.176 176.870 245.505 177.567 C 237.281 178.578,237.084 177.606,245.000 175.084 C 250.985 173.177,251.176 173.181,251.176 175.200 M235.294 184.720 C 235.294 187.199,234.850 187.586,230.854 188.589 C 229.447 188.942,229.410 188.868,229.536 185.974 L 229.665 182.995 232.333 182.780 C 233.800 182.662,235.066 182.517,235.147 182.459 C 235.228 182.401,235.294 183.418,235.294 184.720 M228.815 185.735 C 228.801 188.963,228.176 189.642,225.653 189.169 C 221.121 188.318,222.988 184.513,228.382 183.604 C 228.625 183.563,228.819 184.522,228.815 185.735 M217.945 191.180 C 219.690 193.002,221.560 192.762,220.026 190.914 C 218.947 189.613,220.782 189.033,223.204 189.909 C 224.238 190.282,225.799 190.588,226.673 190.588 C 229.002 190.588,227.283 193.018,223.794 194.658 C 219.106 196.861,216.858 196.058,214.465 191.324 C 213.130 188.681,215.458 188.585,217.945 191.180 M211.176 197.597 C 211.176 200.305,221.026 205.196,224.983 204.454 C 227.113 204.054,232.353 199.807,232.353 198.479 C 232.353 197.242,231.850 197.455,230.231 199.379 C 227.687 202.403,224.998 203.707,222.179 203.284 C 219.227 202.841,213.827 199.890,212.941 198.235 C 212.298 197.033,211.176 196.628,211.176 197.597 M236.192 207.617 C 232.680 214.408,222.385 214.899,215.360 208.610 C 214.415 207.763,214.046 207.641,214.230 208.235 C 215.144 211.178,225.355 215.409,229.209 214.441 C 232.495 213.617,238.235 208.339,238.235 206.143 C 238.235 205.232,236.943 206.164,236.192 207.617 M136.765 260.293 C 140.664 261.220,142.353 262.722,142.353 265.261 C 142.353 267.650,141.907 267.742,138.605 266.033 C 133.224 263.248,125.061 264.361,120.070 268.561 C 118.084 270.232,117.357 269.717,117.943 267.052 C 119.129 261.650,128.429 258.311,136.765 260.293 M290.799 263.546 C 294.678 264.745,296.471 266.268,296.471 268.366 C 296.471 269.531,295.582 269.765,294.963 268.763 C 292.323 264.492,282.893 264.331,277.476 268.466 C 274.236 270.939,274.118 270.972,274.118 269.391 C 274.118 264.031,282.668 261.035,290.799 263.546 M132.097 266.618 C 130.892 270.675,130.277 278.824,131.176 278.824 C 131.500 278.824,131.776 277.301,131.790 275.441 C 131.830 269.997,133.096 265.560,134.565 265.719 C 136.466 265.924,141.603 269.187,143.593 271.454 C 145.298 273.395,146.057 273.736,151.765 275.130 C 153.687 275.599,153.824 275.787,153.824 277.963 C 153.824 280.901,151.422 282.341,146.471 282.371 C 143.794 282.387,143.398 282.515,144.181 283.110 C 144.864 283.630,145.203 285.150,145.401 288.576 C 145.648 292.833,145.959 293.854,148.426 298.492 C 151.654 304.559,151.935 306.800,149.582 307.694 C 145.775 309.142,140.837 304.212,139.821 297.949 C 139.619 296.706,139.160 295.402,138.799 295.051 C 138.319 294.582,138.252 295.001,138.549 296.618 C 139.070 299.453,137.825 299.609,135.616 296.985 C 134.765 295.974,133.913 295.303,133.721 295.495 C 133.226 295.990,137.359 300.000,138.364 300.000 C 139.631 300.000,143.059 307.090,142.259 308.055 C 140.814 309.795,136.181 308.409,132.005 304.988 C 128.759 302.328,128.047 302.369,130.620 305.068 C 132.796 307.351,132.027 307.512,128.235 305.567 C 115.051 298.806,110.865 279.022,120.636 269.660 C 122.834 267.555,123.023 267.843,122.011 271.747 C 121.057 275.421,120.924 281.049,121.760 282.353 C 122.148 282.960,122.303 281.949,122.256 279.118 C 122.151 272.828,123.602 267.691,125.817 266.505 C 126.847 265.955,126.893 266.275,126.726 272.815 C 126.565 279.179,126.587 279.346,127.014 275.000 C 127.690 268.132,128.165 266.465,129.614 265.880 C 131.856 264.976,132.526 265.175,132.097 266.618 M289.561 268.763 C 289.914 270.127,289.776 271.548,289.088 273.619 C 288.553 275.229,288.259 276.691,288.435 276.866 C 289.057 277.488,290.588 272.762,290.588 270.222 C 290.588 267.403,290.862 267.198,292.806 268.560 C 295.461 270.419,295.369 274.736,292.559 280.171 C 292.083 281.091,291.799 282.157,291.928 282.540 C 292.285 283.596,293.958 280.003,295.209 275.495 L 296.325 271.471 297.331 274.887 C 299.959 283.802,291.544 300.057,283.286 302.017 C 281.666 302.401,281.750 302.232,284.828 298.907 C 288.161 295.307,290.899 290.589,290.422 289.269 C 290.272 288.856,289.810 289.309,289.376 290.294 C 286.302 297.259,278.098 305.030,275.363 303.566 C 273.092 302.351,273.455 301.235,277.914 295.722 C 280.317 292.752,282.145 290.184,281.977 290.016 C 281.677 289.716,280.199 291.290,275.685 296.720 C 269.976 303.586,265.916 301.299,269.682 293.340 C 270.478 291.658,271.565 288.564,272.098 286.464 C 272.631 284.365,273.342 282.310,273.677 281.898 C 274.577 280.789,273.905 280.474,272.102 281.160 C 269.431 282.176,265.618 281.894,263.917 280.557 C 259.455 277.047,261.452 269.778,266.252 272.055 C 269.481 273.588,273.814 272.543,278.416 269.123 C 284.259 264.781,285.846 265.733,285.074 273.119 C 284.779 275.948,284.851 276.560,285.417 275.995 C 285.879 275.533,286.099 273.628,286.036 270.638 L 285.937 265.999 287.499 266.416 C 288.618 266.716,289.202 267.380,289.561 268.763 M264.582 337.053 C 267.117 337.708,271.209 340.751,270.504 341.457 C 270.296 341.664,268.608 341.393,266.752 340.853 C 264.574 340.220,262.048 339.957,259.627 340.111 L 255.876 340.350 258.059 338.115 C 259.301 336.843,260.633 335.992,261.150 336.140 C 261.650 336.283,263.194 336.694,264.582 337.053 M267.851 342.370 C 275.642 345.285,276.410 353.137,269.265 356.839 C 267.685 357.658,267.647 357.639,267.647 356.022 C 267.647 352.959,265.256 349.406,261.765 347.278 C 258.540 345.314,252.941 343.956,252.941 345.138 C 252.941 345.464,254.204 345.898,255.746 346.103 C 263.951 347.191,269.081 355.154,264.518 359.717 C 262.659 361.576,256.543 364.007,255.440 363.326 C 255.188 363.170,249.295 362.877,242.344 362.674 C 235.393 362.471,228.382 362.206,226.765 362.085 C 225.147 361.964,220.250 361.696,215.882 361.491 C 208.699 361.152,193.117 358.486,197.059 358.271 C 219.332 357.051,244.783 350.699,251.361 344.718 C 255.786 340.694,261.281 339.912,267.851 342.370 M127.245 356.562 C 129.600 357.808,133.780 361.363,137.941 365.659 C 140.922 368.736,142.709 370.090,144.412 370.562 C 155.978 373.767,166.697 371.481,178.924 363.202 C 184.082 359.710,184.670 359.600,183.535 362.339 C 181.328 367.667,177.970 369.236,161.471 372.648 C 152.008 374.605,149.992 375.273,143.178 378.713 C 131.378 384.670,121.314 386.447,118.021 383.155 C 112.800 377.934,120.937 367.223,129.935 367.473 C 132.421 367.542,133.497 367.379,133.111 366.994 C 130.731 364.614,122.984 366.970,119.087 371.259 C 115.982 374.677,115.613 375.378,115.303 378.462 C 114.803 383.427,109.330 382.675,103.619 376.856 C 96.086 369.181,105.648 360.519,120.118 361.909 C 123.958 362.278,123.720 361.357,119.853 360.883 C 116.439 360.464,109.766 361.355,106.690 362.640 C 104.169 363.694,104.124 362.818,106.583 360.572 C 108.704 358.635,112.715 357.087,115.840 357.000 C 116.996 356.968,118.603 356.730,119.412 356.471 C 121.653 355.753,125.806 355.801,127.245 356.562 " stroke="none" fill="#000000" fill-rule="evenodd"></path></g></svg>