<svg id="svg" xmlns="http://www.w3.org/2000/svg" xmlns:xlink="http://www.w3.org/1999/xlink" width="400" height="400" viewBox="0, 0, 400,400"><g id="svgg"><path id="path0" d="M222.455 13.112 C 221.837 13.857,221.601 14.849,220.579 21.002 C 220.299 22.686,219.788 24.592,219.442 25.238 C 219.096 25.884,218.028 30.330,217.068 35.118 C 216.108 39.906,214.797 45.310,214.155 47.127 C 211.183 55.530,208.487 78.393,209.412 87.356 C 209.700 90.144,209.809 92.756,209.654 93.159 C 209.499 93.562,209.782 95.597,210.283 97.681 C 210.827 99.945,211.344 105.860,211.567 112.375 L 211.941 123.279 210.354 124.319 L 208.767 125.358 209.984 122.973 C 211.840 119.334,210.382 120.023,205.290 125.190 L 200.756 129.792 200.353 110.043 C 200.131 99.181,199.849 89.368,199.726 88.235 C 199.603 87.103,199.217 81.676,198.868 76.176 C 198.221 65.992,197.549 62.540,193.602 49.118 C 191.290 41.256,187.497 31.442,184.343 25.159 C 182.925 22.334,181.765 19.471,181.765 18.797 C 181.765 16.766,180.648 15.294,179.108 15.294 C 177.317 15.294,177.218 15.733,176.793 25.588 C 176.612 29.794,176.058 35.353,175.563 37.941 C 173.847 46.904,173.581 50.964,173.555 68.553 C 173.536 81.808,173.734 87.026,174.350 89.435 C 174.801 91.202,175.485 94.632,175.869 97.059 C 177.001 104.199,180.570 118.162,182.482 122.932 C 184.781 128.668,185.158 129.965,186.130 135.487 L 186.940 140.092 185.001 144.310 C 182.817 149.063,181.982 154.391,181.530 166.471 C 181.378 170.515,180.936 174.712,180.547 175.798 C 179.996 177.340,179.997 177.870,180.552 178.213 C 181.097 178.550,181.047 179.172,180.338 180.869 C 179.700 182.394,179.412 184.958,179.412 189.097 C 179.412 197.609,175.299 203.155,164.750 208.867 C 162.401 210.139,157.079 213.823,150.882 218.468 C 148.618 220.166,145.441 222.511,143.824 223.680 C 139.153 227.056,130.935 235.828,128.536 239.997 C 127.327 242.099,125.368 245.011,124.183 246.468 C 120.393 251.127,119.074 254.711,117.077 265.783 C 116.567 268.609,116.571 269.706,117.093 270.336 C 117.630 270.982,117.510 271.744,116.549 273.787 C 112.129 283.192,113.322 292.256,119.947 299.598 C 121.871 301.731,121.975 302.069,122.022 306.363 C 122.055 309.323,122.513 312.201,123.351 314.706 C 124.055 316.809,125.191 320.364,125.876 322.607 C 127.367 327.490,130.508 333.274,133.624 336.874 C 134.876 338.320,136.333 340.341,136.863 341.366 C 138.529 344.587,142.215 349.028,145.252 351.471 C 146.860 352.765,148.190 353.996,148.206 354.207 C 148.249 354.770,136.120 355.344,127.647 355.180 C 114.123 354.918,103.529 358.279,103.529 362.832 C 103.529 363.292,102.748 364.558,101.794 365.645 C 96.231 371.981,104.548 384.171,113.448 382.726 C 115.204 382.442,115.836 382.652,117.230 383.986 C 120.940 387.537,131.138 385.927,143.137 379.897 C 149.809 376.544,153.640 375.293,162.647 373.526 C 178.769 370.364,183.459 367.820,185.081 361.356 C 185.269 360.610,185.489 360.000,185.572 360.000 C 185.654 360.000,187.117 359.735,188.823 359.412 C 190.810 359.035,192.687 359.024,194.050 359.381 C 205.154 362.290,219.027 363.436,251.475 364.124 C 259.061 364.285,263.203 363.224,265.681 360.485 C 266.264 359.841,267.577 358.965,268.600 358.538 C 275.415 355.690,277.452 349.066,272.943 344.414 C 271.854 343.290,271.133 342.201,271.340 341.993 C 272.698 340.635,266.973 335.882,263.980 335.882 C 261.423 335.882,261.222 335.285,262.930 332.750 C 266.854 326.927,273.083 312.574,274.372 306.388 C 274.622 305.189,275.132 304.764,276.613 304.518 C 285.575 303.035,286.999 302.375,291.325 297.703 C 296.952 291.624,300.276 281.137,298.519 275.000 C 297.963 273.059,297.541 270.599,297.580 269.533 C 297.661 267.295,296.345 264.421,295.002 263.906 C 294.494 263.711,293.302 261.821,292.353 259.705 C 289.817 254.054,286.107 247.999,281.773 242.435 C 279.665 239.730,277.421 236.818,276.785 235.964 C 273.715 231.843,264.181 220.192,263.239 219.412 C 262.653 218.928,261.128 217.075,259.850 215.295 C 258.572 213.515,256.242 210.868,254.672 209.412 L 251.818 206.765 252.483 197.471 C 253.114 188.642,253.089 188.054,251.973 185.706 C 250.430 182.458,251.289 178.585,253.585 178.440 C 256.137 178.280,256.201 178.155,254.118 177.403 C 251.253 176.369,251.014 172.841,253.775 172.359 C 254.719 172.194,255.597 171.741,255.726 171.353 C 255.900 170.829,255.471 170.788,254.049 171.196 C 252.997 171.498,252.119 171.683,252.098 171.608 C 252.076 171.532,251.711 170.851,251.285 170.093 C 250.613 168.897,250.651 168.602,251.579 167.847 C 252.567 167.044,252.521 167.006,250.972 167.339 C 249.732 167.605,248.814 167.333,247.442 166.292 C 246.423 165.518,244.829 164.490,243.900 164.007 C 242.278 163.163,242.203 162.936,241.987 158.182 C 241.716 152.228,240.318 147.395,238.440 145.917 C 237.680 145.320,237.059 144.647,237.059 144.423 C 237.059 143.059,230.579 134.962,228.009 133.117 C 226.354 131.928,224.900 130.883,224.777 130.794 C 224.436 130.548,225.681 125.756,228.191 117.647 C 233.523 100.428,234.502 88.241,232.657 62.059 C 230.286 28.423,226.164 8.644,222.455 13.112 " stroke="none" fill="#000000" fill-rule="evenodd"></path></g></svg>