<svg id="svg" xmlns="http://www.w3.org/2000/svg" xmlns:xlink="http://www.w3.org/1999/xlink" width="400" height="400" viewBox="0, 0, 400,400" version="1.1"><g id="svgg"><path id="path0" d="M163.380 93.953 C 152.830 94.687,144.463 96.388,134.277 99.868 C 118.522 105.252,101.658 116.741,90.757 129.517 C 80.681 141.326,73.851 153.798,69.433 168.457 C 68.362 172.012,67.964 173.692,66.911 179.102 C 64.461 191.689,64.634 205.846,67.404 219.500 C 68.429 224.549,70.280 230.975,71.800 234.757 C 72.168 235.675,72.658 236.909,72.887 237.500 C 75.973 245.452,81.627 255.157,87.693 262.911 C 94.266 271.315,105.283 281.190,113.944 286.441 C 119.795 289.989,127.460 293.803,132.221 295.538 C 136.834 297.218,144.081 299.386,146.464 299.800 C 147.066 299.905,148.643 300.212,149.968 300.483 C 160.798 302.702,174.858 302.888,186.230 300.964 C 189.443 300.420,193.957 299.498,195.605 299.047 C 219.333 292.566,237.053 280.758,252.553 261.101 C 256.813 255.698,263.333 244.385,265.490 238.655 C 265.754 237.953,266.192 236.894,266.463 236.302 C 267.843 233.286,270.805 223.155,271.766 218.164 C 272.261 215.596,272.165 215.705,274.054 215.561 C 294.543 213.994,294.517 183.839,274.025 181.740 C 272.591 181.594,272.266 181.406,272.266 180.727 C 272.266 176.251,266.521 158.563,262.763 151.465 C 262.593 151.143,261.932 149.887,261.295 148.674 C 258.555 143.459,253.479 135.833,250.226 132.046 C 245.519 126.566,241.214 122.166,237.503 119.040 C 236.484 118.182,235.509 117.340,235.335 117.168 C 234.003 115.849,226.795 110.818,222.754 108.386 C 219.859 106.643,213.147 103.226,210.840 102.319 C 210.303 102.108,209.512 101.776,209.082 101.583 C 202.793 98.748,192.091 95.906,183.301 94.736 C 177.338 93.942,168.523 93.595,163.380 93.953 M138.164 105.437 C 138.220 105.527,137.908 105.944,137.472 106.365 C 133.044 110.631,126.886 118.778,122.649 125.977 C 118.759 132.584,112.984 145.698,111.467 151.367 C 111.309 151.958,110.855 153.496,110.457 154.785 C 109.330 158.441,107.503 166.257,106.850 170.215 C 103.631 189.743,103.630 205.656,106.847 225.505 C 107.496 229.510,109.449 237.817,110.608 241.504 C 112.188 246.528,112.508 247.494,113.425 250.000 C 114.528 253.013,116.050 256.675,117.321 259.375 C 118.624 262.144,121.086 266.985,121.632 267.851 C 121.896 268.269,122.586 269.434,123.166 270.439 C 126.579 276.351,132.264 283.748,137.301 288.832 C 138.505 290.048,139.447 291.087,139.393 291.140 C 138.796 291.738,125.543 285.900,119.877 282.544 C 82.350 260.319,64.102 217.066,74.339 174.609 C 76.596 165.250,80.430 156.023,85.704 147.266 C 86.993 145.124,87.772 143.960,90.332 140.350 C 100.700 125.728,116.873 113.381,134.636 106.527 C 138.147 105.172,138.024 105.210,138.164 105.437 M171.204 180.484 C 175.944 181.343,179.889 186.621,178.213 189.862 C 177.021 192.168,173.257 191.298,173.245 188.714 C 173.224 184.112,165.242 183.581,164.269 188.118 C 163.642 191.044,164.853 192.475,171.073 196.156 C 177.532 199.977,179.992 204.108,178.807 209.137 C 176.454 219.114,159.082 218.086,158.444 207.932 C 158.182 203.764,163.088 203.721,163.844 207.885 C 164.589 211.988,171.867 212.771,173.343 208.906 C 174.650 205.484,173.127 202.892,168.095 199.971 C 160.645 195.647,158.526 193.020,158.840 188.498 C 159.239 182.758,164.596 179.286,171.204 180.484 M202.422 181.426 C 203.254 182.233,203.438 182.935,203.055 183.851 C 202.482 185.221,202.377 185.242,195.712 185.352 L 189.746 185.449 189.694 189.962 L 189.641 194.476 194.767 194.619 C 200.841 194.789,201.756 195.110,201.756 197.070 C 201.756 199.071,200.718 199.414,194.666 199.414 L 189.710 199.414 189.582 203.076 C 189.512 205.090,189.454 207.727,189.454 208.936 L 189.453 211.133 193.701 211.142 C 200.372 211.157,201.628 211.302,202.482 212.157 C 203.666 213.341,203.308 214.978,201.671 215.864 C 201.044 216.204,186.212 216.067,185.532 215.715 C 184.097 214.973,184.180 215.774,184.180 202.562 C 184.180 196.050,184.238 188.789,184.308 186.426 L 184.436 182.129 185.172 181.388 L 185.908 180.647 193.822 180.705 L 201.737 180.762 202.422 181.426 M220.518 181.238 C 224.322 182.422,227.317 185.823,227.923 189.648 C 228.220 191.519,227.973 206.557,227.619 208.154 C 226.366 213.820,222.393 216.215,214.262 216.207 C 209.255 216.202,208.531 216.043,207.892 214.810 C 207.394 213.847,207.598 182.680,208.109 181.901 C 208.973 180.583,217.028 180.152,220.518 181.238 M245.418 180.961 C 250.109 182.159,253.539 186.750,252.215 190.060 C 251.157 192.705,247.070 191.773,247.070 188.886 C 247.070 184.952,240.347 184.029,238.471 187.706 C 237.057 190.477,238.622 192.855,243.883 195.931 C 250.113 199.572,252.138 201.819,252.846 205.875 C 254.220 213.744,245.042 219.333,237.223 215.389 C 233.497 213.509,231.033 208.210,232.953 206.205 C 234.646 204.438,237.332 205.441,237.690 207.973 C 238.362 212.727,246.057 213.410,247.387 208.834 C 248.377 205.430,246.939 203.237,241.745 200.230 C 234.391 195.972,232.286 193.167,232.845 188.371 C 233.476 182.960,239.452 179.438,245.418 180.961 M297.754 181.163 C 297.324 181.315,296.953 181.441,296.929 181.442 C 296.324 181.483,296.273 182.653,296.330 195.367 L 296.387 208.105 296.906 209.399 C 300.310 217.884,311.832 218.042,315.753 209.657 C 316.219 208.661,316.417 182.719,315.965 181.841 C 315.434 180.810,313.308 180.744,312.323 181.729 L 311.816 182.235 311.719 195.188 L 311.621 208.140 310.896 209.231 C 308.366 213.042,303.421 212.635,301.339 208.444 L 300.879 207.520 300.781 194.805 C 300.700 184.223,300.637 182.035,300.407 181.757 C 299.795 181.021,298.790 180.795,297.754 181.163 M332.331 181.082 C 328.173 181.669,325.011 184.475,324.002 188.477 C 323.535 190.326,323.613 207.367,324.094 208.789 C 326.179 214.942,332.546 217.538,338.363 214.608 C 343.139 212.203,345.466 205.078,341.476 205.078 C 339.985 205.078,339.372 205.593,339.157 207.027 C 338.315 212.627,331.239 213.592,328.687 208.455 L 328.223 207.520 328.223 198.438 C 328.223 189.573,328.233 189.334,328.640 188.453 C 331.103 183.127,337.795 184.038,339.153 189.883 C 339.840 192.837,343.555 192.540,343.555 189.531 C 343.555 184.757,337.673 180.329,332.331 181.082 M350.271 181.441 C 350.044 181.533,349.671 181.847,349.441 182.139 L 349.023 182.670 349.023 198.547 L 349.023 214.423 349.523 215.017 C 350.121 215.728,351.097 215.963,352.144 215.649 C 353.458 215.256,353.408 215.563,353.516 207.148 L 353.613 199.512 359.375 199.414 C 366.121 199.300,366.579 199.178,366.595 197.497 C 366.613 195.629,366.182 195.508,359.521 195.508 C 355.475 195.508,353.921 195.445,353.750 195.273 C 353.417 194.940,353.417 185.724,353.750 185.391 C 353.923 185.218,355.645 185.156,360.284 185.156 C 367.773 185.156,367.978 185.104,368.004 183.185 C 368.016 182.335,367.772 181.946,366.967 181.530 C 366.350 181.211,351.043 181.129,350.271 181.441 M266.681 186.035 C 267.731 194.358,267.594 203.743,266.291 212.749 C 266.114 213.974,265.992 214.015,264.788 213.261 C 253.908 206.441,253.877 191.283,264.728 184.148 C 266.407 183.044,266.290 182.931,266.681 186.035 M213.084 197.688 C 213.083 204.384,213.026 210.201,212.958 210.613 L 212.834 211.363 215.938 211.294 C 219.984 211.204,220.998 210.712,222.109 208.301 C 222.799 206.803,222.817 189.644,222.131 188.360 C 220.996 186.239,219.745 185.666,216.064 185.581 L 213.086 185.512 213.084 197.688 " stroke="none" fill="#000000" fill-rule="evenodd"></path></g></svg>