  0
SECTION
  2
HEADER
  9
$ACADVER
  1
AC1009
  9
$EXTMIN
 10
0.0
 20
0.0
 30
0.0
  9
$EXTMAX
 10
1000.0
 20
1000.0
 30
0.0
  9
$FILLMODE
 70
 0
  9
$SPLFRAME
 70
 1
  0
ENDSEC
  0
SECTION
  2
TABLES
  0
TABLE
  2
LAYER
 70
1
  0
LAYER
  2
0
 70
     0
 62
     7
  6
CONTINUOUS
  0
ENDTAB
  0
ENDSEC
  0
SECTION
  2
ENTITIES
  0
POLYLINE
  8
0
 62
     0
 66
     1
 10
0
 20
0
 30
0.0
 70
     1
 40
0
 41
0
  0
VERTEX
  8
0
 10
0.335938
 20
0.632921
 30
0.0
 40
0
 41
0
  0
VERTEX
  8
0
 10
0.331272
 20
0.632542
 30
0.0
 40
0
 41
0
  0
VERTEX
  8
0
 10
0.317383
 20
0.63086
 30
0.0
 40
0
 41
0
  0
VERTEX
  8
0
 10
0.308268
 20
0.627333
 30
0.0
 40
0
 41
0
  0
VERTEX
  8
0
 10
0.306044
 20
0.619846
 30
0.0
 40
0
 41
0
  0
VERTEX
  8
0
 10
0.307454
 20
0.609429
 30
0.0
 40
0
 41
0
  0
VERTEX
  8
0
 10
0.308106
 20
0.605957
 30
0.0
 40
0
 41
0
  0
VERTEX
  8
0
 10
0.308485
 20
0.60395
 30
0.0
 40
0
 41
0
  0
VERTEX
  8
0
 10
0.308757
 20
0.597657
 30
0.0
 40
0
 41
0
  0
VERTEX
  8
0
 10
0.306967
 20
0.587944
 30
0.0
 40
0
 41
0
  0
VERTEX
  8
0
 10
0.301594
 20
0.575142
 30
0.0
 40
0
 41
0
  0
VERTEX
  8
0
 10
0.291558
 20
0.557292
 30
0.0
 40
0
 41
0
  0
VERTEX
  8
0
 10
0.275663
 20
0.532715
 30
0.0
 40
0
 41
0
  0
VERTEX
  8
0
 10
0.252929
 20
0.499511
 30
0.0
 40
0
 41
0
  0
VERTEX
  8
0
 10
0.222114
 20
0.455838
 30
0.0
 40
0
 41
0
  0
VERTEX
  8
0
 10
0.192165
 20
0.4139
 30
0.0
 40
0
 41
0
  0
VERTEX
  8
0
 10
0.182183
 20
0.399957
 30
0.0
 40
0
 41
0
  0
VERTEX
  8
0
 10
0.0517036
 20
0.21799
 30
0.0
 40
0
 41
0
  0
VERTEX
  8
0
 10
0.0984158
 20
0.215712
 30
0.0
 40
0
 41
0
  0
VERTEX
  8
0
 10
0.104655
 20
0.21544
 30
0.0
 40
0
 41
0
  0
VERTEX
  8
0
 10
0.123589
 20
0.215061
 30
0.0
 40
0
 41
0
  0
VERTEX
  8
0
 10
0.139214
 20
0.216635
 30
0.0
 40
0
 41
0
  0
VERTEX
  8
0
 10
0.148872
 20
0.221408
 30
0.0
 40
0
 41
0
  0
VERTEX
  8
0
 10
0.154676
 20
0.227919
 30
0.0
 40
0
 41
0
  0
VERTEX
  8
0
 10
0.15625
 20
0.230306
 30
0.0
 40
0
 41
0
  0
VERTEX
  8
0
 10
0.159451
 20
0.235189
 30
0.0
 40
0
 41
0
  0
VERTEX
  8
0
 10
0.169271
 20
0.249783
 30
0.0
 40
0
 41
0
  0
VERTEX
  8
0
 10
0.180067
 20
0.264324
 30
0.0
 40
0
 41
0
  0
VERTEX
  8
0
 10
0.190375
 20
0.27474
 30
0.0
 40
0
 41
0
  0
VERTEX
  8
0
 10
0.201768
 20
0.281629
 30
0.0
 40
0
 41
0
  0
VERTEX
  8
0
 10
0.215821
 20
0.285807
 30
0.0
 40
0
 41
0
  0
VERTEX
  8
0
 10
0.234213
 20
0.287869
 30
0.0
 40
0
 41
0
  0
VERTEX
  8
0
 10
0.258518
 20
0.288629
 30
0.0
 40
0
 41
0
  0
VERTEX
  8
0
 10
0.282443
 20
0.288683
 30
0.0
 40
0
 41
0
  0
VERTEX
  8
0
 10
0.290419
 20
0.288683
 30
0.0
 40
0
 41
0
  0
VERTEX
  8
0
 10
0.378581
 20
0.288683
 30
0.0
 40
0
 41
0
  0
VERTEX
  8
0
 10
0.388564
 20
0.253364
 30
0.0
 40
0
 41
0
  0
VERTEX
  8
0
 10
0.398546
 20
0.21799
 30
0.0
 40
0
 41
0
  0
VERTEX
  8
0
 10
0.515517
 20
0.215983
 30
0.0
 40
0
 41
0
  0
VERTEX
  8
0
 10
0.531412
 20
0.215712
 30
0.0
 40
0
 41
0
  0
VERTEX
  8
0
 10
0.57921
 20
0.215224
 30
0.0
 40
0
 41
0
  0
VERTEX
  8
0
 10
0.614367
 20
0.216308
 30
0.0
 40
0
 41
0
  0
VERTEX
  8
0
 10
0.629286
 20
0.219997
 30
0.0
 40
0
 41
0
  0
VERTEX
  8
0
 10
0.632433
 20
0.225369
 30
0.0
 40
0
 41
0
  0
VERTEX
  8
0
 10
0.632433
 20
0.227106
 30
0.0
 40
0
 41
0
  0
VERTEX
  8
0
 10
0.632433
 20
0.233018
 30
0.0
 40
0
 41
0
  0
VERTEX
  8
0
 10
0.628797
 20
0.250814
 30
0.0
 40
0
 41
0
  0
VERTEX
  8
0
 10
0.619249
 20
0.298557
 30
0.0
 40
0
 41
0
  0
VERTEX
  8
0
 10
0.605578
 20
0.362196
 30
0.0
 40
0
 41
0
  0
VERTEX
  8
0
 10
0.589681
 20
0.433376
 30
0.0
 40
0
 41
0
  0
VERTEX
  8
0
 10
0.573406
 20
0.503961
 30
0.0
 40
0
 41
0
  0
VERTEX
  8
0
 10
0.558649
 20
0.565593
 30
0.0
 40
0
 41
0
  0
VERTEX
  8
0
 10
0.54731
 20
0.610026
 30
0.0
 40
0
 41
0
  0
VERTEX
  8
0
 10
0.543132
 20
0.626682
 30
0.0
 40
0
 41
0
  0
VERTEX
  8
0
 10
0.541233
 20
0.629069
 30
0.0
 40
0
 41
0
  0
VERTEX
  8
0
 10
0.539442
 20
0.631347
 30
0.0
 40
0
 41
0
  0
VERTEX
  8
0
 10
0.51774
 20
0.634549
 30
0.0
 40
0
 41
0
  0
VERTEX
  8
0
 10
0.466906
 20
0.637207
 30
0.0
 40
0
 41
0
  0
VERTEX
  8
0
 10
0.40191
 20
0.636719
 30
0.0
 40
0
 41
0
  0
VERTEX
  8
0
 10
0.352376
 20
0.634386
 30
0.0
 40
0
 41
0
  0
VERTEX
  8
0
 10
0.335938
 20
0.632921
 30
0.0
 40
0
 41
0
  0
SEQEND
 8
0
  0
POLYLINE
  8
0
 62
     0
 66
     1
 10
0
 20
0
 30
0.0
 70
     1
 40
0
 41
0
  0
VERTEX
  8
0
 10
0.744032
 20
0.633301
 30
0.0
 40
0
 41
0
  0
VERTEX
  8
0
 10
0.744032
 20
0.631239
 30
0.0
 40
0
 41
0
  0
VERTEX
  8
0
 10
0.748535
 20
0.624892
 30
0.0
 40
0
 41
0
  0
VERTEX
  8
0
 10
0.757324
 20
0.61404
 30
0.0
 40
0
 41
0
  0
VERTEX
  8
0
 10
0.759494
 20
0.611763
 30
0.0
 40
0
 41
0
  0
VERTEX
  8
0
 10
0.774903
 20
0.595378
 30
0.0
 40
0
 41
0
  0
VERTEX
  8
0
 10
0.725965
 20
0.412651
 30
0.0
 40
0
 41
0
  0
VERTEX
  8
0
 10
0.721192
 20
0.394803
 30
0.0
 40
0
 41
0
  0
VERTEX
  8
0
 10
0.706976
 20
0.341146
 30
0.0
 40
0
 41
0
  0
VERTEX
  8
0
 10
0.691407
 20
0.281358
 30
0.0
 40
0
 41
0
  0
VERTEX
  8
0
 10
0.680935
 20
0.239583
 30
0.0
 40
0
 41
0
  0
VERTEX
  8
0
 10
0.677083
 20
0.226508
 30
0.0
 40
0
 41
0
  0
VERTEX
  8
0
 10
0.677083
 20
0.222114
 30
0.0
 40
0
 41
0
  0
VERTEX
  8
0
 10
0.677083
 20
0.221354
 30
0.0
 40
0
 41
0
  0
VERTEX
  8
0
 10
0.68495
 20
0.218967
 30
0.0
 40
0
 41
0
  0
VERTEX
  8
0
 10
0.705783
 20
0.216581
 30
0.0
 40
0
 41
0
  0
VERTEX
  8
0
 10
0.735297
 20
0.215007
 30
0.0
 40
0
 41
0
  0
VERTEX
  8
0
 10
0.769368
 20
0.214247
 30
0.0
 40
0
 41
0
  0
VERTEX
  8
0
 10
0.803657
 20
0.214356
 30
0.0
 40
0
 41
0
  0
VERTEX
  8
0
 10
0.834039
 20
0.21544
 30
0.0
 40
0
 41
0
  0
VERTEX
  8
0
 10
0.856174
 20
0.217393
 30
0.0
 40
0
 41
0
  0
VERTEX
  8
0
 10
0.864963
 20
0.21875
 30
0.0
 40
0
 41
0
  0
VERTEX
  8
0
 10
0.865994
 20
0.220378
 30
0.0
 40
0
 41
0
  0
VERTEX
  8
0
 10
0.868272
 20
0.224121
 30
0.0
 40
0
 41
0
  0
VERTEX
  8
0
 10
0.873264
 20
0.242133
 30
0.0
 40
0
 41
0
  0
VERTEX
  8
0
 10
0.886774
 20
0.290093
 30
0.0
 40
0
 41
0
  0
VERTEX
  8
0
 10
0.904189
 20
0.355414
 30
0.0
 40
0
 41
0
  0
VERTEX
  8
0
 10
0.923232
 20
0.429199
 30
0.0
 40
0
 41
0
  0
VERTEX
  8
0
 10
0.941678
 20
0.502604
 30
0.0
 40
0
 41
0
  0
VERTEX
  8
0
 10
0.957249
 20
0.566678
 30
0.0
 40
0
 41
0
  0
VERTEX
  8
0
 10
0.967665
 20
0.612576
 30
0.0
 40
0
 41
0
  0
VERTEX
  8
0
 10
0.971625
 20
0.629883
 30
0.0
 40
0
 41
0
  0
VERTEX
  8
0
 10
0.970703
 20
0.631401
 30
0.0
 40
0
 41
0
  0
VERTEX
  8
0
 10
0.969456
 20
0.63341
 30
0.0
 40
0
 41
0
  0
VERTEX
  8
0
 10
0.933214
 20
0.636176
 30
0.0
 40
0
 41
0
  0
VERTEX
  8
0
 10
0.855524
 20
0.638292
 30
0.0
 40
0
 41
0
  0
VERTEX
  8
0
 10
0.778754
 20
0.637478
 30
0.0
 40
0
 41
0
  0
VERTEX
  8
0
 10
0.744032
 20
0.634386
 30
0.0
 40
0
 41
0
  0
VERTEX
  8
0
 10
0.744032
 20
0.633301
 30
0.0
 40
0
 41
0
  0
SEQEND
 8
0
  0
POLYLINE
  8
0
 62
     0
 66
     1
 10
0
 20
0
 30
0.0
 70
     1
 40
0
 41
0
  0
VERTEX
  8
0
 10
1.24148
 20
0.632975
 30
0.0
 40
0
 41
0
  0
VERTEX
  8
0
 10
1.20687
 20
0.630208
 30
0.0
 40
0
 41
0
  0
VERTEX
  8
0
 10
1.21034
 20
0.602701
 30
0.0
 40
0
 41
0
  0
VERTEX
  8
0
 10
1.21061
 20
0.600424
 30
0.0
 40
0
 41
0
  0
VERTEX
  8
0
 10
1.21083
 20
0.593317
 30
0.0
 40
0
 41
0
  0
VERTEX
  8
0
 10
1.20909
 20
0.583225
 30
0.0
 40
0
 41
0
  0
VERTEX
  8
0
 10
1.20405
 20
0.570529
 30
0.0
 40
0
 41
0
  0
VERTEX
  8
0
 10
1.19439
 20
0.553168
 30
0.0
 40
0
 41
0
  0
VERTEX
  8
0
 10
1.17904
 20
0.529297
 30
0.0
 40
0
 41
0
  0
VERTEX
  8
0
 10
1.15679
 20
0.497017
 30
0.0
 40
0
 41
0
  0
VERTEX
  8
0
 10
1.12641
 20
0.454264
 30
0.0
 40
0
 41
0
  0
VERTEX
  8
0
 10
1.09668
 20
0.412924
 30
0.0
 40
0
 41
0
  0
VERTEX
  8
0
 10
1.08681
 20
0.399143
 30
0.0
 40
0
 41
0
  0
VERTEX
  8
0
 10
1.07476
 20
0.382542
 30
0.0
 40
0
 41
0
  0
VERTEX
  8
0
 10
1.03863
 20
0.332628
 30
0.0
 40
0
 41
0
  0
VERTEX
  8
0
 10
1.00385
 20
0.284179
 30
0.0
 40
0
 41
0
  0
VERTEX
  8
0
 10
0.981174
 20
0.250976
 30
0.0
 40
0
 41
0
  0
VERTEX
  8
0
 10
0.969239
 20
0.230197
 30
0.0
 40
0
 41
0
  0
VERTEX
  8
0
 10
0.966906
 20
0.219021
 30
0.0
 40
0
 41
0
  0
VERTEX
  8
0
 10
0.972765
 20
0.214518
 30
0.0
 40
0
 41
0
  0
VERTEX
  8
0
 10
0.985678
 20
0.213921
 30
0.0
 40
0
 41
0
  0
VERTEX
  8
0
 10
0.999675
 20
0.214301
 30
0.0
 40
0
 41
0
  0
VERTEX
  8
0
 10
1.00434
 20
0.214301
 30
0.0
 40
0
 41
0
  0
VERTEX
  8
0
 10
1.04883
 20
0.214301
 30
0.0
 40
0
 41
0
  0
VERTEX
  8
0
 10
1.07677
 20
0.251682
 30
0.0
 40
0
 41
0
  0
VERTEX
  8
0
 10
1.10471
 20
0.289117
 30
0.0
 40
0
 41
0
  0
VERTEX
  8
0
 10
1.28299
 20
0.284993
 30
0.0
 40
0
 41
0
  0
VERTEX
  8
0
 10
1.29297
 20
0.249621
 30
0.0
 40
0
 41
0
  0
VERTEX
  8
0
 10
1.30295
 20
0.214301
 30
0.0
 40
0
 41
0
  0
VERTEX
  8
0
 10
1.42156
 20
0.214301
 30
0.0
 40
0
 41
0
  0
VERTEX
  8
0
 10
1.43306
 20
0.214301
 30
0.0
 40
0
 41
0
  0
VERTEX
  8
0
 10
1.46761
 20
0.214789
 30
0.0
 40
0
 41
0
  0
VERTEX
  8
0
 10
1.50532
 20
0.216146
 30
0.0
 40
0
 41
0
  0
VERTEX
  8
0
 10
1.53082
 20
0.218099
 30
0.0
 40
0
 41
0
  0
VERTEX
  8
0
 10
1.54021
 20
0.219889
 30
0.0
 40
0
 41
0
  0
VERTEX
  8
0
 10
1.54021
 20
0.220432
 30
0.0
 40
0
 41
0
  0
VERTEX
  8
0
 10
1.54021
 20
0.22564
 30
0.0
 40
0
 41
0
  0
VERTEX
  8
0
 10
1.53635
 20
0.241265
 30
0.0
 40
0
 41
0
  0
VERTEX
  8
0
 10
1.52621
 20
0.288738
 30
0.0
 40
0
 41
0
  0
VERTEX
  8
0
 10
1.51178
 20
0.353896
 30
0.0
 40
0
 41
0
  0
VERTEX
  8
0
 10
1.49517
 20
0.427735
 30
0.0
 40
0
 41
0
  0
VERTEX
  8
0
 10
1.47831
 20
0.501411
 30
0.0
 40
0
 41
0
  0
VERTEX
  8
0
 10
1.46326
 20
0.565864
 30
0.0
 40
0
 41
0
  0
VERTEX
  8
0
 10
1.45215
 20
0.612142
 30
0.0
 40
0
 41
0
  0
VERTEX
  8
0
 10
1.44797
 20
0.629557
 30
0.0
 40
0
 41
0
  0
VERTEX
  8
0
 10
1.44694
 20
0.631293
 30
0.0
 40
0
 41
0
  0
VERTEX
  8
0
 10
1.4459
 20
0.632975
 30
0.0
 40
0
 41
0
  0
VERTEX
  8
0
 10
1.42372
 20
0.635254
 30
0.0
 40
0
 41
0
  0
VERTEX
  8
0
 10
1.37109
 20
0.636936
 30
0.0
 40
0
 41
0
  0
VERTEX
  8
0
 10
1.30496
 20
0.636231
 30
0.0
 40
0
 41
0
  0
VERTEX
  8
0
 10
1.25727
 20
0.634224
 30
0.0
 40
0
 41
0
  0
VERTEX
  8
0
 10
1.24148
 20
0.632975
 30
0.0
 40
0
 41
0
  0
SEQEND
 8
0
  0
POLYLINE
  8
0
 62
     0
 66
     1
 10
0
 20
0
 30
0.0
 70
     1
 40
0
 41
0
  0
VERTEX
  8
0
 10
1.83399
 20
0.630751
 30
0.0
 40
0
 41
0
  0
VERTEX
  8
0
 10
1.83333
 20
0.629719
 30
0.0
 40
0
 41
0
  0
VERTEX
  8
0
 10
1.83197
 20
0.619194
 30
0.0
 40
0
 41
0
  0
VERTEX
  8
0
 10
1.83322
 20
0.605035
 30
0.0
 40
0
 41
0
  0
VERTEX
  8
0
 10
1.83388
 20
0.602106
 30
0.0
 40
0
 41
0
  0
VERTEX
  8
0
 10
1.83425
 20
0.600369
 30
0.0
 40
0
 41
0
  0
VERTEX
  8
0
 10
1.83431
 20
0.594726
 30
0.0
 40
0
 41
0
  0
VERTEX
  8
0
 10
1.83219
 20
0.58534
 30
0.0
 40
0
 41
0
  0
VERTEX
  8
0
 10
1.8265
 20
0.572537
 30
0.0
 40
0
 41
0
  0
VERTEX
  8
0
 10
1.8164
 20
0.554904
 30
0.0
 40
0
 41
0
  0
VERTEX
  8
0
 10
1.80106
 20
0.531033
 30
0.0
 40
0
 41
0
  0
VERTEX
  8
0
 10
1.77951
 20
0.499403
 30
0.0
 40
0
 41
0
  0
VERTEX
  8
0
 10
1.75097
 20
0.458658
 30
0.0
 40
0
 41
0
  0
VERTEX
  8
0
 10
1.72364
 20
0.420139
 30
0.0
 40
0
 41
0
  0
VERTEX
  8
0
 10
1.71451
 20
0.407281
 30
0.0
 40
0
 41
0
  0
VERTEX
  8
0
 10
1.70226
 20
0.390082
 30
0.0
 40
0
 41
0
  0
VERTEX
  8
0
 10
1.66536
 20
0.338542
 30
0.0
 40
0
 41
0
  0
VERTEX
  8
0
 10
1.62983
 20
0.288303
 30
0.0
 40
0
 41
0
  0
VERTEX
  8
0
 10
1.60644
 20
0.253743
 30
0.0
 40
0
 41
0
  0
VERTEX
  8
0
 10
1.59403
 20
0.231879
 30
0.0
 40
0
 41
0
  0
VERTEX
  8
0
 10
1.59131
 20
0.219889
 30
0.0
 40
0
 41
0
  0
VERTEX
  8
0
 10
1.5969
 20
0.214899
 30
0.0
 40
0
 41
0
  0
VERTEX
  8
0
 10
1.60954
 20
0.213976
 30
0.0
 40
0
 41
0
  0
VERTEX
  8
0
 10
1.62338
 20
0.214301
 30
0.0
 40
0
 41
0
  0
VERTEX
  8
0
 10
1.62804
 20
0.214301
 30
0.0
 40
0
 41
0
  0
VERTEX
  8
0
 10
1.67285
 20
0.214301
 30
0.0
 40
0
 41
0
  0
VERTEX
  8
0
 10
1.70014
 20
0.251465
 30
0.0
 40
0
 41
0
  0
VERTEX
  8
0
 10
1.72749
 20
0.288683
 30
0.0
 40
0
 41
0
  0
VERTEX
  8
0
 10
1.90429
 20
0.288683
 30
0.0
 40
0
 41
0
  0
VERTEX
  8
0
 10
1.91461
 20
0.253364
 30
0.0
 40
0
 41
0
  0
VERTEX
  8
0
 10
1.92492
 20
0.21799
 30
0.0
 40
0
 41
0
  0
VERTEX
  8
0
 10
2.0459
 20
0.215983
 30
0.0
 40
0
 41
0
  0
VERTEX
  8
0
 10
2.16689
 20
0.213921
 30
0.0
 40
0
 41
0
  0
VERTEX
  8
0
 10
2.16265
 20
0.230849
 30
0.0
 40
0
 41
0
  0
VERTEX
  8
0
 10
2.16206
 20
0.233182
 30
0.0
 40
0
 41
0
  0
VERTEX
  8
0
 10
2.15771
 20
0.252387
 30
0.0
 40
0
 41
0
  0
VERTEX
  8
0
 10
2.14735
 20
0.298503
 30
0.0
 40
0
 41
0
  0
VERTEX
  8
0
 10
2.13308
 20
0.362468
 30
0.0
 40
0
 41
0
  0
VERTEX
  8
0
 10
2.12061
 20
0.418728
 30
0.0
 40
0
 41
0
  0
VERTEX
  8
0
 10
2.11649
 20
0.437446
 30
0.0
 40
0
 41
0
  0
VERTEX
  8
0
 10
2.11236
 20
0.456
 30
0.0
 40
0
 41
0
  0
VERTEX
  8
0
 10
2.09987
 20
0.511556
 30
0.0
 40
0
 41
0
  0
VERTEX
  8
0
 10
2.08583
 20
0.573079
 30
0.0
 40
0
 41
0
  0
VERTEX
  8
0
 10
2.07568
 20
0.615614
 30
0.0
 40
0
 41
0
  0
VERTEX
  8
0
 10
2.0715
 20
0.631999
 30
0.0
 40
0
 41
0
  0
VERTEX
  8
0
 10
2.07107
 20
0.632758
 30
0.0
 40
0
 41
0
  0
VERTEX
  8
0
 10
2.06972
 20
0.634983
 30
0.0
 40
0
 41
0
  0
VERTEX
  8
0
 10
2.0325
 20
0.637424
 30
0.0
 40
0
 41
0
  0
VERTEX
  8
0
 10
1.95253
 20
0.6384
 30
0.0
 40
0
 41
0
  0
VERTEX
  8
0
 10
1.87256
 20
0.636068
 30
0.0
 40
0
 41
0
  0
VERTEX
  8
0
 10
1.83535
 20
0.632975
 30
0.0
 40
0
 41
0
  0
VERTEX
  8
0
 10
1.83399
 20
0.630751
 30
0.0
 40
0
 41
0
  0
SEQEND
 8
0
  0
POLYLINE
  8
0
 62
     0
 66
     1
 10
0
 20
0
 30
0.0
 70
     1
 40
0
 41
0
  0
VERTEX
  8
0
 10
3.19706
 20
0.627821
 30
0.0
 40
0
 41
0
  0
VERTEX
  8
0
 10
3.19189
 20
0.625976
 30
0.0
 40
0
 41
0
  0
VERTEX
  8
0
 10
3.17676
 20
0.619738
 30
0.0
 40
0
 41
0
  0
VERTEX
  8
0
 10
3.16049
 20
0.610514
 30
0.0
 40
0
 41
0
  0
VERTEX
  8
0
 10
3.14703
 20
0.598036
 30
0.0
 40
0
 41
0
  0
VERTEX
  8
0
 10
3.13536
 20
0.580296
 30
0.0
 40
0
 41
0
  0
VERTEX
  8
0
 10
3.1244
 20
0.555122
 30
0.0
 40
0
 41
0
  0
VERTEX
  8
0
 10
3.11296
 20
0.5204
 30
0.0
 40
0
 41
0
  0
VERTEX
  8
0
 10
3.09993
 20
0.474067
 30
0.0
 40
0
 41
0
  0
VERTEX
  8
0
 10
3.08817
 20
0.429036
 30
0.0
 40
0
 41
0
  0
VERTEX
  8
0
 10
3.08431
 20
0.414008
 30
0.0
 40
0
 41
0
  0
VERTEX
  8
0
 10
3.07992
 20
0.397081
 30
0.0
 40
0
 41
0
  0
VERTEX
  8
0
 10
3.06694
 20
0.346083
 30
0.0
 40
0
 41
0
  0
VERTEX
  8
0
 10
3.05643
 20
0.295628
 30
0.0
 40
0
 41
0
  0
VERTEX
  8
0
 10
3.05518
 20
0.259983
 30
0.0
 40
0
 41
0
  0
VERTEX
  8
0
 10
3.06565
 20
0.236654
 30
0.0
 40
0
 41
0
  0
VERTEX
  8
0
 10
3.09033
 20
0.222982
 30
0.0
 40
0
 41
0
  0
VERTEX
  8
0
 10
3.13167
 20
0.216471
 30
0.0
 40
0
 41
0
  0
VERTEX
  8
0
 10
3.19211
 20
0.21441
 30
0.0
 40
0
 41
0
  0
VERTEX
  8
0
 10
3.25364
 20
0.214301
 30
0.0
 40
0
 41
0
  0
VERTEX
  8
0
 10
3.27419
 20
0.214301
 30
0.0
 40
0
 41
0
  0
VERTEX
  8
0
 10
3.29383
 20
0.214301
 30
0.0
 40
0
 41
0
  0
VERTEX
  8
0
 10
3.35286
 20
0.215115
 30
0.0
 40
0
 41
0
  0
VERTEX
  8
0
 10
3.41379
 20
0.218588
 30
0.0
 40
0
 41
0
  0
VERTEX
  8
0
 10
3.45969
 20
0.226238
 30
0.0
 40
0
 41
0
  0
VERTEX
  8
0
 10
3.49311
 20
0.239746
 30
0.0
 40
0
 41
0
  0
VERTEX
  8
0
 10
3.51671
 20
0.260688
 30
0.0
 40
0
 41
0
  0
VERTEX
  8
0
 10
3.53304
 20
0.290528
 30
0.0
 40
0
 41
0
  0
VERTEX
  8
0
 10
3.54482
 20
0.331
 30
0.0
 40
0
 41
0
  0
VERTEX
  8
0
 10
3.5524
 20
0.370389
 30
0.0
 40
0
 41
0
  0
VERTEX
  8
0
 10
3.55458
 20
0.383572
 30
0.0
 40
0
 41
0
  0
VERTEX
  8
0
 10
3.55849
 20
0.407715
 30
0.0
 40
0
 41
0
  0
VERTEX
  8
0
 10
3.46912
 20
0.407715
 30
0.0
 40
0
 41
0
  0
VERTEX
  8
0
 10
3.4605
 20
0.407715
 30
0.0
 40
0
 41
0
  0
VERTEX
  8
0
 10
3.43474
 20
0.407769
 30
0.0
 40
0
 41
0
  0
VERTEX
  8
0
 10
3.40913
 20
0.40701
 30
0.0
 40
0
 41
0
  0
VERTEX
  8
0
 10
3.39057
 20
0.404351
 30
0.0
 40
0
 41
0
  0
VERTEX
  8
0
 10
3.37756
 20
0.398654
 30
0.0
 40
0
 41
0
  0
VERTEX
  8
0
 10
3.36833
 20
0.388781
 30
0.0
 40
0
 41
0
  0
VERTEX
  8
0
 10
3.36128
 20
0.373481
 30
0.0
 40
0
 41
0
  0
VERTEX
  8
0
 10
3.35471
 20
0.351671
 30
0.0
 40
0
 41
0
  0
VERTEX
  8
0
 10
3.34896
 20
0.329536
 30
0.0
 40
0
 41
0
  0
VERTEX
  8
0
 10
3.34706
 20
0.322157
 30
0.0
 40
0
 41
0
  0
VERTEX
  8
0
 10
3.32958
 20
0.255208
 30
0.0
 40
0
 41
0
  0
VERTEX
  8
0
 10
3.2831
 20
0.252983
 30
0.0
 40
0
 41
0
  0
VERTEX
  8
0
 10
3.27843
 20
0.252767
 30
0.0
 40
0
 41
0
  0
VERTEX
  8
0
 10
3.2646
 20
0.251736
 30
0.0
 40
0
 41
0
  0
VERTEX
  8
0
 10
3.25136
 20
0.251682
 30
0.0
 40
0
 41
0
  0
VERTEX
  8
0
 10
3.24337
 20
0.255533
 30
0.0
 40
0
 41
0
  0
VERTEX
  8
0
 10
3.24056
 20
0.266168
 30
0.0
 40
0
 41
0
  0
VERTEX
  8
0
 10
3.24294
 20
0.286187
 30
0.0
 40
0
 41
0
  0
VERTEX
  8
0
 10
3.25043
 20
0.31836
 30
0.0
 40
0
 41
0
  0
VERTEX
  8
0
 10
3.26297
 20
0.365397
 30
0.0
 40
0
 41
0
  0
VERTEX
  8
0
 10
3.27621
 20
0.4139
 30
0.0
 40
0
 41
0
  0
VERTEX
  8
0
 10
3.2806
 20
0.430067
 30
0.0
 40
0
 41
0
  0
VERTEX
  8
0
 10
3.32383
 20
0.590007
 30
0.0
 40
0
 41
0
  0
VERTEX
  8
0
 10
3.36951
 20
0.592231
 30
0.0
 40
0
 41
0
  0
VERTEX
  8
0
 10
3.37717
 20
0.592611
 30
0.0
 40
0
 41
0
  0
VERTEX
  8
0
 10
3.40022
 20
0.592285
 30
0.0
 40
0
 41
0
  0
VERTEX
  8
0
 10
3.4139
 20
0.584636
 30
0.0
 40
0
 41
0
  0
VERTEX
  8
0
 10
3.41303
 20
0.563531
 30
0.0
 40
0
 41
0
  0
VERTEX
  8
0
 10
3.40369
 20
0.533094
 30
0.0
 40
0
 41
0
  0
VERTEX
  8
0
 10
3.40028
 20
0.523058
 30
0.0
 40
0
 41
0
  0
VERTEX
  8
0
 10
3.39822
 20
0.517144
 30
0.0
 40
0
 41
0
  0
VERTEX
  8
0
 10
3.38976
 20
0.487358
 30
0.0
 40
0
 41
0
  0
VERTEX
  8
0
 10
3.38542
 20
0.468479
 30
0.0
 40
0
 41
0
  0
VERTEX
  8
0
 10
3.38542
 20
0.462131
 30
0.0
 40
0
 41
0
  0
VERTEX
  8
0
 10
3.38542
 20
0.444499
 30
0.0
 40
0
 41
0
  0
VERTEX
  8
0
 10
3.47982
 20
0.44656
 30
0.0
 40
0
 41
0
  0
VERTEX
  8
0
 10
3.57422
 20
0.448676
 30
0.0
 40
0
 41
0
  0
VERTEX
  8
0
 10
3.58757
 20
0.50076
 30
0.0
 40
0
 41
0
  0
VERTEX
  8
0
 10
3.59028
 20
0.511447
 30
0.0
 40
0
 41
0
  0
VERTEX
  8
0
 10
3.59776
 20
0.543619
 30
0.0
 40
0
 41
0
  0
VERTEX
  8
0
 10
3.60221
 20
0.576172
 30
0.0
 40
0
 41
0
  0
VERTEX
  8
0
 10
3.59896
 20
0.599881
 30
0.0
 40
0
 41
0
  0
VERTEX
  8
0
 10
3.58589
 20
0.616211
 30
0.0
 40
0
 41
0
  0
VERTEX
  8
0
 10
3.56087
 20
0.626574
 30
0.0
 40
0
 41
0
  0
VERTEX
  8
0
 10
3.52197
 20
0.632433
 30
0.0
 40
0
 41
0
  0
VERTEX
  8
0
 10
3.46707
 20
0.635254
 30
0.0
 40
0
 41
0
  0
VERTEX
  8
0
 10
3.41237
 20
0.636231
 30
0.0
 40
0
 41
0
  0
VERTEX
  8
0
 10
3.39415
 20
0.636393
 30
0.0
 40
0
 41
0
  0
VERTEX
  8
0
 10
3.37358
 20
0.63661
 30
0.0
 40
0
 41
0
  0
VERTEX
  8
0
 10
3.31201
 20
0.636774
 30
0.0
 40
0
 41
0
  0
VERTEX
  8
0
 10
3.25537
 20
0.635579
 30
0.0
 40
0
 41
0
  0
VERTEX
  8
0
 10
3.21886
 20
0.632704
 30
0.0
 40
0
 41
0
  0
VERTEX
  8
0
 10
3.20226
 20
0.629719
 30
0.0
 40
0
 41
0
  0
VERTEX
  8
0
 10
3.19706
 20
0.627821
 30
0.0
 40
0
 41
0
  0
SEQEND
 8
0
  0
POLYLINE
  8
0
 62
     0
 66
     1
 10
0
 20
0
 30
0.0
 70
     1
 40
0
 41
0
  0
VERTEX
  8
0
 10
3.66813
 20
0.629665
 30
0.0
 40
0
 41
0
  0
VERTEX
  8
0
 10
3.66813
 20
0.627171
 30
0.0
 40
0
 41
0
  0
VERTEX
  8
0
 10
3.67176
 20
0.619521
 30
0.0
 40
0
 41
0
  0
VERTEX
  8
0
 10
3.67882
 20
0.609158
 30
0.0
 40
0
 41
0
  0
VERTEX
  8
0
 10
3.68056
 20
0.60726
 30
0.0
 40
0
 41
0
  0
VERTEX
  8
0
 10
3.6836
 20
0.60395
 30
0.0
 40
0
 41
0
  0
VERTEX
  8
0
 10
3.68365
 20
0.583171
 30
0.0
 40
0
 41
0
  0
VERTEX
  8
0
 10
3.67269
 20
0.521322
 30
0.0
 40
0
 41
0
  0
VERTEX
  8
0
 10
3.64437
 20
0.407497
 30
0.0
 40
0
 41
0
  0
VERTEX
  8
0
 10
3.60796
 20
0.272299
 30
0.0
 40
0
 41
0
  0
VERTEX
  8
0
 10
3.5956
 20
0.227322
 30
0.0
 40
0
 41
0
  0
VERTEX
  8
0
 10
3.59517
 20
0.225749
 30
0.0
 40
0
 41
0
  0
VERTEX
  8
0
 10
3.59631
 20
0.220269
 30
0.0
 40
0
 41
0
  0
VERTEX
  8
0
 10
3.60769
 20
0.216363
 30
0.0
 40
0
 41
0
  0
VERTEX
  8
0
 10
3.63629
 20
0.214681
 30
0.0
 40
0
 41
0
  0
VERTEX
  8
0
 10
3.67551
 20
0.214301
 30
0.0
 40
0
 41
0
  0
VERTEX
  8
0
 10
3.68864
 20
0.214301
 30
0.0
 40
0
 41
0
  0
VERTEX
  8
0
 10
3.78526
 20
0.214301
 30
0.0
 40
0
 41
0
  0
VERTEX
  8
0
 10
3.80935
 20
0.305447
 30
0.0
 40
0
 41
0
  0
VERTEX
  8
0
 10
3.81168
 20
0.314399
 30
0.0
 40
0
 41
0
  0
VERTEX
  8
0
 10
3.81868
 20
0.3412
 30
0.0
 40
0
 41
0
  0
VERTEX
  8
0
 10
3.82633
 20
0.367512
 30
0.0
 40
0
 41
0
  0
VERTEX
  8
0
 10
3.83421
 20
0.385742
 30
0.0
 40
0
 41
0
  0
VERTEX
  8
0
 10
3.84424
 20
0.397461
 30
0.0
 40
0
 41
0
  0
VERTEX
  8
0
 10
3.85824
 20
0.404081
 30
0.0
 40
0
 41
0
  0
VERTEX
  8
0
 10
3.87819
 20
0.40701
 30
0.0
 40
0
 41
0
  0
VERTEX
  8
0
 10
3.90593
 20
0.407715
 30
0.0
 40
0
 41
0
  0
VERTEX
  8
0
 10
3.93408
 20
0.407661
 30
0.0
 40
0
 41
0
  0
VERTEX
  8
0
 10
3.94347
 20
0.407661
 30
0.0
 40
0
 41
0
  0
VERTEX
  8
0
 10
3.95643
 20
0.407715
 30
0.0
 40
0
 41
0
  0
VERTEX
  8
0
 10
3.9955
 20
0.408203
 30
0.0
 40
0
 41
0
  0
VERTEX
  8
0
 10
4.0261
 20
0.410482
 30
0.0
 40
0
 41
0
  0
VERTEX
  8
0
 10
4.04417
 20
0.416015
 30
0.0
 40
0
 41
0
  0
VERTEX
  8
0
 10
4.05533
 20
0.42334
 30
0.0
 40
0
 41
0
  0
VERTEX
  8
0
 10
4.05875
 20
0.426107
 30
0.0
 40
0
 41
0
  0
VERTEX
  8
0
 10
4.08111
 20
0.44439
 30
0.0
 40
0
 41
0
  0
VERTEX
  8
0
 10
3.96343
 20
0.444661
 30
0.0
 40
0
 41
0
  0
VERTEX
  8
0
 10
3.94738
 20
0.444715
 30
0.0
 40
0
 41
0
  0
VERTEX
  8
0
 10
3.89936
 20
0.445204
 30
0.0
 40
0
 41
0
  0
VERTEX
  8
0
 10
3.86447
 20
0.44694
 30
0.0
 40
0
 41
0
  0
VERTEX
  8
0
 10
3.85053
 20
0.4509
 30
0.0
 40
0
 41
0
  0
VERTEX
  8
0
 10
3.84901
 20
0.456435
 30
0.0
 40
0
 41
0
  0
VERTEX
  8
0
 10
3.8495
 20
0.457954
 30
0.0
 40
0
 41
0
  0
VERTEX
  8
0
 10
3.84999
 20
0.459744
 30
0.0
 40
0
 41
0
  0
VERTEX
  8
0
 10
3.85704
 20
0.485189
 30
0.0
 40
0
 41
0
  0
VERTEX
  8
0
 10
3.86751
 20
0.523981
 30
0.0
 40
0
 41
0
  0
VERTEX
  8
0
 10
3.86979
 20
0.532389
 30
0.0
 40
0
 41
0
  0
VERTEX
  8
0
 10
3.88629
 20
0.59375
 30
0.0
 40
0
 41
0
  0
VERTEX
  8
0
 10
4.00439
 20
0.59375
 30
0.0
 40
0
 41
0
  0
VERTEX
  8
0
 10
4.02279
 20
0.59375
 30
0.0
 40
0
 41
0
  0
VERTEX
  8
0
 10
4.07796
 20
0.595486
 30
0.0
 40
0
 41
0
  0
VERTEX
  8
0
 10
4.12044
 20
0.601508
 30
0.0
 40
0
 41
0
  0
VERTEX
  8
0
 10
4.13678
 20
0.613499
 30
0.0
 40
0
 41
0
  0
VERTEX
  8
0
 10
4.13428
 20
0.628743
 30
0.0
 40
0
 41
0
  0
VERTEX
  8
0
 10
4.13189
 20
0.632813
 30
0.0
 40
0
 41
0
  0
VERTEX
  8
0
 10
4.13043
 20
0.635308
 30
0.0
 40
0
 41
0
  0
VERTEX
  8
0
 10
4.11025
 20
0.63596
 30
0.0
 40
0
 41
0
  0
VERTEX
  8
0
 10
4.05692
 20
0.637912
 30
0.0
 40
0
 41
0
  0
VERTEX
  8
0
 10
3.98253
 20
0.638781
 30
0.0
 40
0
 41
0
  0
VERTEX
  8
0
 10
3.89779
 20
0.638672
 30
0.0
 40
0
 41
0
  0
VERTEX
  8
0
 10
3.81332
 20
0.637642
 30
0.0
 40
0
 41
0
  0
VERTEX
  8
0
 10
3.73975
 20
0.635742
 30
0.0
 40
0
 41
0
  0
VERTEX
  8
0
 10
3.68778
 20
0.633083
 30
0.0
 40
0
 41
0
  0
VERTEX
  8
0
 10
3.66813
 20
0.630533
 30
0.0
 40
0
 41
0
  0
VERTEX
  8
0
 10
3.66813
 20
0.629665
 30
0.0
 40
0
 41
0
  0
SEQEND
 8
0
  0
POLYLINE
  8
0
 62
     0
 66
     1
 10
0
 20
0
 30
0.0
 70
     1
 40
0
 41
0
  0
VERTEX
  8
0
 10
2.54465
 20
0.624403
 30
0.0
 40
0
 41
0
  0
VERTEX
  8
0
 10
2.54465
 20
0.620497
 30
0.0
 40
0
 41
0
  0
VERTEX
  8
0
 10
2.55425
 20
0.609918
 30
0.0
 40
0
 41
0
  0
VERTEX
  8
0
 10
2.55583
 20
0.608615
 30
0.0
 40
0
 41
0
  0
VERTEX
  8
0
 10
2.55713
 20
0.607585
 30
0.0
 40
0
 41
0
  0
VERTEX
  8
0
 10
2.56087
 20
0.604058
 30
0.0
 40
0
 41
0
  0
VERTEX
  8
0
 10
2.56413
 20
0.598469
 30
0.0
 40
0
 41
0
  0
VERTEX
  8
0
 10
2.56521
 20
0.589844
 30
0.0
 40
0
 41
0
  0
VERTEX
  8
0
 10
2.56381
 20
0.575792
 30
0.0
 40
0
 41
0
  0
VERTEX
  8
0
 10
2.55946
 20
0.554308
 30
0.0
 40
0
 41
0
  0
VERTEX
  8
0
 10
2.55192
 20
0.523058
 30
0.0
 40
0
 41
0
  0
VERTEX
  8
0
 10
2.54081
 20
0.479926
 30
0.0
 40
0
 41
0
  0
VERTEX
  8
0
 10
2.52946
 20
0.437011
 30
0.0
 40
0
 41
0
  0
VERTEX
  8
0
 10
2.52572
 20
0.422689
 30
0.0
 40
0
 41
0
  0
VERTEX
  8
0
 10
2.52094
 20
0.404785
 30
0.0
 40
0
 41
0
  0
VERTEX
  8
0
 10
2.50672
 20
0.351074
 30
0.0
 40
0
 41
0
  0
VERTEX
  8
0
 10
2.49485
 20
0.298014
 30
0.0
 40
0
 41
0
  0
VERTEX
  8
0
 10
2.49251
 20
0.260796
 30
0.0
 40
0
 41
0
  0
VERTEX
  8
0
 10
2.50222
 20
0.236654
 30
0.0
 40
0
 41
0
  0
VERTEX
  8
0
 10
2.52642
 20
0.222711
 30
0.0
 40
0
 41
0
  0
VERTEX
  8
0
 10
2.5676
 20
0.2162
 30
0.0
 40
0
 41
0
  0
VERTEX
  8
0
 10
2.62819
 20
0.214301
 30
0.0
 40
0
 41
0
  0
VERTEX
  8
0
 10
2.69015
 20
0.214301
 30
0.0
 40
0
 41
0
  0
VERTEX
  8
0
 10
2.71083
 20
0.214301
 30
0.0
 40
0
 41
0
  0
VERTEX
  8
0
 10
2.73975
 20
0.214301
 30
0.0
 40
0
 41
0
  0
VERTEX
  8
0
 10
2.8265
 20
0.215767
 30
0.0
 40
0
 41
0
  0
VERTEX
  8
0
 10
2.89535
 20
0.222168
 30
0.0
 40
0
 41
0
  0
VERTEX
  8
0
 10
2.93343
 20
0.236654
 30
0.0
 40
0
 41
0
  0
VERTEX
  8
0
 10
2.95199
 20
0.255208
 30
0.0
 40
0
 41
0
  0
VERTEX
  8
0
 10
2.95671
 20
0.262369
 30
0.0
 40
0
 41
0
  0
VERTEX
  8
0
 10
2.95871
 20
0.265463
 30
0.0
 40
0
 41
0
  0
VERTEX
  8
0
 10
2.96338
 20
0.280871
 30
0.0
 40
0
 41
0
  0
VERTEX
  8
0
 10
2.97592
 20
0.322157
 30
0.0
 40
0
 41
0
  0
VERTEX
  8
0
 10
2.99229
 20
0.378635
 30
0.0
 40
0
 41
0
  0
VERTEX
  8
0
 10
3.01036
 20
0.442871
 30
0.0
 40
0
 41
0
  0
VERTEX
  8
0
 10
3.0281
 20
0.507269
 30
0.0
 40
0
 41
0
  0
VERTEX
  8
0
 10
3.04335
 20
0.564399
 30
0.0
 40
0
 41
0
  0
VERTEX
  8
0
 10
3.05399
 20
0.606717
 30
0.0
 40
0
 41
0
  0
VERTEX
  8
0
 10
3.05806
 20
0.62169
 30
0.0
 40
0
 41
0
  0
VERTEX
  8
0
 10
3.05806
 20
0.626628
 30
0.0
 40
0
 41
0
  0
VERTEX
  8
0
 10
3.05806
 20
0.627061
 30
0.0
 40
0
 41
0
  0
VERTEX
  8
0
 10
3.05051
 20
0.628364
 30
0.0
 40
0
 41
0
  0
VERTEX
  8
0
 10
3.03
 20
0.629719
 30
0.0
 40
0
 41
0
  0
VERTEX
  8
0
 10
2.99963
 20
0.630643
 30
0.0
 40
0
 41
0
  0
VERTEX
  8
0
 10
2.97179
 20
0.630968
 30
0.0
 40
0
 41
0
  0
VERTEX
  8
0
 10
2.96257
 20
0.630968
 30
0.0
 40
0
 41
0
  0
VERTEX
  8
0
 10
2.86714
 20
0.630968
 30
0.0
 40
0
 41
0
  0
VERTEX
  8
0
 10
2.83128
 20
0.495171
 30
0.0
 40
0
 41
0
  0
VERTEX
  8
0
 10
2.82747
 20
0.480957
 30
0.0
 40
0
 41
0
  0
VERTEX
  8
0
 10
2.81614
 20
0.438206
 30
0.0
 40
0
 41
0
  0
VERTEX
  8
0
 10
2.8016
 20
0.383464
 30
0.0
 40
0
 41
0
  0
VERTEX
  8
0
 10
2.78928
 20
0.337131
 30
0.0
 40
0
 41
0
  0
VERTEX
  8
0
 10
2.78276
 20
0.312879
 30
0.0
 40
0
 41
0
  0
VERTEX
  8
0
 10
2.78076
 20
0.305447
 30
0.0
 40
0
 41
0
  0
VERTEX
  8
0
 10
2.76617
 20
0.251465
 30
0.0
 40
0
 41
0
  0
VERTEX
  8
0
 10
2.72239
 20
0.251465
 30
0.0
 40
0
 41
0
  0
VERTEX
  8
0
 10
2.71789
 20
0.251465
 30
0.0
 40
0
 41
0
  0
VERTEX
  8
0
 10
2.70449
 20
0.251247
 30
0.0
 40
0
 41
0
  0
VERTEX
  8
0
 10
2.69174
 20
0.252333
 30
0.0
 40
0
 41
0
  0
VERTEX
  8
0
 10
2.68408
 20
0.257542
 30
0.0
 40
0
 41
0
  0
VERTEX
  8
0
 10
2.68158
 20
0.269694
 30
0.0
 40
0
 41
0
  0
VERTEX
  8
0
 10
2.68425
 20
0.291504
 30
0.0
 40
0
 41
0
  0
VERTEX
  8
0
 10
2.69206
 20
0.325846
 30
0.0
 40
0
 41
0
  0
VERTEX
  8
0
 10
2.70503
 20
0.375435
 30
0.0
 40
0
 41
0
  0
VERTEX
  8
0
 10
2.71864
 20
0.426161
 30
0.0
 40
0
 41
0
  0
VERTEX
  8
0
 10
2.72319
 20
0.443033
 30
0.0
 40
0
 41
0
  0
VERTEX
  8
0
 10
2.72754
 20
0.459418
 30
0.0
 40
0
 41
0
  0
VERTEX
  8
0
 10
2.7405
 20
0.508681
 30
0.0
 40
0
 41
0
  0
VERTEX
  8
0
 10
2.75472
 20
0.563965
 30
0.0
 40
0
 41
0
  0
VERTEX
  8
0
 10
2.76432
 20
0.60319
 30
0.0
 40
0
 41
0
  0
VERTEX
  8
0
 10
2.76785
 20
0.616157
 30
0.0
 40
0
 41
0
  0
VERTEX
  8
0
 10
2.76785
 20
0.620443
 30
0.0
 40
0
 41
0
  0
VERTEX
  8
0
 10
2.76785
 20
0.621799
 30
0.0
 40
0
 41
0
  0
VERTEX
  8
0
 10
2.76324
 20
0.625706
 30
0.0
 40
0
 41
0
  0
VERTEX
  8
0
 10
2.74625
 20
0.628961
 30
0.0
 40
0
 41
0
  0
VERTEX
  8
0
 10
2.71218
 20
0.630533
 30
0.0
 40
0
 41
0
  0
VERTEX
  8
0
 10
2.67019
 20
0.630968
 30
0.0
 40
0
 41
0
  0
VERTEX
  8
0
 10
2.65625
 20
0.630968
 30
0.0
 40
0
 41
0
  0
VERTEX
  8
0
 10
2.6454
 20
0.630968
 30
0.0
 40
0
 41
0
  0
VERTEX
  8
0
 10
2.6129
 20
0.630479
 30
0.0
 40
0
 41
0
  0
VERTEX
  8
0
 10
2.57742
 20
0.629069
 30
0.0
 40
0
 41
0
  0
VERTEX
  8
0
 10
2.55344
 20
0.626953
 30
0.0
 40
0
 41
0
  0
VERTEX
  8
0
 10
2.54465
 20
0.625054
 30
0.0
 40
0
 41
0
  0
VERTEX
  8
0
 10
2.54465
 20
0.624403
 30
0.0
 40
0
 41
0
  0
SEQEND
 8
0
  0
POLYLINE
  8
0
 62
     0
 66
     1
 10
0
 20
0
 30
0.0
 70
     1
 40
0
 41
0
  0
VERTEX
  8
0
 10
1.25716
 20
0.408854
 30
0.0
 40
0
 41
0
  0
VERTEX
  8
0
 10
1.25868
 20
0.402072
 30
0.0
 40
0
 41
0
  0
VERTEX
  8
0
 10
1.2628
 20
0.381511
 30
0.0
 40
0
 41
0
  0
VERTEX
  8
0
 10
1.26676
 20
0.358074
 30
0.0
 40
0
 41
0
  0
VERTEX
  8
0
 10
1.26872
 20
0.340983
 30
0.0
 40
0
 41
0
  0
VERTEX
  8
0
 10
1.26888
 20
0.333822
 30
0.0
 40
0
 41
0
  0
VERTEX
  8
0
 10
1.26828
 20
0.332844
 30
0.0
 40
0
 41
0
  0
VERTEX
  8
0
 10
1.26693
 20
0.330675
 30
0.0
 40
0
 41
0
  0
VERTEX
  8
0
 10
1.24718
 20
0.327908
 30
0.0
 40
0
 41
0
  0
VERTEX
  8
0
 10
1.20557
 20
0.326064
 30
0.0
 40
0
 41
0
  0
VERTEX
  8
0
 10
1.1639
 20
0.327419
 30
0.0
 40
0
 41
0
  0
VERTEX
  8
0
 10
1.14415
 20
0.330024
 30
0.0
 40
0
 41
0
  0
VERTEX
  8
0
 10
1.14285
 20
0.33214
 30
0.0
 40
0
 41
0
  0
VERTEX
  8
0
 10
1.14209
 20
0.333333
 30
0.0
 40
0
 41
0
  0
VERTEX
  8
0
 10
1.14578
 20
0.340386
 30
0.0
 40
0
 41
0
  0
VERTEX
  8
0
 10
1.15582
 20
0.358344
 30
0.0
 40
0
 41
0
  0
VERTEX
  8
0
 10
1.17074
 20
0.382704
 30
0.0
 40
0
 41
0
  0
VERTEX
  8
0
 10
1.18826
 20
0.409939
 30
0.0
 40
0
 41
0
  0
VERTEX
  8
0
 10
1.20616
 20
0.43674
 30
0.0
 40
0
 41
0
  0
VERTEX
  8
0
 10
1.22222
 20
0.459581
 30
0.0
 40
0
 41
0
  0
VERTEX
  8
0
 10
1.23416
 20
0.475151
 30
0.0
 40
0
 41
0
  0
VERTEX
  8
0
 10
1.23969
 20
0.480035
 30
0.0
 40
0
 41
0
  0
VERTEX
  8
0
 10
1.2398
 20
0.479926
 30
0.0
 40
0
 41
0
  0
VERTEX
  8
0
 10
1.24007
 20
0.479656
 30
0.0
 40
0
 41
0
  0
VERTEX
  8
0
 10
1.24175
 20
0.473742
 30
0.0
 40
0
 41
0
  0
VERTEX
  8
0
 10
1.24571
 20
0.458225
 30
0.0
 40
0
 41
0
  0
VERTEX
  8
0
 10
1.25103
 20
0.435872
 30
0.0
 40
0
 41
0
  0
VERTEX
  8
0
 10
1.25564
 20
0.415636
 30
0.0
 40
0
 41
0
  0
VERTEX
  8
0
 10
1.25716
 20
0.408854
 30
0.0
 40
0
 41
0
  0
SEQEND
 8
0
  0
POLYLINE
  8
0
 62
     0
 66
     1
 10
0
 20
0
 30
0.0
 70
     1
 40
0
 41
0
  0
VERTEX
  8
0
 10
0.351942
 20
0.413303
 30
0.0
 40
0
 41
0
  0
VERTEX
  8
0
 10
0.353515
 20
0.405707
 30
0.0
 40
0
 41
0
  0
VERTEX
  8
0
 10
0.35829
 20
0.382758
 30
0.0
 40
0
 41
0
  0
VERTEX
  8
0
 10
0.362468
 20
0.360297
 30
0.0
 40
0
 41
0
  0
VERTEX
  8
0
 10
0.363769
 20
0.344672
 30
0.0
 40
0
 41
0
  0
VERTEX
  8
0
 10
0.361436
 20
0.334636
 30
0.0
 40
0
 41
0
  0
VERTEX
  8
0
 10
0.354764
 20
0.328993
 30
0.0
 40
0
 41
0
  0
VERTEX
  8
0
 10
0.343044
 20
0.326443
 30
0.0
 40
0
 41
0
  0
VERTEX
  8
0
 10
0.325629
 20
0.325846
 30
0.0
 40
0
 41
0
  0
VERTEX
  8
0
 10
0.307726
 20
0.3259
 30
0.0
 40
0
 41
0
  0
VERTEX
  8
0
 10
0.301758
 20
0.3259
 30
0.0
 40
0
 41
0
  0
VERTEX
  8
0
 10
0.295247
 20
0.3259
 30
0.0
 40
0
 41
0
  0
VERTEX
  8
0
 10
0.275825
 20
0.32601
 30
0.0
 40
0
 41
0
  0
VERTEX
  8
0
 10
0.257053
 20
0.326878
 30
0.0
 40
0
 41
0
  0
VERTEX
  8
0
 10
0.245281
 20
0.32959
 30
0.0
 40
0
 41
0
  0
VERTEX
  8
0
 10
0.240072
 20
0.335124
 30
0.0
 40
0
 41
0
  0
VERTEX
  8
0
 10
0.241319
 20
0.34451
 30
0.0
 40
0
 41
0
  0
VERTEX
  8
0
 10
0.248643
 20
0.358724
 30
0.0
 40
0
 41
0
  0
VERTEX
  8
0
 10
0.261828
 20
0.378851
 30
0.0
 40
0
 41
0
  0
VERTEX
  8
0
 10
0.275879
 20
0.399143
 30
0.0
 40
0
 41
0
  0
VERTEX
  8
0
 10
0.280599
 20
0.405871
 30
0.0
 40
0
 41
0
  0
VERTEX
  8
0
 10
0.288846
 20
0.417697
 30
0.0
 40
0
 41
0
  0
VERTEX
  8
0
 10
0.314019
 20
0.452908
 30
0.0
 40
0
 41
0
  0
VERTEX
  8
0
 10
0.33214
 20
0.469293
 30
0.0
 40
0
 41
0
  0
VERTEX
  8
0
 10
0.342339
 20
0.455838
 30
0.0
 40
0
 41
0
  0
VERTEX
  8
0
 10
0.349718
 20
0.42399
 30
0.0
 40
0
 41
0
  0
VERTEX
  8
0
 10
0.351942
 20
0.413303
 30
0.0
 40
0
 41
0
  0
SEQEND
 8
0
  0
POLYLINE
  8
0
 62
     0
 66
     1
 10
0
 20
0
 30
0.0
 70
     1
 40
0
 41
0
  0
VERTEX
  8
0
 10
1.88015
 20
0.405871
 30
0.0
 40
0
 41
0
  0
VERTEX
  8
0
 10
1.89458
 20
0.337076
 30
0.0
 40
0
 41
0
  0
VERTEX
  8
0
 10
1.86247
 20
0.334799
 30
0.0
 40
0
 41
0
  0
VERTEX
  8
0
 10
1.85801
 20
0.334526
 30
0.0
 40
0
 41
0
  0
VERTEX
  8
0
 10
1.82997
 20
0.333876
 30
0.0
 40
0
 41
0
  0
VERTEX
  8
0
 10
1.80149
 20
0.334526
 30
0.0
 40
0
 41
0
  0
VERTEX
  8
0
 10
1.79693
 20
0.334799
 30
0.0
 40
0
 41
0
  0
VERTEX
  8
0
 10
1.76351
 20
0.337076
 30
0.0
 40
0
 41
0
  0
VERTEX
  8
0
 10
1.80914
 20
0.405871
 30
0.0
 40
0
 41
0
  0
VERTEX
  8
0
 10
1.81358
 20
0.412597
 30
0.0
 40
0
 41
0
  0
VERTEX
  8
0
 10
1.82726
 20
0.432617
 30
0.0
 40
0
 41
0
  0
VERTEX
  8
0
 10
1.84293
 20
0.454536
 30
0.0
 40
0
 41
0
  0
VERTEX
  8
0
 10
1.85449
 20
0.469293
 30
0.0
 40
0
 41
0
  0
VERTEX
  8
0
 10
1.85878
 20
0.474718
 30
0.0
 40
0
 41
0
  0
VERTEX
  8
0
 10
1.86025
 20
0.474718
 30
0.0
 40
0
 41
0
  0
VERTEX
  8
0
 10
1.86225
 20
0.474718
 30
0.0
 40
0
 41
0
  0
VERTEX
  8
0
 10
1.86833
 20
0.454536
 30
0.0
 40
0
 41
0
  0
VERTEX
  8
0
 10
1.87815
 20
0.415365
 30
0.0
 40
0
 41
0
  0
VERTEX
  8
0
 10
1.88015
 20
0.405871
 30
0.0
 40
0
 41
0
  0
SEQEND
 8
0
  0
POLYLINE
  8
0
 62
     0
 66
     1
 10
0
 20
0
 30
0.0
 70
     1
 40
0
 41
0
  0
VERTEX
  8
0
 10
3.97694
 20
0.288683
 30
0.0
 40
0
 41
0
  0
VERTEX
  8
0
 10
3.85807
 20
0.16965
 30
0.0
 40
0
 41
0
  0
VERTEX
  8
0
 10
0.0520833
 20
0.16965
 30
0.0
 40
0
 41
0
  0
VERTEX
  8
0
 10
0.0520833
 20
0.117513
 30
0.0
 40
0
 41
0
  0
VERTEX
  8
0
 10
2.01687
 20
0.119412
 30
0.0
 40
0
 41
0
  0
VERTEX
  8
0
 10
3.98172
 20
0.121257
 30
0.0
 40
0
 41
0
  0
VERTEX
  8
0
 10
4.04021
 20
0.264486
 30
0.0
 40
0
 41
0
  0
VERTEX
  8
0
 10
4.04585
 20
0.278375
 30
0.0
 40
0
 41
0
  0
VERTEX
  8
0
 10
4.06278
 20
0.32015
 30
0.0
 40
0
 41
0
  0
VERTEX
  8
0
 10
4.08106
 20
0.365668
 30
0.0
 40
0
 41
0
  0
VERTEX
  8
0
 10
4.09315
 20
0.396431
 30
0.0
 40
0
 41
0
  0
VERTEX
  8
0
 10
4.09722
 20
0.407715
 30
0.0
 40
0
 41
0
  0
VERTEX
  8
0
 10
4.09722
 20
0.407715
 30
0.0
 40
0
 41
0
  0
VERTEX
  8
0
 10
4.09472
 20
0.407715
 30
0.0
 40
0
 41
0
  0
VERTEX
  8
0
 10
4.08729
 20
0.398329
 30
0.0
 40
0
 41
0
  0
VERTEX
  8
0
 10
4.06131
 20
0.372775
 30
0.0
 40
0
 41
0
  0
VERTEX
  8
0
 10
4.02317
 20
0.334961
 30
0.0
 40
0
 41
0
  0
VERTEX
  8
0
 10
3.98844
 20
0.300293
 30
0.0
 40
0
 41
0
  0
VERTEX
  8
0
 10
3.97694
 20
0.288683
 30
0.0
 40
0
 41
0
  0
SEQEND
 8
0
  0
ENDSEC
  0
EOF
