  0
SECTION
  2
HEADER
  9
$ACADVER
  1
AC1009
  9
$EXTMIN
 10
0.0
 20
0.0
 30
0.0
  9
$EXTMAX
 10
1000.0
 20
1000.0
 30
0.0
  9
$FILLMODE
 70
 0
  9
$SPLFRAME
 70
 1
  0
ENDSEC
  0
SECTION
  2
TABLES
  0
TABLE
  2
LAYER
 70
1
  0
LAYER
  2
0
 70
     0
 62
     7
  6
CONTINUOUS
  0
ENDTAB
  0
ENDSEC
  0
SECTION
  2
ENTITIES
  0
POLYLINE
  8
0
 62
     0
 66
     1
 10
0
 20
0
 30
0.0
 70
     1
 40
0
 41
0
  0
VERTEX
  8
0
 10
2.31722
 20
4.03006
 30
0.0
 40
0
 41
0
  0
VERTEX
  8
0
 10
2.31592
 20
4.02849
 30
0.0
 40
0
 41
0
  0
VERTEX
  8
0
 10
2.31293
 20
4.023
 30
0.0
 40
0
 41
0
  0
VERTEX
  8
0
 10
2.30903
 20
4.01014
 30
0.0
 40
0
 41
0
  0
VERTEX
  8
0
 10
2.30431
 20
3.98671
 30
0.0
 40
0
 41
0
  0
VERTEX
  8
0
 10
2.29926
 20
3.95763
 30
0.0
 40
0
 41
0
  0
VERTEX
  8
0
 10
2.29769
 20
3.94792
 30
0.0
 40
0
 41
0
  0
VERTEX
  8
0
 10
2.29693
 20
3.94353
 30
0.0
 40
0
 41
0
  0
VERTEX
  8
0
 10
2.29199
 20
3.92176
 30
0.0
 40
0
 41
0
  0
VERTEX
  8
0
 10
2.28674
 20
3.90543
 30
0.0
 40
0
 41
0
  0
VERTEX
  8
0
 10
2.28586
 20
3.90375
 30
0.0
 40
0
 41
0
  0
VERTEX
  8
0
 10
2.28494
 20
3.90207
 30
0.0
 40
0
 41
0
  0
VERTEX
  8
0
 10
2.28185
 20
3.89187
 30
0.0
 40
0
 41
0
  0
VERTEX
  8
0
 10
2.27582
 20
3.86849
 30
0.0
 40
0
 41
0
  0
VERTEX
  8
0
 10
2.26867
 20
3.83708
 30
0.0
 40
0
 41
0
  0
VERTEX
  8
0
 10
2.26292
 20
3.80994
 30
0.0
 40
0
 41
0
  0
VERTEX
  8
0
 10
2.26112
 20
3.80083
 30
0.0
 40
0
 41
0
  0
VERTEX
  8
0
 10
2.25922
 20
3.79139
 30
0.0
 40
0
 41
0
  0
VERTEX
  8
0
 10
2.2531
 20
3.76297
 30
0.0
 40
0
 41
0
  0
VERTEX
  8
0
 10
2.24468
 20
3.72672
 30
0.0
 40
0
 41
0
  0
VERTEX
  8
0
 10
2.23693
 20
3.69629
 30
0.0
 40
0
 41
0
  0
VERTEX
  8
0
 10
2.23242
 20
3.6805
 30
0.0
 40
0
 41
0
  0
VERTEX
  8
0
 10
2.23079
 20
3.67578
 30
0.0
 40
0
 41
0
  0
VERTEX
  8
0
 10
2.22314
 20
3.65424
 30
0.0
 40
0
 41
0
  0
VERTEX
  8
0
 10
2.20861
 20
3.58653
 30
0.0
 40
0
 41
0
  0
VERTEX
  8
0
 10
2.19086
 20
3.46847
 30
0.0
 40
0
 41
0
  0
VERTEX
  8
0
 10
2.18067
 20
3.34928
 30
0.0
 40
0
 41
0
  0
VERTEX
  8
0
 10
2.17899
 20
3.27968
 30
0.0
 40
0
 41
0
  0
VERTEX
  8
0
 10
2.18138
 20
3.25672
 30
0.0
 40
0
 41
0
  0
VERTEX
  8
0
 10
2.18207
 20
3.24946
 30
0.0
 40
0
 41
0
  0
VERTEX
  8
0
 10
2.18435
 20
3.21718
 30
0.0
 40
0
 41
0
  0
VERTEX
  8
0
 10
2.18431
 20
3.19732
 30
0.0
 40
0
 41
0
  0
VERTEX
  8
0
 10
2.18392
 20
3.19624
 30
0.0
 40
0
 41
0
  0
VERTEX
  8
0
 10
2.18349
 20
3.19521
 30
0.0
 40
0
 41
0
  0
VERTEX
  8
0
 10
2.18457
 20
3.17931
 30
0.0
 40
0
 41
0
  0
VERTEX
  8
0
 10
2.18913
 20
3.15457
 30
0.0
 40
0
 41
0
  0
VERTEX
  8
0
 10
2.19043
 20
3.14914
 30
0.0
 40
0
 41
0
  0
VERTEX
  8
0
 10
2.19185
 20
3.14328
 30
0.0
 40
0
 41
0
  0
VERTEX
  8
0
 10
2.19456
 20
3.12489
 30
0.0
 40
0
 41
0
  0
VERTEX
  8
0
 10
2.19835
 20
3.08925
 30
0.0
 40
0
 41
0
  0
VERTEX
  8
0
 10
2.20156
 20
3.04536
 30
0.0
 40
0
 41
0
  0
VERTEX
  8
0
 10
2.2034
 20
3.0084
 30
0.0
 40
0
 41
0
  0
VERTEX
  8
0
 10
2.20383
 20
2.9961
 30
0.0
 40
0
 41
0
  0
VERTEX
  8
0
 10
2.20774
 20
2.88249
 30
0.0
 40
0
 41
0
  0
VERTEX
  8
0
 10
2.19119
 20
2.87169
 30
0.0
 40
0
 41
0
  0
VERTEX
  8
0
 10
2.17464
 20
2.86083
 30
0.0
 40
0
 41
0
  0
VERTEX
  8
0
 10
2.18733
 20
2.88569
 30
0.0
 40
0
 41
0
  0
VERTEX
  8
0
 10
2.18972
 20
2.89046
 30
0.0
 40
0
 41
0
  0
VERTEX
  8
0
 10
2.19526
 20
2.90565
 30
0.0
 40
0
 41
0
  0
VERTEX
  8
0
 10
2.19
 20
2.90858
 30
0.0
 40
0
 41
0
  0
VERTEX
  8
0
 10
2.17117
 20
2.89432
 30
0.0
 40
0
 41
0
  0
VERTEX
  8
0
 10
2.14643
 20
2.87076
 30
0.0
 40
0
 41
0
  0
VERTEX
  8
0
 10
2.13846
 20
2.86262
 30
0.0
 40
0
 41
0
  0
VERTEX
  8
0
 10
2.09119
 20
2.81467
 30
0.0
 40
0
 41
0
  0
VERTEX
  8
0
 10
2.08703
 20
3.0204
 30
0.0
 40
0
 41
0
  0
VERTEX
  8
0
 10
2.08658
 20
3.04081
 30
0.0
 40
0
 41
0
  0
VERTEX
  8
0
 10
2.08518
 20
3.102
 30
0.0
 40
0
 41
0
  0
VERTEX
  8
0
 10
2.08333
 20
3.17199
 30
0.0
 40
0
 41
0
  0
VERTEX
  8
0
 10
2.08165
 20
3.22304
 30
0.0
 40
0
 41
0
  0
VERTEX
  8
0
 10
2.08078
 20
3.24463
 30
0.0
 40
0
 41
0
  0
VERTEX
  8
0
 10
2.08046
 20
3.24756
 30
0.0
 40
0
 41
0
  0
VERTEX
  8
0
 10
2.08014
 20
3.25054
 30
0.0
 40
0
 41
0
  0
VERTEX
  8
0
 10
2.07904
 20
3.26411
 30
0.0
 40
0
 41
0
  0
VERTEX
  8
0
 10
2.07688
 20
3.29329
 30
0.0
 40
0
 41
0
  0
VERTEX
  8
0
 10
2.07428
 20
3.33106
 30
0.0
 40
0
 41
0
  0
VERTEX
  8
0
 10
2.07221
 20
3.36262
 30
0.0
 40
0
 41
0
  0
VERTEX
  8
0
 10
2.07156
 20
3.37315
 30
0.0
 40
0
 41
0
  0
VERTEX
  8
0
 10
2.07042
 20
3.39046
 30
0.0
 40
0
 41
0
  0
VERTEX
  8
0
 10
2.06586
 20
3.44233
 30
0.0
 40
0
 41
0
  0
VERTEX
  8
0
 10
2.05697
 20
3.50146
 30
0.0
 40
0
 41
0
  0
VERTEX
  8
0
 10
2.04161
 20
3.56694
 30
0.0
 40
0
 41
0
  0
VERTEX
  8
0
 10
2.02311
 20
3.63308
 30
0.0
 40
0
 41
0
  0
VERTEX
  8
0
 10
2.01671
 20
3.655
 30
0.0
 40
0
 41
0
  0
VERTEX
  8
0
 10
2.01069
 20
3.67551
 30
0.0
 40
0
 41
0
  0
VERTEX
  8
0
 10
1.97174
 20
3.78597
 30
0.0
 40
0
 41
0
  0
VERTEX
  8
0
 10
1.92844
 20
3.88824
 30
0.0
 40
0
 41
0
  0
VERTEX
  8
0
 10
1.92025
 20
3.90457
 30
0.0
 40
0
 41
0
  0
VERTEX
  8
0
 10
1.91656
 20
3.91194
 30
0.0
 40
0
 41
0
  0
VERTEX
  8
0
 10
1.90126
 20
3.94618
 30
0.0
 40
0
 41
0
  0
VERTEX
  8
0
 10
1.89339
 20
3.96474
 30
0.0
 40
0
 41
0
  0
VERTEX
  8
0
 10
1.89339
 20
3.97086
 30
0.0
 40
0
 41
0
  0
VERTEX
  8
0
 10
1.89339
 20
3.97743
 30
0.0
 40
0
 41
0
  0
VERTEX
  8
0
 10
1.88553
 20
3.99707
 30
0.0
 40
0
 41
0
  0
VERTEX
  8
0
 10
1.87067
 20
4.00738
 30
0.0
 40
0
 41
0
  0
VERTEX
  8
0
 10
1.86572
 20
4.00738
 30
0.0
 40
0
 41
0
  0
VERTEX
  8
0
 10
1.86296
 20
4.00738
 30
0.0
 40
0
 41
0
  0
VERTEX
  8
0
 10
1.85465
 20
4.0051
 30
0.0
 40
0
 41
0
  0
VERTEX
  8
0
 10
1.84831
 20
3.99224
 30
0.0
 40
0
 41
0
  0
VERTEX
  8
0
 10
1.84457
 20
3.96024
 30
0.0
 40
0
 41
0
  0
VERTEX
  8
0
 10
1.84224
 20
3.91515
 30
0.0
 40
0
 41
0
  0
VERTEX
  8
0
 10
1.84158
 20
3.90012
 30
0.0
 40
0
 41
0
  0
VERTEX
  8
0
 10
1.8411
 20
3.88921
 30
0.0
 40
0
 41
0
  0
VERTEX
  8
0
 10
1.83637
 20
3.82949
 30
0.0
 40
0
 41
0
  0
VERTEX
  8
0
 10
1.83003
 20
3.77821
 30
0.0
 40
0
 41
0
  0
VERTEX
  8
0
 10
1.82878
 20
3.77143
 30
0.0
 40
0
 41
0
  0
VERTEX
  8
0
 10
1.82574
 20
3.75564
 30
0.0
 40
0
 41
0
  0
VERTEX
  8
0
 10
1.81799
 20
3.70801
 30
0.0
 40
0
 41
0
  0
VERTEX
  8
0
 10
1.81174
 20
3.64572
 30
0.0
 40
0
 41
0
  0
VERTEX
  8
0
 10
1.80875
 20
3.56657
 30
0.0
 40
0
 41
0
  0
VERTEX
  8
0
 10
1.80789
 20
3.48113
 30
0.0
 40
0
 41
0
  0
VERTEX
  8
0
 10
1.80789
 20
3.45258
 30
0.0
 40
0
 41
0
  0
VERTEX
  8
0
 10
1.80783
 20
3.43044
 30
0.0
 40
0
 41
0
  0
VERTEX
  8
0
 10
1.80817
 20
3.36388
 30
0.0
 40
0
 41
0
  0
VERTEX
  8
0
 10
1.80951
 20
3.30149
 30
0.0
 40
0
 41
0
  0
VERTEX
  8
0
 10
1.81207
 20
3.26019
 30
0.0
 40
0
 41
0
  0
VERTEX
  8
0
 10
1.81456
 20
3.24121
 30
0.0
 40
0
 41
0
  0
VERTEX
  8
0
 10
1.81614
 20
3.23503
 30
0.0
 40
0
 41
0
  0
VERTEX
  8
0
 10
1.81728
 20
3.23047
 30
0.0
 40
0
 41
0
  0
VERTEX
  8
0
 10
1.82428
 20
3.19797
 30
0.0
 40
0
 41
0
  0
VERTEX
  8
0
 10
1.83094
 20
3.162
 30
0.0
 40
0
 41
0
  0
VERTEX
  8
0
 10
1.83197
 20
3.15565
 30
0.0
 40
0
 41
0
  0
VERTEX
  8
0
 10
1.83458
 20
3.139
 30
0.0
 40
0
 41
0
  0
VERTEX
  8
0
 10
1.84489
 20
3.08919
 30
0.0
 40
0
 41
0
  0
VERTEX
  8
0
 10
1.86333
 20
3.01167
 30
0.0
 40
0
 41
0
  0
VERTEX
  8
0
 10
1.88331
 20
2.93875
 30
0.0
 40
0
 41
0
  0
VERTEX
  8
0
 10
1.89589
 20
2.89854
 30
0.0
 40
0
 41
0
  0
VERTEX
  8
0
 10
1.90088
 20
2.88612
 30
0.0
 40
0
 41
0
  0
VERTEX
  8
0
 10
1.90462
 20
2.87679
 30
0.0
 40
0
 41
0
  0
VERTEX
  8
0
 10
1.91547
 20
2.84858
 30
0.0
 40
0
 41
0
  0
VERTEX
  8
0
 10
1.92503
 20
2.81993
 30
0.0
 40
0
 41
0
  0
VERTEX
  8
0
 10
1.93197
 20
2.79167
 30
0.0
 40
0
 41
0
  0
VERTEX
  8
0
 10
1.93722
 20
2.76443
 30
0.0
 40
0
 41
0
  0
VERTEX
  8
0
 10
1.93886
 20
2.75532
 30
0.0
 40
0
 41
0
  0
VERTEX
  8
0
 10
1.94726
 20
2.70736
 30
0.0
 40
0
 41
0
  0
VERTEX
  8
0
 10
1.92708
 20
2.66342
 30
0.0
 40
0
 41
0
  0
VERTEX
  8
0
 10
1.92269
 20
2.65397
 30
0.0
 40
0
 41
0
  0
VERTEX
  8
0
 10
1.91249
 20
2.62418
 30
0.0
 40
0
 41
0
  0
VERTEX
  8
0
 10
1.90224
 20
2.57667
 30
0.0
 40
0
 41
0
  0
VERTEX
  8
0
 10
1.89535
 20
2.51481
 30
0.0
 40
0
 41
0
  0
VERTEX
  8
0
 10
1.89171
 20
2.45318
 30
0.0
 40
0
 41
0
  0
VERTEX
  8
0
 10
1.89094
 20
2.43261
 30
0.0
 40
0
 41
0
  0
VERTEX
  8
0
 10
1.89051
 20
2.4221
 30
0.0
 40
0
 41
0
  0
VERTEX
  8
0
 10
1.88672
 20
2.3725
 30
0.0
 40
0
 41
0
  0
VERTEX
  8
0
 10
1.88167
 20
2.33826
 30
0.0
 40
0
 41
0
  0
VERTEX
  8
0
 10
1.88069
 20
2.33544
 30
0.0
 40
0
 41
0
  0
VERTEX
  8
0
 10
1.87924
 20
2.33143
 30
0.0
 40
0
 41
0
  0
VERTEX
  8
0
 10
1.87636
 20
2.31819
 30
0.0
 40
0
 41
0
  0
VERTEX
  8
0
 10
1.87929
 20
2.31119
 30
0.0
 40
0
 41
0
  0
VERTEX
  8
0
 10
1.88075
 20
2.31028
 30
0.0
 40
0
 41
0
  0
VERTEX
  8
0
 10
1.88217
 20
2.3094
 30
0.0
 40
0
 41
0
  0
VERTEX
  8
0
 10
1.8845
 20
2.30176
 30
0.0
 40
0
 41
0
  0
VERTEX
  8
0
 10
1.88037
 20
2.28706
 30
0.0
 40
0
 41
0
  0
VERTEX
  8
0
 10
1.87853
 20
2.28261
 30
0.0
 40
0
 41
0
  0
VERTEX
  8
0
 10
1.87685
 20
2.27865
 30
0.0
 40
0
 41
0
  0
VERTEX
  8
0
 10
1.87115
 20
2.25
 30
0.0
 40
0
 41
0
  0
VERTEX
  8
0
 10
1.86888
 20
2.21018
 30
0.0
 40
0
 41
0
  0
VERTEX
  8
0
 10
1.86888
 20
2.19689
 30
0.0
 40
0
 41
0
  0
VERTEX
  8
0
 10
1.86888
 20
2.18158
 30
0.0
 40
0
 41
0
  0
VERTEX
  8
0
 10
1.8604
 20
2.13569
 30
0.0
 40
0
 41
0
  0
VERTEX
  8
0
 10
1.83365
 20
2.08301
 30
0.0
 40
0
 41
0
  0
VERTEX
  8
0
 10
1.78635
 20
2.03581
 30
0.0
 40
0
 41
0
  0
VERTEX
  8
0
 10
1.73438
 20
2.00088
 30
0.0
 40
0
 41
0
  0
VERTEX
  8
0
 10
1.71615
 20
1.991
 30
0.0
 40
0
 41
0
  0
VERTEX
  8
0
 10
1.71001
 20
1.98768
 30
0.0
 40
0
 41
0
  0
VERTEX
  8
0
 10
1.69228
 20
1.97657
 30
0.0
 40
0
 41
0
  0
VERTEX
  8
0
 10
1.6589
 20
1.95415
 30
0.0
 40
0
 41
0
  0
VERTEX
  8
0
 10
1.618
 20
1.92512
 30
0.0
 40
0
 41
0
  0
VERTEX
  8
0
 10
1.58317
 20
1.89958
 30
0.0
 40
0
 41
0
  0
VERTEX
  8
0
 10
1.57167
 20
1.89094
 30
0.0
 40
0
 41
0
  0
VERTEX
  8
0
 10
1.56575
 20
1.88656
 30
0.0
 40
0
 41
0
  0
VERTEX
  8
0
 10
1.53239
 20
1.86176
 30
0.0
 40
0
 41
0
  0
VERTEX
  8
0
 10
1.50233
 20
1.83974
 30
0.0
 40
0
 41
0
  0
VERTEX
  8
0
 10
1.49815
 20
1.83664
 30
0.0
 40
0
 41
0
  0
VERTEX
  8
0
 10
1.48708
 20
1.82867
 30
0.0
 40
0
 41
0
  0
VERTEX
  8
0
 10
1.45622
 20
1.80138
 30
0.0
 40
0
 41
0
  0
VERTEX
  8
0
 10
1.40967
 20
1.75478
 30
0.0
 40
0
 41
0
  0
VERTEX
  8
0
 10
1.36746
 20
1.70665
 30
0.0
 40
0
 41
0
  0
VERTEX
  8
0
 10
1.345
 20
1.67731
 30
0.0
 40
0
 41
0
  0
VERTEX
  8
0
 10
1.33892
 20
1.66672
 30
0.0
 40
0
 41
0
  0
VERTEX
  8
0
 10
1.33577
 20
1.66124
 30
0.0
 40
0
 41
0
  0
VERTEX
  8
0
 10
1.31613
 20
1.63049
 30
0.0
 40
0
 41
0
  0
VERTEX
  8
0
 10
1.29666
 20
1.60308
 30
0.0
 40
0
 41
0
  0
VERTEX
  8
0
 10
1.29357
 20
1.59928
 30
0.0
 40
0
 41
0
  0
VERTEX
  8
0
 10
1.28668
 20
1.59088
 30
0.0
 40
0
 41
0
  0
VERTEX
  8
0
 10
1.26823
 20
1.56364
 30
0.0
 40
0
 41
0
  0
VERTEX
  8
0
 10
1.24951
 20
1.52376
 30
0.0
 40
0
 41
0
  0
VERTEX
  8
0
 10
1.23432
 20
1.4714
 30
0.0
 40
0
 41
0
  0
VERTEX
  8
0
 10
1.22287
 20
1.4165
 30
0.0
 40
0
 41
0
  0
VERTEX
  8
0
 10
1.21956
 20
1.39811
 30
0.0
 40
0
 41
0
  0
VERTEX
  8
0
 10
1.21821
 20
1.39079
 30
0.0
 40
0
 41
0
  0
VERTEX
  8
0
 10
1.2156
 20
1.36583
 30
0.0
 40
0
 41
0
  0
VERTEX
  8
0
 10
1.21837
 20
1.35232
 30
0.0
 40
0
 41
0
  0
VERTEX
  8
0
 10
1.21973
 20
1.35064
 30
0.0
 40
0
 41
0
  0
VERTEX
  8
0
 10
1.22108
 20
1.34896
 30
0.0
 40
0
 41
0
  0
VERTEX
  8
0
 10
1.22271
 20
1.33816
 30
0.0
 40
0
 41
0
  0
VERTEX
  8
0
 10
1.21652
 20
1.32004
 30
0.0
 40
0
 41
0
  0
VERTEX
  8
0
 10
1.21403
 20
1.31473
 30
0.0
 40
0
 41
0
  0
VERTEX
  8
0
 10
1.20595
 20
1.29763
 30
0.0
 40
0
 41
0
  0
VERTEX
  8
0
 10
1.19043
 20
1.24213
 30
0.0
 40
0
 41
0
  0
VERTEX
  8
0
 10
1.18858
 20
1.17225
 30
0.0
 40
0
 41
0
  0
VERTEX
  8
0
 10
1.20833
 20
1.10639
 30
0.0
 40
0
 41
0
  0
VERTEX
  8
0
 10
1.2373
 20
1.0593
 30
0.0
 40
0
 41
0
  0
VERTEX
  8
0
 10
1.24946
 20
1.04584
 30
0.0
 40
0
 41
0
  0
VERTEX
  8
0
 10
1.2525
 20
1.04248
 30
0.0
 40
0
 41
0
  0
VERTEX
  8
0
 10
1.26118
 20
1.03179
 30
0.0
 40
0
 41
0
  0
VERTEX
  8
0
 10
1.26758
 20
1.0191
 30
0.0
 40
0
 41
0
  0
VERTEX
  8
0
 10
1.27024
 20
1.00217
 30
0.0
 40
0
 41
0
  0
VERTEX
  8
0
 10
1.27094
 20
0.982096
 30
0.0
 40
0
 41
0
  0
VERTEX
  8
0
 10
1.27105
 20
0.975369
 30
0.0
 40
0
 41
0
  0
VERTEX
  8
0
 10
1.2711
 20
0.967665
 30
0.0
 40
0
 41
0
  0
VERTEX
  8
0
 10
1.28266
 20
0.895019
 30
0.0
 40
0
 41
0
  0
VERTEX
  8
0
 10
1.28488
 20
0.888456
 30
0.0
 40
0
 41
0
  0
VERTEX
  8
0
 10
1.28673
 20
0.883029
 30
0.0
 40
0
 41
0
  0
VERTEX
  8
0
 10
1.29812
 20
0.847874
 30
0.0
 40
0
 41
0
  0
VERTEX
  8
0
 10
1.30941
 20
0.812011
 30
0.0
 40
0
 41
0
  0
VERTEX
  8
0
 10
1.3112
 20
0.806153
 30
0.0
 40
0
 41
0
  0
VERTEX
  8
0
 10
1.31424
 20
0.796169
 30
0.0
 40
0
 41
0
  0
VERTEX
  8
0
 10
1.32579
 20
0.766764
 30
0.0
 40
0
 41
0
  0
VERTEX
  8
0
 10
1.34522
 20
0.726887
 30
0.0
 40
0
 41
0
  0
VERTEX
  8
0
 10
1.36778
 20
0.689453
 30
0.0
 40
0
 41
0
  0
VERTEX
  8
0
 10
1.38536
 20
0.665093
 30
0.0
 40
0
 41
0
  0
VERTEX
  8
0
 10
1.39193
 20
0.657553
 30
0.0
 40
0
 41
0
  0
VERTEX
  8
0
 10
1.39518
 20
0.653808
 30
0.0
 40
0
 41
0
  0
VERTEX
  8
0
 10
1.41157
 20
0.632542
 30
0.0
 40
0
 41
0
  0
VERTEX
  8
0
 10
1.42426
 20
0.613499
 30
0.0
 40
0
 41
0
  0
VERTEX
  8
0
 10
1.42567
 20
0.610786
 30
0.0
 40
0
 41
0
  0
VERTEX
  8
0
 10
1.42925
 20
0.603787
 30
0.0
 40
0
 41
0
  0
VERTEX
  8
0
 10
1.44217
 20
0.583768
 30
0.0
 40
0
 41
0
  0
VERTEX
  8
0
 10
1.46397
 20
0.555122
 30
0.0
 40
0
 41
0
  0
VERTEX
  8
0
 10
1.48844
 20
0.527994
 30
0.0
 40
0
 41
0
  0
VERTEX
  8
0
 10
1.50651
 20
0.510742
 30
0.0
 40
0
 41
0
  0
VERTEX
  8
0
 10
1.51303
 20
0.505533
 30
0.0
 40
0
 41
0
  0
VERTEX
  8
0
 10
1.51719
 20
0.502171
 30
0.0
 40
0
 41
0
  0
VERTEX
  8
0
 10
1.53461
 20
0.487033
 30
0.0
 40
0
 41
0
  0
VERTEX
  8
0
 10
1.54378
 20
0.477593
 30
0.0
 40
0
 41
0
  0
VERTEX
  8
0
 10
1.54383
 20
0.476997
 30
0.0
 40
0
 41
0
  0
VERTEX
  8
0
 10
1.54383
 20
0.476346
 30
0.0
 40
0
 41
0
  0
VERTEX
  8
0
 10
1.52294
 20
0.472711
 30
0.0
 40
0
 41
0
  0
VERTEX
  8
0
 10
1.47
 20
0.469129
 30
0.0
 40
0
 41
0
  0
VERTEX
  8
0
 10
1.40039
 20
0.466906
 30
0.0
 40
0
 41
0
  0
VERTEX
  8
0
 10
1.34728
 20
0.466525
 30
0.0
 40
0
 41
0
  0
VERTEX
  8
0
 10
1.32964
 20
0.466851
 30
0.0
 40
0
 41
0
  0
VERTEX
  8
0
 10
1.30501
 20
0.467339
 30
0.0
 40
0
 41
0
  0
VERTEX
  8
0
 10
1.23096
 20
0.46224
 30
0.0
 40
0
 41
0
  0
VERTEX
  8
0
 10
1.1512
 20
0.445856
 30
0.0
 40
0
 41
0
  0
VERTEX
  8
0
 10
1.09787
 20
0.420031
 30
0.0
 40
0
 41
0
  0
VERTEX
  8
0
 10
1.07845
 20
0.3954
 30
0.0
 40
0
 41
0
  0
VERTEX
  8
0
 10
1.07845
 20
0.387153
 30
0.0
 40
0
 41
0
  0
VERTEX
  8
0
 10
1.07845
 20
0.384115
 30
0.0
 40
0
 41
0
  0
VERTEX
  8
0
 10
1.07313
 20
0.375
 30
0.0
 40
0
 41
0
  0
VERTEX
  8
0
 10
1.06282
 20
0.360732
 30
0.0
 40
0
 41
0
  0
VERTEX
  8
0
 10
1.06033
 20
0.357856
 30
0.0
 40
0
 41
0
  0
VERTEX
  8
0
 10
1.05528
 20
0.35216
 30
0.0
 40
0
 41
0
  0
VERTEX
  8
0
 10
1.04508
 20
0.330675
 30
0.0
 40
0
 41
0
  0
VERTEX
  8
0
 10
1.04177
 20
0.300131
 30
0.0
 40
0
 41
0
  0
VERTEX
  8
0
 10
1.04883
 20
0.268608
 30
0.0
 40
0
 41
0
  0
VERTEX
  8
0
 10
1.06451
 20
0.238553
 30
0.0
 40
0
 41
0
  0
VERTEX
  8
0
 10
1.08729
 20
0.21224
 30
0.0
 40
0
 41
0
  0
VERTEX
  8
0
 10
1.11551
 20
0.192165
 30
0.0
 40
0
 41
0
  0
VERTEX
  8
0
 10
1.14752
 20
0.18061
 30
0.0
 40
0
 41
0
  0
VERTEX
  8
0
 10
1.17345
 20
0.178657
 30
0.0
 40
0
 41
0
  0
VERTEX
  8
0
 10
1.18175
 20
0.179958
 30
0.0
 40
0
 41
0
  0
VERTEX
  8
0
 10
1.18631
 20
0.180718
 30
0.0
 40
0
 41
0
  0
VERTEX
  8
0
 10
1.20285
 20
0.179742
 30
0.0
 40
0
 41
0
  0
VERTEX
  8
0
 10
1.2175
 20
0.170301
 30
0.0
 40
0
 41
0
  0
VERTEX
  8
0
 10
1.22114
 20
0.166829
 30
0.0
 40
0
 41
0
  0
VERTEX
  8
0
 10
1.22868
 20
0.159614
 30
0.0
 40
0
 41
0
  0
VERTEX
  8
0
 10
1.26199
 20
0.149089
 30
0.0
 40
0
 41
0
  0
VERTEX
  8
0
 10
1.32368
 20
0.150717
 30
0.0
 40
0
 41
0
  0
VERTEX
  8
0
 10
1.40147
 20
0.171061
 30
0.0
 40
0
 41
0
  0
VERTEX
  8
0
 10
1.46929
 20
0.198514
 30
0.0
 40
0
 41
0
  0
VERTEX
  8
0
 10
1.491
 20
0.209418
 30
0.0
 40
0
 41
0
  0
VERTEX
  8
0
 10
1.50276
 20
0.215386
 30
0.0
 40
0
 41
0
  0
VERTEX
  8
0
 10
1.53885
 20
0.231988
 30
0.0
 40
0
 41
0
  0
VERTEX
  8
0
 10
1.5835
 20
0.248807
 30
0.0
 40
0
 41
0
  0
VERTEX
  8
0
 10
1.63265
 20
0.262587
 30
0.0
 40
0
 41
0
  0
VERTEX
  8
0
 10
1.67876
 20
0.272786
 30
0.0
 40
0
 41
0
  0
VERTEX
  8
0
 10
1.69422
 20
0.275771
 30
0.0
 40
0
 41
0
  0
VERTEX
  8
0
 10
1.7206
 20
0.280979
 30
0.0
 40
0
 41
0
  0
VERTEX
  8
0
 10
1.79921
 20
0.300022
 30
0.0
 40
0
 41
0
  0
VERTEX
  8
0
 10
1.86774
 20
0.326281
 30
0.0
 40
0
 41
0
  0
VERTEX
  8
0
 10
1.90788
 20
0.358996
 30
0.0
 40
0
 41
0
  0
VERTEX
  8
0
 10
1.92507
 20
0.391168
 30
0.0
 40
0
 41
0
  0
VERTEX
  8
0
 10
1.92796
 20
0.402561
 30
0.0
 40
0
 41
0
  0
VERTEX
  8
0
 10
1.92844
 20
0.404514
 30
0.0
 40
0
 41
0
  0
VERTEX
  8
0
 10
1.93186
 20
0.416667
 30
0.0
 40
0
 41
0
  0
VERTEX
  8
0
 10
1.93306
 20
0.416667
 30
0.0
 40
0
 41
0
  0
VERTEX
  8
0
 10
1.93565
 20
0.416667
 30
0.0
 40
0
 41
0
  0
VERTEX
  8
0
 10
1.94362
 20
0.418511
 30
0.0
 40
0
 41
0
  0
VERTEX
  8
0
 10
1.96246
 20
0.421983
 30
0.0
 40
0
 41
0
  0
VERTEX
  8
0
 10
1.9669
 20
0.422797
 30
0.0
 40
0
 41
0
  0
VERTEX
  8
0
 10
1.97206
 20
0.423774
 30
0.0
 40
0
 41
0
  0
VERTEX
  8
0
 10
2.01779
 20
0.424046
 30
0.0
 40
0
 41
0
  0
VERTEX
  8
0
 10
2.02138
 20
0.423122
 30
0.0
 40
0
 41
0
  0
VERTEX
  8
0
 10
2.04471
 20
0.417046
 30
0.0
 40
0
 41
0
  0
VERTEX
  8
0
 10
2.1161
 20
0.403646
 30
0.0
 40
0
 41
0
  0
VERTEX
  8
0
 10
2.23703
 20
0.389757
 30
0.0
 40
0
 41
0
  0
VERTEX
  8
0
 10
2.39968
 20
0.380208
 30
0.0
 40
0
 41
0
  0
VERTEX
  8
0
 10
2.56456
 20
0.374892
 30
0.0
 40
0
 41
0
  0
VERTEX
  8
0
 10
2.61951
 20
0.373699
 30
0.0
 40
0
 41
0
  0
VERTEX
  8
0
 10
2.63271
 20
0.373426
 30
0.0
 40
0
 41
0
  0
VERTEX
  8
0
 10
2.67231
 20
0.374946
 30
0.0
 40
0
 41
0
  0
VERTEX
  8
0
 10
2.71343
 20
0.381347
 30
0.0
 40
0
 41
0
  0
VERTEX
  8
0
 10
2.74457
 20
0.393446
 30
0.0
 40
0
 41
0
  0
VERTEX
  8
0
 10
2.76264
 20
0.406304
 30
0.0
 40
0
 41
0
  0
VERTEX
  8
0
 10
2.76753
 20
0.411621
 30
0.0
 40
0
 41
0
  0
VERTEX
  8
0
 10
2.76904
 20
0.413303
 30
0.0
 40
0
 41
0
  0
VERTEX
  8
0
 10
2.78097
 20
0.422635
 30
0.0
 40
0
 41
0
  0
VERTEX
  8
0
 10
2.79525
 20
0.430826
 30
0.0
 40
0
 41
0
  0
VERTEX
  8
0
 10
2.7979
 20
0.431913
 30
0.0
 40
0
 41
0
  0
VERTEX
  8
0
 10
2.80974
 20
0.436849
 30
0.0
 40
0
 41
0
  0
VERTEX
  8
0
 10
2.84153
 20
0.460613
 30
0.0
 40
0
 41
0
  0
VERTEX
  8
0
 10
2.86475
 20
0.498426
 30
0.0
 40
0
 41
0
  0
VERTEX
  8
0
 10
2.86589
 20
0.539822
 30
0.0
 40
0
 41
0
  0
VERTEX
  8
0
 10
2.85081
 20
0.571181
 30
0.0
 40
0
 41
0
  0
VERTEX
  8
0
 10
2.84315
 20
0.579047
 30
0.0
 40
0
 41
0
  0
VERTEX
  8
0
 10
2.84028
 20
0.581976
 30
0.0
 40
0
 41
0
  0
VERTEX
  8
0
 10
2.82975
 20
0.595215
 30
0.0
 40
0
 41
0
  0
VERTEX
  8
0
 10
2.8259
 20
0.603678
 30
0.0
 40
0
 41
0
  0
VERTEX
  8
0
 10
2.82644
 20
0.604221
 30
0.0
 40
0
 41
0
  0
VERTEX
  8
0
 10
2.82824
 20
0.606011
 30
0.0
 40
0
 41
0
  0
VERTEX
  8
0
 10
2.82482
 20
0.620171
 30
0.0
 40
0
 41
0
  0
VERTEX
  8
0
 10
2.80512
 20
0.641385
 30
0.0
 40
0
 41
0
  0
VERTEX
  8
0
 10
2.77692
 20
0.659993
 30
0.0
 40
0
 41
0
  0
VERTEX
  8
0
 10
2.75657
 20
0.667914
 30
0.0
 40
0
 41
0
  0
VERTEX
  8
0
 10
2.74978
 20
0.667914
 30
0.0
 40
0
 41
0
  0
VERTEX
  8
0
 10
2.74588
 20
0.667914
 30
0.0
 40
0
 41
0
  0
VERTEX
  8
0
 10
2.73432
 20
0.669325
 30
0.0
 40
0
 41
0
  0
VERTEX
  8
0
 10
2.72765
 20
0.674317
 30
0.0
 40
0
 41
0
  0
VERTEX
  8
0
 10
2.72928
 20
0.684299
 30
0.0
 40
0
 41
0
  0
VERTEX
  8
0
 10
2.73622
 20
0.696669
 30
0.0
 40
0
 41
0
  0
VERTEX
  8
0
 10
2.73888
 20
0.700521
 30
0.0
 40
0
 41
0
  0
VERTEX
  8
0
 10
2.74837
 20
0.714681
 30
0.0
 40
0
 41
0
  0
VERTEX
  8
0
 10
2.77285
 20
0.759983
 30
0.0
 40
0
 41
0
  0
VERTEX
  8
0
 10
2.80871
 20
0.836426
 30
0.0
 40
0
 41
0
  0
VERTEX
  8
0
 10
2.83946
 20
0.913629
 30
0.0
 40
0
 41
0
  0
VERTEX
  8
0
 10
2.85476
 20
0.959526
 30
0.0
 40
0
 41
0
  0
VERTEX
  8
0
 10
2.85801
 20
0.975151
 30
0.0
 40
0
 41
0
  0
VERTEX
  8
0
 10
2.85867
 20
0.978299
 30
0.0
 40
0
 41
0
  0
VERTEX
  8
0
 10
2.86486
 20
0.988607
 30
0.0
 40
0
 41
0
  0
VERTEX
  8
0
 10
2.8775
 20
0.993978
 30
0.0
 40
0
 41
0
  0
VERTEX
  8
0
 10
2.8814
 20
0.994629
 30
0.0
 40
0
 41
0
  0
VERTEX
  8
0
 10
2.89567
 20
0.997017
 30
0.0
 40
0
 41
0
  0
VERTEX
  8
0
 10
2.93838
 20
1.00543
 30
0.0
 40
0
 41
0
  0
VERTEX
  8
0
 10
2.97607
 20
1.01769
 30
0.0
 40
0
 41
0
  0
VERTEX
  8
0
 10
3.00478
 20
1.03619
 30
0.0
 40
0
 41
0
  0
VERTEX
  8
0
 10
3.0275
 20
1.05794
 30
0.0
 40
0
 41
0
  0
VERTEX
  8
0
 10
3.03461
 20
1.06559
 30
0.0
 40
0
 41
0
  0
VERTEX
  8
0
 10
3.0459
 20
1.0778
 30
0.0
 40
0
 41
0
  0
VERTEX
  8
0
 10
3.07362
 20
1.12028
 30
0.0
 40
0
 41
0
  0
VERTEX
  8
0
 10
3.10092
 20
1.18365
 30
0.0
 40
0
 41
0
  0
VERTEX
  8
0
 10
3.11382
 20
1.24712
 30
0.0
 40
0
 41
0
  0
VERTEX
  8
0
 10
3.11328
 20
1.28912
 30
0.0
 40
0
 41
0
  0
VERTEX
  8
0
 10
3.1096
 20
1.30208
 30
0.0
 40
0
 41
0
  0
VERTEX
  8
0
 10
3.10813
 20
1.30718
 30
0.0
 40
0
 41
0
  0
VERTEX
  8
0
 10
3.10232
 20
1.33398
 30
0.0
 40
0
 41
0
  0
VERTEX
  8
0
 10
3.09967
 20
1.35628
 30
0.0
 40
0
 41
0
  0
VERTEX
  8
0
 10
3.09978
 20
1.35905
 30
0.0
 40
0
 41
0
  0
VERTEX
  8
0
 10
3.09993
 20
1.36361
 30
0.0
 40
0
 41
0
  0
VERTEX
  8
0
 10
3.09787
 20
1.37728
 30
0.0
 40
0
 41
0
  0
VERTEX
  8
0
 10
3.0919
 20
1.39507
 30
0.0
 40
0
 41
0
  0
VERTEX
  8
0
 10
3.08311
 20
1.4095
 30
0.0
 40
0
 41
0
  0
VERTEX
  8
0
 10
3.07579
 20
1.41656
 30
0.0
 40
0
 41
0
  0
VERTEX
  8
0
 10
3.07292
 20
1.41764
 30
0.0
 40
0
 41
0
  0
VERTEX
  8
0
 10
3.07156
 20
1.41818
 30
0.0
 40
0
 41
0
  0
VERTEX
  8
0
 10
3.06082
 20
1.43201
 30
0.0
 40
0
 41
0
  0
VERTEX
  8
0
 10
3.04779
 20
1.45594
 30
0.0
 40
0
 41
0
  0
VERTEX
  8
0
 10
3.04536
 20
1.46143
 30
0.0
 40
0
 41
0
  0
VERTEX
  8
0
 10
3.03874
 20
1.47618
 30
0.0
 40
0
 41
0
  0
VERTEX
  8
0
 10
2.99724
 20
1.55171
 30
0.0
 40
0
 41
0
  0
VERTEX
  8
0
 10
2.9464
 20
1.62679
 30
0.0
 40
0
 41
0
  0
VERTEX
  8
0
 10
2.93511
 20
1.64128
 30
0.0
 40
0
 41
0
  0
VERTEX
  8
0
 10
2.93099
 20
1.6466
 30
0.0
 40
0
 41
0
  0
VERTEX
  8
0
 10
2.91868
 20
1.66249
 30
0.0
 40
0
 41
0
  0
VERTEX
  8
0
 10
2.90338
 20
1.68224
 30
0.0
 40
0
 41
0
  0
VERTEX
  8
0
 10
2.891
 20
1.6984
 30
0.0
 40
0
 41
0
  0
VERTEX
  8
0
 10
2.88482
 20
1.70649
 30
0.0
 40
0
 41
0
  0
VERTEX
  8
0
 10
2.88319
 20
1.70871
 30
0.0
 40
0
 41
0
  0
VERTEX
  8
0
 10
2.8795
 20
1.71365
 30
0.0
 40
0
 41
0
  0
VERTEX
  8
0
 10
2.86833
 20
1.72814
 30
0.0
 40
0
 41
0
  0
VERTEX
  8
0
 10
2.84901
 20
1.75265
 30
0.0
 40
0
 41
0
  0
VERTEX
  8
0
 10
2.82704
 20
1.78
 30
0.0
 40
0
 41
0
  0
VERTEX
  8
0
 10
2.80431
 20
1.808
 30
0.0
 40
0
 41
0
  0
VERTEX
  8
0
 10
2.78256
 20
1.83436
 30
0.0
 40
0
 41
0
  0
VERTEX
  8
0
 10
2.76372
 20
1.85682
 30
0.0
 40
0
 41
0
  0
VERTEX
  8
0
 10
2.74963
 20
1.87315
 30
0.0
 40
0
 41
0
  0
VERTEX
  8
0
 10
2.74414
 20
1.87939
 30
0.0
 40
0
 41
0
  0
VERTEX
  8
0
 10
2.74208
 20
1.88112
 30
0.0
 40
0
 41
0
  0
VERTEX
  8
0
 10
2.7405
 20
1.88243
 30
0.0
 40
0
 41
0
  0
VERTEX
  8
0
 10
2.72711
 20
1.89751
 30
0.0
 40
0
 41
0
  0
VERTEX
  8
0
 10
2.71007
 20
1.91938
 30
0.0
 40
0
 41
0
  0
VERTEX
  8
0
 10
2.70676
 20
1.92399
 30
0.0
 40
0
 41
0
  0
VERTEX
  8
0
 10
2.7034
 20
1.92865
 30
0.0
 40
0
 41
0
  0
VERTEX
  8
0
 10
2.68093
 20
1.95594
 30
0.0
 40
0
 41
0
  0
VERTEX
  8
0
 10
2.6569
 20
1.9815
 30
0.0
 40
0
 41
0
  0
VERTEX
  8
0
 10
2.65283
 20
1.98529
 30
0.0
 40
0
 41
0
  0
VERTEX
  8
0
 10
2.6231
 20
2.01286
 30
0.0
 40
0
 41
0
  0
VERTEX
  8
0
 10
2.63004
 20
2.10969
 30
0.0
 40
0
 41
0
  0
VERTEX
  8
0
 10
2.63097
 20
2.12332
 30
0.0
 40
0
 41
0
  0
VERTEX
  8
0
 10
2.63357
 20
2.16422
 30
0.0
 40
0
 41
0
  0
VERTEX
  8
0
 10
2.63417
 20
2.19629
 30
0.0
 40
0
 41
0
  0
VERTEX
  8
0
 10
2.63135
 20
2.21571
 30
0.0
 40
0
 41
0
  0
VERTEX
  8
0
 10
2.62663
 20
2.22825
 30
0.0
 40
0
 41
0
  0
VERTEX
  8
0
 10
2.62472
 20
2.23221
 30
0.0
 40
0
 41
0
  0
VERTEX
  8
0
 10
2.62185
 20
2.23822
 30
0.0
 40
0
 41
0
  0
VERTEX
  8
0
 10
2.61719
 20
2.25814
 30
0.0
 40
0
 41
0
  0
VERTEX
  8
0
 10
2.61811
 20
2.28222
 30
0.0
 40
0
 41
0
  0
VERTEX
  8
0
 10
2.62651
 20
2.30024
 30
0.0
 40
0
 41
0
  0
VERTEX
  8
0
 10
2.63764
 20
2.30772
 30
0.0
 40
0
 41
0
  0
VERTEX
  8
0
 10
2.6415
 20
2.30794
 30
0.0
 40
0
 41
0
  0
VERTEX
  8
0
 10
2.64671
 20
2.30826
 30
0.0
 40
0
 41
0
  0
VERTEX
  8
0
 10
2.66237
 20
2.31104
 30
0.0
 40
0
 41
0
  0
VERTEX
  8
0
 10
2.65104
 20
2.31733
 30
0.0
 40
0
 41
0
  0
VERTEX
  8
0
 10
2.64708
 20
2.31874
 30
0.0
 40
0
 41
0
  0
VERTEX
  8
0
 10
2.64231
 20
2.32047
 30
0.0
 40
0
 41
0
  0
VERTEX
  8
0
 10
2.62989
 20
2.33078
 30
0.0
 40
0
 41
0
  0
VERTEX
  8
0
 10
2.62332
 20
2.34717
 30
0.0
 40
0
 41
0
  0
VERTEX
  8
0
 10
2.62771
 20
2.36247
 30
0.0
 40
0
 41
0
  0
VERTEX
  8
0
 10
2.63926
 20
2.37056
 30
0.0
 40
0
 41
0
  0
VERTEX
  8
0
 10
2.6435
 20
2.37125
 30
0.0
 40
0
 41
0
  0
VERTEX
  8
0
 10
2.64594
 20
2.37169
 30
0.0
 40
0
 41
0
  0
VERTEX
  8
0
 10
2.65679
 20
2.37565
 30
0.0
 40
0
 41
0
  0
VERTEX
  8
0
 10
2.66347
 20
2.38075
 30
0.0
 40
0
 41
0
  0
VERTEX
  8
0
 10
2.66379
 20
2.38172
 30
0.0
 40
0
 41
0
  0
VERTEX
  8
0
 10
2.66407
 20
2.38254
 30
0.0
 40
0
 41
0
  0
VERTEX
  8
0
 10
2.66129
 20
2.38624
 30
0.0
 40
0
 41
0
  0
VERTEX
  8
0
 10
2.64996
 20
2.38444
 30
0.0
 40
0
 41
0
  0
VERTEX
  8
0
 10
2.64632
 20
2.38336
 30
0.0
 40
0
 41
0
  0
VERTEX
  8
0
 10
2.64356
 20
2.3826
 30
0.0
 40
0
 41
0
  0
VERTEX
  8
0
 10
2.63211
 20
2.37978
 30
0.0
 40
0
 41
0
  0
VERTEX
  8
0
 10
2.62608
 20
2.3789
 30
0.0
 40
0
 41
0
  0
VERTEX
  8
0
 10
2.62603
 20
2.37907
 30
0.0
 40
0
 41
0
  0
VERTEX
  8
0
 10
2.62597
 20
2.37929
 30
0.0
 40
0
 41
0
  0
VERTEX
  8
0
 10
2.62337
 20
2.38433
 30
0.0
 40
0
 41
0
  0
VERTEX
  8
0
 10
2.61865
 20
2.3929
 30
0.0
 40
0
 41
0
  0
VERTEX
  8
0
 10
2.61757
 20
2.39486
 30
0.0
 40
0
 41
0
  0
VERTEX
  8
0
 10
2.61583
 20
2.39794
 30
0.0
 40
0
 41
0
  0
VERTEX
  8
0
 10
2.61279
 20
2.40831
 30
0.0
 40
0
 41
0
  0
VERTEX
  8
0
 10
2.61822
 20
2.41635
 30
0.0
 40
0
 41
0
  0
VERTEX
  8
0
 10
2.62061
 20
2.41824
 30
0.0
 40
0
 41
0
  0
VERTEX
  8
0
 10
2.62244
 20
2.41982
 30
0.0
 40
0
 41
0
  0
VERTEX
  8
0
 10
2.62733
 20
2.4254
 30
0.0
 40
0
 41
0
  0
VERTEX
  8
0
 10
2.61751
 20
2.42426
 30
0.0
 40
0
 41
0
  0
VERTEX
  8
0
 10
2.61431
 20
2.42356
 30
0.0
 40
0
 41
0
  0
VERTEX
  8
0
 10
2.61106
 20
2.4229
 30
0.0
 40
0
 41
0
  0
VERTEX
  8
0
 10
2.5964
 20
2.42393
 30
0.0
 40
0
 41
0
  0
VERTEX
  8
0
 10
2.58106
 20
2.43175
 30
0.0
 40
0
 41
0
  0
VERTEX
  8
0
 10
2.57753
 20
2.43446
 30
0.0
 40
0
 41
0
  0
VERTEX
  8
0
 10
2.57488
 20
2.43653
 30
0.0
 40
0
 41
0
  0
VERTEX
  8
0
 10
2.55871
 20
2.44754
 30
0.0
 40
0
 41
0
  0
VERTEX
  8
0
 10
2.54303
 20
2.45703
 30
0.0
 40
0
 41
0
  0
VERTEX
  8
0
 10
2.54064
 20
2.45828
 30
0.0
 40
0
 41
0
  0
VERTEX
  8
0
 10
2.53803
 20
2.45964
 30
0.0
 40
0
 41
0
  0
VERTEX
  8
0
 10
2.53065
 20
2.46451
 30
0.0
 40
0
 41
0
  0
VERTEX
  8
0
 10
2.52513
 20
2.47336
 30
0.0
 40
0
 41
0
  0
VERTEX
  8
0
 10
2.52235
 20
2.48981
 30
0.0
 40
0
 41
0
  0
VERTEX
  8
0
 10
2.52106
 20
2.51167
 30
0.0
 40
0
 41
0
  0
VERTEX
  8
0
 10
2.52072
 20
2.51893
 30
0.0
 40
0
 41
0
  0
VERTEX
  8
0
 10
2.52018
 20
2.52994
 30
0.0
 40
0
 41
0
  0
VERTEX
  8
0
 10
2.51644
 20
2.56293
 30
0.0
 40
0
 41
0
  0
VERTEX
  8
0
 10
2.50846
 20
2.60032
 30
0.0
 40
0
 41
0
  0
VERTEX
  8
0
 10
2.49735
 20
2.62896
 30
0.0
 40
0
 41
0
  0
VERTEX
  8
0
 10
2.48796
 20
2.64339
 30
0.0
 40
0
 41
0
  0
VERTEX
  8
0
 10
2.48372
 20
2.64671
 30
0.0
 40
0
 41
0
  0
VERTEX
  8
0
 10
2.48172
 20
2.64828
 30
0.0
 40
0
 41
0
  0
VERTEX
  8
0
 10
2.47358
 20
2.65597
 30
0.0
 40
0
 41
0
  0
VERTEX
  8
0
 10
2.46935
 20
2.66069
 30
0.0
 40
0
 41
0
  0
VERTEX
  8
0
 10
2.46935
 20
2.66228
 30
0.0
 40
0
 41
0
  0
VERTEX
  8
0
 10
2.46935
 20
2.66769
 30
0.0
 40
0
 41
0
  0
VERTEX
  8
0
 10
2.45833
 20
2.68397
 30
0.0
 40
0
 41
0
  0
VERTEX
  8
0
 10
2.43224
 20
2.71929
 30
0.0
 40
0
 41
0
  0
VERTEX
  8
0
 10
2.4011
 20
2.75553
 30
0.0
 40
0
 41
0
  0
VERTEX
  8
0
 10
2.38178
 20
2.77528
 30
0.0
 40
0
 41
0
  0
VERTEX
  8
0
 10
2.37511
 20
2.78006
 30
0.0
 40
0
 41
0
  0
VERTEX
  8
0
 10
2.37076
 20
2.78315
 30
0.0
 40
0
 41
0
  0
VERTEX
  8
0
 10
2.35226
 20
2.79644
 30
0.0
 40
0
 41
0
  0
VERTEX
  8
0
 10
2.34174
 20
2.80404
 30
0.0
 40
0
 41
0
  0
VERTEX
  8
0
 10
2.34142
 20
2.80425
 30
0.0
 40
0
 41
0
  0
VERTEX
  8
0
 10
2.3405
 20
2.8049
 30
0.0
 40
0
 41
0
  0
VERTEX
  8
0
 10
2.34179
 20
2.81489
 30
0.0
 40
0
 41
0
  0
VERTEX
  8
0
 10
2.34804
 20
2.84201
 30
0.0
 40
0
 41
0
  0
VERTEX
  8
0
 10
2.35992
 20
2.88456
 30
0.0
 40
0
 41
0
  0
VERTEX
  8
0
 10
2.37261
 20
2.92708
 30
0.0
 40
0
 41
0
  0
VERTEX
  8
0
 10
2.37701
 20
2.94119
 30
0.0
 40
0
 41
0
  0
VERTEX
  8
0
 10
2.38672
 20
2.97271
 30
0.0
 40
0
 41
0
  0
VERTEX
  8
0
 10
2.41037
 20
3.06901
 30
0.0
 40
0
 41
0
  0
VERTEX
  8
0
 10
2.42822
 20
3.19575
 30
0.0
 40
0
 41
0
  0
VERTEX
  8
0
 10
2.43213
 20
3.33996
 30
0.0
 40
0
 41
0
  0
VERTEX
  8
0
 10
2.42665
 20
3.47526
 30
0.0
 40
0
 41
0
  0
VERTEX
  8
0
 10
2.4235
 20
3.52024
 30
0.0
 40
0
 41
0
  0
VERTEX
  8
0
 10
2.41938
 20
3.57883
 30
0.0
 40
0
 41
0
  0
VERTEX
  8
0
 10
2.40192
 20
3.75429
 30
0.0
 40
0
 41
0
  0
VERTEX
  8
0
 10
2.37554
 20
3.92399
 30
0.0
 40
0
 41
0
  0
VERTEX
  8
0
 10
2.34663
 20
4.01932
 30
0.0
 40
0
 41
0
  0
VERTEX
  8
0
 10
2.31885
 20
4.03212
 30
0.0
 40
0
 41
0
  0
VERTEX
  8
0
 10
2.31722
 20
4.03006
 30
0.0
 40
0
 41
0
  0
SEQEND
 8
0
  0
ENDSEC
  0
EOF
