  0
SECTION
  2
HEADER
  9
$ACADVER
  1
AC1009
  9
$EXTMIN
 10
0.0
 20
0.0
 30
0.0
  9
$EXTMAX
 10
1000.0
 20
1000.0
 30
0.0
  9
$FILLMODE
 70
 0
  9
$SPLFRAME
 70
 1
  0
ENDSEC
  0
SECTION
  2
TABLES
  0
TABLE
  2
LAYER
 70
1
  0
LAYER
  2
0
 70
     0
 62
     7
  6
CONTINUOUS
  0
ENDTAB
  0
ENDSEC
  0
SECTION
  2
ENTITIES
  0
POLYLINE
  8
0
 62
     0
 66
     1
 10
0
 20
0
 30
0.0
 70
     1
 40
0
 41
0
  0
VERTEX
  8
0
 10
2.31722
 20
4.03006
 30
0.0
 40
0
 41
0
  0
VERTEX
  8
0
 10
2.31592
 20
4.02849
 30
0.0
 40
0
 41
0
  0
VERTEX
  8
0
 10
2.31293
 20
4.023
 30
0.0
 40
0
 41
0
  0
VERTEX
  8
0
 10
2.30903
 20
4.01014
 30
0.0
 40
0
 41
0
  0
VERTEX
  8
0
 10
2.30431
 20
3.98671
 30
0.0
 40
0
 41
0
  0
VERTEX
  8
0
 10
2.29926
 20
3.95763
 30
0.0
 40
0
 41
0
  0
VERTEX
  8
0
 10
2.29769
 20
3.94792
 30
0.0
 40
0
 41
0
  0
VERTEX
  8
0
 10
2.29693
 20
3.94353
 30
0.0
 40
0
 41
0
  0
VERTEX
  8
0
 10
2.29199
 20
3.92176
 30
0.0
 40
0
 41
0
  0
VERTEX
  8
0
 10
2.28674
 20
3.90543
 30
0.0
 40
0
 41
0
  0
VERTEX
  8
0
 10
2.28586
 20
3.90375
 30
0.0
 40
0
 41
0
  0
VERTEX
  8
0
 10
2.28494
 20
3.90207
 30
0.0
 40
0
 41
0
  0
VERTEX
  8
0
 10
2.28185
 20
3.89187
 30
0.0
 40
0
 41
0
  0
VERTEX
  8
0
 10
2.27582
 20
3.86849
 30
0.0
 40
0
 41
0
  0
VERTEX
  8
0
 10
2.26867
 20
3.83708
 30
0.0
 40
0
 41
0
  0
VERTEX
  8
0
 10
2.26292
 20
3.80994
 30
0.0
 40
0
 41
0
  0
VERTEX
  8
0
 10
2.26112
 20
3.80083
 30
0.0
 40
0
 41
0
  0
VERTEX
  8
0
 10
2.25922
 20
3.79139
 30
0.0
 40
0
 41
0
  0
VERTEX
  8
0
 10
2.2531
 20
3.76297
 30
0.0
 40
0
 41
0
  0
VERTEX
  8
0
 10
2.24468
 20
3.72672
 30
0.0
 40
0
 41
0
  0
VERTEX
  8
0
 10
2.23693
 20
3.69629
 30
0.0
 40
0
 41
0
  0
VERTEX
  8
0
 10
2.23242
 20
3.6805
 30
0.0
 40
0
 41
0
  0
VERTEX
  8
0
 10
2.23079
 20
3.67578
 30
0.0
 40
0
 41
0
  0
VERTEX
  8
0
 10
2.22314
 20
3.65424
 30
0.0
 40
0
 41
0
  0
VERTEX
  8
0
 10
2.20861
 20
3.58653
 30
0.0
 40
0
 41
0
  0
VERTEX
  8
0
 10
2.19086
 20
3.46847
 30
0.0
 40
0
 41
0
  0
VERTEX
  8
0
 10
2.18067
 20
3.34928
 30
0.0
 40
0
 41
0
  0
VERTEX
  8
0
 10
2.17899
 20
3.27968
 30
0.0
 40
0
 41
0
  0
VERTEX
  8
0
 10
2.18138
 20
3.25672
 30
0.0
 40
0
 41
0
  0
VERTEX
  8
0
 10
2.18207
 20
3.24946
 30
0.0
 40
0
 41
0
  0
VERTEX
  8
0
 10
2.18435
 20
3.21718
 30
0.0
 40
0
 41
0
  0
VERTEX
  8
0
 10
2.18431
 20
3.19732
 30
0.0
 40
0
 41
0
  0
VERTEX
  8
0
 10
2.18392
 20
3.19624
 30
0.0
 40
0
 41
0
  0
VERTEX
  8
0
 10
2.18349
 20
3.19521
 30
0.0
 40
0
 41
0
  0
VERTEX
  8
0
 10
2.18457
 20
3.17931
 30
0.0
 40
0
 41
0
  0
VERTEX
  8
0
 10
2.18913
 20
3.15457
 30
0.0
 40
0
 41
0
  0
VERTEX
  8
0
 10
2.19043
 20
3.14914
 30
0.0
 40
0
 41
0
  0
VERTEX
  8
0
 10
2.19185
 20
3.14328
 30
0.0
 40
0
 41
0
  0
VERTEX
  8
0
 10
2.19456
 20
3.12489
 30
0.0
 40
0
 41
0
  0
VERTEX
  8
0
 10
2.19835
 20
3.08925
 30
0.0
 40
0
 41
0
  0
VERTEX
  8
0
 10
2.20156
 20
3.04536
 30
0.0
 40
0
 41
0
  0
VERTEX
  8
0
 10
2.2034
 20
3.0084
 30
0.0
 40
0
 41
0
  0
VERTEX
  8
0
 10
2.20383
 20
2.9961
 30
0.0
 40
0
 41
0
  0
VERTEX
  8
0
 10
2.20774
 20
2.88249
 30
0.0
 40
0
 41
0
  0
VERTEX
  8
0
 10
2.19119
 20
2.87169
 30
0.0
 40
0
 41
0
  0
VERTEX
  8
0
 10
2.17464
 20
2.86083
 30
0.0
 40
0
 41
0
  0
VERTEX
  8
0
 10
2.18733
 20
2.88569
 30
0.0
 40
0
 41
0
  0
VERTEX
  8
0
 10
2.18972
 20
2.89046
 30
0.0
 40
0
 41
0
  0
VERTEX
  8
0
 10
2.19526
 20
2.90565
 30
0.0
 40
0
 41
0
  0
VERTEX
  8
0
 10
2.19
 20
2.90858
 30
0.0
 40
0
 41
0
  0
VERTEX
  8
0
 10
2.17117
 20
2.89432
 30
0.0
 40
0
 41
0
  0
VERTEX
  8
0
 10
2.14643
 20
2.87076
 30
0.0
 40
0
 41
0
  0
VERTEX
  8
0
 10
2.13846
 20
2.86262
 30
0.0
 40
0
 41
0
  0
VERTEX
  8
0
 10
2.09119
 20
2.81467
 30
0.0
 40
0
 41
0
  0
VERTEX
  8
0
 10
2.08703
 20
3.0204
 30
0.0
 40
0
 41
0
  0
VERTEX
  8
0
 10
2.08658
 20
3.04081
 30
0.0
 40
0
 41
0
  0
VERTEX
  8
0
 10
2.08518
 20
3.102
 30
0.0
 40
0
 41
0
  0
VERTEX
  8
0
 10
2.08333
 20
3.17199
 30
0.0
 40
0
 41
0
  0
VERTEX
  8
0
 10
2.08165
 20
3.22304
 30
0.0
 40
0
 41
0
  0
VERTEX
  8
0
 10
2.08078
 20
3.24463
 30
0.0
 40
0
 41
0
  0
VERTEX
  8
0
 10
2.08046
 20
3.24756
 30
0.0
 40
0
 41
0
  0
VERTEX
  8
0
 10
2.08014
 20
3.25054
 30
0.0
 40
0
 41
0
  0
VERTEX
  8
0
 10
2.07904
 20
3.26411
 30
0.0
 40
0
 41
0
  0
VERTEX
  8
0
 10
2.07688
 20
3.29329
 30
0.0
 40
0
 41
0
  0
VERTEX
  8
0
 10
2.07428
 20
3.33106
 30
0.0
 40
0
 41
0
  0
VERTEX
  8
0
 10
2.07221
 20
3.36262
 30
0.0
 40
0
 41
0
  0
VERTEX
  8
0
 10
2.07156
 20
3.37315
 30
0.0
 40
0
 41
0
  0
VERTEX
  8
0
 10
2.07042
 20
3.39046
 30
0.0
 40
0
 41
0
  0
VERTEX
  8
0
 10
2.06586
 20
3.44233
 30
0.0
 40
0
 41
0
  0
VERTEX
  8
0
 10
2.05697
 20
3.50146
 30
0.0
 40
0
 41
0
  0
VERTEX
  8
0
 10
2.04161
 20
3.56694
 30
0.0
 40
0
 41
0
  0
VERTEX
  8
0
 10
2.02311
 20
3.63308
 30
0.0
 40
0
 41
0
  0
VERTEX
  8
0
 10
2.01671
 20
3.655
 30
0.0
 40
0
 41
0
  0
VERTEX
  8
0
 10
2.01069
 20
3.67551
 30
0.0
 40
0
 41
0
  0
VERTEX
  8
0
 10
1.97174
 20
3.78597
 30
0.0
 40
0
 41
0
  0
VERTEX
  8
0
 10
1.92844
 20
3.88824
 30
0.0
 40
0
 41
0
  0
VERTEX
  8
0
 10
1.92025
 20
3.90457
 30
0.0
 40
0
 41
0
  0
VERTEX
  8
0
 10
1.91656
 20
3.91194
 30
0.0
 40
0
 41
0
  0
VERTEX
  8
0
 10
1.90126
 20
3.94618
 30
0.0
 40
0
 41
0
  0
VERTEX
  8
0
 10
1.89339
 20
3.96474
 30
0.0
 40
0
 41
0
  0
VERTEX
  8
0
 10
1.89339
 20
3.97086
 30
0.0
 40
0
 41
0
  0
VERTEX
  8
0
 10
1.89339
 20
3.97743
 30
0.0
 40
0
 41
0
  0
VERTEX
  8
0
 10
1.88553
 20
3.99707
 30
0.0
 40
0
 41
0
  0
VERTEX
  8
0
 10
1.87067
 20
4.00738
 30
0.0
 40
0
 41
0
  0
VERTEX
  8
0
 10
1.86572
 20
4.00738
 30
0.0
 40
0
 41
0
  0
VERTEX
  8
0
 10
1.86296
 20
4.00738
 30
0.0
 40
0
 41
0
  0
VERTEX
  8
0
 10
1.85465
 20
4.0051
 30
0.0
 40
0
 41
0
  0
VERTEX
  8
0
 10
1.84831
 20
3.99224
 30
0.0
 40
0
 41
0
  0
VERTEX
  8
0
 10
1.84457
 20
3.96024
 30
0.0
 40
0
 41
0
  0
VERTEX
  8
0
 10
1.84224
 20
3.91515
 30
0.0
 40
0
 41
0
  0
VERTEX
  8
0
 10
1.84158
 20
3.90012
 30
0.0
 40
0
 41
0
  0
VERTEX
  8
0
 10
1.8411
 20
3.88921
 30
0.0
 40
0
 41
0
  0
VERTEX
  8
0
 10
1.83637
 20
3.82949
 30
0.0
 40
0
 41
0
  0
VERTEX
  8
0
 10
1.83003
 20
3.77821
 30
0.0
 40
0
 41
0
  0
VERTEX
  8
0
 10
1.82878
 20
3.77143
 30
0.0
 40
0
 41
0
  0
VERTEX
  8
0
 10
1.82574
 20
3.75564
 30
0.0
 40
0
 41
0
  0
VERTEX
  8
0
 10
1.81799
 20
3.70801
 30
0.0
 40
0
 41
0
  0
VERTEX
  8
0
 10
1.81174
 20
3.64572
 30
0.0
 40
0
 41
0
  0
VERTEX
  8
0
 10
1.80875
 20
3.56657
 30
0.0
 40
0
 41
0
  0
VERTEX
  8
0
 10
1.80789
 20
3.48113
 30
0.0
 40
0
 41
0
  0
VERTEX
  8
0
 10
1.80789
 20
3.45258
 30
0.0
 40
0
 41
0
  0
VERTEX
  8
0
 10
1.80783
 20
3.43044
 30
0.0
 40
0
 41
0
  0
VERTEX
  8
0
 10
1.80817
 20
3.36388
 30
0.0
 40
0
 41
0
  0
VERTEX
  8
0
 10
1.80951
 20
3.30149
 30
0.0
 40
0
 41
0
  0
VERTEX
  8
0
 10
1.81207
 20
3.26019
 30
0.0
 40
0
 41
0
  0
VERTEX
  8
0
 10
1.81456
 20
3.24121
 30
0.0
 40
0
 41
0
  0
VERTEX
  8
0
 10
1.81614
 20
3.23503
 30
0.0
 40
0
 41
0
  0
VERTEX
  8
0
 10
1.81728
 20
3.23047
 30
0.0
 40
0
 41
0
  0
VERTEX
  8
0
 10
1.82428
 20
3.19797
 30
0.0
 40
0
 41
0
  0
VERTEX
  8
0
 10
1.83094
 20
3.162
 30
0.0
 40
0
 41
0
  0
VERTEX
  8
0
 10
1.83197
 20
3.15565
 30
0.0
 40
0
 41
0
  0
VERTEX
  8
0
 10
1.83458
 20
3.139
 30
0.0
 40
0
 41
0
  0
VERTEX
  8
0
 10
1.84489
 20
3.08919
 30
0.0
 40
0
 41
0
  0
VERTEX
  8
0
 10
1.86333
 20
3.01167
 30
0.0
 40
0
 41
0
  0
VERTEX
  8
0
 10
1.88331
 20
2.93875
 30
0.0
 40
0
 41
0
  0
VERTEX
  8
0
 10
1.89589
 20
2.89854
 30
0.0
 40
0
 41
0
  0
VERTEX
  8
0
 10
1.90088
 20
2.88612
 30
0.0
 40
0
 41
0
  0
VERTEX
  8
0
 10
1.90462
 20
2.87679
 30
0.0
 40
0
 41
0
  0
VERTEX
  8
0
 10
1.91547
 20
2.84858
 30
0.0
 40
0
 41
0
  0
VERTEX
  8
0
 10
1.92503
 20
2.81993
 30
0.0
 40
0
 41
0
  0
VERTEX
  8
0
 10
1.93197
 20
2.79167
 30
0.0
 40
0
 41
0
  0
VERTEX
  8
0
 10
1.93722
 20
2.76443
 30
0.0
 40
0
 41
0
  0
VERTEX
  8
0
 10
1.93886
 20
2.75532
 30
0.0
 40
0
 41
0
  0
VERTEX
  8
0
 10
1.94726
 20
2.70736
 30
0.0
 40
0
 41
0
  0
VERTEX
  8
0
 10
1.92708
 20
2.66342
 30
0.0
 40
0
 41
0
  0
VERTEX
  8
0
 10
1.92269
 20
2.65397
 30
0.0
 40
0
 41
0
  0
VERTEX
  8
0
 10
1.91249
 20
2.62418
 30
0.0
 40
0
 41
0
  0
VERTEX
  8
0
 10
1.90224
 20
2.57667
 30
0.0
 40
0
 41
0
  0
VERTEX
  8
0
 10
1.89535
 20
2.51481
 30
0.0
 40
0
 41
0
  0
VERTEX
  8
0
 10
1.89171
 20
2.45318
 30
0.0
 40
0
 41
0
  0
VERTEX
  8
0
 10
1.89094
 20
2.43261
 30
0.0
 40
0
 41
0
  0
VERTEX
  8
0
 10
1.89051
 20
2.4221
 30
0.0
 40
0
 41
0
  0
VERTEX
  8
0
 10
1.88672
 20
2.3725
 30
0.0
 40
0
 41
0
  0
VERTEX
  8
0
 10
1.88167
 20
2.33826
 30
0.0
 40
0
 41
0
  0
VERTEX
  8
0
 10
1.88069
 20
2.33544
 30
0.0
 40
0
 41
0
  0
VERTEX
  8
0
 10
1.87924
 20
2.33143
 30
0.0
 40
0
 41
0
  0
VERTEX
  8
0
 10
1.87636
 20
2.31819
 30
0.0
 40
0
 41
0
  0
VERTEX
  8
0
 10
1.87929
 20
2.31119
 30
0.0
 40
0
 41
0
  0
VERTEX
  8
0
 10
1.88075
 20
2.31028
 30
0.0
 40
0
 41
0
  0
VERTEX
  8
0
 10
1.88217
 20
2.3094
 30
0.0
 40
0
 41
0
  0
VERTEX
  8
0
 10
1.8845
 20
2.30176
 30
0.0
 40
0
 41
0
  0
VERTEX
  8
0
 10
1.88037
 20
2.28706
 30
0.0
 40
0
 41
0
  0
VERTEX
  8
0
 10
1.87853
 20
2.28261
 30
0.0
 40
0
 41
0
  0
VERTEX
  8
0
 10
1.87685
 20
2.27865
 30
0.0
 40
0
 41
0
  0
VERTEX
  8
0
 10
1.87115
 20
2.25
 30
0.0
 40
0
 41
0
  0
VERTEX
  8
0
 10
1.86888
 20
2.21018
 30
0.0
 40
0
 41
0
  0
VERTEX
  8
0
 10
1.86888
 20
2.19689
 30
0.0
 40
0
 41
0
  0
VERTEX
  8
0
 10
1.86888
 20
2.18158
 30
0.0
 40
0
 41
0
  0
VERTEX
  8
0
 10
1.8604
 20
2.13569
 30
0.0
 40
0
 41
0
  0
VERTEX
  8
0
 10
1.83365
 20
2.08301
 30
0.0
 40
0
 41
0
  0
VERTEX
  8
0
 10
1.78635
 20
2.03581
 30
0.0
 40
0
 41
0
  0
VERTEX
  8
0
 10
1.73438
 20
2.00088
 30
0.0
 40
0
 41
0
  0
VERTEX
  8
0
 10
1.71615
 20
1.991
 30
0.0
 40
0
 41
0
  0
VERTEX
  8
0
 10
1.71001
 20
1.98768
 30
0.0
 40
0
 41
0
  0
VERTEX
  8
0
 10
1.69228
 20
1.97657
 30
0.0
 40
0
 41
0
  0
VERTEX
  8
0
 10
1.6589
 20
1.95415
 30
0.0
 40
0
 41
0
  0
VERTEX
  8
0
 10
1.618
 20
1.92512
 30
0.0
 40
0
 41
0
  0
VERTEX
  8
0
 10
1.58317
 20
1.89958
 30
0.0
 40
0
 41
0
  0
VERTEX
  8
0
 10
1.57167
 20
1.89094
 30
0.0
 40
0
 41
0
  0
VERTEX
  8
0
 10
1.56575
 20
1.88656
 30
0.0
 40
0
 41
0
  0
VERTEX
  8
0
 10
1.53239
 20
1.86176
 30
0.0
 40
0
 41
0
  0
VERTEX
  8
0
 10
1.50233
 20
1.83974
 30
0.0
 40
0
 41
0
  0
VERTEX
  8
0
 10
1.49815
 20
1.83664
 30
0.0
 40
0
 41
0
  0
VERTEX
  8
0
 10
1.48708
 20
1.82867
 30
0.0
 40
0
 41
0
  0
VERTEX
  8
0
 10
1.45622
 20
1.80138
 30
0.0
 40
0
 41
0
  0
VERTEX
  8
0
 10
1.40967
 20
1.75478
 30
0.0
 40
0
 41
0
  0
VERTEX
  8
0
 10
1.36746
 20
1.70665
 30
0.0
 40
0
 41
0
  0
VERTEX
  8
0
 10
1.345
 20
1.67731
 30
0.0
 40
0
 41
0
  0
VERTEX
  8
0
 10
1.33892
 20
1.66672
 30
0.0
 40
0
 41
0
  0
VERTEX
  8
0
 10
1.33577
 20
1.66124
 30
0.0
 40
0
 41
0
  0
VERTEX
  8
0
 10
1.31613
 20
1.63049
 30
0.0
 40
0
 41
0
  0
VERTEX
  8
0
 10
1.29666
 20
1.60308
 30
0.0
 40
0
 41
0
  0
VERTEX
  8
0
 10
1.29357
 20
1.59928
 30
0.0
 40
0
 41
0
  0
VERTEX
  8
0
 10
1.28668
 20
1.59088
 30
0.0
 40
0
 41
0
  0
VERTEX
  8
0
 10
1.26823
 20
1.56364
 30
0.0
 40
0
 41
0
  0
VERTEX
  8
0
 10
1.24951
 20
1.52376
 30
0.0
 40
0
 41
0
  0
VERTEX
  8
0
 10
1.23432
 20
1.4714
 30
0.0
 40
0
 41
0
  0
VERTEX
  8
0
 10
1.22287
 20
1.4165
 30
0.0
 40
0
 41
0
  0
VERTEX
  8
0
 10
1.21956
 20
1.39811
 30
0.0
 40
0
 41
0
  0
VERTEX
  8
0
 10
1.21821
 20
1.39079
 30
0.0
 40
0
 41
0
  0
VERTEX
  8
0
 10
1.2156
 20
1.36583
 30
0.0
 40
0
 41
0
  0
VERTEX
  8
0
 10
1.21837
 20
1.35232
 30
0.0
 40
0
 41
0
  0
VERTEX
  8
0
 10
1.21973
 20
1.35064
 30
0.0
 40
0
 41
0
  0
VERTEX
  8
0
 10
1.22108
 20
1.34896
 30
0.0
 40
0
 41
0
  0
VERTEX
  8
0
 10
1.22271
 20
1.33816
 30
0.0
 40
0
 41
0
  0
VERTEX
  8
0
 10
1.21652
 20
1.32004
 30
0.0
 40
0
 41
0
  0
VERTEX
  8
0
 10
1.21403
 20
1.31473
 30
0.0
 40
0
 41
0
  0
VERTEX
  8
0
 10
1.20595
 20
1.29763
 30
0.0
 40
0
 41
0
  0
VERTEX
  8
0
 10
1.19043
 20
1.24213
 30
0.0
 40
0
 41
0
  0
VERTEX
  8
0
 10
1.18858
 20
1.17225
 30
0.0
 40
0
 41
0
  0
VERTEX
  8
0
 10
1.20833
 20
1.10639
 30
0.0
 40
0
 41
0
  0
VERTEX
  8
0
 10
1.2373
 20
1.0593
 30
0.0
 40
0
 41
0
  0
VERTEX
  8
0
 10
1.24946
 20
1.04584
 30
0.0
 40
0
 41
0
  0
VERTEX
  8
0
 10
1.2525
 20
1.04248
 30
0.0
 40
0
 41
0
  0
VERTEX
  8
0
 10
1.26118
 20
1.03179
 30
0.0
 40
0
 41
0
  0
VERTEX
  8
0
 10
1.26758
 20
1.0191
 30
0.0
 40
0
 41
0
  0
VERTEX
  8
0
 10
1.27024
 20
1.00217
 30
0.0
 40
0
 41
0
  0
VERTEX
  8
0
 10
1.27094
 20
0.982096
 30
0.0
 40
0
 41
0
  0
VERTEX
  8
0
 10
1.27105
 20
0.975369
 30
0.0
 40
0
 41
0
  0
VERTEX
  8
0
 10
1.2711
 20
0.967665
 30
0.0
 40
0
 41
0
  0
VERTEX
  8
0
 10
1.28266
 20
0.895019
 30
0.0
 40
0
 41
0
  0
VERTEX
  8
0
 10
1.28488
 20
0.888456
 30
0.0
 40
0
 41
0
  0
VERTEX
  8
0
 10
1.28673
 20
0.883029
 30
0.0
 40
0
 41
0
  0
VERTEX
  8
0
 10
1.29812
 20
0.847874
 30
0.0
 40
0
 41
0
  0
VERTEX
  8
0
 10
1.30941
 20
0.812011
 30
0.0
 40
0
 41
0
  0
VERTEX
  8
0
 10
1.3112
 20
0.806153
 30
0.0
 40
0
 41
0
  0
VERTEX
  8
0
 10
1.31424
 20
0.796169
 30
0.0
 40
0
 41
0
  0
VERTEX
  8
0
 10
1.32579
 20
0.766764
 30
0.0
 40
0
 41
0
  0
VERTEX
  8
0
 10
1.34522
 20
0.726887
 30
0.0
 40
0
 41
0
  0
VERTEX
  8
0
 10
1.36778
 20
0.689453
 30
0.0
 40
0
 41
0
  0
VERTEX
  8
0
 10
1.38536
 20
0.665093
 30
0.0
 40
0
 41
0
  0
VERTEX
  8
0
 10
1.39193
 20
0.657553
 30
0.0
 40
0
 41
0
  0
VERTEX
  8
0
 10
1.39518
 20
0.653808
 30
0.0
 40
0
 41
0
  0
VERTEX
  8
0
 10
1.41157
 20
0.632542
 30
0.0
 40
0
 41
0
  0
VERTEX
  8
0
 10
1.42426
 20
0.613499
 30
0.0
 40
0
 41
0
  0
VERTEX
  8
0
 10
1.42567
 20
0.610786
 30
0.0
 40
0
 41
0
  0
VERTEX
  8
0
 10
1.42925
 20
0.603787
 30
0.0
 40
0
 41
0
  0
VERTEX
  8
0
 10
1.44217
 20
0.583768
 30
0.0
 40
0
 41
0
  0
VERTEX
  8
0
 10
1.46397
 20
0.555122
 30
0.0
 40
0
 41
0
  0
VERTEX
  8
0
 10
1.48844
 20
0.527994
 30
0.0
 40
0
 41
0
  0
VERTEX
  8
0
 10
1.50651
 20
0.510742
 30
0.0
 40
0
 41
0
  0
VERTEX
  8
0
 10
1.51303
 20
0.505533
 30
0.0
 40
0
 41
0
  0
VERTEX
  8
0
 10
1.51719
 20
0.502171
 30
0.0
 40
0
 41
0
  0
VERTEX
  8
0
 10
1.53461
 20
0.487033
 30
0.0
 40
0
 41
0
  0
VERTEX
  8
0
 10
1.54378
 20
0.477593
 30
0.0
 40
0
 41
0
  0
VERTEX
  8
0
 10
1.54383
 20
0.476997
 30
0.0
 40
0
 41
0
  0
VERTEX
  8
0
 10
1.54383
 20
0.476346
 30
0.0
 40
0
 41
0
  0
VERTEX
  8
0
 10
1.52294
 20
0.472711
 30
0.0
 40
0
 41
0
  0
VERTEX
  8
0
 10
1.47
 20
0.469129
 30
0.0
 40
0
 41
0
  0
VERTEX
  8
0
 10
1.40039
 20
0.466906
 30
0.0
 40
0
 41
0
  0
VERTEX
  8
0
 10
1.34728
 20
0.466525
 30
0.0
 40
0
 41
0
  0
VERTEX
  8
0
 10
1.32964
 20
0.466851
 30
0.0
 40
0
 41
0
  0
VERTEX
  8
0
 10
1.30501
 20
0.467339
 30
0.0
 40
0
 41
0
  0
VERTEX
  8
0
 10
1.23096
 20
0.46224
 30
0.0
 40
0
 41
0
  0
VERTEX
  8
0
 10
1.1512
 20
0.445856
 30
0.0
 40
0
 41
0
  0
VERTEX
  8
0
 10
1.09787
 20
0.420031
 30
0.0
 40
0
 41
0
  0
VERTEX
  8
0
 10
1.07845
 20
0.3954
 30
0.0
 40
0
 41
0
  0
VERTEX
  8
0
 10
1.07845
 20
0.387153
 30
0.0
 40
0
 41
0
  0
VERTEX
  8
0
 10
1.07845
 20
0.384115
 30
0.0
 40
0
 41
0
  0
VERTEX
  8
0
 10
1.07313
 20
0.375
 30
0.0
 40
0
 41
0
  0
VERTEX
  8
0
 10
1.06282
 20
0.360732
 30
0.0
 40
0
 41
0
  0
VERTEX
  8
0
 10
1.06033
 20
0.357856
 30
0.0
 40
0
 41
0
  0
VERTEX
  8
0
 10
1.05528
 20
0.35216
 30
0.0
 40
0
 41
0
  0
VERTEX
  8
0
 10
1.04508
 20
0.330675
 30
0.0
 40
0
 41
0
  0
VERTEX
  8
0
 10
1.04177
 20
0.300131
 30
0.0
 40
0
 41
0
  0
VERTEX
  8
0
 10
1.04883
 20
0.268608
 30
0.0
 40
0
 41
0
  0
VERTEX
  8
0
 10
1.06451
 20
0.238553
 30
0.0
 40
0
 41
0
  0
VERTEX
  8
0
 10
1.08729
 20
0.21224
 30
0.0
 40
0
 41
0
  0
VERTEX
  8
0
 10
1.11551
 20
0.192165
 30
0.0
 40
0
 41
0
  0
VERTEX
  8
0
 10
1.14752
 20
0.18061
 30
0.0
 40
0
 41
0
  0
VERTEX
  8
0
 10
1.17345
 20
0.178657
 30
0.0
 40
0
 41
0
  0
VERTEX
  8
0
 10
1.18175
 20
0.179958
 30
0.0
 40
0
 41
0
  0
VERTEX
  8
0
 10
1.18631
 20
0.180718
 30
0.0
 40
0
 41
0
  0
VERTEX
  8
0
 10
1.20285
 20
0.179742
 30
0.0
 40
0
 41
0
  0
VERTEX
  8
0
 10
1.2175
 20
0.170301
 30
0.0
 40
0
 41
0
  0
VERTEX
  8
0
 10
1.22114
 20
0.166829
 30
0.0
 40
0
 41
0
  0
VERTEX
  8
0
 10
1.22868
 20
0.159614
 30
0.0
 40
0
 41
0
  0
VERTEX
  8
0
 10
1.26199
 20
0.149089
 30
0.0
 40
0
 41
0
  0
VERTEX
  8
0
 10
1.32368
 20
0.150717
 30
0.0
 40
0
 41
0
  0
VERTEX
  8
0
 10
1.40147
 20
0.171061
 30
0.0
 40
0
 41
0
  0
VERTEX
  8
0
 10
1.46929
 20
0.198514
 30
0.0
 40
0
 41
0
  0
VERTEX
  8
0
 10
1.491
 20
0.209418
 30
0.0
 40
0
 41
0
  0
VERTEX
  8
0
 10
1.50276
 20
0.215386
 30
0.0
 40
0
 41
0
  0
VERTEX
  8
0
 10
1.53885
 20
0.231988
 30
0.0
 40
0
 41
0
  0
VERTEX
  8
0
 10
1.5835
 20
0.248807
 30
0.0
 40
0
 41
0
  0
VERTEX
  8
0
 10
1.63265
 20
0.262587
 30
0.0
 40
0
 41
0
  0
VERTEX
  8
0
 10
1.67876
 20
0.272786
 30
0.0
 40
0
 41
0
  0
VERTEX
  8
0
 10
1.69422
 20
0.275771
 30
0.0
 40
0
 41
0
  0
VERTEX
  8
0
 10
1.7206
 20
0.280979
 30
0.0
 40
0
 41
0
  0
VERTEX
  8
0
 10
1.79921
 20
0.300022
 30
0.0
 40
0
 41
0
  0
VERTEX
  8
0
 10
1.86774
 20
0.326281
 30
0.0
 40
0
 41
0
  0
VERTEX
  8
0
 10
1.90788
 20
0.358996
 30
0.0
 40
0
 41
0
  0
VERTEX
  8
0
 10
1.92507
 20
0.391168
 30
0.0
 40
0
 41
0
  0
VERTEX
  8
0
 10
1.92796
 20
0.402561
 30
0.0
 40
0
 41
0
  0
VERTEX
  8
0
 10
1.92844
 20
0.404514
 30
0.0
 40
0
 41
0
  0
VERTEX
  8
0
 10
1.93186
 20
0.416667
 30
0.0
 40
0
 41
0
  0
VERTEX
  8
0
 10
1.93306
 20
0.416667
 30
0.0
 40
0
 41
0
  0
VERTEX
  8
0
 10
1.93565
 20
0.416667
 30
0.0
 40
0
 41
0
  0
VERTEX
  8
0
 10
1.94362
 20
0.418511
 30
0.0
 40
0
 41
0
  0
VERTEX
  8
0
 10
1.96246
 20
0.421983
 30
0.0
 40
0
 41
0
  0
VERTEX
  8
0
 10
1.9669
 20
0.422797
 30
0.0
 40
0
 41
0
  0
VERTEX
  8
0
 10
1.97206
 20
0.423774
 30
0.0
 40
0
 41
0
  0
VERTEX
  8
0
 10
2.01779
 20
0.424046
 30
0.0
 40
0
 41
0
  0
VERTEX
  8
0
 10
2.02138
 20
0.423122
 30
0.0
 40
0
 41
0
  0
VERTEX
  8
0
 10
2.04471
 20
0.417046
 30
0.0
 40
0
 41
0
  0
VERTEX
  8
0
 10
2.1161
 20
0.403646
 30
0.0
 40
0
 41
0
  0
VERTEX
  8
0
 10
2.23703
 20
0.389757
 30
0.0
 40
0
 41
0
  0
VERTEX
  8
0
 10
2.39968
 20
0.380208
 30
0.0
 40
0
 41
0
  0
VERTEX
  8
0
 10
2.56456
 20
0.374892
 30
0.0
 40
0
 41
0
  0
VERTEX
  8
0
 10
2.61951
 20
0.373699
 30
0.0
 40
0
 41
0
  0
VERTEX
  8
0
 10
2.63271
 20
0.373426
 30
0.0
 40
0
 41
0
  0
VERTEX
  8
0
 10
2.67231
 20
0.374946
 30
0.0
 40
0
 41
0
  0
VERTEX
  8
0
 10
2.71343
 20
0.381347
 30
0.0
 40
0
 41
0
  0
VERTEX
  8
0
 10
2.74457
 20
0.393446
 30
0.0
 40
0
 41
0
  0
VERTEX
  8
0
 10
2.76264
 20
0.406304
 30
0.0
 40
0
 41
0
  0
VERTEX
  8
0
 10
2.76753
 20
0.411621
 30
0.0
 40
0
 41
0
  0
VERTEX
  8
0
 10
2.76904
 20
0.413303
 30
0.0
 40
0
 41
0
  0
VERTEX
  8
0
 10
2.78097
 20
0.422635
 30
0.0
 40
0
 41
0
  0
VERTEX
  8
0
 10
2.79525
 20
0.430826
 30
0.0
 40
0
 41
0
  0
VERTEX
  8
0
 10
2.7979
 20
0.431913
 30
0.0
 40
0
 41
0
  0
VERTEX
  8
0
 10
2.80974
 20
0.436849
 30
0.0
 40
0
 41
0
  0
VERTEX
  8
0
 10
2.84153
 20
0.460613
 30
0.0
 40
0
 41
0
  0
VERTEX
  8
0
 10
2.86475
 20
0.498426
 30
0.0
 40
0
 41
0
  0
VERTEX
  8
0
 10
2.86589
 20
0.539822
 30
0.0
 40
0
 41
0
  0
VERTEX
  8
0
 10
2.85081
 20
0.571181
 30
0.0
 40
0
 41
0
  0
VERTEX
  8
0
 10
2.84315
 20
0.579047
 30
0.0
 40
0
 41
0
  0
VERTEX
  8
0
 10
2.84028
 20
0.581976
 30
0.0
 40
0
 41
0
  0
VERTEX
  8
0
 10
2.82975
 20
0.595215
 30
0.0
 40
0
 41
0
  0
VERTEX
  8
0
 10
2.8259
 20
0.603678
 30
0.0
 40
0
 41
0
  0
VERTEX
  8
0
 10
2.82644
 20
0.604221
 30
0.0
 40
0
 41
0
  0
VERTEX
  8
0
 10
2.82824
 20
0.606011
 30
0.0
 40
0
 41
0
  0
VERTEX
  8
0
 10
2.82482
 20
0.620171
 30
0.0
 40
0
 41
0
  0
VERTEX
  8
0
 10
2.80512
 20
0.641385
 30
0.0
 40
0
 41
0
  0
VERTEX
  8
0
 10
2.77692
 20
0.659993
 30
0.0
 40
0
 41
0
  0
VERTEX
  8
0
 10
2.75657
 20
0.667914
 30
0.0
 40
0
 41
0
  0
VERTEX
  8
0
 10
2.74978
 20
0.667914
 30
0.0
 40
0
 41
0
  0
VERTEX
  8
0
 10
2.74588
 20
0.667914
 30
0.0
 40
0
 41
0
  0
VERTEX
  8
0
 10
2.73432
 20
0.669325
 30
0.0
 40
0
 41
0
  0
VERTEX
  8
0
 10
2.72765
 20
0.674317
 30
0.0
 40
0
 41
0
  0
VERTEX
  8
0
 10
2.72928
 20
0.684299
 30
0.0
 40
0
 41
0
  0
VERTEX
  8
0
 10
2.73622
 20
0.696669
 30
0.0
 40
0
 41
0
  0
VERTEX
  8
0
 10
2.73888
 20
0.700521
 30
0.0
 40
0
 41
0
  0
VERTEX
  8
0
 10
2.74837
 20
0.714681
 30
0.0
 40
0
 41
0
  0
VERTEX
  8
0
 10
2.77285
 20
0.759983
 30
0.0
 40
0
 41
0
  0
VERTEX
  8
0
 10
2.80871
 20
0.836426
 30
0.0
 40
0
 41
0
  0
VERTEX
  8
0
 10
2.83946
 20
0.913629
 30
0.0
 40
0
 41
0
  0
VERTEX
  8
0
 10
2.85476
 20
0.959526
 30
0.0
 40
0
 41
0
  0
VERTEX
  8
0
 10
2.85801
 20
0.975151
 30
0.0
 40
0
 41
0
  0
VERTEX
  8
0
 10
2.85867
 20
0.978299
 30
0.0
 40
0
 41
0
  0
VERTEX
  8
0
 10
2.86486
 20
0.988607
 30
0.0
 40
0
 41
0
  0
VERTEX
  8
0
 10
2.8775
 20
0.993978
 30
0.0
 40
0
 41
0
  0
VERTEX
  8
0
 10
2.8814
 20
0.994629
 30
0.0
 40
0
 41
0
  0
VERTEX
  8
0
 10
2.89567
 20
0.997017
 30
0.0
 40
0
 41
0
  0
VERTEX
  8
0
 10
2.93838
 20
1.00543
 30
0.0
 40
0
 41
0
  0
VERTEX
  8
0
 10
2.97607
 20
1.01769
 30
0.0
 40
0
 41
0
  0
VERTEX
  8
0
 10
3.00478
 20
1.03619
 30
0.0
 40
0
 41
0
  0
VERTEX
  8
0
 10
3.0275
 20
1.05794
 30
0.0
 40
0
 41
0
  0
VERTEX
  8
0
 10
3.03461
 20
1.06559
 30
0.0
 40
0
 41
0
  0
VERTEX
  8
0
 10
3.0459
 20
1.0778
 30
0.0
 40
0
 41
0
  0
VERTEX
  8
0
 10
3.07362
 20
1.12028
 30
0.0
 40
0
 41
0
  0
VERTEX
  8
0
 10
3.10092
 20
1.18365
 30
0.0
 40
0
 41
0
  0
VERTEX
  8
0
 10
3.11382
 20
1.24712
 30
0.0
 40
0
 41
0
  0
VERTEX
  8
0
 10
3.11328
 20
1.28912
 30
0.0
 40
0
 41
0
  0
VERTEX
  8
0
 10
3.1096
 20
1.30208
 30
0.0
 40
0
 41
0
  0
VERTEX
  8
0
 10
3.10813
 20
1.30718
 30
0.0
 40
0
 41
0
  0
VERTEX
  8
0
 10
3.10232
 20
1.33398
 30
0.0
 40
0
 41
0
  0
VERTEX
  8
0
 10
3.09967
 20
1.35628
 30
0.0
 40
0
 41
0
  0
VERTEX
  8
0
 10
3.09978
 20
1.35905
 30
0.0
 40
0
 41
0
  0
VERTEX
  8
0
 10
3.09993
 20
1.36361
 30
0.0
 40
0
 41
0
  0
VERTEX
  8
0
 10
3.09787
 20
1.37728
 30
0.0
 40
0
 41
0
  0
VERTEX
  8
0
 10
3.0919
 20
1.39507
 30
0.0
 40
0
 41
0
  0
VERTEX
  8
0
 10
3.08311
 20
1.4095
 30
0.0
 40
0
 41
0
  0
VERTEX
  8
0
 10
3.07579
 20
1.41656
 30
0.0
 40
0
 41
0
  0
VERTEX
  8
0
 10
3.07292
 20
1.41764
 30
0.0
 40
0
 41
0
  0
VERTEX
  8
0
 10
3.07156
 20
1.41818
 30
0.0
 40
0
 41
0
  0
VERTEX
  8
0
 10
3.06082
 20
1.43201
 30
0.0
 40
0
 41
0
  0
VERTEX
  8
0
 10
3.04779
 20
1.45594
 30
0.0
 40
0
 41
0
  0
VERTEX
  8
0
 10
3.04536
 20
1.46143
 30
0.0
 40
0
 41
0
  0
VERTEX
  8
0
 10
3.03874
 20
1.47618
 30
0.0
 40
0
 41
0
  0
VERTEX
  8
0
 10
2.99724
 20
1.55171
 30
0.0
 40
0
 41
0
  0
VERTEX
  8
0
 10
2.9464
 20
1.62679
 30
0.0
 40
0
 41
0
  0
VERTEX
  8
0
 10
2.93511
 20
1.64128
 30
0.0
 40
0
 41
0
  0
VERTEX
  8
0
 10
2.93099
 20
1.6466
 30
0.0
 40
0
 41
0
  0
VERTEX
  8
0
 10
2.91868
 20
1.66249
 30
0.0
 40
0
 41
0
  0
VERTEX
  8
0
 10
2.90338
 20
1.68224
 30
0.0
 40
0
 41
0
  0
VERTEX
  8
0
 10
2.891
 20
1.6984
 30
0.0
 40
0
 41
0
  0
VERTEX
  8
0
 10
2.88482
 20
1.70649
 30
0.0
 40
0
 41
0
  0
VERTEX
  8
0
 10
2.88319
 20
1.70871
 30
0.0
 40
0
 41
0
  0
VERTEX
  8
0
 10
2.8795
 20
1.71365
 30
0.0
 40
0
 41
0
  0
VERTEX
  8
0
 10
2.86833
 20
1.72814
 30
0.0
 40
0
 41
0
  0
VERTEX
  8
0
 10
2.84901
 20
1.75265
 30
0.0
 40
0
 41
0
  0
VERTEX
  8
0
 10
2.82704
 20
1.78
 30
0.0
 40
0
 41
0
  0
VERTEX
  8
0
 10
2.80431
 20
1.808
 30
0.0
 40
0
 41
0
  0
VERTEX
  8
0
 10
2.78256
 20
1.83436
 30
0.0
 40
0
 41
0
  0
VERTEX
  8
0
 10
2.76372
 20
1.85682
 30
0.0
 40
0
 41
0
  0
VERTEX
  8
0
 10
2.74963
 20
1.87315
 30
0.0
 40
0
 41
0
  0
VERTEX
  8
0
 10
2.74414
 20
1.87939
 30
0.0
 40
0
 41
0
  0
VERTEX
  8
0
 10
2.74208
 20
1.88112
 30
0.0
 40
0
 41
0
  0
VERTEX
  8
0
 10
2.7405
 20
1.88243
 30
0.0
 40
0
 41
0
  0
VERTEX
  8
0
 10
2.72711
 20
1.89751
 30
0.0
 40
0
 41
0
  0
VERTEX
  8
0
 10
2.71007
 20
1.91938
 30
0.0
 40
0
 41
0
  0
VERTEX
  8
0
 10
2.70676
 20
1.92399
 30
0.0
 40
0
 41
0
  0
VERTEX
  8
0
 10
2.7034
 20
1.92865
 30
0.0
 40
0
 41
0
  0
VERTEX
  8
0
 10
2.68093
 20
1.95594
 30
0.0
 40
0
 41
0
  0
VERTEX
  8
0
 10
2.6569
 20
1.9815
 30
0.0
 40
0
 41
0
  0
VERTEX
  8
0
 10
2.65283
 20
1.98529
 30
0.0
 40
0
 41
0
  0
VERTEX
  8
0
 10
2.6231
 20
2.01286
 30
0.0
 40
0
 41
0
  0
VERTEX
  8
0
 10
2.63004
 20
2.10969
 30
0.0
 40
0
 41
0
  0
VERTEX
  8
0
 10
2.63097
 20
2.12332
 30
0.0
 40
0
 41
0
  0
VERTEX
  8
0
 10
2.63357
 20
2.16422
 30
0.0
 40
0
 41
0
  0
VERTEX
  8
0
 10
2.63417
 20
2.19629
 30
0.0
 40
0
 41
0
  0
VERTEX
  8
0
 10
2.63135
 20
2.21571
 30
0.0
 40
0
 41
0
  0
VERTEX
  8
0
 10
2.62663
 20
2.22825
 30
0.0
 40
0
 41
0
  0
VERTEX
  8
0
 10
2.62472
 20
2.23221
 30
0.0
 40
0
 41
0
  0
VERTEX
  8
0
 10
2.62185
 20
2.23822
 30
0.0
 40
0
 41
0
  0
VERTEX
  8
0
 10
2.61719
 20
2.25814
 30
0.0
 40
0
 41
0
  0
VERTEX
  8
0
 10
2.61811
 20
2.28222
 30
0.0
 40
0
 41
0
  0
VERTEX
  8
0
 10
2.62651
 20
2.30024
 30
0.0
 40
0
 41
0
  0
VERTEX
  8
0
 10
2.63764
 20
2.30772
 30
0.0
 40
0
 41
0
  0
VERTEX
  8
0
 10
2.6415
 20
2.30794
 30
0.0
 40
0
 41
0
  0
VERTEX
  8
0
 10
2.64671
 20
2.30826
 30
0.0
 40
0
 41
0
  0
VERTEX
  8
0
 10
2.66237
 20
2.31104
 30
0.0
 40
0
 41
0
  0
VERTEX
  8
0
 10
2.65104
 20
2.31733
 30
0.0
 40
0
 41
0
  0
VERTEX
  8
0
 10
2.64708
 20
2.31874
 30
0.0
 40
0
 41
0
  0
VERTEX
  8
0
 10
2.64231
 20
2.32047
 30
0.0
 40
0
 41
0
  0
VERTEX
  8
0
 10
2.62989
 20
2.33078
 30
0.0
 40
0
 41
0
  0
VERTEX
  8
0
 10
2.62332
 20
2.34717
 30
0.0
 40
0
 41
0
  0
VERTEX
  8
0
 10
2.62771
 20
2.36247
 30
0.0
 40
0
 41
0
  0
VERTEX
  8
0
 10
2.63926
 20
2.37056
 30
0.0
 40
0
 41
0
  0
VERTEX
  8
0
 10
2.6435
 20
2.37125
 30
0.0
 40
0
 41
0
  0
VERTEX
  8
0
 10
2.64594
 20
2.37169
 30
0.0
 40
0
 41
0
  0
VERTEX
  8
0
 10
2.65679
 20
2.37565
 30
0.0
 40
0
 41
0
  0
VERTEX
  8
0
 10
2.66347
 20
2.38075
 30
0.0
 40
0
 41
0
  0
VERTEX
  8
0
 10
2.66379
 20
2.38172
 30
0.0
 40
0
 41
0
  0
VERTEX
  8
0
 10
2.66407
 20
2.38254
 30
0.0
 40
0
 41
0
  0
VERTEX
  8
0
 10
2.66129
 20
2.38624
 30
0.0
 40
0
 41
0
  0
VERTEX
  8
0
 10
2.64996
 20
2.38444
 30
0.0
 40
0
 41
0
  0
VERTEX
  8
0
 10
2.64632
 20
2.38336
 30
0.0
 40
0
 41
0
  0
VERTEX
  8
0
 10
2.64356
 20
2.3826
 30
0.0
 40
0
 41
0
  0
VERTEX
  8
0
 10
2.63211
 20
2.37978
 30
0.0
 40
0
 41
0
  0
VERTEX
  8
0
 10
2.62608
 20
2.3789
 30
0.0
 40
0
 41
0
  0
VERTEX
  8
0
 10
2.62603
 20
2.37907
 30
0.0
 40
0
 41
0
  0
VERTEX
  8
0
 10
2.62597
 20
2.37929
 30
0.0
 40
0
 41
0
  0
VERTEX
  8
0
 10
2.62337
 20
2.38433
 30
0.0
 40
0
 41
0
  0
VERTEX
  8
0
 10
2.61865
 20
2.3929
 30
0.0
 40
0
 41
0
  0
VERTEX
  8
0
 10
2.61757
 20
2.39486
 30
0.0
 40
0
 41
0
  0
VERTEX
  8
0
 10
2.61583
 20
2.39794
 30
0.0
 40
0
 41
0
  0
VERTEX
  8
0
 10
2.61279
 20
2.40831
 30
0.0
 40
0
 41
0
  0
VERTEX
  8
0
 10
2.61822
 20
2.41635
 30
0.0
 40
0
 41
0
  0
VERTEX
  8
0
 10
2.62061
 20
2.41824
 30
0.0
 40
0
 41
0
  0
VERTEX
  8
0
 10
2.62244
 20
2.41982
 30
0.0
 40
0
 41
0
  0
VERTEX
  8
0
 10
2.62733
 20
2.4254
 30
0.0
 40
0
 41
0
  0
VERTEX
  8
0
 10
2.61751
 20
2.42426
 30
0.0
 40
0
 41
0
  0
VERTEX
  8
0
 10
2.61431
 20
2.42356
 30
0.0
 40
0
 41
0
  0
VERTEX
  8
0
 10
2.61106
 20
2.4229
 30
0.0
 40
0
 41
0
  0
VERTEX
  8
0
 10
2.5964
 20
2.42393
 30
0.0
 40
0
 41
0
  0
VERTEX
  8
0
 10
2.58106
 20
2.43175
 30
0.0
 40
0
 41
0
  0
VERTEX
  8
0
 10
2.57753
 20
2.43446
 30
0.0
 40
0
 41
0
  0
VERTEX
  8
0
 10
2.57488
 20
2.43653
 30
0.0
 40
0
 41
0
  0
VERTEX
  8
0
 10
2.55871
 20
2.44754
 30
0.0
 40
0
 41
0
  0
VERTEX
  8
0
 10
2.54303
 20
2.45703
 30
0.0
 40
0
 41
0
  0
VERTEX
  8
0
 10
2.54064
 20
2.45828
 30
0.0
 40
0
 41
0
  0
VERTEX
  8
0
 10
2.53803
 20
2.45964
 30
0.0
 40
0
 41
0
  0
VERTEX
  8
0
 10
2.53065
 20
2.46451
 30
0.0
 40
0
 41
0
  0
VERTEX
  8
0
 10
2.52513
 20
2.47336
 30
0.0
 40
0
 41
0
  0
VERTEX
  8
0
 10
2.52235
 20
2.48981
 30
0.0
 40
0
 41
0
  0
VERTEX
  8
0
 10
2.52106
 20
2.51167
 30
0.0
 40
0
 41
0
  0
VERTEX
  8
0
 10
2.52072
 20
2.51893
 30
0.0
 40
0
 41
0
  0
VERTEX
  8
0
 10
2.52018
 20
2.52994
 30
0.0
 40
0
 41
0
  0
VERTEX
  8
0
 10
2.51644
 20
2.56293
 30
0.0
 40
0
 41
0
  0
VERTEX
  8
0
 10
2.50846
 20
2.60032
 30
0.0
 40
0
 41
0
  0
VERTEX
  8
0
 10
2.49735
 20
2.62896
 30
0.0
 40
0
 41
0
  0
VERTEX
  8
0
 10
2.48796
 20
2.64339
 30
0.0
 40
0
 41
0
  0
VERTEX
  8
0
 10
2.48372
 20
2.64671
 30
0.0
 40
0
 41
0
  0
VERTEX
  8
0
 10
2.48172
 20
2.64828
 30
0.0
 40
0
 41
0
  0
VERTEX
  8
0
 10
2.47358
 20
2.65597
 30
0.0
 40
0
 41
0
  0
VERTEX
  8
0
 10
2.46935
 20
2.66069
 30
0.0
 40
0
 41
0
  0
VERTEX
  8
0
 10
2.46935
 20
2.66228
 30
0.0
 40
0
 41
0
  0
VERTEX
  8
0
 10
2.46935
 20
2.66769
 30
0.0
 40
0
 41
0
  0
VERTEX
  8
0
 10
2.45833
 20
2.68397
 30
0.0
 40
0
 41
0
  0
VERTEX
  8
0
 10
2.43224
 20
2.71929
 30
0.0
 40
0
 41
0
  0
VERTEX
  8
0
 10
2.4011
 20
2.75553
 30
0.0
 40
0
 41
0
  0
VERTEX
  8
0
 10
2.38178
 20
2.77528
 30
0.0
 40
0
 41
0
  0
VERTEX
  8
0
 10
2.37511
 20
2.78006
 30
0.0
 40
0
 41
0
  0
VERTEX
  8
0
 10
2.37076
 20
2.78315
 30
0.0
 40
0
 41
0
  0
VERTEX
  8
0
 10
2.35226
 20
2.79644
 30
0.0
 40
0
 41
0
  0
VERTEX
  8
0
 10
2.34174
 20
2.80404
 30
0.0
 40
0
 41
0
  0
VERTEX
  8
0
 10
2.34142
 20
2.80425
 30
0.0
 40
0
 41
0
  0
VERTEX
  8
0
 10
2.3405
 20
2.8049
 30
0.0
 40
0
 41
0
  0
VERTEX
  8
0
 10
2.34179
 20
2.81489
 30
0.0
 40
0
 41
0
  0
VERTEX
  8
0
 10
2.34804
 20
2.84201
 30
0.0
 40
0
 41
0
  0
VERTEX
  8
0
 10
2.35992
 20
2.88456
 30
0.0
 40
0
 41
0
  0
VERTEX
  8
0
 10
2.37261
 20
2.92708
 30
0.0
 40
0
 41
0
  0
VERTEX
  8
0
 10
2.37701
 20
2.94119
 30
0.0
 40
0
 41
0
  0
VERTEX
  8
0
 10
2.38672
 20
2.97271
 30
0.0
 40
0
 41
0
  0
VERTEX
  8
0
 10
2.41037
 20
3.06901
 30
0.0
 40
0
 41
0
  0
VERTEX
  8
0
 10
2.42822
 20
3.19575
 30
0.0
 40
0
 41
0
  0
VERTEX
  8
0
 10
2.43213
 20
3.33996
 30
0.0
 40
0
 41
0
  0
VERTEX
  8
0
 10
2.42665
 20
3.47526
 30
0.0
 40
0
 41
0
  0
VERTEX
  8
0
 10
2.4235
 20
3.52024
 30
0.0
 40
0
 41
0
  0
VERTEX
  8
0
 10
2.41938
 20
3.57883
 30
0.0
 40
0
 41
0
  0
VERTEX
  8
0
 10
2.40192
 20
3.75429
 30
0.0
 40
0
 41
0
  0
VERTEX
  8
0
 10
2.37554
 20
3.92399
 30
0.0
 40
0
 41
0
  0
VERTEX
  8
0
 10
2.34663
 20
4.01932
 30
0.0
 40
0
 41
0
  0
VERTEX
  8
0
 10
2.31885
 20
4.03212
 30
0.0
 40
0
 41
0
  0
VERTEX
  8
0
 10
2.31722
 20
4.03006
 30
0.0
 40
0
 41
0
  0
SEQEND
 8
0
  0
POLYLINE
  8
0
 62
     0
 66
     1
 10
0
 20
0
 30
0.0
 70
     1
 40
0
 41
0
  0
VERTEX
  8
0
 10
1.93246
 20
3.76324
 30
0.0
 40
0
 41
0
  0
VERTEX
  8
0
 10
1.93778
 20
3.74892
 30
0.0
 40
0
 41
0
  0
VERTEX
  8
0
 10
1.95313
 20
3.70551
 30
0.0
 40
0
 41
0
  0
VERTEX
  8
0
 10
1.97032
 20
3.65321
 30
0.0
 40
0
 41
0
  0
VERTEX
  8
0
 10
1.98318
 20
3.60894
 30
0.0
 40
0
 41
0
  0
VERTEX
  8
0
 10
1.98936
 20
3.58382
 30
0.0
 40
0
 41
0
  0
VERTEX
  8
0
 10
1.99089
 20
3.57536
 30
0.0
 40
0
 41
0
  0
VERTEX
  8
0
 10
1.99701
 20
3.54036
 30
0.0
 40
0
 41
0
  0
VERTEX
  8
0
 10
2.01443
 20
3.43517
 30
0.0
 40
0
 41
0
  0
VERTEX
  8
0
 10
2.0294
 20
3.3284
 30
0.0
 40
0
 41
0
  0
VERTEX
  8
0
 10
2.03668
 20
3.24767
 30
0.0
 40
0
 41
0
  0
VERTEX
  8
0
 10
2.03782
 20
3.2009
 30
0.0
 40
0
 41
0
  0
VERTEX
  8
0
 10
2.03711
 20
3.18539
 30
0.0
 40
0
 41
0
  0
VERTEX
  8
0
 10
2.03678
 20
3.1786
 30
0.0
 40
0
 41
0
  0
VERTEX
  8
0
 10
2.03586
 20
3.15804
 30
0.0
 40
0
 41
0
  0
VERTEX
  8
0
 10
2.0344
 20
3.12136
 30
0.0
 40
0
 41
0
  0
VERTEX
  8
0
 10
2.03282
 20
3.08018
 30
0.0
 40
0
 41
0
  0
VERTEX
  8
0
 10
2.03174
 20
3.04949
 30
0.0
 40
0
 41
0
  0
VERTEX
  8
0
 10
2.03142
 20
3.03922
 30
0.0
 40
0
 41
0
  0
VERTEX
  8
0
 10
2.03097
 20
3.02718
 30
0.0
 40
0
 41
0
  0
VERTEX
  8
0
 10
2.02951
 20
2.99104
 30
0.0
 40
0
 41
0
  0
VERTEX
  8
0
 10
2.0274
 20
2.95551
 30
0.0
 40
0
 41
0
  0
VERTEX
  8
0
 10
2.02462
 20
2.93224
 30
0.0
 40
0
 41
0
  0
VERTEX
  8
0
 10
2.02094
 20
2.92063
 30
0.0
 40
0
 41
0
  0
VERTEX
  8
0
 10
2.0159
 20
2.92036
 30
0.0
 40
0
 41
0
  0
VERTEX
  8
0
 10
2.00928
 20
2.93093
 30
0.0
 40
0
 41
0
  0
VERTEX
  8
0
 10
2.00065
 20
2.95182
 30
0.0
 40
0
 41
0
  0
VERTEX
  8
0
 10
1.99229
 20
2.97483
 30
0.0
 40
0
 41
0
  0
VERTEX
  8
0
 10
1.98969
 20
2.98253
 30
0.0
 40
0
 41
0
  0
VERTEX
  8
0
 10
1.98068
 20
3.00857
 30
0.0
 40
0
 41
0
  0
VERTEX
  8
0
 10
1.96072
 20
3.08897
 30
0.0
 40
0
 41
0
  0
VERTEX
  8
0
 10
1.94319
 20
3.21772
 30
0.0
 40
0
 41
0
  0
VERTEX
  8
0
 10
1.93528
 20
3.38861
 30
0.0
 40
0
 41
0
  0
VERTEX
  8
0
 10
1.93457
 20
3.56315
 30
0.0
 40
0
 41
0
  0
VERTEX
  8
0
 10
1.93533
 20
3.62131
 30
0.0
 40
0
 41
0
  0
VERTEX
  8
0
 10
1.93658
 20
3.71631
 30
0.0
 40
0
 41
0
  0
VERTEX
  8
0
 10
1.91521
 20
3.75863
 30
0.0
 40
0
 41
0
  0
VERTEX
  8
0
 10
1.91228
 20
3.76449
 30
0.0
 40
0
 41
0
  0
VERTEX
  8
0
 10
1.90099
 20
3.78999
 30
0.0
 40
0
 41
0
  0
VERTEX
  8
0
 10
1.89643
 20
3.80518
 30
0.0
 40
0
 41
0
  0
VERTEX
  8
0
 10
1.89686
 20
3.80583
 30
0.0
 40
0
 41
0
  0
VERTEX
  8
0
 10
1.89762
 20
3.80707
 30
0.0
 40
0
 41
0
  0
VERTEX
  8
0
 10
1.91217
 20
3.80317
 30
0.0
 40
0
 41
0
  0
VERTEX
  8
0
 10
1.92893
 20
3.77268
 30
0.0
 40
0
 41
0
  0
VERTEX
  8
0
 10
1.93246
 20
3.76324
 30
0.0
 40
0
 41
0
  0
SEQEND
 8
0
  0
POLYLINE
  8
0
 62
     0
 66
     1
 10
0
 20
0
 30
0.0
 70
     1
 40
0
 41
0
  0
VERTEX
  8
0
 10
2.35026
 20
3.77175
 30
0.0
 40
0
 41
0
  0
VERTEX
  8
0
 10
2.35574
 20
3.7634
 30
0.0
 40
0
 41
0
  0
VERTEX
  8
0
 10
2.36507
 20
3.73346
 30
0.0
 40
0
 41
0
  0
VERTEX
  8
0
 10
2.37668
 20
3.67231
 30
0.0
 40
0
 41
0
  0
VERTEX
  8
0
 10
2.38487
 20
3.59392
 30
0.0
 40
0
 41
0
  0
VERTEX
  8
0
 10
2.38954
 20
3.5039
 30
0.0
 40
0
 41
0
  0
VERTEX
  8
0
 10
2.39051
 20
3.40793
 30
0.0
 40
0
 41
0
  0
VERTEX
  8
0
 10
2.38753
 20
3.31158
 30
0.0
 40
0
 41
0
  0
VERTEX
  8
0
 10
2.38053
 20
3.22054
 30
0.0
 40
0
 41
0
  0
VERTEX
  8
0
 10
2.37294
 20
3.16021
 30
0.0
 40
0
 41
0
  0
VERTEX
  8
0
 10
2.36931
 20
3.14031
 30
0.0
 40
0
 41
0
  0
VERTEX
  8
0
 10
2.36307
 20
3.1065
 30
0.0
 40
0
 41
0
  0
VERTEX
  8
0
 10
2.34358
 20
3.00515
 30
0.0
 40
0
 41
0
  0
VERTEX
  8
0
 10
2.32601
 20
2.92839
 30
0.0
 40
0
 41
0
  0
VERTEX
  8
0
 10
2.31201
 20
2.89399
 30
0.0
 40
0
 41
0
  0
VERTEX
  8
0
 10
2.30078
 20
2.88601
 30
0.0
 40
0
 41
0
  0
VERTEX
  8
0
 10
2.29704
 20
2.88601
 30
0.0
 40
0
 41
0
  0
VERTEX
  8
0
 10
2.29492
 20
2.88601
 30
0.0
 40
0
 41
0
  0
VERTEX
  8
0
 10
2.28868
 20
2.89333
 30
0.0
 40
0
 41
0
  0
VERTEX
  8
0
 10
2.2856
 20
2.92111
 30
0.0
 40
0
 41
0
  0
VERTEX
  8
0
 10
2.28749
 20
2.97808
 30
0.0
 40
0
 41
0
  0
VERTEX
  8
0
 10
2.29249
 20
3.04926
 30
0.0
 40
0
 41
0
  0
VERTEX
  8
0
 10
2.29438
 20
3.07292
 30
0.0
 40
0
 41
0
  0
VERTEX
  8
0
 10
2.29551
 20
3.08729
 30
0.0
 40
0
 41
0
  0
VERTEX
  8
0
 10
2.29807
 20
3.13053
 30
0.0
 40
0
 41
0
  0
VERTEX
  8
0
 10
2.30171
 20
3.20574
 30
0.0
 40
0
 41
0
  0
VERTEX
  8
0
 10
2.30479
 20
3.28885
 30
0.0
 40
0
 41
0
  0
VERTEX
  8
0
 10
2.30658
 20
3.34983
 30
0.0
 40
0
 41
0
  0
VERTEX
  8
0
 10
2.30701
 20
3.37011
 30
0.0
 40
0
 41
0
  0
VERTEX
  8
0
 10
2.3074
 20
3.389
 30
0.0
 40
0
 41
0
  0
VERTEX
  8
0
 10
2.30886
 20
3.44558
 30
0.0
 40
0
 41
0
  0
VERTEX
  8
0
 10
2.31119
 20
3.51292
 30
0.0
 40
0
 41
0
  0
VERTEX
  8
0
 10
2.31364
 20
3.56472
 30
0.0
 40
0
 41
0
  0
VERTEX
  8
0
 10
2.31526
 20
3.58871
 30
0.0
 40
0
 41
0
  0
VERTEX
  8
0
 10
2.31597
 20
3.59375
 30
0.0
 40
0
 41
0
  0
VERTEX
  8
0
 10
2.31668
 20
3.59885
 30
0.0
 40
0
 41
0
  0
VERTEX
  8
0
 10
2.31982
 20
3.63954
 30
0.0
 40
0
 41
0
  0
VERTEX
  8
0
 10
2.32183
 20
3.68869
 30
0.0
 40
0
 41
0
  0
VERTEX
  8
0
 10
2.32194
 20
3.69792
 30
0.0
 40
0
 41
0
  0
VERTEX
  8
0
 10
2.32206
 20
3.71164
 30
0.0
 40
0
 41
0
  0
VERTEX
  8
0
 10
2.32379
 20
3.75265
 30
0.0
 40
0
 41
0
  0
VERTEX
  8
0
 10
2.32844
 20
3.78142
 30
0.0
 40
0
 41
0
  0
VERTEX
  8
0
 10
2.33692
 20
3.78689
 30
0.0
 40
0
 41
0
  0
VERTEX
  8
0
 10
2.3475
 20
3.77593
 30
0.0
 40
0
 41
0
  0
VERTEX
  8
0
 10
2.35026
 20
3.77175
 30
0.0
 40
0
 41
0
  0
SEQEND
 8
0
  0
POLYLINE
  8
0
 62
     0
 66
     1
 10
0
 20
0
 30
0.0
 70
     1
 40
0
 41
0
  0
VERTEX
  8
0
 10
2.46306
 20
2.53381
 30
0.0
 40
0
 41
0
  0
VERTEX
  8
0
 10
2.46951
 20
2.53049
 30
0.0
 40
0
 41
0
  0
VERTEX
  8
0
 10
2.48703
 20
2.51644
 30
0.0
 40
0
 41
0
  0
VERTEX
  8
0
 10
2.5006
 20
2.49599
 30
0.0
 40
0
 41
0
  0
VERTEX
  8
0
 10
2.50265
 20
2.47493
 30
0.0
 40
0
 41
0
  0
VERTEX
  8
0
 10
2.49599
 20
2.45958
 30
0.0
 40
0
 41
0
  0
VERTEX
  8
0
 10
2.49235
 20
2.45583
 30
0.0
 40
0
 41
0
  0
VERTEX
  8
0
 10
2.49046
 20
2.45394
 30
0.0
 40
0
 41
0
  0
VERTEX
  8
0
 10
2.4796
 20
2.44146
 30
0.0
 40
0
 41
0
  0
VERTEX
  8
0
 10
2.46972
 20
2.4286
 30
0.0
 40
0
 41
0
  0
VERTEX
  8
0
 10
2.46838
 20
2.42649
 30
0.0
 40
0
 41
0
  0
VERTEX
  8
0
 10
2.46619
 20
2.42329
 30
0.0
 40
0
 41
0
  0
VERTEX
  8
0
 10
2.45806
 20
2.41482
 30
0.0
 40
0
 41
0
  0
VERTEX
  8
0
 10
2.44928
 20
2.41997
 30
0.0
 40
0
 41
0
  0
VERTEX
  8
0
 10
2.44694
 20
2.42225
 30
0.0
 40
0
 41
0
  0
VERTEX
  8
0
 10
2.44536
 20
2.42383
 30
0.0
 40
0
 41
0
  0
VERTEX
  8
0
 10
2.44075
 20
2.42979
 30
0.0
 40
0
 41
0
  0
VERTEX
  8
0
 10
2.44162
 20
2.43235
 30
0.0
 40
0
 41
0
  0
VERTEX
  8
0
 10
2.44179
 20
2.43229
 30
0.0
 40
0
 41
0
  0
VERTEX
  8
0
 10
2.44547
 20
2.43164
 30
0.0
 40
0
 41
0
  0
VERTEX
  8
0
 10
2.45844
 20
2.43431
 30
0.0
 40
0
 41
0
  0
VERTEX
  8
0
 10
2.46718
 20
2.44737
 30
0.0
 40
0
 41
0
  0
VERTEX
  8
0
 10
2.46875
 20
2.45188
 30
0.0
 40
0
 41
0
  0
VERTEX
  8
0
 10
2.47114
 20
2.45876
 30
0.0
 40
0
 41
0
  0
VERTEX
  8
0
 10
2.47521
 20
2.48042
 30
0.0
 40
0
 41
0
  0
VERTEX
  8
0
 10
2.47385
 20
2.50347
 30
0.0
 40
0
 41
0
  0
VERTEX
  8
0
 10
2.46517
 20
2.51893
 30
0.0
 40
0
 41
0
  0
VERTEX
  8
0
 10
2.45361
 20
2.52453
 30
0.0
 40
0
 41
0
  0
VERTEX
  8
0
 10
2.44976
 20
2.52453
 30
0.0
 40
0
 41
0
  0
VERTEX
  8
0
 10
2.447
 20
2.52453
 30
0.0
 40
0
 41
0
  0
VERTEX
  8
0
 10
2.43875
 20
2.53142
 30
0.0
 40
0
 41
0
  0
VERTEX
  8
0
 10
2.43875
 20
2.53369
 30
0.0
 40
0
 41
0
  0
VERTEX
  8
0
 10
2.43875
 20
2.53586
 30
0.0
 40
0
 41
0
  0
VERTEX
  8
0
 10
2.44265
 20
2.54232
 30
0.0
 40
0
 41
0
  0
VERTEX
  8
0
 10
2.45817
 20
2.53635
 30
0.0
 40
0
 41
0
  0
VERTEX
  8
0
 10
2.46306
 20
2.53381
 30
0.0
 40
0
 41
0
  0
SEQEND
 8
0
  0
POLYLINE
  8
0
 62
     0
 66
     1
 10
0
 20
0
 30
0.0
 70
     1
 40
0
 41
0
  0
VERTEX
  8
0
 10
2.27013
 20
2.48008
 30
0.0
 40
0
 41
0
  0
VERTEX
  8
0
 10
2.27533
 20
2.46853
 30
0.0
 40
0
 41
0
  0
VERTEX
  8
0
 10
2.28717
 20
2.43192
 30
0.0
 40
0
 41
0
  0
VERTEX
  8
0
 10
2.29047
 20
2.39746
 30
0.0
 40
0
 41
0
  0
VERTEX
  8
0
 10
2.28049
 20
2.38112
 30
0.0
 40
0
 41
0
  0
VERTEX
  8
0
 10
2.26253
 20
2.38422
 30
0.0
 40
0
 41
0
  0
VERTEX
  8
0
 10
2.25792
 20
2.38726
 30
0.0
 40
0
 41
0
  0
VERTEX
  8
0
 10
2.25586
 20
2.38861
 30
0.0
 40
0
 41
0
  0
VERTEX
  8
0
 10
2.23964
 20
2.39643
 30
0.0
 40
0
 41
0
  0
VERTEX
  8
0
 10
2.22038
 20
2.40365
 30
0.0
 40
0
 41
0
  0
VERTEX
  8
0
 10
2.21679
 20
2.40468
 30
0.0
 40
0
 41
0
  0
VERTEX
  8
0
 10
2.20964
 20
2.40679
 30
0.0
 40
0
 41
0
  0
VERTEX
  8
0
 10
2.19069
 20
2.42128
 30
0.0
 40
0
 41
0
  0
VERTEX
  8
0
 10
2.1735
 20
2.44769
 30
0.0
 40
0
 41
0
  0
VERTEX
  8
0
 10
2.16889
 20
2.47487
 30
0.0
 40
0
 41
0
  0
VERTEX
  8
0
 10
2.17643
 20
2.49126
 30
0.0
 40
0
 41
0
  0
VERTEX
  8
0
 10
2.18067
 20
2.49349
 30
0.0
 40
0
 41
0
  0
VERTEX
  8
0
 10
2.18306
 20
2.49479
 30
0.0
 40
0
 41
0
  0
VERTEX
  8
0
 10
2.19157
 20
2.49642
 30
0.0
 40
0
 41
0
  0
VERTEX
  8
0
 10
2.19362
 20
2.48529
 30
0.0
 40
0
 41
0
  0
VERTEX
  8
0
 10
2.19362
 20
2.48156
 30
0.0
 40
0
 41
0
  0
VERTEX
  8
0
 10
2.19362
 20
2.47538
 30
0.0
 40
0
 41
0
  0
VERTEX
  8
0
 10
2.19797
 20
2.45676
 30
0.0
 40
0
 41
0
  0
VERTEX
  8
0
 10
2.20882
 20
2.43599
 30
0.0
 40
0
 41
0
  0
VERTEX
  8
0
 10
2.22293
 20
2.42356
 30
0.0
 40
0
 41
0
  0
VERTEX
  8
0
 10
2.23449
 20
2.42219
 30
0.0
 40
0
 41
0
  0
VERTEX
  8
0
 10
2.23708
 20
2.42378
 30
0.0
 40
0
 41
0
  0
VERTEX
  8
0
 10
2.23899
 20
2.42497
 30
0.0
 40
0
 41
0
  0
VERTEX
  8
0
 10
2.24186
 20
2.43321
 30
0.0
 40
0
 41
0
  0
VERTEX
  8
0
 10
2.24208
 20
2.44993
 30
0.0
 40
0
 41
0
  0
VERTEX
  8
0
 10
2.23813
 20
2.46994
 30
0.0
 40
0
 41
0
  0
VERTEX
  8
0
 10
2.23281
 20
2.48481
 30
0.0
 40
0
 41
0
  0
VERTEX
  8
0
 10
2.23036
 20
2.48936
 30
0.0
 40
0
 41
0
  0
VERTEX
  8
0
 10
2.2181
 20
2.51226
 30
0.0
 40
0
 41
0
  0
VERTEX
  8
0
 10
2.23687
 20
2.51226
 30
0.0
 40
0
 41
0
  0
VERTEX
  8
0
 10
2.23942
 20
2.51226
 30
0.0
 40
0
 41
0
  0
VERTEX
  8
0
 10
2.24724
 20
2.51129
 30
0.0
 40
0
 41
0
  0
VERTEX
  8
0
 10
2.25489
 20
2.50694
 30
0.0
 40
0
 41
0
  0
VERTEX
  8
0
 10
2.26178
 20
2.49724
 30
0.0
 40
0
 41
0
  0
VERTEX
  8
0
 10
2.26818
 20
2.48443
 30
0.0
 40
0
 41
0
  0
VERTEX
  8
0
 10
2.27013
 20
2.48008
 30
0.0
 40
0
 41
0
  0
SEQEND
 8
0
  0
POLYLINE
  8
0
 62
     0
 66
     1
 10
0
 20
0
 30
0.0
 70
     1
 40
0
 41
0
  0
VERTEX
  8
0
 10
2.55149
 20
2.43847
 30
0.0
 40
0
 41
0
  0
VERTEX
  8
0
 10
2.58083
 20
2.41986
 30
0.0
 40
0
 41
0
  0
VERTEX
  8
0
 10
2.53011
 20
2.38943
 30
0.0
 40
0
 41
0
  0
VERTEX
  8
0
 10
2.52181
 20
2.38444
 30
0.0
 40
0
 41
0
  0
VERTEX
  8
0
 10
2.4969
 20
2.36936
 30
0.0
 40
0
 41
0
  0
VERTEX
  8
0
 10
2.48019
 20
2.35835
 30
0.0
 40
0
 41
0
  0
VERTEX
  8
0
 10
2.47521
 20
2.35281
 30
0.0
 40
0
 41
0
  0
VERTEX
  8
0
 10
2.47651
 20
2.34983
 30
0.0
 40
0
 41
0
  0
VERTEX
  8
0
 10
2.47726
 20
2.34907
 30
0.0
 40
0
 41
0
  0
VERTEX
  8
0
 10
2.47775
 20
2.34858
 30
0.0
 40
0
 41
0
  0
VERTEX
  8
0
 10
2.49311
 20
2.35444
 30
0.0
 40
0
 41
0
  0
VERTEX
  8
0
 10
2.51964
 20
2.36893
 30
0.0
 40
0
 41
0
  0
VERTEX
  8
0
 10
2.52582
 20
2.37267
 30
0.0
 40
0
 41
0
  0
VERTEX
  8
0
 10
2.53407
 20
2.37776
 30
0.0
 40
0
 41
0
  0
VERTEX
  8
0
 10
2.55919
 20
2.39258
 30
0.0
 40
0
 41
0
  0
VERTEX
  8
0
 10
2.58024
 20
2.40294
 30
0.0
 40
0
 41
0
  0
VERTEX
  8
0
 10
2.5931
 20
2.40539
 30
0.0
 40
0
 41
0
  0
VERTEX
  8
0
 10
2.6001
 20
2.40283
 30
0.0
 40
0
 41
0
  0
VERTEX
  8
0
 10
2.60189
 20
2.40132
 30
0.0
 40
0
 41
0
  0
VERTEX
  8
0
 10
2.60487
 20
2.39882
 30
0.0
 40
0
 41
0
  0
VERTEX
  8
0
 10
2.61176
 20
2.38872
 30
0.0
 40
0
 41
0
  0
VERTEX
  8
0
 10
2.60699
 20
2.37739
 30
0.0
 40
0
 41
0
  0
VERTEX
  8
0
 10
2.58567
 20
2.36572
 30
0.0
 40
0
 41
0
  0
VERTEX
  8
0
 10
2.55593
 20
2.35519
 30
0.0
 40
0
 41
0
  0
VERTEX
  8
0
 10
2.54596
 20
2.35211
 30
0.0
 40
0
 41
0
  0
VERTEX
  8
0
 10
2.53733
 20
2.3495
 30
0.0
 40
0
 41
0
  0
VERTEX
  8
0
 10
2.51156
 20
2.34119
 30
0.0
 40
0
 41
0
  0
VERTEX
  8
0
 10
2.49214
 20
2.33339
 30
0.0
 40
0
 41
0
  0
VERTEX
  8
0
 10
2.48351
 20
2.32644
 30
0.0
 40
0
 41
0
  0
VERTEX
  8
0
 10
2.48161
 20
2.32026
 30
0.0
 40
0
 41
0
  0
VERTEX
  8
0
 10
2.48161
 20
2.31819
 30
0.0
 40
0
 41
0
  0
VERTEX
  8
0
 10
2.48161
 20
2.31565
 30
0.0
 40
0
 41
0
  0
VERTEX
  8
0
 10
2.47911
 20
2.30789
 30
0.0
 40
0
 41
0
  0
VERTEX
  8
0
 10
2.47424
 20
2.30393
 30
0.0
 40
0
 41
0
  0
VERTEX
  8
0
 10
2.4726
 20
2.30393
 30
0.0
 40
0
 41
0
  0
VERTEX
  8
0
 10
2.47119
 20
2.30393
 30
0.0
 40
0
 41
0
  0
VERTEX
  8
0
 10
2.46658
 20
2.29622
 30
0.0
 40
0
 41
0
  0
VERTEX
  8
0
 10
2.46712
 20
2.29482
 30
0.0
 40
0
 41
0
  0
VERTEX
  8
0
 10
2.46767
 20
2.29335
 30
0.0
 40
0
 41
0
  0
VERTEX
  8
0
 10
2.45692
 20
2.28054
 30
0.0
 40
0
 41
0
  0
VERTEX
  8
0
 10
2.45426
 20
2.27951
 30
0.0
 40
0
 41
0
  0
VERTEX
  8
0
 10
2.44982
 20
2.27783
 30
0.0
 40
0
 41
0
  0
VERTEX
  8
0
 10
2.43576
 20
2.27485
 30
0.0
 40
0
 41
0
  0
VERTEX
  8
0
 10
2.41694
 20
2.27354
 30
0.0
 40
0
 41
0
  0
VERTEX
  8
0
 10
2.40169
 20
2.27561
 30
0.0
 40
0
 41
0
  0
VERTEX
  8
0
 10
2.39475
 20
2.27919
 30
0.0
 40
0
 41
0
  0
VERTEX
  8
0
 10
2.39415
 20
2.28093
 30
0.0
 40
0
 41
0
  0
VERTEX
  8
0
 10
2.39382
 20
2.28174
 30
0.0
 40
0
 41
0
  0
VERTEX
  8
0
 10
2.38807
 20
2.28239
 30
0.0
 40
0
 41
0
  0
VERTEX
  8
0
 10
2.37815
 20
2.27453
 30
0.0
 40
0
 41
0
  0
VERTEX
  8
0
 10
2.37554
 20
2.27175
 30
0.0
 40
0
 41
0
  0
VERTEX
  8
0
 10
2.37136
 20
2.26736
 30
0.0
 40
0
 41
0
  0
VERTEX
  8
0
 10
2.35379
 20
2.259
 30
0.0
 40
0
 41
0
  0
VERTEX
  8
0
 10
2.32721
 20
2.25667
 30
0.0
 40
0
 41
0
  0
VERTEX
  8
0
 10
2.30208
 20
2.26411
 30
0.0
 40
0
 41
0
  0
VERTEX
  8
0
 10
2.28754
 20
2.27567
 30
0.0
 40
0
 41
0
  0
VERTEX
  8
0
 10
2.28489
 20
2.28065
 30
0.0
 40
0
 41
0
  0
VERTEX
  8
0
 10
2.28369
 20
2.28282
 30
0.0
 40
0
 41
0
  0
VERTEX
  8
0
 10
2.28228
 20
2.29042
 30
0.0
 40
0
 41
0
  0
VERTEX
  8
0
 10
2.29417
 20
2.28944
 30
0.0
 40
0
 41
0
  0
VERTEX
  8
0
 10
2.29801
 20
2.28857
 30
0.0
 40
0
 41
0
  0
VERTEX
  8
0
 10
2.30122
 20
2.28788
 30
0.0
 40
0
 41
0
  0
VERTEX
  8
0
 10
2.31168
 20
2.28694
 30
0.0
 40
0
 41
0
  0
VERTEX
  8
0
 10
2.31401
 20
2.29015
 30
0.0
 40
0
 41
0
  0
VERTEX
  8
0
 10
2.31381
 20
2.29053
 30
0.0
 40
0
 41
0
  0
VERTEX
  8
0
 10
2.31326
 20
2.29139
 30
0.0
 40
0
 41
0
  0
VERTEX
  8
0
 10
2.31917
 20
2.29937
 30
0.0
 40
0
 41
0
  0
VERTEX
  8
0
 10
2.32069
 20
2.29975
 30
0.0
 40
0
 41
0
  0
VERTEX
  8
0
 10
2.32232
 20
2.30018
 30
0.0
 40
0
 41
0
  0
VERTEX
  8
0
 10
2.32704
 20
2.30296
 30
0.0
 40
0
 41
0
  0
VERTEX
  8
0
 10
2.3201
 20
2.30632
 30
0.0
 40
0
 41
0
  0
VERTEX
  8
0
 10
2.31771
 20
2.30707
 30
0.0
 40
0
 41
0
  0
VERTEX
  8
0
 10
2.31581
 20
2.30772
 30
0.0
 40
0
 41
0
  0
VERTEX
  8
0
 10
2.30393
 20
2.31461
 30
0.0
 40
0
 41
0
  0
VERTEX
  8
0
 10
2.30393
 20
2.31689
 30
0.0
 40
0
 41
0
  0
VERTEX
  8
0
 10
2.30393
 20
2.31825
 30
0.0
 40
0
 41
0
  0
VERTEX
  8
0
 10
2.29753
 20
2.32232
 30
0.0
 40
0
 41
0
  0
VERTEX
  8
0
 10
2.29542
 20
2.32232
 30
0.0
 40
0
 41
0
  0
VERTEX
  8
0
 10
2.29243
 20
2.32232
 30
0.0
 40
0
 41
0
  0
VERTEX
  8
0
 10
2.28358
 20
2.32493
 30
0.0
 40
0
 41
0
  0
VERTEX
  8
0
 10
2.26676
 20
2.33176
 30
0.0
 40
0
 41
0
  0
VERTEX
  8
0
 10
2.24696
 20
2.34164
 30
0.0
 40
0
 41
0
  0
VERTEX
  8
0
 10
2.22629
 20
2.35331
 30
0.0
 40
0
 41
0
  0
VERTEX
  8
0
 10
2.20692
 20
2.3655
 30
0.0
 40
0
 41
0
  0
VERTEX
  8
0
 10
2.19092
 20
2.37701
 30
0.0
 40
0
 41
0
  0
VERTEX
  8
0
 10
2.18033
 20
2.38644
 30
0.0
 40
0
 41
0
  0
VERTEX
  8
0
 10
2.17697
 20
2.39154
 30
0.0
 40
0
 41
0
  0
VERTEX
  8
0
 10
2.1774
 20
2.39268
 30
0.0
 40
0
 41
0
  0
VERTEX
  8
0
 10
2.17822
 20
2.39513
 30
0.0
 40
0
 41
0
  0
VERTEX
  8
0
 10
2.19174
 20
2.39839
 30
0.0
 40
0
 41
0
  0
VERTEX
  8
0
 10
2.21918
 20
2.39154
 30
0.0
 40
0
 41
0
  0
VERTEX
  8
0
 10
2.2506
 20
2.37571
 30
0.0
 40
0
 41
0
  0
VERTEX
  8
0
 10
2.27132
 20
2.36062
 30
0.0
 40
0
 41
0
  0
VERTEX
  8
0
 10
2.27696
 20
2.35439
 30
0.0
 40
0
 41
0
  0
VERTEX
  8
0
 10
2.2921
 20
2.33763
 30
0.0
 40
0
 41
0
  0
VERTEX
  8
0
 10
2.29036
 20
2.35292
 30
0.0
 40
0
 41
0
  0
VERTEX
  8
0
 10
2.28993
 20
2.3565
 30
0.0
 40
0
 41
0
  0
VERTEX
  8
0
 10
2.29656
 20
2.36811
 30
0.0
 40
0
 41
0
  0
VERTEX
  8
0
 10
2.31407
 20
2.37283
 30
0.0
 40
0
 41
0
  0
VERTEX
  8
0
 10
2.33431
 20
2.36724
 30
0.0
 40
0
 41
0
  0
VERTEX
  8
0
 10
2.34679
 20
2.35622
 30
0.0
 40
0
 41
0
  0
VERTEX
  8
0
 10
2.34874
 20
2.35161
 30
0.0
 40
0
 41
0
  0
VERTEX
  8
0
 10
2.35047
 20
2.3475
 30
0.0
 40
0
 41
0
  0
VERTEX
  8
0
 10
2.35883
 20
2.33621
 30
0.0
 40
0
 41
0
  0
VERTEX
  8
0
 10
2.37511
 20
2.31847
 30
0.0
 40
0
 41
0
  0
VERTEX
  8
0
 10
2.39187
 20
2.30387
 30
0.0
 40
0
 41
0
  0
VERTEX
  8
0
 10
2.40076
 20
2.29779
 30
0.0
 40
0
 41
0
  0
VERTEX
  8
0
 10
2.40375
 20
2.29779
 30
0.0
 40
0
 41
0
  0
VERTEX
  8
0
 10
2.40608
 20
2.29779
 30
0.0
 40
0
 41
0
  0
VERTEX
  8
0
 10
2.41314
 20
2.30587
 30
0.0
 40
0
 41
0
  0
VERTEX
  8
0
 10
2.42475
 20
2.32449
 30
0.0
 40
0
 41
0
  0
VERTEX
  8
0
 10
2.43414
 20
2.34521
 30
0.0
 40
0
 41
0
  0
VERTEX
  8
0
 10
2.4375
 20
2.35682
 30
0.0
 40
0
 41
0
  0
VERTEX
  8
0
 10
2.43679
 20
2.35965
 30
0.0
 40
0
 41
0
  0
VERTEX
  8
0
 10
2.43608
 20
2.36225
 30
0.0
 40
0
 41
0
  0
VERTEX
  8
0
 10
2.43772
 20
2.37142
 30
0.0
 40
0
 41
0
  0
VERTEX
  8
0
 10
2.44754
 20
2.37804
 30
0.0
 40
0
 41
0
  0
VERTEX
  8
0
 10
2.45101
 20
2.37935
 30
0.0
 40
0
 41
0
  0
VERTEX
  8
0
 10
2.45372
 20
2.38037
 30
0.0
 40
0
 41
0
  0
VERTEX
  8
0
 10
2.46496
 20
2.38846
 30
0.0
 40
0
 41
0
  0
VERTEX
  8
0
 10
2.47194
 20
2.39925
 30
0.0
 40
0
 41
0
  0
VERTEX
  8
0
 10
2.47254
 20
2.40164
 30
0.0
 40
0
 41
0
  0
VERTEX
  8
0
 10
2.4745
 20
2.40961
 30
0.0
 40
0
 41
0
  0
VERTEX
  8
0
 10
2.48449
 20
2.43246
 30
0.0
 40
0
 41
0
  0
VERTEX
  8
0
 10
2.50146
 20
2.44879
 30
0.0
 40
0
 41
0
  0
VERTEX
  8
0
 10
2.52376
 20
2.45079
 30
0.0
 40
0
 41
0
  0
VERTEX
  8
0
 10
2.54514
 20
2.44249
 30
0.0
 40
0
 41
0
  0
VERTEX
  8
0
 10
2.55149
 20
2.43847
 30
0.0
 40
0
 41
0
  0
SEQEND
 8
0
  0
POLYLINE
  8
0
 62
     0
 66
     1
 10
0
 20
0
 30
0.0
 70
     1
 40
0
 41
0
  0
VERTEX
  8
0
 10
2.12776
 20
2.40713
 30
0.0
 40
0
 41
0
  0
VERTEX
  8
0
 10
2.13172
 20
2.40625
 30
0.0
 40
0
 41
0
  0
VERTEX
  8
0
 10
2.14833
 20
2.40056
 30
0.0
 40
0
 41
0
  0
VERTEX
  8
0
 10
2.15696
 20
2.39464
 30
0.0
 40
0
 41
0
  0
VERTEX
  8
0
 10
2.15701
 20
2.39367
 30
0.0
 40
0
 41
0
  0
VERTEX
  8
0
 10
2.15701
 20
2.3915
 30
0.0
 40
0
 41
0
  0
VERTEX
  8
0
 10
2.16407
 20
2.38379
 30
0.0
 40
0
 41
0
  0
VERTEX
  8
0
 10
2.18311
 20
2.36854
 30
0.0
 40
0
 41
0
  0
VERTEX
  8
0
 10
2.21126
 20
2.34999
 30
0.0
 40
0
 41
0
  0
VERTEX
  8
0
 10
2.23693
 20
2.3349
 30
0.0
 40
0
 41
0
  0
VERTEX
  8
0
 10
2.24567
 20
2.33018
 30
0.0
 40
0
 41
0
  0
VERTEX
  8
0
 10
2.25114
 20
2.32726
 30
0.0
 40
0
 41
0
  0
VERTEX
  8
0
 10
2.26736
 20
2.31787
 30
0.0
 40
0
 41
0
  0
VERTEX
  8
0
 10
2.27507
 20
2.31168
 30
0.0
 40
0
 41
0
  0
VERTEX
  8
0
 10
2.26882
 20
2.31114
 30
0.0
 40
0
 41
0
  0
VERTEX
  8
0
 10
2.25369
 20
2.3144
 30
0.0
 40
0
 41
0
  0
VERTEX
  8
0
 10
2.24875
 20
2.31565
 30
0.0
 40
0
 41
0
  0
VERTEX
  8
0
 10
2.24576
 20
2.3164
 30
0.0
 40
0
 41
0
  0
VERTEX
  8
0
 10
2.22097
 20
2.32069
 30
0.0
 40
0
 41
0
  0
VERTEX
  8
0
 10
2.19032
 20
2.32454
 30
0.0
 40
0
 41
0
  0
VERTEX
  8
0
 10
2.18446
 20
2.32508
 30
0.0
 40
0
 41
0
  0
VERTEX
  8
0
 10
2.1766
 20
2.32585
 30
0.0
 40
0
 41
0
  0
VERTEX
  8
0
 10
2.15278
 20
2.32622
 30
0.0
 40
0
 41
0
  0
VERTEX
  8
0
 10
2.14735
 20
2.32254
 30
0.0
 40
0
 41
0
  0
VERTEX
  8
0
 10
2.16515
 20
2.31651
 30
0.0
 40
0
 41
0
  0
VERTEX
  8
0
 10
2.19368
 20
2.31142
 30
0.0
 40
0
 41
0
  0
VERTEX
  8
0
 10
2.20329
 20
2.31033
 30
0.0
 40
0
 41
0
  0
VERTEX
  8
0
 10
2.21647
 20
2.30886
 30
0.0
 40
0
 41
0
  0
VERTEX
  8
0
 10
2.25575
 20
2.30154
 30
0.0
 40
0
 41
0
  0
VERTEX
  8
0
 10
2.27567
 20
2.29258
 30
0.0
 40
0
 41
0
  0
VERTEX
  8
0
 10
2.26187
 20
2.28614
 30
0.0
 40
0
 41
0
  0
VERTEX
  8
0
 10
2.22547
 20
2.2844
 30
0.0
 40
0
 41
0
  0
VERTEX
  8
0
 10
2.21338
 20
2.28478
 30
0.0
 40
0
 41
0
  0
VERTEX
  8
0
 10
2.20568
 20
2.28504
 30
0.0
 40
0
 41
0
  0
VERTEX
  8
0
 10
2.17014
 20
2.28489
 30
0.0
 40
0
 41
0
  0
VERTEX
  8
0
 10
2.1466
 20
2.28315
 30
0.0
 40
0
 41
0
  0
VERTEX
  8
0
 10
2.14492
 20
2.28256
 30
0.0
 40
0
 41
0
  0
VERTEX
  8
0
 10
2.14208
 20
2.28168
 30
0.0
 40
0
 41
0
  0
VERTEX
  8
0
 10
2.13406
 20
2.27746
 30
0.0
 40
0
 41
0
  0
VERTEX
  8
0
 10
2.13297
 20
2.27311
 30
0.0
 40
0
 41
0
  0
VERTEX
  8
0
 10
2.14046
 20
2.27072
 30
0.0
 40
0
 41
0
  0
VERTEX
  8
0
 10
2.15164
 20
2.271
 30
0.0
 40
0
 41
0
  0
VERTEX
  8
0
 10
2.15533
 20
2.27154
 30
0.0
 40
0
 41
0
  0
VERTEX
  8
0
 10
2.17833
 20
2.27513
 30
0.0
 40
0
 41
0
  0
VERTEX
  8
0
 10
2.15381
 20
2.24669
 30
0.0
 40
0
 41
0
  0
VERTEX
  8
0
 10
2.16607
 20
2.25146
 30
0.0
 40
0
 41
0
  0
VERTEX
  8
0
 10
2.17106
 20
2.25347
 30
0.0
 40
0
 41
0
  0
VERTEX
  8
0
 10
2.18642
 20
2.25896
 30
0.0
 40
0
 41
0
  0
VERTEX
  8
0
 10
2.19737
 20
2.25738
 30
0.0
 40
0
 41
0
  0
VERTEX
  8
0
 10
2.2034
 20
2.24229
 30
0.0
 40
0
 41
0
  0
VERTEX
  8
0
 10
2.20774
 20
2.21756
 30
0.0
 40
0
 41
0
  0
VERTEX
  8
0
 10
2.2091
 20
2.20925
 30
0.0
 40
0
 41
0
  0
VERTEX
  8
0
 10
2.21056
 20
2.20025
 30
0.0
 40
0
 41
0
  0
VERTEX
  8
0
 10
2.21864
 20
2.17367
 30
0.0
 40
0
 41
0
  0
VERTEX
  8
0
 10
2.23378
 20
2.146
 30
0.0
 40
0
 41
0
  0
VERTEX
  8
0
 10
2.25353
 20
2.12651
 30
0.0
 40
0
 41
0
  0
VERTEX
  8
0
 10
2.27669
 20
2.11561
 30
0.0
 40
0
 41
0
  0
VERTEX
  8
0
 10
2.30236
 20
2.11344
 30
0.0
 40
0
 41
0
  0
VERTEX
  8
0
 10
2.32932
 20
2.12039
 30
0.0
 40
0
 41
0
  0
VERTEX
  8
0
 10
2.35661
 20
2.13667
 30
0.0
 40
0
 41
0
  0
VERTEX
  8
0
 10
2.37728
 20
2.15549
 30
0.0
 40
0
 41
0
  0
VERTEX
  8
0
 10
2.38319
 20
2.16254
 30
0.0
 40
0
 41
0
  0
VERTEX
  8
0
 10
2.38704
 20
2.16715
 30
0.0
 40
0
 41
0
  0
VERTEX
  8
0
 10
2.40603
 20
2.18517
 30
0.0
 40
0
 41
0
  0
VERTEX
  8
0
 10
2.42285
 20
2.19504
 30
0.0
 40
0
 41
0
  0
VERTEX
  8
0
 10
2.42567
 20
2.19558
 30
0.0
 40
0
 41
0
  0
VERTEX
  8
0
 10
2.43213
 20
2.19689
 30
0.0
 40
0
 41
0
  0
VERTEX
  8
0
 10
2.4541
 20
2.21094
 30
0.0
 40
0
 41
0
  0
VERTEX
  8
0
 10
2.46322
 20
2.23486
 30
0.0
 40
0
 41
0
  0
VERTEX
  8
0
 10
2.46322
 20
2.24278
 30
0.0
 40
0
 41
0
  0
VERTEX
  8
0
 10
2.46322
 20
2.25006
 30
0.0
 40
0
 41
0
  0
VERTEX
  8
0
 10
2.47146
 20
2.27186
 30
0.0
 40
0
 41
0
  0
VERTEX
  8
0
 10
2.4961
 20
2.29286
 30
0.0
 40
0
 41
0
  0
VERTEX
  8
0
 10
2.53678
 20
2.30567
 30
0.0
 40
0
 41
0
  0
VERTEX
  8
0
 10
2.57904
 20
2.31
 30
0.0
 40
0
 41
0
  0
VERTEX
  8
0
 10
2.59315
 20
2.31
 30
0.0
 40
0
 41
0
  0
VERTEX
  8
0
 10
2.61583
 20
2.31006
 30
0.0
 40
0
 41
0
  0
VERTEX
  8
0
 10
2.60775
 20
2.2831
 30
0.0
 40
0
 41
0
  0
VERTEX
  8
0
 10
2.60661
 20
2.2794
 30
0.0
 40
0
 41
0
  0
VERTEX
  8
0
 10
2.59901
 20
2.25993
 30
0.0
 40
0
 41
0
  0
VERTEX
  8
0
 10
2.59099
 20
2.24388
 30
0.0
 40
0
 41
0
  0
VERTEX
  8
0
 10
2.58963
 20
2.24192
 30
0.0
 40
0
 41
0
  0
VERTEX
  8
0
 10
2.58681
 20
2.2379
 30
0.0
 40
0
 41
0
  0
VERTEX
  8
0
 10
2.58008
 20
2.22401
 30
0.0
 40
0
 41
0
  0
VERTEX
  8
0
 10
2.58404
 20
2.21815
 30
0.0
 40
0
 41
0
  0
VERTEX
  8
0
 10
2.58539
 20
2.21815
 30
0.0
 40
0
 41
0
  0
VERTEX
  8
0
 10
2.58778
 20
2.21815
 30
0.0
 40
0
 41
0
  0
VERTEX
  8
0
 10
2.59446
 20
2.22874
 30
0.0
 40
0
 41
0
  0
VERTEX
  8
0
 10
2.595
 20
2.23042
 30
0.0
 40
0
 41
0
  0
VERTEX
  8
0
 10
2.59603
 20
2.23372
 30
0.0
 40
0
 41
0
  0
VERTEX
  8
0
 10
2.60428
 20
2.24197
 30
0.0
 40
0
 41
0
  0
VERTEX
  8
0
 10
2.61376
 20
2.23025
 30
0.0
 40
0
 41
0
  0
VERTEX
  8
0
 10
2.61556
 20
2.22581
 30
0.0
 40
0
 41
0
  0
VERTEX
  8
0
 10
2.6174
 20
2.22125
 30
0.0
 40
0
 41
0
  0
VERTEX
  8
0
 10
2.62082
 20
2.2066
 30
0.0
 40
0
 41
0
  0
VERTEX
  8
0
 10
2.62294
 20
2.18039
 30
0.0
 40
0
 41
0
  0
VERTEX
  8
0
 10
2.6219
 20
2.14318
 30
0.0
 40
0
 41
0
  0
VERTEX
  8
0
 10
2.61897
 20
2.10389
 30
0.0
 40
0
 41
0
  0
VERTEX
  8
0
 10
2.61783
 20
2.09082
 30
0.0
 40
0
 41
0
  0
VERTEX
  8
0
 10
2.61578
 20
2.06862
 30
0.0
 40
0
 41
0
  0
VERTEX
  8
0
 10
2.61382
 20
2.00168
 30
0.0
 40
0
 41
0
  0
VERTEX
  8
0
 10
2.62392
 20
1.92757
 30
0.0
 40
0
 41
0
  0
VERTEX
  8
0
 10
2.65289
 20
1.84972
 30
0.0
 40
0
 41
0
  0
VERTEX
  8
0
 10
2.69168
 20
1.77408
 30
0.0
 40
0
 41
0
  0
VERTEX
  8
0
 10
2.70557
 20
1.7494
 30
0.0
 40
0
 41
0
  0
VERTEX
  8
0
 10
2.71018
 20
1.74115
 30
0.0
 40
0
 41
0
  0
VERTEX
  8
0
 10
2.72353
 20
1.7161
 30
0.0
 40
0
 41
0
  0
VERTEX
  8
0
 10
2.73936
 20
1.68414
 30
0.0
 40
0
 41
0
  0
VERTEX
  8
0
 10
2.75136
 20
1.65728
 30
0.0
 40
0
 41
0
  0
VERTEX
  8
0
 10
2.75678
 20
1.64333
 30
0.0
 40
0
 41
0
  0
VERTEX
  8
0
 10
2.75782
 20
1.63911
 30
0.0
 40
0
 41
0
  0
VERTEX
  8
0
 10
2.75879
 20
1.63493
 30
0.0
 40
0
 41
0
  0
VERTEX
  8
0
 10
2.77007
 20
1.59967
 30
0.0
 40
0
 41
0
  0
VERTEX
  8
0
 10
2.78592
 20
1.55615
 30
0.0
 40
0
 41
0
  0
VERTEX
  8
0
 10
2.78922
 20
1.54779
 30
0.0
 40
0
 41
0
  0
VERTEX
  8
0
 10
2.79482
 20
1.53364
 30
0.0
 40
0
 41
0
  0
VERTEX
  8
0
 10
2.80994
 20
1.4904
 30
0.0
 40
0
 41
0
  0
VERTEX
  8
0
 10
2.824
 20
1.44065
 30
0.0
 40
0
 41
0
  0
VERTEX
  8
0
 10
2.83149
 20
1.39925
 30
0.0
 40
0
 41
0
  0
VERTEX
  8
0
 10
2.83247
 20
1.36708
 30
0.0
 40
0
 41
0
  0
VERTEX
  8
0
 10
2.82699
 20
1.34478
 30
0.0
 40
0
 41
0
  0
VERTEX
  8
0
 10
2.81511
 20
1.33312
 30
0.0
 40
0
 41
0
  0
VERTEX
  8
0
 10
2.79688
 20
1.33279
 30
0.0
 40
0
 41
0
  0
VERTEX
  8
0
 10
2.778
 20
1.34093
 30
0.0
 40
0
 41
0
  0
VERTEX
  8
0
 10
2.7724
 20
1.34456
 30
0.0
 40
0
 41
0
  0
VERTEX
  8
0
 10
2.76699
 20
1.34814
 30
0.0
 40
0
 41
0
  0
VERTEX
  8
0
 10
2.74517
 20
1.35042
 30
0.0
 40
0
 41
0
  0
VERTEX
  8
0
 10
2.72433
 20
1.33474
 30
0.0
 40
0
 41
0
  0
VERTEX
  8
0
 10
2.71446
 20
1.30442
 30
0.0
 40
0
 41
0
  0
VERTEX
  8
0
 10
2.71685
 20
1.27512
 30
0.0
 40
0
 41
0
  0
VERTEX
  8
0
 10
2.72021
 20
1.26633
 30
0.0
 40
0
 41
0
  0
VERTEX
  8
0
 10
2.72319
 20
1.25852
 30
0.0
 40
0
 41
0
  0
VERTEX
  8
0
 10
2.74794
 20
1.23107
 30
0.0
 40
0
 41
0
  0
VERTEX
  8
0
 10
2.78364
 20
1.21935
 30
0.0
 40
0
 41
0
  0
VERTEX
  8
0
 10
2.79557
 20
1.21935
 30
0.0
 40
0
 41
0
  0
VERTEX
  8
0
 10
2.80231
 20
1.21935
 30
0.0
 40
0
 41
0
  0
VERTEX
  8
0
 10
2.82264
 20
1.2175
 30
0.0
 40
0
 41
0
  0
VERTEX
  8
0
 10
2.83089
 20
1.21284
 30
0.0
 40
0
 41
0
  0
VERTEX
  8
0
 10
2.83089
 20
1.21126
 30
0.0
 40
0
 41
0
  0
VERTEX
  8
0
 10
2.83089
 20
1.20665
 30
0.0
 40
0
 41
0
  0
VERTEX
  8
0
 10
2.82753
 20
1.19276
 30
0.0
 40
0
 41
0
  0
VERTEX
  8
0
 10
2.81917
 20
1.16466
 30
0.0
 40
0
 41
0
  0
VERTEX
  8
0
 10
2.808
 20
1.13401
 30
0.0
 40
0
 41
0
  0
VERTEX
  8
0
 10
2.79969
 20
1.11415
 30
0.0
 40
0
 41
0
  0
VERTEX
  8
0
 10
2.7965
 20
1.10775
 30
0.0
 40
0
 41
0
  0
VERTEX
  8
0
 10
2.79199
 20
1.09885
 30
0.0
 40
0
 41
0
  0
VERTEX
  8
0
 10
2.78386
 20
1.06939
 30
0.0
 40
0
 41
0
  0
VERTEX
  8
0
 10
2.78629
 20
1.03944
 30
0.0
 40
0
 41
0
  0
VERTEX
  8
0
 10
2.80192
 20
1.02268
 30
0.0
 40
0
 41
0
  0
VERTEX
  8
0
 10
2.82286
 20
1.02165
 30
0.0
 40
0
 41
0
  0
VERTEX
  8
0
 10
2.82894
 20
1.02387
 30
0.0
 40
0
 41
0
  0
VERTEX
  8
0
 10
2.83165
 20
1.0249
 30
0.0
 40
0
 41
0
  0
VERTEX
  8
0
 10
2.84403
 20
1.01693
 30
0.0
 40
0
 41
0
  0
VERTEX
  8
0
 10
2.84565
 20
0.984321
 30
0.0
 40
0
 41
0
  0
VERTEX
  8
0
 10
2.83464
 20
0.932781
 30
0.0
 40
0
 41
0
  0
VERTEX
  8
0
 10
2.81825
 20
0.884657
 30
0.0
 40
0
 41
0
  0
VERTEX
  8
0
 10
2.81164
 20
0.869086
 30
0.0
 40
0
 41
0
  0
VERTEX
  8
0
 10
2.79568
 20
0.831651
 30
0.0
 40
0
 41
0
  0
VERTEX
  8
0
 10
2.73757
 20
0.723742
 30
0.0
 40
0
 41
0
  0
VERTEX
  8
0
 10
2.65261
 20
0.621149
 30
0.0
 40
0
 41
0
  0
VERTEX
  8
0
 10
2.54465
 20
0.550726
 30
0.0
 40
0
 41
0
  0
VERTEX
  8
0
 10
2.43838
 20
0.51096
 30
0.0
 40
0
 41
0
  0
VERTEX
  8
0
 10
2.40196
 20
0.501682
 30
0.0
 40
0
 41
0
  0
VERTEX
  8
0
 10
2.38163
 20
0.496528
 30
0.0
 40
0
 41
0
  0
VERTEX
  8
0
 10
2.32058
 20
0.481554
 30
0.0
 40
0
 41
0
  0
VERTEX
  8
0
 10
2.26042
 20
0.469129
 30
0.0
 40
0
 41
0
  0
VERTEX
  8
0
 10
2.19667
 20
0.460286
 30
0.0
 40
0
 41
0
  0
VERTEX
  8
0
 10
2.12771
 20
0.452963
 30
0.0
 40
0
 41
0
  0
VERTEX
  8
0
 10
2.10476
 20
0.450683
 30
0.0
 40
0
 41
0
  0
VERTEX
  8
0
 10
2.08306
 20
0.448568
 30
0.0
 40
0
 41
0
  0
VERTEX
  8
0
 10
2.01818
 20
0.441351
 30
0.0
 40
0
 41
0
  0
VERTEX
  8
0
 10
1.95329
 20
0.432508
 30
0.0
 40
0
 41
0
  0
VERTEX
  8
0
 10
1.91049
 20
0.424263
 30
0.0
 40
0
 41
0
  0
VERTEX
  8
0
 10
1.89324
 20
0.419108
 30
0.0
 40
0
 41
0
  0
VERTEX
  8
0
 10
1.8904
 20
0.416721
 30
0.0
 40
0
 41
0
  0
VERTEX
  8
0
 10
1.8826
 20
0.410265
 30
0.0
 40
0
 41
0
  0
VERTEX
  8
0
 10
1.83817
 20
0.416015
 30
0.0
 40
0
 41
0
  0
VERTEX
  8
0
 10
1.75917
 20
0.458008
 30
0.0
 40
0
 41
0
  0
VERTEX
  8
0
 10
1.67329
 20
0.528971
 30
0.0
 40
0
 41
0
  0
VERTEX
  8
0
 10
1.6161
 20
0.59196
 30
0.0
 40
0
 41
0
  0
VERTEX
  8
0
 10
1.60064
 20
0.615235
 30
0.0
 40
0
 41
0
  0
VERTEX
  8
0
 10
1.59353
 20
0.625922
 30
0.0
 40
0
 41
0
  0
VERTEX
  8
0
 10
1.57553
 20
0.660211
 30
0.0
 40
0
 41
0
  0
VERTEX
  8
0
 10
1.5479
 20
0.719781
 30
0.0
 40
0
 41
0
  0
VERTEX
  8
0
 10
1.52442
 20
0.778537
 30
0.0
 40
0
 41
0
  0
VERTEX
  8
0
 10
1.5134
 20
0.811307
 30
0.0
 40
0
 41
0
  0
VERTEX
  8
0
 10
1.51172
 20
0.821072
 30
0.0
 40
0
 41
0
  0
VERTEX
  8
0
 10
1.51118
 20
0.824056
 30
0.0
 40
0
 41
0
  0
VERTEX
  8
0
 10
1.50618
 20
0.849501
 30
0.0
 40
0
 41
0
  0
VERTEX
  8
0
 10
1.49957
 20
0.881401
 30
0.0
 40
0
 41
0
  0
VERTEX
  8
0
 10
1.49826
 20
0.887588
 30
0.0
 40
0
 41
0
  0
VERTEX
  8
0
 10
1.49625
 20
0.896756
 30
0.0
 40
0
 41
0
  0
VERTEX
  8
0
 10
1.49143
 20
0.924479
 30
0.0
 40
0
 41
0
  0
VERTEX
  8
0
 10
1.493
 20
0.944065
 30
0.0
 40
0
 41
0
  0
VERTEX
  8
0
 10
1.50564
 20
0.951281
 30
0.0
 40
0
 41
0
  0
VERTEX
  8
0
 10
1.52533
 20
0.951443
 30
0.0
 40
0
 41
0
  0
VERTEX
  8
0
 10
1.5319
 20
0.950956
 30
0.0
 40
0
 41
0
  0
VERTEX
  8
0
 10
1.54135
 20
0.950304
 30
0.0
 40
0
 41
0
  0
VERTEX
  8
0
 10
1.5701
 20
0.953831
 30
0.0
 40
0
 41
0
  0
VERTEX
  8
0
 10
1.58681
 20
0.971083
 30
0.0
 40
0
 41
0
  0
VERTEX
  8
0
 10
1.58257
 20
1.00521
 30
0.0
 40
0
 41
0
  0
VERTEX
  8
0
 10
1.565
 20
1.04568
 30
0.0
 40
0
 41
0
  0
VERTEX
  8
0
 10
1.55806
 20
1.05854
 30
0.0
 40
0
 41
0
  0
VERTEX
  8
0
 10
1.55387
 20
1.06624
 30
0.0
 40
0
 41
0
  0
VERTEX
  8
0
 10
1.54194
 20
1.08946
 30
0.0
 40
0
 41
0
  0
VERTEX
  8
0
 10
1.53326
 20
1.11138
 30
0.0
 40
0
 41
0
  0
VERTEX
  8
0
 10
1.52968
 20
1.13238
 30
0.0
 40
0
 41
0
  0
VERTEX
  8
0
 10
1.52897
 20
1.15354
 30
0.0
 40
0
 41
0
  0
VERTEX
  8
0
 10
1.52897
 20
1.16059
 30
0.0
 40
0
 41
0
  0
VERTEX
  8
0
 10
1.52881
 20
1.20909
 30
0.0
 40
0
 41
0
  0
VERTEX
  8
0
 10
1.56228
 20
1.21674
 30
0.0
 40
0
 41
0
  0
VERTEX
  8
0
 10
1.57269
 20
1.21913
 30
0.0
 40
0
 41
0
  0
VERTEX
  8
0
 10
1.60161
 20
1.23682
 30
0.0
 40
0
 41
0
  0
VERTEX
  8
0
 10
1.61903
 20
1.26714
 30
0.0
 40
0
 41
0
  0
VERTEX
  8
0
 10
1.61253
 20
1.29693
 30
0.0
 40
0
 41
0
  0
VERTEX
  8
0
 10
1.58876
 20
1.31369
 30
0.0
 40
0
 41
0
  0
VERTEX
  8
0
 10
1.58014
 20
1.31543
 30
0.0
 40
0
 41
0
  0
VERTEX
  8
0
 10
1.57769
 20
1.31592
 30
0.0
 40
0
 41
0
  0
VERTEX
  8
0
 10
1.56765
 20
1.31852
 30
0.0
 40
0
 41
0
  0
VERTEX
  8
0
 10
1.5625
 20
1.32042
 30
0.0
 40
0
 41
0
  0
VERTEX
  8
0
 10
1.5625
 20
1.32102
 30
0.0
 40
0
 41
0
  0
VERTEX
  8
0
 10
1.5625
 20
1.32487
 30
0.0
 40
0
 41
0
  0
VERTEX
  8
0
 10
1.56706
 20
1.33626
 30
0.0
 40
0
 41
0
  0
VERTEX
  8
0
 10
1.57801
 20
1.36171
 30
0.0
 40
0
 41
0
  0
VERTEX
  8
0
 10
1.59104
 20
1.38813
 30
0.0
 40
0
 41
0
  0
VERTEX
  8
0
 10
1.59913
 20
1.40261
 30
0.0
 40
0
 41
0
  0
VERTEX
  8
0
 10
1.60194
 20
1.40625
 30
0.0
 40
0
 41
0
  0
VERTEX
  8
0
 10
1.60385
 20
1.40881
 30
0.0
 40
0
 41
0
  0
VERTEX
  8
0
 10
1.61675
 20
1.42914
 30
0.0
 40
0
 41
0
  0
VERTEX
  8
0
 10
1.63053
 20
1.45372
 30
0.0
 40
0
 41
0
  0
VERTEX
  8
0
 10
1.63292
 20
1.45833
 30
0.0
 40
0
 41
0
  0
VERTEX
  8
0
 10
1.63699
 20
1.46653
 30
0.0
 40
0
 41
0
  0
VERTEX
  8
0
 10
1.65153
 20
1.48996
 30
0.0
 40
0
 41
0
  0
VERTEX
  8
0
 10
1.67654
 20
1.52496
 30
0.0
 40
0
 41
0
  0
VERTEX
  8
0
 10
1.70508
 20
1.55957
 30
0.0
 40
0
 41
0
  0
VERTEX
  8
0
 10
1.72661
 20
1.58279
 30
0.0
 40
0
 41
0
  0
VERTEX
  8
0
 10
1.73426
 20
1.59006
 30
0.0
 40
0
 41
0
  0
VERTEX
  8
0
 10
1.74203
 20
1.5975
 30
0.0
 40
0
 41
0
  0
VERTEX
  8
0
 10
1.76264
 20
1.62267
 30
0.0
 40
0
 41
0
  0
VERTEX
  8
0
 10
1.79471
 20
1.66835
 30
0.0
 40
0
 41
0
  0
VERTEX
  8
0
 10
1.82829
 20
1.72314
 30
0.0
 40
0
 41
0
  0
VERTEX
  8
0
 10
1.86139
 20
1.78293
 30
0.0
 40
0
 41
0
  0
VERTEX
  8
0
 10
1.89171
 20
1.84375
 30
0.0
 40
0
 41
0
  0
VERTEX
  8
0
 10
1.91721
 20
1.90147
 30
0.0
 40
0
 41
0
  0
VERTEX
  8
0
 10
1.93571
 20
1.9521
 30
0.0
 40
0
 41
0
  0
VERTEX
  8
0
 10
1.9439
 20
1.98156
 30
0.0
 40
0
 41
0
  0
VERTEX
  8
0
 10
1.94521
 20
1.99154
 30
0.0
 40
0
 41
0
  0
VERTEX
  8
0
 10
1.94575
 20
1.99621
 30
0.0
 40
0
 41
0
  0
VERTEX
  8
0
 10
1.94982
 20
2.02165
 30
0.0
 40
0
 41
0
  0
VERTEX
  8
0
 10
1.95426
 20
2.04378
 30
0.0
 40
0
 41
0
  0
VERTEX
  8
0
 10
1.95503
 20
2.04671
 30
0.0
 40
0
 41
0
  0
VERTEX
  8
0
 10
1.95622
 20
2.0516
 30
0.0
 40
0
 41
0
  0
VERTEX
  8
0
 10
1.95703
 20
2.0676
 30
0.0
 40
0
 41
0
  0
VERTEX
  8
0
 10
1.956
 20
2.09879
 30
0.0
 40
0
 41
0
  0
VERTEX
  8
0
 10
1.95199
 20
2.13683
 30
0.0
 40
0
 41
0
  0
VERTEX
  8
0
 10
1.94732
 20
2.16803
 30
0.0
 40
0
 41
0
  0
VERTEX
  8
0
 10
1.94542
 20
2.17833
 30
0.0
 40
0
 41
0
  0
VERTEX
  8
0
 10
1.94488
 20
2.1811
 30
0.0
 40
0
 41
0
  0
VERTEX
  8
0
 10
1.94358
 20
2.18935
 30
0.0
 40
0
 41
0
  0
VERTEX
  8
0
 10
1.94542
 20
2.19069
 30
0.0
 40
0
 41
0
  0
VERTEX
  8
0
 10
1.9534
 20
2.18012
 30
0.0
 40
0
 41
0
  0
VERTEX
  8
0
 10
1.96588
 20
2.16146
 30
0.0
 40
0
 41
0
  0
VERTEX
  8
0
 10
1.97
 20
2.15522
 30
0.0
 40
0
 41
0
  0
VERTEX
  8
0
 10
1.97168
 20
2.15267
 30
0.0
 40
0
 41
0
  0
VERTEX
  8
0
 10
1.98307
 20
2.13926
 30
0.0
 40
0
 41
0
  0
VERTEX
  8
0
 10
1.99528
 20
2.12819
 30
0.0
 40
0
 41
0
  0
VERTEX
  8
0
 10
1.9974
 20
2.12685
 30
0.0
 40
0
 41
0
  0
VERTEX
  8
0
 10
1.99903
 20
2.12582
 30
0.0
 40
0
 41
0
  0
VERTEX
  8
0
 10
2.00424
 20
2.12299
 30
0.0
 40
0
 41
0
  0
VERTEX
  8
0
 10
2.00549
 20
2.12446
 30
0.0
 40
0
 41
0
  0
VERTEX
  8
0
 10
2.00076
 20
2.13217
 30
0.0
 40
0
 41
0
  0
VERTEX
  8
0
 10
1.99246
 20
2.14339
 30
0.0
 40
0
 41
0
  0
VERTEX
  8
0
 10
1.98969
 20
2.14708
 30
0.0
 40
0
 41
0
  0
VERTEX
  8
0
 10
1.98654
 20
2.15121
 30
0.0
 40
0
 41
0
  0
VERTEX
  8
0
 10
1.97146
 20
2.17524
 30
0.0
 40
0
 41
0
  0
VERTEX
  8
0
 10
1.96072
 20
2.19749
 30
0.0
 40
0
 41
0
  0
VERTEX
  8
0
 10
1.95979
 20
2.20068
 30
0.0
 40
0
 41
0
  0
VERTEX
  8
0
 10
1.95801
 20
2.20671
 30
0.0
 40
0
 41
0
  0
VERTEX
  8
0
 10
1.94764
 20
2.22319
 30
0.0
 40
0
 41
0
  0
VERTEX
  8
0
 10
1.93956
 20
2.20583
 30
0.0
 40
0
 41
0
  0
VERTEX
  8
0
 10
1.93864
 20
2.19976
 30
0.0
 40
0
 41
0
  0
VERTEX
  8
0
 10
1.93787
 20
2.19504
 30
0.0
 40
0
 41
0
  0
VERTEX
  8
0
 10
1.93121
 20
2.18147
 30
0.0
 40
0
 41
0
  0
VERTEX
  8
0
 10
1.92133
 20
2.18494
 30
0.0
 40
0
 41
0
  0
VERTEX
  8
0
 10
1.91265
 20
2.20546
 30
0.0
 40
0
 41
0
  0
VERTEX
  8
0
 10
1.90896
 20
2.22999
 30
0.0
 40
0
 41
0
  0
VERTEX
  8
0
 10
1.90896
 20
2.23813
 30
0.0
 40
0
 41
0
  0
VERTEX
  8
0
 10
1.90896
 20
2.24224
 30
0.0
 40
0
 41
0
  0
VERTEX
  8
0
 10
1.90713
 20
2.2545
 30
0.0
 40
0
 41
0
  0
VERTEX
  8
0
 10
1.9025
 20
2.25831
 30
0.0
 40
0
 41
0
  0
VERTEX
  8
0
 10
1.89626
 20
2.24989
 30
0.0
 40
0
 41
0
  0
VERTEX
  8
0
 10
1.891
 20
2.23503
 30
0.0
 40
0
 41
0
  0
VERTEX
  8
0
 10
1.88976
 20
2.22993
 30
0.0
 40
0
 41
0
  0
VERTEX
  8
0
 10
1.88314
 20
2.20281
 30
0.0
 40
0
 41
0
  0
VERTEX
  8
0
 10
1.87875
 20
2.22607
 30
0.0
 40
0
 41
0
  0
VERTEX
  8
0
 10
1.87756
 20
2.23221
 30
0.0
 40
0
 41
0
  0
VERTEX
  8
0
 10
1.87929
 20
2.25151
 30
0.0
 40
0
 41
0
  0
VERTEX
  8
0
 10
1.88851
 20
2.28065
 30
0.0
 40
0
 41
0
  0
VERTEX
  8
0
 10
1.90494
 20
2.31006
 30
0.0
 40
0
 41
0
  0
VERTEX
  8
0
 10
1.92101
 20
2.33051
 30
0.0
 40
0
 41
0
  0
VERTEX
  8
0
 10
1.92719
 20
2.33649
 30
0.0
 40
0
 41
0
  0
VERTEX
  8
0
 10
1.93067
 20
2.3399
 30
0.0
 40
0
 41
0
  0
VERTEX
  8
0
 10
1.93994
 20
2.35151
 30
0.0
 40
0
 41
0
  0
VERTEX
  8
0
 10
1.94086
 20
2.35921
 30
0.0
 40
0
 41
0
  0
VERTEX
  8
0
 10
1.93067
 20
2.359
 30
0.0
 40
0
 41
0
  0
VERTEX
  8
0
 10
1.9151
 20
2.35281
 30
0.0
 40
0
 41
0
  0
VERTEX
  8
0
 10
1.91021
 20
2.35021
 30
0.0
 40
0
 41
0
  0
VERTEX
  8
0
 10
1.90756
 20
2.34885
 30
0.0
 40
0
 41
0
  0
VERTEX
  8
0
 10
1.89865
 20
2.34668
 30
0.0
 40
0
 41
0
  0
VERTEX
  8
0
 10
1.89844
 20
2.35238
 30
0.0
 40
0
 41
0
  0
VERTEX
  8
0
 10
1.90799
 20
2.36436
 30
0.0
 40
0
 41
0
  0
VERTEX
  8
0
 10
1.92096
 20
2.37608
 30
0.0
 40
0
 41
0
  0
VERTEX
  8
0
 10
1.92563
 20
2.3795
 30
0.0
 40
0
 41
0
  0
VERTEX
  8
0
 10
1.93506
 20
2.38661
 30
0.0
 40
0
 41
0
  0
VERTEX
  8
0
 10
1.96679
 20
2.40338
 30
0.0
 40
0
 41
0
  0
VERTEX
  8
0
 10
2.01243
 20
2.41569
 30
0.0
 40
0
 41
0
  0
VERTEX
  8
0
 10
2.06515
 20
2.41683
 30
0.0
 40
0
 41
0
  0
VERTEX
  8
0
 10
2.11231
 20
2.41049
 30
0.0
 40
0
 41
0
  0
VERTEX
  8
0
 10
2.12776
 20
2.40713
 30
0.0
 40
0
 41
0
  0
SEQEND
 8
0
  0
POLYLINE
  8
0
 62
     0
 66
     1
 10
0
 20
0
 30
0.0
 70
     1
 40
0
 41
0
  0
VERTEX
  8
0
 10
2.42643
 20
2.35449
 30
0.0
 40
0
 41
0
  0
VERTEX
  8
0
 10
2.42643
 20
2.35249
 30
0.0
 40
0
 41
0
  0
VERTEX
  8
0
 10
2.42236
 20
2.34631
 30
0.0
 40
0
 41
0
  0
VERTEX
  8
0
 10
2.4145
 20
2.33529
 30
0.0
 40
0
 41
0
  0
VERTEX
  8
0
 10
2.41265
 20
2.33296
 30
0.0
 40
0
 41
0
  0
VERTEX
  8
0
 10
2.39887
 20
2.31603
 30
0.0
 40
0
 41
0
  0
VERTEX
  8
0
 10
2.38053
 20
2.33128
 30
0.0
 40
0
 41
0
  0
VERTEX
  8
0
 10
2.3769
 20
2.33431
 30
0.0
 40
0
 41
0
  0
VERTEX
  8
0
 10
2.36719
 20
2.34483
 30
0.0
 40
0
 41
0
  0
VERTEX
  8
0
 10
2.36968
 20
2.35161
 30
0.0
 40
0
 41
0
  0
VERTEX
  8
0
 10
2.37131
 20
2.35271
 30
0.0
 40
0
 41
0
  0
VERTEX
  8
0
 10
2.37397
 20
2.35449
 30
0.0
 40
0
 41
0
  0
VERTEX
  8
0
 10
2.38439
 20
2.35699
 30
0.0
 40
0
 41
0
  0
VERTEX
  8
0
 10
2.40283
 20
2.35883
 30
0.0
 40
0
 41
0
  0
VERTEX
  8
0
 10
2.41932
 20
2.35813
 30
0.0
 40
0
 41
0
  0
VERTEX
  8
0
 10
2.42643
 20
2.35542
 30
0.0
 40
0
 41
0
  0
VERTEX
  8
0
 10
2.42643
 20
2.35449
 30
0.0
 40
0
 41
0
  0
SEQEND
 8
0
  0
POLYLINE
  8
0
 62
     0
 66
     1
 10
0
 20
0
 30
0.0
 70
     1
 40
0
 41
0
  0
VERTEX
  8
0
 10
2.61643
 20
2.34169
 30
0.0
 40
0
 41
0
  0
VERTEX
  8
0
 10
2.61643
 20
2.32428
 30
0.0
 40
0
 41
0
  0
VERTEX
  8
0
 10
2.55735
 20
2.317
 30
0.0
 40
0
 41
0
  0
VERTEX
  8
0
 10
2.54525
 20
2.31554
 30
0.0
 40
0
 41
0
  0
VERTEX
  8
0
 10
2.50874
 20
2.31293
 30
0.0
 40
0
 41
0
  0
VERTEX
  8
0
 10
2.49164
 20
2.31619
 30
0.0
 40
0
 41
0
  0
VERTEX
  8
0
 10
2.50603
 20
2.32628
 30
0.0
 40
0
 41
0
  0
VERTEX
  8
0
 10
2.54042
 20
2.33919
 30
0.0
 40
0
 41
0
  0
VERTEX
  8
0
 10
2.55208
 20
2.34289
 30
0.0
 40
0
 41
0
  0
VERTEX
  8
0
 10
2.56108
 20
2.34576
 30
0.0
 40
0
 41
0
  0
VERTEX
  8
0
 10
2.58843
 20
2.35406
 30
0.0
 40
0
 41
0
  0
VERTEX
  8
0
 10
2.60758
 20
2.35764
 30
0.0
 40
0
 41
0
  0
VERTEX
  8
0
 10
2.61513
 20
2.35357
 30
0.0
 40
0
 41
0
  0
VERTEX
  8
0
 10
2.61643
 20
2.34467
 30
0.0
 40
0
 41
0
  0
VERTEX
  8
0
 10
2.61643
 20
2.34169
 30
0.0
 40
0
 41
0
  0
SEQEND
 8
0
  0
POLYLINE
  8
0
 62
     0
 66
     1
 10
0
 20
0
 30
0.0
 70
     1
 40
0
 41
0
  0
VERTEX
  8
0
 10
2.45096
 20
2.24251
 30
0.0
 40
0
 41
0
  0
VERTEX
  8
0
 10
2.45096
 20
2.23861
 30
0.0
 40
0
 41
0
  0
VERTEX
  8
0
 10
2.44954
 20
2.22683
 30
0.0
 40
0
 41
0
  0
VERTEX
  8
0
 10
2.44342
 20
2.21658
 30
0.0
 40
0
 41
0
  0
VERTEX
  8
0
 10
2.42947
 20
2.20931
 30
0.0
 40
0
 41
0
  0
VERTEX
  8
0
 10
2.41092
 20
2.20378
 30
0.0
 40
0
 41
0
  0
VERTEX
  8
0
 10
2.40474
 20
2.20221
 30
0.0
 40
0
 41
0
  0
VERTEX
  8
0
 10
2.40261
 20
2.20171
 30
0.0
 40
0
 41
0
  0
VERTEX
  8
0
 10
2.39621
 20
2.20068
 30
0.0
 40
0
 41
0
  0
VERTEX
  8
0
 10
2.39187
 20
2.20313
 30
0.0
 40
0
 41
0
  0
VERTEX
  8
0
 10
2.39051
 20
2.21197
 30
0.0
 40
0
 41
0
  0
VERTEX
  8
0
 10
2.39079
 20
2.2251
 30
0.0
 40
0
 41
0
  0
VERTEX
  8
0
 10
2.391
 20
2.22944
 30
0.0
 40
0
 41
0
  0
VERTEX
  8
0
 10
2.39236
 20
2.26047
 30
0.0
 40
0
 41
0
  0
VERTEX
  8
0
 10
2.42014
 20
2.26269
 30
0.0
 40
0
 41
0
  0
VERTEX
  8
0
 10
2.42393
 20
2.26303
 30
0.0
 40
0
 41
0
  0
VERTEX
  8
0
 10
2.44021
 20
2.26465
 30
0.0
 40
0
 41
0
  0
VERTEX
  8
0
 10
2.44922
 20
2.26594
 30
0.0
 40
0
 41
0
  0
VERTEX
  8
0
 10
2.44943
 20
2.26606
 30
0.0
 40
0
 41
0
  0
VERTEX
  8
0
 10
2.44943
 20
2.26606
 30
0.0
 40
0
 41
0
  0
VERTEX
  8
0
 10
2.45053
 20
2.2596
 30
0.0
 40
0
 41
0
  0
VERTEX
  8
0
 10
2.45096
 20
2.24681
 30
0.0
 40
0
 41
0
  0
VERTEX
  8
0
 10
2.45096
 20
2.24251
 30
0.0
 40
0
 41
0
  0
SEQEND
 8
0
  0
POLYLINE
  8
0
 62
     0
 66
     1
 10
0
 20
0
 30
0.0
 70
     1
 40
0
 41
0
  0
VERTEX
  8
0
 10
2.38346
 20
2.23193
 30
0.0
 40
0
 41
0
  0
VERTEX
  8
0
 10
2.3834
 20
2.22683
 30
0.0
 40
0
 41
0
  0
VERTEX
  8
0
 10
2.38194
 20
2.21149
 30
0.0
 40
0
 41
0
  0
VERTEX
  8
0
 10
2.37679
 20
2.1996
 30
0.0
 40
0
 41
0
  0
VERTEX
  8
0
 10
2.36675
 20
2.19499
 30
0.0
 40
0
 41
0
  0
VERTEX
  8
0
 10
2.35449
 20
2.19547
 30
0.0
 40
0
 41
0
  0
VERTEX
  8
0
 10
2.35053
 20
2.19618
 30
0.0
 40
0
 41
0
  0
VERTEX
  8
0
 10
2.34435
 20
2.19737
 30
0.0
 40
0
 41
0
  0
VERTEX
  8
0
 10
2.32715
 20
2.20768
 30
0.0
 40
0
 41
0
  0
VERTEX
  8
0
 10
2.32596
 20
2.22493
 30
0.0
 40
0
 41
0
  0
VERTEX
  8
0
 10
2.34418
 20
2.24235
 30
0.0
 40
0
 41
0
  0
VERTEX
  8
0
 10
2.37001
 20
2.25265
 30
0.0
 40
0
 41
0
  0
VERTEX
  8
0
 10
2.37896
 20
2.25412
 30
0.0
 40
0
 41
0
  0
VERTEX
  8
0
 10
2.37944
 20
2.25424
 30
0.0
 40
0
 41
0
  0
VERTEX
  8
0
 10
2.38217
 20
2.24794
 30
0.0
 40
0
 41
0
  0
VERTEX
  8
0
 10
2.38346
 20
2.23514
 30
0.0
 40
0
 41
0
  0
VERTEX
  8
0
 10
2.38346
 20
2.23193
 30
0.0
 40
0
 41
0
  0
SEQEND
 8
0
  0
POLYLINE
  8
0
 62
     0
 66
     1
 10
0
 20
0
 30
0.0
 70
     1
 40
0
 41
0
  0
VERTEX
  8
0
 10
2.27024
 20
2.17518
 30
0.0
 40
0
 41
0
  0
VERTEX
  8
0
 10
2.27306
 20
2.17219
 30
0.0
 40
0
 41
0
  0
VERTEX
  8
0
 10
2.28353
 20
2.16493
 30
0.0
 40
0
 41
0
  0
VERTEX
  8
0
 10
2.29389
 20
2.16228
 30
0.0
 40
0
 41
0
  0
VERTEX
  8
0
 10
2.29785
 20
2.16683
 30
0.0
 40
0
 41
0
  0
VERTEX
  8
0
 10
2.29389
 20
2.17567
 30
0.0
 40
0
 41
0
  0
VERTEX
  8
0
 10
2.29194
 20
2.178
 30
0.0
 40
0
 41
0
  0
VERTEX
  8
0
 10
2.29053
 20
2.17969
 30
0.0
 40
0
 41
0
  0
VERTEX
  8
0
 10
2.28879
 20
2.18664
 30
0.0
 40
0
 41
0
  0
VERTEX
  8
0
 10
2.29482
 20
2.19174
 30
0.0
 40
0
 41
0
  0
VERTEX
  8
0
 10
2.30761
 20
2.1926
 30
0.0
 40
0
 41
0
  0
VERTEX
  8
0
 10
2.32086
 20
2.18994
 30
0.0
 40
0
 41
0
  0
VERTEX
  8
0
 10
2.32503
 20
2.18842
 30
0.0
 40
0
 41
0
  0
VERTEX
  8
0
 10
2.32769
 20
2.1875
 30
0.0
 40
0
 41
0
  0
VERTEX
  8
0
 10
2.34369
 20
2.18349
 30
0.0
 40
0
 41
0
  0
VERTEX
  8
0
 10
2.35678
 20
2.18138
 30
0.0
 40
0
 41
0
  0
VERTEX
  8
0
 10
2.36117
 20
2.18138
 30
0.0
 40
0
 41
0
  0
VERTEX
  8
0
 10
2.36382
 20
2.18138
 30
0.0
 40
0
 41
0
  0
VERTEX
  8
0
 10
2.37181
 20
2.17719
 30
0.0
 40
0
 41
0
  0
VERTEX
  8
0
 10
2.36888
 20
2.16661
 30
0.0
 40
0
 41
0
  0
VERTEX
  8
0
 10
2.35454
 20
2.15283
 30
0.0
 40
0
 41
0
  0
VERTEX
  8
0
 10
2.33724
 20
2.14187
 30
0.0
 40
0
 41
0
  0
VERTEX
  8
0
 10
2.33117
 20
2.139
 30
0.0
 40
0
 41
0
  0
VERTEX
  8
0
 10
2.32346
 20
2.13542
 30
0.0
 40
0
 41
0
  0
VERTEX
  8
0
 10
2.29889
 20
2.12782
 30
0.0
 40
0
 41
0
  0
VERTEX
  8
0
 10
2.2736
 20
2.12929
 30
0.0
 40
0
 41
0
  0
VERTEX
  8
0
 10
2.25282
 20
2.14432
 30
0.0
 40
0
 41
0
  0
VERTEX
  8
0
 10
2.2379
 20
2.16601
 30
0.0
 40
0
 41
0
  0
VERTEX
  8
0
 10
2.234
 20
2.17372
 30
0.0
 40
0
 41
0
  0
VERTEX
  8
0
 10
2.23221
 20
2.17725
 30
0.0
 40
0
 41
0
  0
VERTEX
  8
0
 10
2.23014
 20
2.1894
 30
0.0
 40
0
 41
0
  0
VERTEX
  8
0
 10
2.23719
 20
2.19493
 30
0.0
 40
0
 41
0
  0
VERTEX
  8
0
 10
2.25168
 20
2.19026
 30
0.0
 40
0
 41
0
  0
VERTEX
  8
0
 10
2.26611
 20
2.17947
 30
0.0
 40
0
 41
0
  0
VERTEX
  8
0
 10
2.27024
 20
2.17518
 30
0.0
 40
0
 41
0
  0
SEQEND
 8
0
  0
POLYLINE
  8
0
 62
     0
 66
     1
 10
0
 20
0
 30
0.0
 70
     1
 40
0
 41
0
  0
VERTEX
  8
0
 10
2.19976
 20
2.10835
 30
0.0
 40
0
 41
0
  0
VERTEX
  8
0
 10
2.19976
 20
2.10553
 30
0.0
 40
0
 41
0
  0
VERTEX
  8
0
 10
2.20421
 20
2.0969
 30
0.0
 40
0
 41
0
  0
VERTEX
  8
0
 10
2.21642
 20
2.08421
 30
0.0
 40
0
 41
0
  0
VERTEX
  8
0
 10
2.23438
 20
2.07135
 30
0.0
 40
0
 41
0
  0
VERTEX
  8
0
 10
2.25618
 20
2.05919
 30
0.0
 40
0
 41
0
  0
VERTEX
  8
0
 10
2.27994
 20
2.04872
 30
0.0
 40
0
 41
0
  0
VERTEX
  8
0
 10
2.30371
 20
2.0409
 30
0.0
 40
0
 41
0
  0
VERTEX
  8
0
 10
2.32553
 20
2.03668
 30
0.0
 40
0
 41
0
  0
VERTEX
  8
0
 10
2.33919
 20
2.03614
 30
0.0
 40
0
 41
0
  0
VERTEX
  8
0
 10
2.34358
 20
2.03694
 30
0.0
 40
0
 41
0
  0
VERTEX
  8
0
 10
2.34912
 20
2.03803
 30
0.0
 40
0
 41
0
  0
VERTEX
  8
0
 10
2.3649
 20
2.0465
 30
0.0
 40
0
 41
0
  0
VERTEX
  8
0
 10
2.39025
 20
2.06446
 30
0.0
 40
0
 41
0
  0
VERTEX
  8
0
 10
2.41146
 20
2.08425
 30
0.0
 40
0
 41
0
  0
VERTEX
  8
0
 10
2.42036
 20
2.09549
 30
0.0
 40
0
 41
0
  0
VERTEX
  8
0
 10
2.42036
 20
2.09918
 30
0.0
 40
0
 41
0
  0
VERTEX
  8
0
 10
2.42036
 20
2.10113
 30
0.0
 40
0
 41
0
  0
VERTEX
  8
0
 10
2.41558
 20
2.10688
 30
0.0
 40
0
 41
0
  0
VERTEX
  8
0
 10
2.40207
 20
2.09446
 30
0.0
 40
0
 41
0
  0
VERTEX
  8
0
 10
2.39822
 20
2.08979
 30
0.0
 40
0
 41
0
  0
VERTEX
  8
0
 10
2.3916
 20
2.08192
 30
0.0
 40
0
 41
0
  0
VERTEX
  8
0
 10
2.35736
 20
2.05604
 30
0.0
 40
0
 41
0
  0
VERTEX
  8
0
 10
2.32167
 20
2.04801
 30
0.0
 40
0
 41
0
  0
VERTEX
  8
0
 10
2.31435
 20
2.0491
 30
0.0
 40
0
 41
0
  0
VERTEX
  8
0
 10
2.30751
 20
2.05012
 30
0.0
 40
0
 41
0
  0
VERTEX
  8
0
 10
2.28765
 20
2.05692
 30
0.0
 40
0
 41
0
  0
VERTEX
  8
0
 10
2.25819
 20
2.07069
 30
0.0
 40
0
 41
0
  0
VERTEX
  8
0
 10
2.23275
 20
2.08692
 30
0.0
 40
0
 41
0
  0
VERTEX
  8
0
 10
2.22043
 20
2.09744
 30
0.0
 40
0
 41
0
  0
VERTEX
  8
0
 10
2.21815
 20
2.10172
 30
0.0
 40
0
 41
0
  0
VERTEX
  8
0
 10
2.21647
 20
2.10487
 30
0.0
 40
0
 41
0
  0
VERTEX
  8
0
 10
2.20643
 20
2.11356
 30
0.0
 40
0
 41
0
  0
VERTEX
  8
0
 10
2.19976
 20
2.10965
 30
0.0
 40
0
 41
0
  0
VERTEX
  8
0
 10
2.19976
 20
2.10835
 30
0.0
 40
0
 41
0
  0
SEQEND
 8
0
  0
POLYLINE
  8
0
 62
     0
 66
     1
 10
0
 20
0
 30
0.0
 70
     1
 40
0
 41
0
  0
VERTEX
  8
0
 10
2.46035
 20
2.00401
 30
0.0
 40
0
 41
0
  0
VERTEX
  8
0
 10
2.4541
 20
1.99203
 30
0.0
 40
0
 41
0
  0
VERTEX
  8
0
 10
2.42128
 20
1.96338
 30
0.0
 40
0
 41
0
  0
VERTEX
  8
0
 10
2.36556
 20
1.94775
 30
0.0
 40
0
 41
0
  0
VERTEX
  8
0
 10
2.30296
 20
1.95768
 30
0.0
 40
0
 41
0
  0
VERTEX
  8
0
 10
2.25603
 20
1.98226
 30
0.0
 40
0
 41
0
  0
VERTEX
  8
0
 10
2.24333
 20
1.99365
 30
0.0
 40
0
 41
0
  0
VERTEX
  8
0
 10
2.24094
 20
1.99582
 30
0.0
 40
0
 41
0
  0
VERTEX
  8
0
 10
2.23301
 20
2.00125
 30
0.0
 40
0
 41
0
  0
VERTEX
  8
0
 10
2.23133
 20
1.99832
 30
0.0
 40
0
 41
0
  0
VERTEX
  8
0
 10
2.23156
 20
1.99756
 30
0.0
 40
0
 41
0
  0
VERTEX
  8
0
 10
2.23253
 20
1.99431
 30
0.0
 40
0
 41
0
  0
VERTEX
  8
0
 10
2.23931
 20
1.98557
 30
0.0
 40
0
 41
0
  0
VERTEX
  8
0
 10
2.25429
 20
1.97314
 30
0.0
 40
0
 41
0
  0
VERTEX
  8
0
 10
2.27453
 20
1.96099
 30
0.0
 40
0
 41
0
  0
VERTEX
  8
0
 10
2.29807
 20
1.94997
 30
0.0
 40
0
 41
0
  0
VERTEX
  8
0
 10
2.32308
 20
1.94086
 30
0.0
 40
0
 41
0
  0
VERTEX
  8
0
 10
2.3476
 20
1.93446
 30
0.0
 40
0
 41
0
  0
VERTEX
  8
0
 10
2.36974
 20
1.93153
 30
0.0
 40
0
 41
0
  0
VERTEX
  8
0
 10
2.38331
 20
1.93186
 30
0.0
 40
0
 41
0
  0
VERTEX
  8
0
 10
2.38758
 20
1.93289
 30
0.0
 40
0
 41
0
  0
VERTEX
  8
0
 10
2.39524
 20
1.93485
 30
0.0
 40
0
 41
0
  0
VERTEX
  8
0
 10
2.41667
 20
1.94683
 30
0.0
 40
0
 41
0
  0
VERTEX
  8
0
 10
2.44743
 20
1.97081
 30
0.0
 40
0
 41
0
  0
VERTEX
  8
0
 10
2.47168
 20
1.99744
 30
0.0
 40
0
 41
0
  0
VERTEX
  8
0
 10
2.48161
 20
2.01389
 30
0.0
 40
0
 41
0
  0
VERTEX
  8
0
 10
2.48161
 20
2.01938
 30
0.0
 40
0
 41
0
  0
VERTEX
  8
0
 10
2.48161
 20
2.01981
 30
0.0
 40
0
 41
0
  0
VERTEX
  8
0
 10
2.4739
 20
2.02094
 30
0.0
 40
0
 41
0
  0
VERTEX
  8
0
 10
2.46229
 20
2.00782
 30
0.0
 40
0
 41
0
  0
VERTEX
  8
0
 10
2.46035
 20
2.00401
 30
0.0
 40
0
 41
0
  0
SEQEND
 8
0
  0
POLYLINE
  8
0
 62
     0
 66
     1
 10
0
 20
0
 30
0.0
 70
     1
 40
0
 41
0
  0
VERTEX
  8
0
 10
1.42464
 20
1.45529
 30
0.0
 40
0
 41
0
  0
VERTEX
  8
0
 10
1.43479
 20
1.4529
 30
0.0
 40
0
 41
0
  0
VERTEX
  8
0
 10
1.46897
 20
1.43571
 30
0.0
 40
0
 41
0
  0
VERTEX
  8
0
 10
1.48286
 20
1.41163
 30
0.0
 40
0
 41
0
  0
VERTEX
  8
0
 10
1.48286
 20
1.40354
 30
0.0
 40
0
 41
0
  0
VERTEX
  8
0
 10
1.48286
 20
1.40001
 30
0.0
 40
0
 41
0
  0
VERTEX
  8
0
 10
1.48156
 20
1.38932
 30
0.0
 40
0
 41
0
  0
VERTEX
  8
0
 10
1.47618
 20
1.38352
 30
0.0
 40
0
 41
0
  0
VERTEX
  8
0
 10
1.46436
 20
1.3858
 30
0.0
 40
0
 41
0
  0
VERTEX
  8
0
 10
1.44883
 20
1.3929
 30
0.0
 40
0
 41
0
  0
VERTEX
  8
0
 10
1.44379
 20
1.39551
 30
0.0
 40
0
 41
0
  0
VERTEX
  8
0
 10
1.43317
 20
1.40104
 30
0.0
 40
0
 41
0
  0
VERTEX
  8
0
 10
1.39725
 20
1.40978
 30
0.0
 40
0
 41
0
  0
VERTEX
  8
0
 10
1.3457
 20
1.40961
 30
0.0
 40
0
 41
0
  0
VERTEX
  8
0
 10
1.29492
 20
1.39583
 30
0.0
 40
0
 41
0
  0
VERTEX
  8
0
 10
1.26042
 20
1.37739
 30
0.0
 40
0
 41
0
  0
VERTEX
  8
0
 10
1.25071
 20
1.36914
 30
0.0
 40
0
 41
0
  0
VERTEX
  8
0
 10
1.24647
 20
1.36561
 30
0.0
 40
0
 41
0
  0
VERTEX
  8
0
 10
1.2296
 20
1.36008
 30
0.0
 40
0
 41
0
  0
VERTEX
  8
0
 10
1.22727
 20
1.37902
 30
0.0
 40
0
 41
0
  0
VERTEX
  8
0
 10
1.22857
 20
1.38487
 30
0.0
 40
0
 41
0
  0
VERTEX
  8
0
 10
1.23079
 20
1.39512
 30
0.0
 40
0
 41
0
  0
VERTEX
  8
0
 10
1.25217
 20
1.42253
 30
0.0
 40
0
 41
0
  0
VERTEX
  8
0
 10
1.29867
 20
1.44894
 30
0.0
 40
0
 41
0
  0
VERTEX
  8
0
 10
1.35905
 20
1.46094
 30
0.0
 40
0
 41
0
  0
VERTEX
  8
0
 10
1.40881
 20
1.4591
 30
0.0
 40
0
 41
0
  0
VERTEX
  8
0
 10
1.42464
 20
1.45529
 30
0.0
 40
0
 41
0
  0
SEQEND
 8
0
  0
POLYLINE
  8
0
 62
     0
 66
     1
 10
0
 20
0
 30
0.0
 70
     1
 40
0
 41
0
  0
VERTEX
  8
0
 10
3.02914
 20
1.42139
 30
0.0
 40
0
 41
0
  0
VERTEX
  8
0
 10
3.03922
 20
1.41829
 30
0.0
 40
0
 41
0
  0
VERTEX
  8
0
 10
3.07379
 20
1.39985
 30
0.0
 40
0
 41
0
  0
VERTEX
  8
0
 10
3.08822
 20
1.37836
 30
0.0
 40
0
 41
0
  0
VERTEX
  8
0
 10
3.08822
 20
1.3712
 30
0.0
 40
0
 41
0
  0
VERTEX
  8
0
 10
3.08822
 20
1.3686
 30
0.0
 40
0
 41
0
  0
VERTEX
  8
0
 10
3.08279
 20
1.36068
 30
0.0
 40
0
 41
0
  0
VERTEX
  8
0
 10
3.07394
 20
1.3648
 30
0.0
 40
0
 41
0
  0
VERTEX
  8
0
 10
3.07254
 20
1.36708
 30
0.0
 40
0
 41
0
  0
VERTEX
  8
0
 10
3.06749
 20
1.37527
 30
0.0
 40
0
 41
0
  0
VERTEX
  8
0
 10
3.04036
 20
1.39242
 30
0.0
 40
0
 41
0
  0
VERTEX
  8
0
 10
2.99224
 20
1.40147
 30
0.0
 40
0
 41
0
  0
VERTEX
  8
0
 10
2.93875
 20
1.3941
 30
0.0
 40
0
 41
0
  0
VERTEX
  8
0
 10
2.90088
 20
1.3782
 30
0.0
 40
0
 41
0
  0
VERTEX
  8
0
 10
2.89035
 20
1.37017
 30
0.0
 40
0
 41
0
  0
VERTEX
  8
0
 10
2.88547
 20
1.36648
 30
0.0
 40
0
 41
0
  0
VERTEX
  8
0
 10
2.87061
 20
1.35552
 30
0.0
 40
0
 41
0
  0
VERTEX
  8
0
 10
2.86019
 20
1.3495
 30
0.0
 40
0
 41
0
  0
VERTEX
  8
0
 10
2.85613
 20
1.35145
 30
0.0
 40
0
 41
0
  0
VERTEX
  8
0
 10
2.85542
 20
1.35829
 30
0.0
 40
0
 41
0
  0
VERTEX
  8
0
 10
2.85542
 20
1.36051
 30
0.0
 40
0
 41
0
  0
VERTEX
  8
0
 10
2.85542
 20
1.36974
 30
0.0
 40
0
 41
0
  0
VERTEX
  8
0
 10
2.87061
 20
1.39729
 30
0.0
 40
0
 41
0
  0
VERTEX
  8
0
 10
2.91049
 20
1.42171
 30
0.0
 40
0
 41
0
  0
VERTEX
  8
0
 10
2.96625
 20
1.43078
 30
0.0
 40
0
 41
0
  0
VERTEX
  8
0
 10
3.01411
 20
1.42606
 30
0.0
 40
0
 41
0
  0
VERTEX
  8
0
 10
3.02914
 20
1.42139
 30
0.0
 40
0
 41
0
  0
SEQEND
 8
0
  0
POLYLINE
  8
0
 62
     0
 66
     1
 10
0
 20
0
 30
0.0
 70
     1
 40
0
 41
0
  0
VERTEX
  8
0
 10
1.37603
 20
1.38938
 30
0.0
 40
0
 41
0
  0
VERTEX
  8
0
 10
1.37326
 20
1.38021
 30
0.0
 40
0
 41
0
  0
VERTEX
  8
0
 10
1.36789
 20
1.35173
 30
0.0
 40
0
 41
0
  0
VERTEX
  8
0
 10
1.36296
 20
1.31
 30
0.0
 40
0
 41
0
  0
VERTEX
  8
0
 10
1.3622
 20
1.2762
 30
0.0
 40
0
 41
0
  0
VERTEX
  8
0
 10
1.36534
 20
1.26226
 30
0.0
 40
0
 41
0
  0
VERTEX
  8
0
 10
1.36643
 20
1.26226
 30
0.0
 40
0
 41
0
  0
VERTEX
  8
0
 10
1.36751
 20
1.26226
 30
0.0
 40
0
 41
0
  0
VERTEX
  8
0
 10
1.37082
 20
1.27262
 30
0.0
 40
0
 41
0
  0
VERTEX
  8
0
 10
1.37277
 20
1.29264
 30
0.0
 40
0
 41
0
  0
VERTEX
  8
0
 10
1.37283
 20
1.29747
 30
0.0
 40
0
 41
0
  0
VERTEX
  8
0
 10
1.37288
 20
1.30751
 30
0.0
 40
0
 41
0
  0
VERTEX
  8
0
 10
1.37533
 20
1.33751
 30
0.0
 40
0
 41
0
  0
VERTEX
  8
0
 10
1.38162
 20
1.37001
 30
0.0
 40
0
 41
0
  0
VERTEX
  8
0
 10
1.39074
 20
1.39165
 30
0.0
 40
0
 41
0
  0
VERTEX
  8
0
 10
1.39914
 20
1.39903
 30
0.0
 40
0
 41
0
  0
VERTEX
  8
0
 10
1.40169
 20
1.39876
 30
0.0
 40
0
 41
0
  0
VERTEX
  8
0
 10
1.40663
 20
1.39828
 30
0.0
 40
0
 41
0
  0
VERTEX
  8
0
 10
1.42182
 20
1.39187
 30
0.0
 40
0
 41
0
  0
VERTEX
  8
0
 10
1.44835
 20
1.37695
 30
0.0
 40
0
 41
0
  0
VERTEX
  8
0
 10
1.4751
 20
1.35807
 30
0.0
 40
0
 41
0
  0
VERTEX
  8
0
 10
1.49115
 20
1.34429
 30
0.0
 40
0
 41
0
  0
VERTEX
  8
0
 10
1.49576
 20
1.33903
 30
0.0
 40
0
 41
0
  0
VERTEX
  8
0
 10
1.49864
 20
1.33577
 30
0.0
 40
0
 41
0
  0
VERTEX
  8
0
 10
1.50814
 20
1.32661
 30
0.0
 40
0
 41
0
  0
VERTEX
  8
0
 10
1.52268
 20
1.31776
 30
0.0
 40
0
 41
0
  0
VERTEX
  8
0
 10
1.54497
 20
1.31
 30
0.0
 40
0
 41
0
  0
VERTEX
  8
0
 10
1.57189
 20
1.30295
 30
0.0
 40
0
 41
0
  0
VERTEX
  8
0
 10
1.58089
 20
1.30073
 30
0.0
 40
0
 41
0
  0
VERTEX
  8
0
 10
1.58382
 20
1.30002
 30
0.0
 40
0
 41
0
  0
VERTEX
  8
0
 10
1.59267
 20
1.29725
 30
0.0
 40
0
 41
0
  0
VERTEX
  8
0
 10
1.59907
 20
1.29264
 30
0.0
 40
0
 41
0
  0
VERTEX
  8
0
 10
1.60178
 20
1.28472
 30
0.0
 40
0
 41
0
  0
VERTEX
  8
0
 10
1.60232
 20
1.27463
 30
0.0
 40
0
 41
0
  0
VERTEX
  8
0
 10
1.60232
 20
1.27121
 30
0.0
 40
0
 41
0
  0
VERTEX
  8
0
 10
1.60232
 20
1.26622
 30
0.0
 40
0
 41
0
  0
VERTEX
  8
0
 10
1.5976
 20
1.25119
 30
0.0
 40
0
 41
0
  0
VERTEX
  8
0
 10
1.58333
 20
1.23693
 30
0.0
 40
0
 41
0
  0
VERTEX
  8
0
 10
1.5594
 20
1.22835
 30
0.0
 40
0
 41
0
  0
VERTEX
  8
0
 10
1.53413
 20
1.22537
 30
0.0
 40
0
 41
0
  0
VERTEX
  8
0
 10
1.52572
 20
1.22532
 30
0.0
 40
0
 41
0
  0
VERTEX
  8
0
 10
1.51932
 20
1.22532
 30
0.0
 40
0
 41
0
  0
VERTEX
  8
0
 10
1.50028
 20
1.22374
 30
0.0
 40
0
 41
0
  0
VERTEX
  8
0
 10
1.50088
 20
1.21837
 30
0.0
 40
0
 41
0
  0
VERTEX
  8
0
 10
1.5019
 20
1.21761
 30
0.0
 40
0
 41
0
  0
VERTEX
  8
0
 10
1.50364
 20
1.21625
 30
0.0
 40
0
 41
0
  0
VERTEX
  8
0
 10
1.5101
 20
1.20052
 30
0.0
 40
0
 41
0
  0
VERTEX
  8
0
 10
1.51406
 20
1.1696
 30
0.0
 40
0
 41
0
  0
VERTEX
  8
0
 10
1.5146
 20
1.16064
 30
0.0
 40
0
 41
0
  0
VERTEX
  8
0
 10
1.51497
 20
1.15365
 30
0.0
 40
0
 41
0
  0
VERTEX
  8
0
 10
1.51693
 20
1.13265
 30
0.0
 40
0
 41
0
  0
VERTEX
  8
0
 10
1.52165
 20
1.11051
 30
0.0
 40
0
 41
0
  0
VERTEX
  8
0
 10
1.53065
 20
1.08767
 30
0.0
 40
0
 41
0
  0
VERTEX
  8
0
 10
1.5421
 20
1.06489
 30
0.0
 40
0
 41
0
  0
VERTEX
  8
0
 10
1.54611
 20
1.0574
 30
0.0
 40
0
 41
0
  0
VERTEX
  8
0
 10
1.55132
 20
1.04758
 30
0.0
 40
0
 41
0
  0
VERTEX
  8
0
 10
1.5656
 20
1.01709
 30
0.0
 40
0
 41
0
  0
VERTEX
  8
0
 10
1.57394
 20
0.989258
 30
0.0
 40
0
 41
0
  0
VERTEX
  8
0
 10
1.57135
 20
0.971571
 30
0.0
 40
0
 41
0
  0
VERTEX
  8
0
 10
1.56185
 20
0.962944
 30
0.0
 40
0
 41
0
  0
VERTEX
  8
0
 10
1.55817
 20
0.961535
 30
0.0
 40
0
 41
0
  0
VERTEX
  8
0
 10
1.55137
 20
0.958985
 30
0.0
 40
0
 41
0
  0
VERTEX
  8
0
 10
1.52701
 20
0.96186
 30
0.0
 40
0
 41
0
  0
VERTEX
  8
0
 10
1.49642
 20
0.982206
 30
0.0
 40
0
 41
0
  0
VERTEX
  8
0
 10
1.47125
 20
1.01758
 30
0.0
 40
0
 41
0
  0
VERTEX
  8
0
 10
1.45833
 20
1.05143
 30
0.0
 40
0
 41
0
  0
VERTEX
  8
0
 10
1.45649
 20
1.06304
 30
0.0
 40
0
 41
0
  0
VERTEX
  8
0
 10
1.45594
 20
1.0663
 30
0.0
 40
0
 41
0
  0
VERTEX
  8
0
 10
1.45176
 20
1.08165
 30
0.0
 40
0
 41
0
  0
VERTEX
  8
0
 10
1.44672
 20
1.09234
 30
0.0
 40
0
 41
0
  0
VERTEX
  8
0
 10
1.44581
 20
1.09321
 30
0.0
 40
0
 41
0
  0
VERTEX
  8
0
 10
1.44526
 20
1.09375
 30
0.0
 40
0
 41
0
  0
VERTEX
  8
0
 10
1.44146
 20
1.09321
 30
0.0
 40
0
 41
0
  0
VERTEX
  8
0
 10
1.44243
 20
1.08089
 30
0.0
 40
0
 41
0
  0
VERTEX
  8
0
 10
1.44319
 20
1.07688
 30
0.0
 40
0
 41
0
  0
VERTEX
  8
0
 10
1.4439
 20
1.07281
 30
0.0
 40
0
 41
0
  0
VERTEX
  8
0
 10
1.4439
 20
1.06
 30
0.0
 40
0
 41
0
  0
VERTEX
  8
0
 10
1.43858
 20
1.05366
 30
0.0
 40
0
 41
0
  0
VERTEX
  8
0
 10
1.42785
 20
1.058
 30
0.0
 40
0
 41
0
  0
VERTEX
  8
0
 10
1.41607
 20
1.06901
 30
0.0
 40
0
 41
0
  0
VERTEX
  8
0
 10
1.41265
 20
1.07308
 30
0.0
 40
0
 41
0
  0
VERTEX
  8
0
 10
1.41043
 20
1.07574
 30
0.0
 40
0
 41
0
  0
VERTEX
  8
0
 10
1.40018
 20
1.08556
 30
0.0
 40
0
 41
0
  0
VERTEX
  8
0
 10
1.39339
 20
1.08914
 30
0.0
 40
0
 41
0
  0
VERTEX
  8
0
 10
1.3929
 20
1.0886
 30
0.0
 40
0
 41
0
  0
VERTEX
  8
0
 10
1.39219
 20
1.08794
 30
0.0
 40
0
 41
0
  0
VERTEX
  8
0
 10
1.39681
 20
1.0791
 30
0.0
 40
0
 41
0
  0
VERTEX
  8
0
 10
1.41124
 20
1.06321
 30
0.0
 40
0
 41
0
  0
VERTEX
  8
0
 10
1.42854
 20
1.04829
 30
0.0
 40
0
 41
0
  0
VERTEX
  8
0
 10
1.4381
 20
1.04167
 30
0.0
 40
0
 41
0
  0
VERTEX
  8
0
 10
1.44129
 20
1.04167
 30
0.0
 40
0
 41
0
  0
VERTEX
  8
0
 10
1.44456
 20
1.04167
 30
0.0
 40
0
 41
0
  0
VERTEX
  8
0
 10
1.45432
 20
1.03
 30
0.0
 40
0
 41
0
  0
VERTEX
  8
0
 10
1.46963
 20
1.00353
 30
0.0
 40
0
 41
0
  0
VERTEX
  8
0
 10
1.48085
 20
0.975151
 30
0.0
 40
0
 41
0
  0
VERTEX
  8
0
 10
1.48389
 20
0.960232
 30
0.0
 40
0
 41
0
  0
VERTEX
  8
0
 10
1.48188
 20
0.957736
 30
0.0
 40
0
 41
0
  0
VERTEX
  8
0
 10
1.47917
 20
0.954536
 30
0.0
 40
0
 41
0
  0
VERTEX
  8
0
 10
1.4649
 20
0.950088
 30
0.0
 40
0
 41
0
  0
VERTEX
  8
0
 10
1.43912
 20
0.95356
 30
0.0
 40
0
 41
0
  0
VERTEX
  8
0
 10
1.40793
 20
0.967122
 30
0.0
 40
0
 41
0
  0
VERTEX
  8
0
 10
1.3827
 20
0.983399
 30
0.0
 40
0
 41
0
  0
VERTEX
  8
0
 10
1.37505
 20
0.989692
 30
0.0
 40
0
 41
0
  0
VERTEX
  8
0
 10
1.37012
 20
0.993761
 30
0.0
 40
0
 41
0
  0
VERTEX
  8
0
 10
1.35476
 20
1.00526
 30
0.0
 40
0
 41
0
  0
VERTEX
  8
0
 10
1.34511
 20
1.01025
 30
0.0
 40
0
 41
0
  0
VERTEX
  8
0
 10
1.34679
 20
1.00478
 30
0.0
 40
0
 41
0
  0
VERTEX
  8
0
 10
1.35699
 20
0.992676
 30
0.0
 40
0
 41
0
  0
VERTEX
  8
0
 10
1.36062
 20
0.988878
 30
0.0
 40
0
 41
0
  0
VERTEX
  8
0
 10
1.36366
 20
0.985732
 30
0.0
 40
0
 41
0
  0
VERTEX
  8
0
 10
1.37185
 20
0.975206
 30
0.0
 40
0
 41
0
  0
VERTEX
  8
0
 10
1.37147
 20
0.969781
 30
0.0
 40
0
 41
0
  0
VERTEX
  8
0
 10
1.35948
 20
0.972657
 30
0.0
 40
0
 41
0
  0
VERTEX
  8
0
 10
1.34158
 20
0.98074
 30
0.0
 40
0
 41
0
  0
VERTEX
  8
0
 10
1.33577
 20
0.98367
 30
0.0
 40
0
 41
0
  0
VERTEX
  8
0
 10
1.31147
 20
0.996149
 30
0.0
 40
0
 41
0
  0
VERTEX
  8
0
 10
1.25114
 20
1.05816
 30
0.0
 40
0
 41
0
  0
VERTEX
  8
0
 10
1.20649
 20
1.16054
 30
0.0
 40
0
 41
0
  0
VERTEX
  8
0
 10
1.20671
 20
1.26807
 30
0.0
 40
0
 41
0
  0
VERTEX
  8
0
 10
1.23888
 20
1.34077
 30
0.0
 40
0
 41
0
  0
VERTEX
  8
0
 10
1.25662
 20
1.35769
 30
0.0
 40
0
 41
0
  0
VERTEX
  8
0
 10
1.25977
 20
1.36079
 30
0.0
 40
0
 41
0
  0
VERTEX
  8
0
 10
1.26997
 20
1.3693
 30
0.0
 40
0
 41
0
  0
VERTEX
  8
0
 10
1.27631
 20
1.37033
 30
0.0
 40
0
 41
0
  0
VERTEX
  8
0
 10
1.27631
 20
1.35965
 30
0.0
 40
0
 41
0
  0
VERTEX
  8
0
 10
1.27246
 20
1.34185
 30
0.0
 40
0
 41
0
  0
VERTEX
  8
0
 10
1.27094
 20
1.33599
 30
0.0
 40
0
 41
0
  0
VERTEX
  8
0
 10
1.26893
 20
1.32829
 30
0.0
 40
0
 41
0
  0
VERTEX
  8
0
 10
1.26508
 20
1.30452
 30
0.0
 40
0
 41
0
  0
VERTEX
  8
0
 10
1.26264
 20
1.27148
 30
0.0
 40
0
 41
0
  0
VERTEX
  8
0
 10
1.26362
 20
1.24311
 30
0.0
 40
0
 41
0
  0
VERTEX
  8
0
 10
1.26611
 20
1.2289
 30
0.0
 40
0
 41
0
  0
VERTEX
  8
0
 10
1.26834
 20
1.22548
 30
0.0
 40
0
 41
0
  0
VERTEX
  8
0
 10
1.26834
 20
1.22548
 30
0.0
 40
0
 41
0
  0
VERTEX
  8
0
 10
1.27257
 20
1.22895
 30
0.0
 40
0
 41
0
  0
VERTEX
  8
0
 10
1.2736
 20
1.25184
 30
0.0
 40
0
 41
0
  0
VERTEX
  8
0
 10
1.27349
 20
1.25917
 30
0.0
 40
0
 41
0
  0
VERTEX
  8
0
 10
1.27327
 20
1.27078
 30
0.0
 40
0
 41
0
  0
VERTEX
  8
0
 10
1.27555
 20
1.30561
 30
0.0
 40
0
 41
0
  0
VERTEX
  8
0
 10
1.28299
 20
1.34483
 30
0.0
 40
0
 41
0
  0
VERTEX
  8
0
 10
1.29492
 20
1.37408
 30
0.0
 40
0
 41
0
  0
VERTEX
  8
0
 10
1.30583
 20
1.38802
 30
0.0
 40
0
 41
0
  0
VERTEX
  8
0
 10
1.3106
 20
1.39057
 30
0.0
 40
0
 41
0
  0
VERTEX
  8
0
 10
1.31196
 20
1.39133
 30
0.0
 40
0
 41
0
  0
VERTEX
  8
0
 10
1.31684
 20
1.39231
 30
0.0
 40
0
 41
0
  0
VERTEX
  8
0
 10
1.31999
 20
1.38542
 30
0.0
 40
0
 41
0
  0
VERTEX
  8
0
 10
1.3208
 20
1.36469
 30
0.0
 40
0
 41
0
  0
VERTEX
  8
0
 10
1.32026
 20
1.33485
 30
0.0
 40
0
 41
0
  0
VERTEX
  8
0
 10
1.32004
 20
1.32487
 30
0.0
 40
0
 41
0
  0
VERTEX
  8
0
 10
1.31977
 20
1.31543
 30
0.0
 40
0
 41
0
  0
VERTEX
  8
0
 10
1.31917
 20
1.287
 30
0.0
 40
0
 41
0
  0
VERTEX
  8
0
 10
1.31923
 20
1.27165
 30
0.0
 40
0
 41
0
  0
VERTEX
  8
0
 10
1.32048
 20
1.27723
 30
0.0
 40
0
 41
0
  0
VERTEX
  8
0
 10
1.32243
 20
1.2959
 30
0.0
 40
0
 41
0
  0
VERTEX
  8
0
 10
1.32308
 20
1.30208
 30
0.0
 40
0
 41
0
  0
VERTEX
  8
0
 10
1.32411
 20
1.31315
 30
0.0
 40
0
 41
0
  0
VERTEX
  8
0
 10
1.32813
 20
1.3463
 30
0.0
 40
0
 41
0
  0
VERTEX
  8
0
 10
1.33355
 20
1.37419
 30
0.0
 40
0
 41
0
  0
VERTEX
  8
0
 10
1.34049
 20
1.38976
 30
0.0
 40
0
 41
0
  0
VERTEX
  8
0
 10
1.34744
 20
1.396
 30
0.0
 40
0
 41
0
  0
VERTEX
  8
0
 10
1.35015
 20
1.39708
 30
0.0
 40
0
 41
0
  0
VERTEX
  8
0
 10
1.35558
 20
1.39931
 30
0.0
 40
0
 41
0
  0
VERTEX
  8
0
 10
1.37348
 20
1.40246
 30
0.0
 40
0
 41
0
  0
VERTEX
  8
0
 10
1.37684
 20
1.39219
 30
0.0
 40
0
 41
0
  0
VERTEX
  8
0
 10
1.37603
 20
1.38938
 30
0.0
 40
0
 41
0
  0
SEQEND
 8
0
  0
POLYLINE
  8
0
 62
     0
 66
     1
 10
0
 20
0
 30
0.0
 70
     1
 40
0
 41
0
  0
VERTEX
  8
0
 10
3.01628
 20
1.36708
 30
0.0
 40
0
 41
0
  0
VERTEX
  8
0
 10
3.01714
 20
1.36355
 30
0.0
 40
0
 41
0
  0
VERTEX
  8
0
 10
3.01785
 20
1.34456
 30
0.0
 40
0
 41
0
  0
VERTEX
  8
0
 10
3.01313
 20
1.32189
 30
0.0
 40
0
 41
0
  0
VERTEX
  8
0
 10
3.01133
 20
1.31646
 30
0.0
 40
0
 41
0
  0
VERTEX
  8
0
 10
3.00993
 20
1.31228
 30
0.0
 40
0
 41
0
  0
VERTEX
  8
0
 10
3.00515
 20
1.29395
 30
0.0
 40
0
 41
0
  0
VERTEX
  8
0
 10
3.00407
 20
1.28315
 30
0.0
 40
0
 41
0
  0
VERTEX
  8
0
 10
3.00456
 20
1.28266
 30
0.0
 40
0
 41
0
  0
VERTEX
  8
0
 10
3.00478
 20
1.28244
 30
0.0
 40
0
 41
0
  0
VERTEX
  8
0
 10
3.01074
 20
1.28706
 30
0.0
 40
0
 41
0
  0
VERTEX
  8
0
 10
3.01818
 20
1.3049
 30
0.0
 40
0
 41
0
  0
VERTEX
  8
0
 10
3.02436
 20
1.32899
 30
0.0
 40
0
 41
0
  0
VERTEX
  8
0
 10
3.02696
 20
1.34614
 30
0.0
 40
0
 41
0
  0
VERTEX
  8
0
 10
3.02696
 20
1.35183
 30
0.0
 40
0
 41
0
  0
VERTEX
  8
0
 10
3.02696
 20
1.35612
 30
0.0
 40
0
 41
0
  0
VERTEX
  8
0
 10
3.02772
 20
1.36898
 30
0.0
 40
0
 41
0
  0
VERTEX
  8
0
 10
3.03093
 20
1.37684
 30
0.0
 40
0
 41
0
  0
VERTEX
  8
0
 10
3.03792
 20
1.37657
 30
0.0
 40
0
 41
0
  0
VERTEX
  8
0
 10
3.04715
 20
1.3712
 30
0.0
 40
0
 41
0
  0
VERTEX
  8
0
 10
3.05007
 20
1.36914
 30
0.0
 40
0
 41
0
  0
VERTEX
  8
0
 10
3.05485
 20
1.36583
 30
0.0
 40
0
 41
0
  0
VERTEX
  8
0
 10
3.06543
 20
1.3501
 30
0.0
 40
0
 41
0
  0
VERTEX
  8
0
 10
3.0701
 20
1.3227
 30
0.0
 40
0
 41
0
  0
VERTEX
  8
0
 10
3.06413
 20
1.2883
 30
0.0
 40
0
 41
0
  0
VERTEX
  8
0
 10
3.0524
 20
1.25781
 30
0.0
 40
0
 41
0
  0
VERTEX
  8
0
 10
3.04747
 20
1.24821
 30
0.0
 40
0
 41
0
  0
VERTEX
  8
0
 10
3.04622
 20
1.24582
 30
0.0
 40
0
 41
0
  0
VERTEX
  8
0
 10
3.04183
 20
1.23383
 30
0.0
 40
0
 41
0
  0
VERTEX
  8
0
 10
3.04053
 20
1.22456
 30
0.0
 40
0
 41
0
  0
VERTEX
  8
0
 10
3.0409
 20
1.22353
 30
0.0
 40
0
 41
0
  0
VERTEX
  8
0
 10
3.04101
 20
1.22325
 30
0.0
 40
0
 41
0
  0
VERTEX
  8
0
 10
3.04596
 20
1.2238
 30
0.0
 40
0
 41
0
  0
VERTEX
  8
0
 10
3.05447
 20
1.2385
 30
0.0
 40
0
 41
0
  0
VERTEX
  8
0
 10
3.06478
 20
1.26411
 30
0.0
 40
0
 41
0
  0
VERTEX
  8
0
 10
3.07275
 20
1.28868
 30
0.0
 40
0
 41
0
  0
VERTEX
  8
0
 10
3.07508
 20
1.29693
 30
0.0
 40
0
 41
0
  0
VERTEX
  8
0
 10
3.08669
 20
1.33887
 30
0.0
 40
0
 41
0
  0
VERTEX
  8
0
 10
3.09722
 20
1.30328
 30
0.0
 40
0
 41
0
  0
VERTEX
  8
0
 10
3.10265
 20
1.28472
 30
0.0
 40
0
 41
0
  0
VERTEX
  8
0
 10
3.09799
 20
1.22282
 30
0.0
 40
0
 41
0
  0
VERTEX
  8
0
 10
3.06651
 20
1.13482
 30
0.0
 40
0
 41
0
  0
VERTEX
  8
0
 10
3.01383
 20
1.06038
 30
0.0
 40
0
 41
0
  0
VERTEX
  8
0
 10
2.96799
 20
1.02474
 30
0.0
 40
0
 41
0
  0
VERTEX
  8
0
 10
2.9509
 20
1.02067
 30
0.0
 40
0
 41
0
  0
VERTEX
  8
0
 10
2.94862
 20
1.02018
 30
0.0
 40
0
 41
0
  0
VERTEX
  8
0
 10
2.94174
 20
1.01921
 30
0.0
 40
0
 41
0
  0
VERTEX
  8
0
 10
2.94054
 20
1.02241
 30
0.0
 40
0
 41
0
  0
VERTEX
  8
0
 10
2.94851
 20
1.03282
 30
0.0
 40
0
 41
0
  0
VERTEX
  8
0
 10
2.96229
 20
1.04807
 30
0.0
 40
0
 41
0
  0
VERTEX
  8
0
 10
2.96696
 20
1.05306
 30
0.0
 40
0
 41
0
  0
VERTEX
  8
0
 10
2.97342
 20
1.06011
 30
0.0
 40
0
 41
0
  0
VERTEX
  8
0
 10
2.99137
 20
1.08263
 30
0.0
 40
0
 41
0
  0
VERTEX
  8
0
 10
3.01096
 20
1.1122
 30
0.0
 40
0
 41
0
  0
VERTEX
  8
0
 10
3.02311
 20
1.13726
 30
0.0
 40
0
 41
0
  0
VERTEX
  8
0
 10
3.02642
 20
1.15007
 30
0.0
 40
0
 41
0
  0
VERTEX
  8
0
 10
3.02522
 20
1.15343
 30
0.0
 40
0
 41
0
  0
VERTEX
  8
0
 10
3.02507
 20
1.15381
 30
0.0
 40
0
 41
0
  0
VERTEX
  8
0
 10
3.02089
 20
1.15359
 30
0.0
 40
0
 41
0
  0
VERTEX
  8
0
 10
3.01546
 20
1.1454
 30
0.0
 40
0
 41
0
  0
VERTEX
  8
0
 10
3.01432
 20
1.1428
 30
0.0
 40
0
 41
0
  0
VERTEX
  8
0
 10
3.01118
 20
1.13574
 30
0.0
 40
0
 41
0
  0
VERTEX
  8
0
 10
3
 20
1.1154
 30
0.0
 40
0
 41
0
  0
VERTEX
  8
0
 10
2.98199
 20
1.08843
 30
0.0
 40
0
 41
0
  0
VERTEX
  8
0
 10
2.96158
 20
1.06315
 30
0.0
 40
0
 41
0
  0
VERTEX
  8
0
 10
2.94
 20
1.04074
 30
0.0
 40
0
 41
0
  0
VERTEX
  8
0
 10
2.91863
 20
1.02246
 30
0.0
 40
0
 41
0
  0
VERTEX
  8
0
 10
2.89865
 20
1.00949
 30
0.0
 40
0
 41
0
  0
VERTEX
  8
0
 10
2.88151
 20
1.00309
 30
0.0
 40
0
 41
0
  0
VERTEX
  8
0
 10
2.87104
 20
1.00309
 30
0.0
 40
0
 41
0
  0
VERTEX
  8
0
 10
2.86837
 20
1.0045
 30
0.0
 40
0
 41
0
  0
VERTEX
  8
0
 10
2.8649
 20
1.00635
 30
0.0
 40
0
 41
0
  0
VERTEX
  8
0
 10
2.85601
 20
1.01459
 30
0.0
 40
0
 41
0
  0
VERTEX
  8
0
 10
2.85536
 20
1.02859
 30
0.0
 40
0
 41
0
  0
VERTEX
  8
0
 10
2.86783
 20
1.05105
 30
0.0
 40
0
 41
0
  0
VERTEX
  8
0
 10
2.88792
 20
1.07764
 30
0.0
 40
0
 41
0
  0
VERTEX
  8
0
 10
2.89492
 20
1.08621
 30
0.0
 40
0
 41
0
  0
VERTEX
  8
0
 10
2.89931
 20
1.09169
 30
0.0
 40
0
 41
0
  0
VERTEX
  8
0
 10
2.91233
 20
1.10834
 30
0.0
 40
0
 41
0
  0
VERTEX
  8
0
 10
2.92611
 20
1.12695
 30
0.0
 40
0
 41
0
  0
VERTEX
  8
0
 10
2.9349
 20
1.14003
 30
0.0
 40
0
 41
0
  0
VERTEX
  8
0
 10
2.93767
 20
1.14529
 30
0.0
 40
0
 41
0
  0
VERTEX
  8
0
 10
2.93728
 20
1.14567
 30
0.0
 40
0
 41
0
  0
VERTEX
  8
0
 10
2.93685
 20
1.1461
 30
0.0
 40
0
 41
0
  0
VERTEX
  8
0
 10
2.93229
 20
1.14404
 30
0.0
 40
0
 41
0
  0
VERTEX
  8
0
 10
2.92096
 20
1.13314
 30
0.0
 40
0
 41
0
  0
VERTEX
  8
0
 10
2.90132
 20
1.11106
 30
0.0
 40
0
 41
0
  0
VERTEX
  8
0
 10
2.87907
 20
1.08469
 30
0.0
 40
0
 41
0
  0
VERTEX
  8
0
 10
2.87175
 20
1.07585
 30
0.0
 40
0
 41
0
  0
VERTEX
  8
0
 10
2.86681
 20
1.06993
 30
0.0
 40
0
 41
0
  0
VERTEX
  8
0
 10
2.85032
 20
1.05344
 30
0.0
 40
0
 41
0
  0
VERTEX
  8
0
 10
2.83132
 20
1.03955
 30
0.0
 40
0
 41
0
  0
VERTEX
  8
0
 10
2.81543
 20
1.03369
 30
0.0
 40
0
 41
0
  0
VERTEX
  8
0
 10
2.80344
 20
1.03554
 30
0.0
 40
0
 41
0
  0
VERTEX
  8
0
 10
2.79601
 20
1.04465
 30
0.0
 40
0
 41
0
  0
VERTEX
  8
0
 10
2.794
 20
1.06055
 30
0.0
 40
0
 41
0
  0
VERTEX
  8
0
 10
2.79812
 20
1.08284
 30
0.0
 40
0
 41
0
  0
VERTEX
  8
0
 10
2.80593
 20
1.10427
 30
0.0
 40
0
 41
0
  0
VERTEX
  8
0
 10
2.80919
 20
1.11106
 30
0.0
 40
0
 41
0
  0
VERTEX
  8
0
 10
2.81125
 20
1.11545
 30
0.0
 40
0
 41
0
  0
VERTEX
  8
0
 10
2.82275
 20
1.14524
 30
0.0
 40
0
 41
0
  0
VERTEX
  8
0
 10
2.83296
 20
1.17725
 30
0.0
 40
0
 41
0
  0
VERTEX
  8
0
 10
2.83436
 20
1.18267
 30
0.0
 40
0
 41
0
  0
VERTEX
  8
0
 10
2.83572
 20
1.18815
 30
0.0
 40
0
 41
0
  0
VERTEX
  8
0
 10
2.84332
 20
1.21305
 30
0.0
 40
0
 41
0
  0
VERTEX
  8
0
 10
2.84993
 20
1.22917
 30
0.0
 40
0
 41
0
  0
VERTEX
  8
0
 10
2.85081
 20
1.23025
 30
0.0
 40
0
 41
0
  0
VERTEX
  8
0
 10
2.85232
 20
1.23221
 30
0.0
 40
0
 41
0
  0
VERTEX
  8
0
 10
2.85314
 20
1.2411
 30
0.0
 40
0
 41
0
  0
VERTEX
  8
0
 10
2.83876
 20
1.23958
 30
0.0
 40
0
 41
0
  0
VERTEX
  8
0
 10
2.83442
 20
1.2379
 30
0.0
 40
0
 41
0
  0
VERTEX
  8
0
 10
2.82742
 20
1.2353
 30
0.0
 40
0
 41
0
  0
VERTEX
  8
0
 10
2.78797
 20
1.23188
 30
0.0
 40
0
 41
0
  0
VERTEX
  8
0
 10
2.75353
 20
1.24072
 30
0.0
 40
0
 41
0
  0
VERTEX
  8
0
 10
2.74914
 20
1.24419
 30
0.0
 40
0
 41
0
  0
VERTEX
  8
0
 10
2.74507
 20
1.2474
 30
0.0
 40
0
 41
0
  0
VERTEX
  8
0
 10
2.73475
 20
1.25949
 30
0.0
 40
0
 41
0
  0
VERTEX
  8
0
 10
2.72624
 20
1.2768
 30
0.0
 40
0
 41
0
  0
VERTEX
  8
0
 10
2.72319
 20
1.2946
 30
0.0
 40
0
 41
0
  0
VERTEX
  8
0
 10
2.7251
 20
1.31109
 30
0.0
 40
0
 41
0
  0
VERTEX
  8
0
 10
2.7315
 20
1.32482
 30
0.0
 40
0
 41
0
  0
VERTEX
  8
0
 10
2.74197
 20
1.33409
 30
0.0
 40
0
 41
0
  0
VERTEX
  8
0
 10
2.75612
 20
1.33729
 30
0.0
 40
0
 41
0
  0
VERTEX
  8
0
 10
2.76947
 20
1.33464
 30
0.0
 40
0
 41
0
  0
VERTEX
  8
0
 10
2.77344
 20
1.33274
 30
0.0
 40
0
 41
0
  0
VERTEX
  8
0
 10
2.77962
 20
1.32981
 30
0.0
 40
0
 41
0
  0
VERTEX
  8
0
 10
2.80067
 20
1.32579
 30
0.0
 40
0
 41
0
  0
VERTEX
  8
0
 10
2.83143
 20
1.32872
 30
0.0
 40
0
 41
0
  0
VERTEX
  8
0
 10
2.86486
 20
1.34125
 30
0.0
 40
0
 41
0
  0
VERTEX
  8
0
 10
2.89182
 20
1.35715
 30
0.0
 40
0
 41
0
  0
VERTEX
  8
0
 10
2.90018
 20
1.36328
 30
0.0
 40
0
 41
0
  0
VERTEX
  8
0
 10
2.90901
 20
1.3699
 30
0.0
 40
0
 41
0
  0
VERTEX
  8
0
 10
2.93778
 20
1.38672
 30
0.0
 40
0
 41
0
  0
VERTEX
  8
0
 10
2.96067
 20
1.38829
 30
0.0
 40
0
 41
0
  0
VERTEX
  8
0
 10
2.9706
 20
1.36702
 30
0.0
 40
0
 41
0
  0
VERTEX
  8
0
 10
2.97065
 20
1.33295
 30
0.0
 40
0
 41
0
  0
VERTEX
  8
0
 10
2.96951
 20
1.32167
 30
0.0
 40
0
 41
0
  0
VERTEX
  8
0
 10
2.96875
 20
1.31467
 30
0.0
 40
0
 41
0
  0
VERTEX
  8
0
 10
2.96793
 20
1.29346
 30
0.0
 40
0
 41
0
  0
VERTEX
  8
0
 10
2.97265
 20
1.29134
 30
0.0
 40
0
 41
0
  0
VERTEX
  8
0
 10
2.9731
 20
1.29172
 30
0.0
 40
0
 41
0
  0
VERTEX
  8
0
 10
2.97428
 20
1.29297
 30
0.0
 40
0
 41
0
  0
VERTEX
  8
0
 10
2.97835
 20
1.30979
 30
0.0
 40
0
 41
0
  0
VERTEX
  8
0
 10
2.97971
 20
1.33979
 30
0.0
 40
0
 41
0
  0
VERTEX
  8
0
 10
2.97954
 20
1.34755
 30
0.0
 40
0
 41
0
  0
VERTEX
  8
0
 10
2.97851
 20
1.39583
 30
0.0
 40
0
 41
0
  0
VERTEX
  8
0
 10
2.99479
 20
1.3915
 30
0.0
 40
0
 41
0
  0
VERTEX
  8
0
 10
2.99767
 20
1.39074
 30
0.0
 40
0
 41
0
  0
VERTEX
  8
0
 10
3.00846
 20
1.38352
 30
0.0
 40
0
 41
0
  0
VERTEX
  8
0
 10
3.01531
 20
1.37071
 30
0.0
 40
0
 41
0
  0
VERTEX
  8
0
 10
3.01628
 20
1.36708
 30
0.0
 40
0
 41
0
  0
SEQEND
 8
0
  0
POLYLINE
  8
0
 62
     0
 66
     1
 10
0
 20
0
 30
0.0
 70
     1
 40
0
 41
0
  0
VERTEX
  8
0
 10
2.75608
 20
0.655707
 30
0.0
 40
0
 41
0
  0
VERTEX
  8
0
 10
2.76172
 20
0.654297
 30
0.0
 40
0
 41
0
  0
VERTEX
  8
0
 10
2.77783
 20
0.646701
 30
0.0
 40
0
 41
0
  0
VERTEX
  8
0
 10
2.79953
 20
0.632975
 30
0.0
 40
0
 41
0
  0
VERTEX
  8
0
 10
2.81489
 20
0.61914
 30
0.0
 40
0
 41
0
  0
VERTEX
  8
0
 10
2.81853
 20
0.610622
 30
0.0
 40
0
 41
0
  0
VERTEX
  8
0
 10
2.81776
 20
0.60981
 30
0.0
 40
0
 41
0
  0
VERTEX
  8
0
 10
2.81722
 20
0.609321
 30
0.0
 40
0
 41
0
  0
VERTEX
  8
0
 10
2.80464
 20
0.610081
 30
0.0
 40
0
 41
0
  0
VERTEX
  8
0
 10
2.78347
 20
0.614746
 30
0.0
 40
0
 41
0
  0
VERTEX
  8
0
 10
2.77865
 20
0.616103
 30
0.0
 40
0
 41
0
  0
VERTEX
  8
0
 10
2.77294
 20
0.617785
 30
0.0
 40
0
 41
0
  0
VERTEX
  8
0
 10
2.71072
 20
0.624294
 30
0.0
 40
0
 41
0
  0
VERTEX
  8
0
 10
2.70443
 20
0.623861
 30
0.0
 40
0
 41
0
  0
VERTEX
  8
0
 10
2.66536
 20
0.621365
 30
0.0
 40
0
 41
0
  0
VERTEX
  8
0
 10
2.6881
 20
0.64464
 30
0.0
 40
0
 41
0
  0
VERTEX
  8
0
 10
2.69129
 20
0.647949
 30
0.0
 40
0
 41
0
  0
VERTEX
  8
0
 10
2.70703
 20
0.660482
 30
0.0
 40
0
 41
0
  0
VERTEX
  8
0
 10
2.71897
 20
0.665636
 30
0.0
 40
0
 41
0
  0
VERTEX
  8
0
 10
2.72032
 20
0.665201
 30
0.0
 40
0
 41
0
  0
VERTEX
  8
0
 10
2.72163
 20
0.664876
 30
0.0
 40
0
 41
0
  0
VERTEX
  8
0
 10
2.73469
 20
0.66135
 30
0.0
 40
0
 41
0
  0
VERTEX
  8
0
 10
2.75244
 20
0.656685
 30
0.0
 40
0
 41
0
  0
VERTEX
  8
0
 10
2.75608
 20
0.655707
 30
0.0
 40
0
 41
0
  0
SEQEND
 8
0
  0
POLYLINE
  8
0
 62
     0
 66
     1
 10
0
 20
0
 30
0.0
 70
     1
 40
0
 41
0
  0
VERTEX
  8
0
 10
2.7901
 20
0.600315
 30
0.0
 40
0
 41
0
  0
VERTEX
  8
0
 10
2.8029
 20
0.59554
 30
0.0
 40
0
 41
0
  0
VERTEX
  8
0
 10
2.83708
 20
0.56939
 30
0.0
 40
0
 41
0
  0
VERTEX
  8
0
 10
2.85579
 20
0.528049
 30
0.0
 40
0
 41
0
  0
VERTEX
  8
0
 10
2.84532
 20
0.485189
 30
0.0
 40
0
 41
0
  0
VERTEX
  8
0
 10
2.81646
 20
0.455621
 30
0.0
 40
0
 41
0
  0
VERTEX
  8
0
 10
2.80485
 20
0.449599
 30
0.0
 40
0
 41
0
  0
VERTEX
  8
0
 10
2.80143
 20
0.447863
 30
0.0
 40
0
 41
0
  0
VERTEX
  8
0
 10
2.79021
 20
0.444336
 30
0.0
 40
0
 41
0
  0
VERTEX
  8
0
 10
2.78797
 20
0.454699
 30
0.0
 40
0
 41
0
  0
VERTEX
  8
0
 10
2.78797
 20
0.458117
 30
0.0
 40
0
 41
0
  0
VERTEX
  8
0
 10
2.78797
 20
0.464301
 30
0.0
 40
0
 41
0
  0
VERTEX
  8
0
 10
2.78347
 20
0.482693
 30
0.0
 40
0
 41
0
  0
VERTEX
  8
0
 10
2.77094
 20
0.507324
 30
0.0
 40
0
 41
0
  0
VERTEX
  8
0
 10
2.75163
 20
0.530111
 30
0.0
 40
0
 41
0
  0
VERTEX
  8
0
 10
2.73335
 20
0.545193
 30
0.0
 40
0
 41
0
  0
VERTEX
  8
0
 10
2.72672
 20
0.549208
 30
0.0
 40
0
 41
0
  0
VERTEX
  8
0
 10
2.71994
 20
0.553331
 30
0.0
 40
0
 41
0
  0
VERTEX
  8
0
 10
2.69819
 20
0.563097
 30
0.0
 40
0
 41
0
  0
VERTEX
  8
0
 10
2.66812
 20
0.572646
 30
0.0
 40
0
 41
0
  0
VERTEX
  8
0
 10
2.64442
 20
0.576118
 30
0.0
 40
0
 41
0
  0
VERTEX
  8
0
 10
2.63482
 20
0.5727
 30
0.0
 40
0
 41
0
  0
VERTEX
  8
0
 10
2.63482
 20
0.571506
 30
0.0
 40
0
 41
0
  0
VERTEX
  8
0
 10
2.63482
 20
0.57015
 30
0.0
 40
0
 41
0
  0
VERTEX
  8
0
 10
2.64339
 20
0.566026
 30
0.0
 40
0
 41
0
  0
VERTEX
  8
0
 10
2.66
 20
0.561957
 30
0.0
 40
0
 41
0
  0
VERTEX
  8
0
 10
2.66401
 20
0.561415
 30
0.0
 40
0
 41
0
  0
VERTEX
  8
0
 10
2.67171
 20
0.560439
 30
0.0
 40
0
 41
0
  0
VERTEX
  8
0
 10
2.69439
 20
0.554036
 30
0.0
 40
0
 41
0
  0
VERTEX
  8
0
 10
2.72103
 20
0.541178
 30
0.0
 40
0
 41
0
  0
VERTEX
  8
0
 10
2.743
 20
0.524143
 30
0.0
 40
0
 41
0
  0
VERTEX
  8
0
 10
2.75956
 20
0.504124
 30
0.0
 40
0
 41
0
  0
VERTEX
  8
0
 10
2.76992
 20
0.482368
 30
0.0
 40
0
 41
0
  0
VERTEX
  8
0
 10
2.77317
 20
0.460232
 30
0.0
 40
0
 41
0
  0
VERTEX
  8
0
 10
2.76861
 20
0.438911
 30
0.0
 40
0
 41
0
  0
VERTEX
  8
0
 10
2.75944
 20
0.423665
 30
0.0
 40
0
 41
0
  0
VERTEX
  8
0
 10
2.75537
 20
0.419596
 30
0.0
 40
0
 41
0
  0
VERTEX
  8
0
 10
2.75082
 20
0.415093
 30
0.0
 40
0
 41
0
  0
VERTEX
  8
0
 10
2.73406
 20
0.404568
 30
0.0
 40
0
 41
0
  0
VERTEX
  8
0
 10
2.70514
 20
0.390896
 30
0.0
 40
0
 41
0
  0
VERTEX
  8
0
 10
2.67768
 20
0.382215
 30
0.0
 40
0
 41
0
  0
VERTEX
  8
0
 10
2.66368
 20
0.380263
 30
0.0
 40
0
 41
0
  0
VERTEX
  8
0
 10
2.66081
 20
0.381999
 30
0.0
 40
0
 41
0
  0
VERTEX
  8
0
 10
2.66015
 20
0.382433
 30
0.0
 40
0
 41
0
  0
VERTEX
  8
0
 10
2.64854
 20
0.383464
 30
0.0
 40
0
 41
0
  0
VERTEX
  8
0
 10
2.61876
 20
0.385254
 30
0.0
 40
0
 41
0
  0
VERTEX
  8
0
 10
2.5759
 20
0.387153
 30
0.0
 40
0
 41
0
  0
VERTEX
  8
0
 10
2.53728
 20
0.38851
 30
0.0
 40
0
 41
0
  0
VERTEX
  8
0
 10
2.52442
 20
0.388835
 30
0.0
 40
0
 41
0
  0
VERTEX
  8
0
 10
2.51101
 20
0.389214
 30
0.0
 40
0
 41
0
  0
VERTEX
  8
0
 10
2.47086
 20
0.390517
 30
0.0
 40
0
 41
0
  0
VERTEX
  8
0
 10
2.42242
 20
0.392253
 30
0.0
 40
0
 41
0
  0
VERTEX
  8
0
 10
2.38439
 20
0.393772
 30
0.0
 40
0
 41
0
  0
VERTEX
  8
0
 10
2.36632
 20
0.39464
 30
0.0
 40
0
 41
0
  0
VERTEX
  8
0
 10
2.36214
 20
0.394965
 30
0.0
 40
0
 41
0
  0
VERTEX
  8
0
 10
2.35792
 20
0.39529
 30
0.0
 40
0
 41
0
  0
VERTEX
  8
0
 10
2.31619
 20
0.397732
 30
0.0
 40
0
 41
0
  0
VERTEX
  8
0
 10
2.2601
 20
0.400608
 30
0.0
 40
0
 41
0
  0
VERTEX
  8
0
 10
2.24875
 20
0.40115
 30
0.0
 40
0
 41
0
  0
VERTEX
  8
0
 10
2.24083
 20
0.401531
 30
0.0
 40
0
 41
0
  0
VERTEX
  8
0
 10
2.21712
 20
0.403538
 30
0.0
 40
0
 41
0
  0
VERTEX
  8
0
 10
2.18078
 20
0.407607
 30
0.0
 40
0
 41
0
  0
VERTEX
  8
0
 10
2.14296
 20
0.412761
 30
0.0
 40
0
 41
0
  0
VERTEX
  8
0
 10
2.10726
 20
0.418403
 30
0.0
 40
0
 41
0
  0
VERTEX
  8
0
 10
2.07693
 20
0.424046
 30
0.0
 40
0
 41
0
  0
VERTEX
  8
0
 10
2.05544
 20
0.429036
 30
0.0
 40
0
 41
0
  0
VERTEX
  8
0
 10
2.04622
 20
0.432781
 30
0.0
 40
0
 41
0
  0
VERTEX
  8
0
 10
2.05106
 20
0.434625
 30
0.0
 40
0
 41
0
  0
VERTEX
  8
0
 10
2.05268
 20
0.434679
 30
0.0
 40
0
 41
0
  0
VERTEX
  8
0
 10
2.09694
 20
0.437121
 30
0.0
 40
0
 41
0
  0
VERTEX
  8
0
 10
2.22928
 20
0.453342
 30
0.0
 40
0
 41
0
  0
VERTEX
  8
0
 10
2.39681
 20
0.486708
 30
0.0
 40
0
 41
0
  0
VERTEX
  8
0
 10
2.53364
 20
0.529351
 30
0.0
 40
0
 41
0
  0
VERTEX
  8
0
 10
2.60118
 20
0.560275
 30
0.0
 40
0
 41
0
  0
VERTEX
  8
0
 10
2.61833
 20
0.575846
 30
0.0
 40
0
 41
0
  0
VERTEX
  8
0
 10
2.62642
 20
0.583279
 30
0.0
 40
0
 41
0
  0
VERTEX
  8
0
 10
2.65494
 20
0.600965
 30
0.0
 40
0
 41
0
  0
VERTEX
  8
0
 10
2.69581
 20
0.613444
 30
0.0
 40
0
 41
0
  0
VERTEX
  8
0
 10
2.74083
 20
0.613226
 30
0.0
 40
0
 41
0
  0
VERTEX
  8
0
 10
2.77821
 20
0.604764
 30
0.0
 40
0
 41
0
  0
VERTEX
  8
0
 10
2.7901
 20
0.600315
 30
0.0
 40
0
 41
0
  0
SEQEND
 8
0
  0
POLYLINE
  8
0
 62
     0
 66
     1
 10
0
 20
0
 30
0.0
 70
     1
 40
0
 41
0
  0
VERTEX
  8
0
 10
1.32547
 20
0.452474
 30
0.0
 40
0
 41
0
  0
VERTEX
  8
0
 10
1.33111
 20
0.44949
 30
0.0
 40
0
 41
0
  0
VERTEX
  8
0
 10
1.34711
 20
0.438531
 30
0.0
 40
0
 41
0
  0
VERTEX
  8
0
 10
1.37408
 20
0.417046
 30
0.0
 40
0
 41
0
  0
VERTEX
  8
0
 10
1.40463
 20
0.389594
 30
0.0
 40
0
 41
0
  0
VERTEX
  8
0
 10
1.42899
 20
0.365831
 30
0.0
 40
0
 41
0
  0
VERTEX
  8
0
 10
1.4369
 20
0.357693
 30
0.0
 40
0
 41
0
  0
VERTEX
  8
0
 10
1.44467
 20
0.349718
 30
0.0
 40
0
 41
0
  0
VERTEX
  8
0
 10
1.47553
 20
0.322049
 30
0.0
 40
0
 41
0
  0
VERTEX
  8
0
 10
1.49983
 20
0.307889
 30
0.0
 40
0
 41
0
  0
VERTEX
  8
0
 10
1.50429
 20
0.30664
 30
0.0
 40
0
 41
0
  0
VERTEX
  8
0
 10
1.52587
 20
0.300672
 30
0.0
 40
0
 41
0
  0
VERTEX
  8
0
 10
1.59338
 20
0.292426
 30
0.0
 40
0
 41
0
  0
VERTEX
  8
0
 10
1.68143
 20
0.300131
 30
0.0
 40
0
 41
0
  0
VERTEX
  8
0
 10
1.77078
 20
0.330296
 30
0.0
 40
0
 41
0
  0
VERTEX
  8
0
 10
1.84169
 20
0.368381
 30
0.0
 40
0
 41
0
  0
VERTEX
  8
0
 10
1.86376
 20
0.383301
 30
0.0
 40
0
 41
0
  0
VERTEX
  8
0
 10
1.87164
 20
0.388618
 30
0.0
 40
0
 41
0
  0
VERTEX
  8
0
 10
1.89561
 20
0.404081
 30
0.0
 40
0
 41
0
  0
VERTEX
  8
0
 10
1.91237
 20
0.412164
 30
0.0
 40
0
 41
0
  0
VERTEX
  8
0
 10
1.91683
 20
0.408094
 30
0.0
 40
0
 41
0
  0
VERTEX
  8
0
 10
1.91342
 20
0.396104
 30
0.0
 40
0
 41
0
  0
VERTEX
  8
0
 10
1.91183
 20
0.392307
 30
0.0
 40
0
 41
0
  0
VERTEX
  8
0
 10
1.90793
 20
0.382921
 30
0.0
 40
0
 41
0
  0
VERTEX
  8
0
 10
1.89035
 20
0.35715
 30
0.0
 40
0
 41
0
  0
VERTEX
  8
0
 10
1.85271
 20
0.331164
 30
0.0
 40
0
 41
0
  0
VERTEX
  8
0
 10
1.78711
 20
0.308919
 30
0.0
 40
0
 41
0
  0
VERTEX
  8
0
 10
1.70833
 20
0.290419
 30
0.0
 40
0
 41
0
  0
VERTEX
  8
0
 10
1.68197
 20
0.284939
 30
0.0
 40
0
 41
0
  0
VERTEX
  8
0
 10
1.66656
 20
0.281793
 30
0.0
 40
0
 41
0
  0
VERTEX
  8
0
 10
1.62061
 20
0.271539
 30
0.0
 40
0
 41
0
  0
VERTEX
  8
0
 10
1.57633
 20
0.259169
 30
0.0
 40
0
 41
0
  0
VERTEX
  8
0
 10
1.53728
 20
0.243924
 30
0.0
 40
0
 41
0
  0
VERTEX
  8
0
 10
1.50276
 20
0.227485
 30
0.0
 40
0
 41
0
  0
VERTEX
  8
0
 10
1.49143
 20
0.221733
 30
0.0
 40
0
 41
0
  0
VERTEX
  8
0
 10
1.47006
 20
0.210992
 30
0.0
 40
0
 41
0
  0
VERTEX
  8
0
 10
1.40343
 20
0.183539
 30
0.0
 40
0
 41
0
  0
VERTEX
  8
0
 10
1.32715
 20
0.162489
 30
0.0
 40
0
 41
0
  0
VERTEX
  8
0
 10
1.26747
 20
0.159506
 30
0.0
 40
0
 41
0
  0
VERTEX
  8
0
 10
1.23611
 20
0.168728
 30
0.0
 40
0
 41
0
  0
VERTEX
  8
0
 10
1.22938
 20
0.175456
 30
0.0
 40
0
 41
0
  0
VERTEX
  8
0
 10
1.22477
 20
0.180067
 30
0.0
 40
0
 41
0
  0
VERTEX
  8
0
 10
1.21522
 20
0.198242
 30
0.0
 40
0
 41
0
  0
VERTEX
  8
0
 10
1.21262
 20
0.224338
 30
0.0
 40
0
 41
0
  0
VERTEX
  8
0
 10
1.22
 20
0.25179
 30
0.0
 40
0
 41
0
  0
VERTEX
  8
0
 10
1.23589
 20
0.278538
 30
0.0
 40
0
 41
0
  0
VERTEX
  8
0
 10
1.25868
 20
0.302626
 30
0.0
 40
0
 41
0
  0
VERTEX
  8
0
 10
1.28689
 20
0.322049
 30
0.0
 40
0
 41
0
  0
VERTEX
  8
0
 10
1.31901
 20
0.334799
 30
0.0
 40
0
 41
0
  0
VERTEX
  8
0
 10
1.34489
 20
0.339085
 30
0.0
 40
0
 41
0
  0
VERTEX
  8
0
 10
1.35352
 20
0.338813
 30
0.0
 40
0
 41
0
  0
VERTEX
  8
0
 10
1.35997
 20
0.33865
 30
0.0
 40
0
 41
0
  0
VERTEX
  8
0
 10
1.38124
 20
0.339572
 30
0.0
 40
0
 41
0
  0
VERTEX
  8
0
 10
1.38656
 20
0.343804
 30
0.0
 40
0
 41
0
  0
VERTEX
  8
0
 10
1.38656
 20
0.343804
 30
0.0
 40
0
 41
0
  0
VERTEX
  8
0
 10
1.38184
 20
0.348525
 30
0.0
 40
0
 41
0
  0
VERTEX
  8
0
 10
1.35894
 20
0.353624
 30
0.0
 40
0
 41
0
  0
VERTEX
  8
0
 10
1.31944
 20
0.347657
 30
0.0
 40
0
 41
0
  0
VERTEX
  8
0
 10
1.27691
 20
0.328668
 30
0.0
 40
0
 41
0
  0
VERTEX
  8
0
 10
1.24821
 20
0.307943
 30
0.0
 40
0
 41
0
  0
VERTEX
  8
0
 10
1.24051
 20
0.299371
 30
0.0
 40
0
 41
0
  0
VERTEX
  8
0
 10
1.23557
 20
0.293946
 30
0.0
 40
0
 41
0
  0
VERTEX
  8
0
 10
1.22114
 20
0.277181
 30
0.0
 40
0
 41
0
  0
VERTEX
  8
0
 10
1.20985
 20
0.260579
 30
0.0
 40
0
 41
0
  0
VERTEX
  8
0
 10
1.20405
 20
0.244629
 30
0.0
 40
0
 41
0
  0
VERTEX
  8
0
 10
1.20155
 20
0.229438
 30
0.0
 40
0
 41
0
  0
VERTEX
  8
0
 10
1.20106
 20
0.224338
 30
0.0
 40
0
 41
0
  0
VERTEX
  8
0
 10
1.2003
 20
0.217176
 30
0.0
 40
0
 41
0
  0
VERTEX
  8
0
 10
1.18821
 20
0.196669
 30
0.0
 40
0
 41
0
  0
VERTEX
  8
0
 10
1.16054
 20
0.190593
 30
0.0
 40
0
 41
0
  0
VERTEX
  8
0
 10
1.12272
 20
0.205675
 30
0.0
 40
0
 41
0
  0
VERTEX
  8
0
 10
1.08908
 20
0.231174
 30
0.0
 40
0
 41
0
  0
VERTEX
  8
0
 10
1.07937
 20
0.241103
 30
0.0
 40
0
 41
0
  0
VERTEX
  8
0
 10
1.07297
 20
0.247667
 30
0.0
 40
0
 41
0
  0
VERTEX
  8
0
 10
1.058
 20
0.271376
 30
0.0
 40
0
 41
0
  0
VERTEX
  8
0
 10
1.05192
 20
0.301215
 30
0.0
 40
0
 41
0
  0
VERTEX
  8
0
 10
1.05952
 20
0.329318
 30
0.0
 40
0
 41
0
  0
VERTEX
  8
0
 10
1.07932
 20
0.354329
 30
0.0
 40
0
 41
0
  0
VERTEX
  8
0
 10
1.10992
 20
0.374946
 30
0.0
 40
0
 41
0
  0
VERTEX
  8
0
 10
1.14974
 20
0.389811
 30
0.0
 40
0
 41
0
  0
VERTEX
  8
0
 10
1.19732
 20
0.397515
 30
0.0
 40
0
 41
0
  0
VERTEX
  8
0
 10
1.23785
 20
0.398058
 30
0.0
 40
0
 41
0
  0
VERTEX
  8
0
 10
1.25125
 20
0.396756
 30
0.0
 40
0
 41
0
  0
VERTEX
  8
0
 10
1.25673
 20
0.396268
 30
0.0
 40
0
 41
0
  0
VERTEX
  8
0
 10
1.27333
 20
0.396158
 30
0.0
 40
0
 41
0
  0
VERTEX
  8
0
 10
1.27995
 20
0.398872
 30
0.0
 40
0
 41
0
  0
VERTEX
  8
0
 10
1.27148
 20
0.403157
 30
0.0
 40
0
 41
0
  0
VERTEX
  8
0
 10
1.25423
 20
0.406739
 30
0.0
 40
0
 41
0
  0
VERTEX
  8
0
 10
1.24848
 20
0.407443
 30
0.0
 40
0
 41
0
  0
VERTEX
  8
0
 10
1.24056
 20
0.408421
 30
0.0
 40
0
 41
0
  0
VERTEX
  8
0
 10
1.21652
 20
0.408365
 30
0.0
 40
0
 41
0
  0
VERTEX
  8
0
 10
1.17855
 20
0.405003
 30
0.0
 40
0
 41
0
  0
VERTEX
  8
0
 10
1.14128
 20
0.398329
 30
0.0
 40
0
 41
0
  0
VERTEX
  8
0
 10
1.11849
 20
0.392199
 30
0.0
 40
0
 41
0
  0
VERTEX
  8
0
 10
1.11133
 20
0.38916
 30
0.0
 40
0
 41
0
  0
VERTEX
  8
0
 10
1.10775
 20
0.387696
 30
0.0
 40
0
 41
0
  0
VERTEX
  8
0
 10
1.09646
 20
0.384657
 30
0.0
 40
0
 41
0
  0
VERTEX
  8
0
 10
1.09131
 20
0.387099
 30
0.0
 40
0
 41
0
  0
VERTEX
  8
0
 10
1.09587
 20
0.395942
 30
0.0
 40
0
 41
0
  0
VERTEX
  8
0
 10
1.10645
 20
0.407281
 30
0.0
 40
0
 41
0
  0
VERTEX
  8
0
 10
1.11024
 20
0.410699
 30
0.0
 40
0
 41
0
  0
VERTEX
  8
0
 10
1.11572
 20
0.415744
 30
0.0
 40
0
 41
0
  0
VERTEX
  8
0
 10
1.15451
 20
0.436578
 30
0.0
 40
0
 41
0
  0
VERTEX
  8
0
 10
1.19851
 20
0.4477
 30
0.0
 40
0
 41
0
  0
VERTEX
  8
0
 10
1.20665
 20
0.447917
 30
0.0
 40
0
 41
0
  0
VERTEX
  8
0
 10
1.20964
 20
0.448025
 30
0.0
 40
0
 41
0
  0
VERTEX
  8
0
 10
1.22662
 20
0.449815
 30
0.0
 40
0
 41
0
  0
VERTEX
  8
0
 10
1.24175
 20
0.4528
 30
0.0
 40
0
 41
0
  0
VERTEX
  8
0
 10
1.24387
 20
0.45345
 30
0.0
 40
0
 41
0
  0
VERTEX
  8
0
 10
1.24968
 20
0.45535
 30
0.0
 40
0
 41
0
  0
VERTEX
  8
0
 10
1.28776
 20
0.458768
 30
0.0
 40
0
 41
0
  0
VERTEX
  8
0
 10
1.32172
 20
0.454482
 30
0.0
 40
0
 41
0
  0
VERTEX
  8
0
 10
1.32547
 20
0.452474
 30
0.0
 40
0
 41
0
  0
SEQEND
 8
0
  0
ENDSEC
  0
EOF
