  0
SECTION
  2
HEADER
  9
$ACADVER
  1
AC1009
  9
$EXTMIN
 10
0.0
 20
0.0
 30
0.0
  9
$EXTMAX
 10
1000.0
 20
1000.0
 30
0.0
  9
$FILLMODE
 70
 0
  9
$SPLFRAME
 70
 1
  0
ENDSEC
  0
SECTION
  2
TABLES
  0
TABLE
  2
LAYER
 70
1
  0
LAYER
  2
0
 70
     0
 62
     7
  6
CONTINUOUS
  0
ENDTAB
  0
ENDSEC
  0
SECTION
  2
ENTITIES
  0
POLYLINE
  8
0
 62
     0
 66
     1
 10
0
 20
0
 30
0.0
 70
     1
 40
0
 41
0
  0
VERTEX
  8
0
 10
1.70188
 20
3.18799
 30
0.0
 40
0
 41
0
  0
VERTEX
  8
0
 10
1.67438
 20
3.18608
 30
0.0
 40
0
 41
0
  0
VERTEX
  8
0
 10
1.54883
 20
3.16792
 30
0.0
 40
0
 41
0
  0
VERTEX
  8
0
 10
1.42524
 20
3.13547
 30
0.0
 40
0
 41
0
  0
VERTEX
  8
0
 10
1.39871
 20
3.12636
 30
0.0
 40
0
 41
0
  0
VERTEX
  8
0
 10
1.36686
 20
3.1155
 30
0.0
 40
0
 41
0
  0
VERTEX
  8
0
 10
1.27458
 20
3.07319
 30
0.0
 40
0
 41
0
  0
VERTEX
  8
0
 10
1.15305
 20
3.00088
 30
0.0
 40
0
 41
0
  0
VERTEX
  8
0
 10
1.04102
 20
2.91407
 30
0.0
 40
0
 41
0
  0
VERTEX
  8
0
 10
0.967339
 20
2.84332
 30
0.0
 40
0
 41
0
  0
VERTEX
  8
0
 10
0.945367
 20
2.81754
 30
0.0
 40
0
 41
0
  0
VERTEX
  8
0
 10
0.919108
 20
2.78678
 30
0.0
 40
0
 41
0
  0
VERTEX
  8
0
 10
0.812175
 20
2.62588
 30
0.0
 40
0
 41
0
  0
VERTEX
  8
0
 10
0.734754
 20
2.45008
 30
0.0
 40
0
 41
0
  0
VERTEX
  8
0
 10
0.723253
 20
2.41189
 30
0.0
 40
0
 41
0
  0
VERTEX
  8
0
 10
0.721354
 20
2.40571
 30
0.0
 40
0
 41
0
  0
VERTEX
  8
0
 10
0.715983
 20
2.38693
 30
0.0
 40
0
 41
0
  0
VERTEX
  8
0
 10
0.710015
 20
2.36372
 30
0.0
 40
0
 41
0
  0
VERTEX
  8
0
 10
0.704156
 20
2.33692
 30
0.0
 40
0
 41
0
  0
VERTEX
  8
0
 10
0.698731
 20
2.31
 30
0.0
 40
0
 41
0
  0
VERTEX
  8
0
 10
0.696994
 20
2.301
 30
0.0
 40
0
 41
0
  0
VERTEX
  8
0
 10
0.690593
 20
2.26824
 30
0.0
 40
0
 41
0
  0
VERTEX
  8
0
 10
0.679144
 20
2.09483
 30
0.0
 40
0
 41
0
  0
VERTEX
  8
0
 10
0.694933
 20
1.91581
 30
0.0
 40
0
 41
0
  0
VERTEX
  8
0
 10
0.702149
 20
1.88021
 30
0.0
 40
0
 41
0
  0
VERTEX
  8
0
 10
0.704807
 20
1.86708
 30
0.0
 40
0
 41
0
  0
VERTEX
  8
0
 10
0.72309
 20
1.79585
 30
0.0
 40
0
 41
0
  0
VERTEX
  8
0
 10
0.743978
 20
1.73118
 30
0.0
 40
0
 41
0
  0
VERTEX
  8
0
 10
0.747939
 20
1.72131
 30
0.0
 40
0
 41
0
  0
VERTEX
  8
0
 10
0.748861
 20
1.71892
 30
0.0
 40
0
 41
0
  0
VERTEX
  8
0
 10
0.754069
 20
1.70574
 30
0.0
 40
0
 41
0
  0
VERTEX
  8
0
 10
0.758626
 20
1.69428
 30
0.0
 40
0
 41
0
  0
VERTEX
  8
0
 10
0.759224
 20
1.69271
 30
0.0
 40
0
 41
0
  0
VERTEX
  8
0
 10
0.767253
 20
1.67204
 30
0.0
 40
0
 41
0
  0
VERTEX
  8
0
 10
0.824707
 20
1.55963
 30
0.0
 40
0
 41
0
  0
VERTEX
  8
0
 10
0.897624
 20
1.44824
 30
0.0
 40
0
 41
0
  0
VERTEX
  8
0
 10
0.913465
 20
1.428
 30
0.0
 40
0
 41
0
  0
VERTEX
  8
0
 10
0.927246
 20
1.41043
 30
0.0
 40
0
 41
0
  0
VERTEX
  8
0
 10
0.972385
 20
1.36051
 30
0.0
 40
0
 41
0
  0
VERTEX
  8
0
 10
1.04199
 20
1.29319
 30
0.0
 40
0
 41
0
  0
VERTEX
  8
0
 10
1.11572
 20
1.23199
 30
0.0
 40
0
 41
0
  0
VERTEX
  8
0
 10
1.16846
 20
1.19412
 30
0.0
 40
0
 41
0
  0
VERTEX
  8
0
 10
1.1869
 20
1.18289
 30
0.0
 40
0
 41
0
  0
VERTEX
  8
0
 10
1.19884
 20
1.17567
 30
0.0
 40
0
 41
0
  0
VERTEX
  8
0
 10
1.23535
 20
1.15506
 30
0.0
 40
0
 41
0
  0
VERTEX
  8
0
 10
1.28635
 20
1.12847
 30
0.0
 40
0
 41
0
  0
VERTEX
  8
0
 10
1.33518
 20
1.10541
 30
0.0
 40
0
 41
0
  0
VERTEX
  8
0
 10
1.36659
 20
1.09207
 30
0.0
 40
0
 41
0
  0
VERTEX
  8
0
 10
1.37728
 20
1.08816
 30
0.0
 40
0
 41
0
  0
VERTEX
  8
0
 10
1.38715
 20
1.08458
 30
0.0
 40
0
 41
0
  0
VERTEX
  8
0
 10
1.41721
 20
1.07449
 30
0.0
 40
0
 41
0
  0
VERTEX
  8
0
 10
1.46018
 20
1.06103
 30
0.0
 40
0
 41
0
  0
VERTEX
  8
0
 10
1.49875
 20
1.05008
 30
0.0
 40
0
 41
0
  0
VERTEX
  8
0
 10
1.51942
 20
1.04481
 30
0.0
 40
0
 41
0
  0
VERTEX
  8
0
 10
1.52567
 20
1.04373
 30
0.0
 40
0
 41
0
  0
VERTEX
  8
0
 10
1.52724
 20
1.04346
 30
0.0
 40
0
 41
0
  0
VERTEX
  8
0
 10
1.54107
 20
1.04085
 30
0.0
 40
0
 41
0
  0
VERTEX
  8
0
 10
1.55871
 20
1.03733
 30
0.0
 40
0
 41
0
  0
VERTEX
  8
0
 10
1.56218
 20
1.03662
 30
0.0
 40
0
 41
0
  0
VERTEX
  8
0
 10
1.59033
 20
1.03087
 30
0.0
 40
0
 41
0
  0
VERTEX
  8
0
 10
1.74892
 20
1.01796
 30
0.0
 40
0
 41
0
  0
VERTEX
  8
0
 10
1.91026
 20
1.02664
 30
0.0
 40
0
 41
0
  0
VERTEX
  8
0
 10
1.93989
 20
1.03163
 30
0.0
 40
0
 41
0
  0
VERTEX
  8
0
 10
1.94824
 20
1.03304
 30
0.0
 40
0
 41
0
  0
VERTEX
  8
0
 10
1.99479
 20
1.04199
 30
0.0
 40
0
 41
0
  0
VERTEX
  8
0
 10
2.03326
 20
1.05046
 30
0.0
 40
0
 41
0
  0
VERTEX
  8
0
 10
2.03754
 20
1.05159
 30
0.0
 40
0
 41
0
  0
VERTEX
  8
0
 10
2.08197
 20
1.06375
 30
0.0
 40
0
 41
0
  0
VERTEX
  8
0
 10
2.21181
 20
1.11306
 30
0.0
 40
0
 41
0
  0
VERTEX
  8
0
 10
2.36626
 20
1.19775
 30
0.0
 40
0
 41
0
  0
VERTEX
  8
0
 10
2.50467
 20
1.30821
 30
0.0
 40
0
 41
0
  0
VERTEX
  8
0
 10
2.60178
 20
1.41021
 30
0.0
 40
0
 41
0
  0
VERTEX
  8
0
 10
2.63075
 20
1.44689
 30
0.0
 40
0
 41
0
  0
VERTEX
  8
0
 10
2.64057
 20
1.45936
 30
0.0
 40
0
 41
0
  0
VERTEX
  8
0
 10
2.66737
 20
1.49881
 30
0.0
 40
0
 41
0
  0
VERTEX
  8
0
 10
2.70632
 20
1.5625
 30
0.0
 40
0
 41
0
  0
VERTEX
  8
0
 10
2.74121
 20
1.6269
 30
0.0
 40
0
 41
0
  0
VERTEX
  8
0
 10
2.76031
 20
1.66694
 30
0.0
 40
0
 41
0
  0
VERTEX
  8
0
 10
2.76551
 20
1.68067
 30
0.0
 40
0
 41
0
  0
VERTEX
  8
0
 10
2.76617
 20
1.68251
 30
0.0
 40
0
 41
0
  0
VERTEX
  8
0
 10
2.77496
 20
1.70367
 30
0.0
 40
0
 41
0
  0
VERTEX
  8
0
 10
2.77567
 20
1.70518
 30
0.0
 40
0
 41
0
  0
VERTEX
  8
0
 10
2.77924
 20
1.71306
 30
0.0
 40
0
 41
0
  0
VERTEX
  8
0
 10
2.7889
 20
1.74067
 30
0.0
 40
0
 41
0
  0
VERTEX
  8
0
 10
2.8049
 20
1.79194
 30
0.0
 40
0
 41
0
  0
VERTEX
  8
0
 10
2.82004
 20
1.84711
 30
0.0
 40
0
 41
0
  0
VERTEX
  8
0
 10
2.82861
 20
1.88232
 30
0.0
 40
0
 41
0
  0
VERTEX
  8
0
 10
2.83089
 20
1.89415
 30
0.0
 40
0
 41
0
  0
VERTEX
  8
0
 10
2.8316
 20
1.898
 30
0.0
 40
0
 41
0
  0
VERTEX
  8
0
 10
2.83399
 20
1.9095
 30
0.0
 40
0
 41
0
  0
VERTEX
  8
0
 10
2.83735
 20
1.91721
 30
0.0
 40
0
 41
0
  0
VERTEX
  8
0
 10
2.84343
 20
1.92014
 30
0.0
 40
0
 41
0
  0
VERTEX
  8
0
 10
2.85189
 20
1.92106
 30
0.0
 40
0
 41
0
  0
VERTEX
  8
0
 10
2.85471
 20
1.92122
 30
0.0
 40
0
 41
0
  0
VERTEX
  8
0
 10
2.87244
 20
1.92258
 30
0.0
 40
0
 41
0
  0
VERTEX
  8
0
 10
2.92469
 20
1.94015
 30
0.0
 40
0
 41
0
  0
VERTEX
  8
0
 10
2.97472
 20
1.98008
 30
0.0
 40
0
 41
0
  0
VERTEX
  8
0
 10
3.00467
 20
2.03413
 30
0.0
 40
0
 41
0
  0
VERTEX
  8
0
 10
3.01465
 20
2.09532
 30
0.0
 40
0
 41
0
  0
VERTEX
  8
0
 10
3.00456
 20
2.15679
 30
0.0
 40
0
 41
0
  0
VERTEX
  8
0
 10
2.9745
 20
2.21158
 30
0.0
 40
0
 41
0
  0
VERTEX
  8
0
 10
2.92449
 20
2.25282
 30
0.0
 40
0
 41
0
  0
VERTEX
  8
0
 10
2.87229
 20
2.27175
 30
0.0
 40
0
 41
0
  0
VERTEX
  8
0
 10
2.85444
 20
2.27354
 30
0.0
 40
0
 41
0
  0
VERTEX
  8
0
 10
2.85069
 20
2.27393
 30
0.0
 40
0
 41
0
  0
VERTEX
  8
0
 10
2.83963
 20
2.27675
 30
0.0
 40
0
 41
0
  0
VERTEX
  8
0
 10
2.8361
 20
2.28228
 30
0.0
 40
0
 41
0
  0
VERTEX
  8
0
 10
2.8361
 20
2.28407
 30
0.0
 40
0
 41
0
  0
VERTEX
  8
0
 10
2.8361
 20
2.29833
 30
0.0
 40
0
 41
0
  0
VERTEX
  8
0
 10
2.82611
 20
2.34104
 30
0.0
 40
0
 41
0
  0
VERTEX
  8
0
 10
2.80126
 20
2.42626
 30
0.0
 40
0
 41
0
  0
VERTEX
  8
0
 10
2.76904
 20
2.51665
 30
0.0
 40
0
 41
0
  0
VERTEX
  8
0
 10
2.74631
 20
2.57156
 30
0.0
 40
0
 41
0
  0
VERTEX
  8
0
 10
2.73708
 20
2.58892
 30
0.0
 40
0
 41
0
  0
VERTEX
  8
0
 10
2.73665
 20
2.58979
 30
0.0
 40
0
 41
0
  0
VERTEX
  8
0
 10
2.73128
 20
2.59999
 30
0.0
 40
0
 41
0
  0
VERTEX
  8
0
 10
2.72347
 20
2.61486
 30
0.0
 40
0
 41
0
  0
VERTEX
  8
0
 10
2.72185
 20
2.618
 30
0.0
 40
0
 41
0
  0
VERTEX
  8
0
 10
2.71588
 20
2.62935
 30
0.0
 40
0
 41
0
  0
VERTEX
  8
0
 10
2.6965
 20
2.66243
 30
0.0
 40
0
 41
0
  0
VERTEX
  8
0
 10
2.66618
 20
2.71018
 30
0.0
 40
0
 41
0
  0
VERTEX
  8
0
 10
2.63476
 20
2.75515
 30
0.0
 40
0
 41
0
  0
VERTEX
  8
0
 10
2.61393
 20
2.78256
 30
0.0
 40
0
 41
0
  0
VERTEX
  8
0
 10
2.6065
 20
2.79118
 30
0.0
 40
0
 41
0
  0
VERTEX
  8
0
 10
2.59424
 20
2.80544
 30
0.0
 40
0
 41
0
  0
VERTEX
  8
0
 10
2.53635
 20
2.86811
 30
0.0
 40
0
 41
0
  0
VERTEX
  8
0
 10
2.48367
 20
2.91851
 30
0.0
 40
0
 41
0
  0
VERTEX
  8
0
 10
2.47401
 20
2.92665
 30
0.0
 40
0
 41
0
  0
VERTEX
  8
0
 10
2.47136
 20
2.92893
 30
0.0
 40
0
 41
0
  0
VERTEX
  8
0
 10
2.45936
 20
2.93913
 30
0.0
 40
0
 41
0
  0
VERTEX
  8
0
 10
2.45182
 20
2.94575
 30
0.0
 40
0
 41
0
  0
VERTEX
  8
0
 10
2.45139
 20
2.94618
 30
0.0
 40
0
 41
0
  0
VERTEX
  8
0
 10
2.44792
 20
2.94965
 30
0.0
 40
0
 41
0
  0
VERTEX
  8
0
 10
2.43099
 20
2.96272
 30
0.0
 40
0
 41
0
  0
VERTEX
  8
0
 10
2.39643
 20
2.98757
 30
0.0
 40
0
 41
0
  0
VERTEX
  8
0
 10
2.35661
 20
3.01465
 30
0.0
 40
0
 41
0
  0
VERTEX
  8
0
 10
2.32954
 20
3.03217
 30
0.0
 40
0
 41
0
  0
VERTEX
  8
0
 10
2.32036
 20
3.03765
 30
0.0
 40
0
 41
0
  0
VERTEX
  8
0
 10
2.31326
 20
3.04194
 30
0.0
 40
0
 41
0
  0
VERTEX
  8
0
 10
2.29161
 20
3.05387
 30
0.0
 40
0
 41
0
  0
VERTEX
  8
0
 10
2.25597
 20
3.07254
 30
0.0
 40
0
 41
0
  0
VERTEX
  8
0
 10
2.22151
 20
3.08957
 30
0.0
 40
0
 41
0
  0
VERTEX
  8
0
 10
2.20221
 20
3.09853
 30
0.0
 40
0
 41
0
  0
VERTEX
  8
0
 10
2.19624
 20
3.10086
 30
0.0
 40
0
 41
0
  0
VERTEX
  8
0
 10
2.19482
 20
3.1014
 30
0.0
 40
0
 41
0
  0
VERTEX
  8
0
 10
2.17904
 20
3.10801
 30
0.0
 40
0
 41
0
  0
VERTEX
  8
0
 10
2.17796
 20
3.10851
 30
0.0
 40
0
 41
0
  0
VERTEX
  8
0
 10
2.16157
 20
3.11589
 30
0.0
 40
0
 41
0
  0
VERTEX
  8
0
 10
2.05339
 20
3.15072
 30
0.0
 40
0
 41
0
  0
VERTEX
  8
0
 10
1.93224
 20
3.17681
 30
0.0
 40
0
 41
0
  0
VERTEX
  8
0
 10
1.9094
 20
3.17985
 30
0.0
 40
0
 41
0
  0
VERTEX
  8
0
 10
1.89665
 20
3.18153
 30
0.0
 40
0
 41
0
  0
VERTEX
  8
0
 10
1.85829
 20
3.18517
 30
0.0
 40
0
 41
0
  0
VERTEX
  8
0
 10
1.8024
 20
3.18842
 30
0.0
 40
0
 41
0
  0
VERTEX
  8
0
 10
1.74815
 20
3.18951
 30
0.0
 40
0
 41
0
  0
VERTEX
  8
0
 10
1.71337
 20
3.18881
 30
0.0
 40
0
 41
0
  0
VERTEX
  8
0
 10
1.70188
 20
3.18799
 30
0.0
 40
0
 41
0
  0
SEQEND
 8
0
  0
POLYLINE
  8
0
 62
     0
 66
     1
 10
0
 20
0
 30
0.0
 70
     1
 40
0
 41
0
  0
VERTEX
  8
0
 10
1.43918
 20
3.06836
 30
0.0
 40
0
 41
0
  0
VERTEX
  8
0
 10
1.43929
 20
3.06814
 30
0.0
 40
0
 41
0
  0
VERTEX
  8
0
 10
1.43311
 20
3.05985
 30
0.0
 40
0
 41
0
  0
VERTEX
  8
0
 10
1.43201
 20
3.05871
 30
0.0
 40
0
 41
0
  0
VERTEX
  8
0
 10
1.42215
 20
3.04921
 30
0.0
 40
0
 41
0
  0
VERTEX
  8
0
 10
1.39458
 20
3.01861
 30
0.0
 40
0
 41
0
  0
VERTEX
  8
0
 10
1.354
 20
2.96804
 30
0.0
 40
0
 41
0
  0
VERTEX
  8
0
 10
1.31386
 20
2.91174
 30
0.0
 40
0
 41
0
  0
VERTEX
  8
0
 10
1.28619
 20
2.86903
 30
0.0
 40
0
 41
0
  0
VERTEX
  8
0
 10
1.27762
 20
2.85439
 30
0.0
 40
0
 41
0
  0
VERTEX
  8
0
 10
1.26866
 20
2.83931
 30
0.0
 40
0
 41
0
  0
VERTEX
  8
0
 10
1.24452
 20
2.79237
 30
0.0
 40
0
 41
0
  0
VERTEX
  8
0
 10
1.21007
 20
2.71853
 30
0.0
 40
0
 41
0
  0
VERTEX
  8
0
 10
1.18028
 20
2.64654
 30
0.0
 40
0
 41
0
  0
VERTEX
  8
0
 10
1.16493
 20
2.60439
 30
0.0
 40
0
 41
0
  0
VERTEX
  8
0
 10
1.16113
 20
2.58996
 30
0.0
 40
0
 41
0
  0
VERTEX
  8
0
 10
1.1607
 20
2.58843
 30
0.0
 40
0
 41
0
  0
VERTEX
  8
0
 10
1.15674
 20
2.57488
 30
0.0
 40
0
 41
0
  0
VERTEX
  8
0
 10
1.15164
 20
2.55767
 30
0.0
 40
0
 41
0
  0
VERTEX
  8
0
 10
1.15061
 20
2.55431
 30
0.0
 40
0
 41
0
  0
VERTEX
  8
0
 10
1.14789
 20
2.54557
 30
0.0
 40
0
 41
0
  0
VERTEX
  8
0
 10
1.14068
 20
2.51893
 30
0.0
 40
0
 41
0
  0
VERTEX
  8
0
 10
1.12994
 20
2.47515
 30
0.0
 40
0
 41
0
  0
VERTEX
  8
0
 10
1.12006
 20
2.43078
 30
0.0
 40
0
 41
0
  0
VERTEX
  8
0
 10
1.11453
 20
2.40294
 30
0.0
 40
0
 41
0
  0
VERTEX
  8
0
 10
1.11301
 20
2.39361
 30
0.0
 40
0
 41
0
  0
VERTEX
  8
0
 10
1.10699
 20
2.35715
 30
0.0
 40
0
 41
0
  0
VERTEX
  8
0
 10
1.09413
 20
2.2469
 30
0.0
 40
0
 41
0
  0
VERTEX
  8
0
 10
1.08784
 20
2.10688
 30
0.0
 40
0
 41
0
  0
VERTEX
  8
0
 10
1.09413
 20
1.96631
 30
0.0
 40
0
 41
0
  0
VERTEX
  8
0
 10
1.10699
 20
1.8546
 30
0.0
 40
0
 41
0
  0
VERTEX
  8
0
 10
1.11301
 20
1.81765
 30
0.0
 40
0
 41
0
  0
VERTEX
  8
0
 10
1.11453
 20
1.80811
 30
0.0
 40
0
 41
0
  0
VERTEX
  8
0
 10
1.12023
 20
1.77946
 30
0.0
 40
0
 41
0
  0
VERTEX
  8
0
 10
1.13053
 20
1.73313
 30
0.0
 40
0
 41
0
  0
VERTEX
  8
0
 10
1.14187
 20
1.68739
 30
0.0
 40
0
 41
0
  0
VERTEX
  8
0
 10
1.14931
 20
1.66
 30
0.0
 40
0
 41
0
  0
VERTEX
  8
0
 10
1.15218
 20
1.65099
 30
0.0
 40
0
 41
0
  0
VERTEX
  8
0
 10
1.15468
 20
1.64296
 30
0.0
 40
0
 41
0
  0
VERTEX
  8
0
 10
1.16233
 20
1.61882
 30
0.0
 40
0
 41
0
  0
VERTEX
  8
0
 10
1.16943
 20
1.59694
 30
0.0
 40
0
 41
0
  0
VERTEX
  8
0
 10
1.17518
 20
1.58003
 30
0.0
 40
0
 41
0
  0
VERTEX
  8
0
 10
1.1799
 20
1.56689
 30
0.0
 40
0
 41
0
  0
VERTEX
  8
0
 10
1.18153
 20
1.5625
 30
0.0
 40
0
 41
0
  0
VERTEX
  8
0
 10
1.18435
 20
1.55469
 30
0.0
 40
0
 41
0
  0
VERTEX
  8
0
 10
1.20112
 20
1.51247
 30
0.0
 40
0
 41
0
  0
VERTEX
  8
0
 10
1.2188
 20
1.4719
 30
0.0
 40
0
 41
0
  0
VERTEX
  8
0
 10
1.22211
 20
1.46485
 30
0.0
 40
0
 41
0
  0
VERTEX
  8
0
 10
1.22499
 20
1.45865
 30
0.0
 40
0
 41
0
  0
VERTEX
  8
0
 10
1.23405
 20
1.44015
 30
0.0
 40
0
 41
0
  0
VERTEX
  8
0
 10
1.2475
 20
1.41331
 30
0.0
 40
0
 41
0
  0
VERTEX
  8
0
 10
1.25949
 20
1.39014
 30
0.0
 40
0
 41
0
  0
VERTEX
  8
0
 10
1.26557
 20
1.37885
 30
0.0
 40
0
 41
0
  0
VERTEX
  8
0
 10
1.26698
 20
1.37657
 30
0.0
 40
0
 41
0
  0
VERTEX
  8
0
 10
1.26763
 20
1.37549
 30
0.0
 40
0
 41
0
  0
VERTEX
  8
0
 10
1.27376
 20
1.3654
 30
0.0
 40
0
 41
0
  0
VERTEX
  8
0
 10
1.28147
 20
1.35227
 30
0.0
 40
0
 41
0
  0
VERTEX
  8
0
 10
1.28299
 20
1.34961
 30
0.0
 40
0
 41
0
  0
VERTEX
  8
0
 10
1.29009
 20
1.33724
 30
0.0
 40
0
 41
0
  0
VERTEX
  8
0
 10
1.31358
 20
1.30116
 30
0.0
 40
0
 41
0
  0
VERTEX
  8
0
 10
1.35026
 20
1.2506
 30
0.0
 40
0
 41
0
  0
VERTEX
  8
0
 10
1.39008
 20
1.20166
 30
0.0
 40
0
 41
0
  0
VERTEX
  8
0
 10
1.41976
 20
1.16851
 30
0.0
 40
0
 41
0
  0
VERTEX
  8
0
 10
1.43024
 20
1.15799
 30
0.0
 40
0
 41
0
  0
VERTEX
  8
0
 10
1.43332
 20
1.15484
 30
0.0
 40
0
 41
0
  0
VERTEX
  8
0
 10
1.44601
 20
1.14144
 30
0.0
 40
0
 41
0
  0
VERTEX
  8
0
 10
1.4521
 20
1.13406
 30
0.0
 40
0
 41
0
  0
VERTEX
  8
0
 10
1.45199
 20
1.13395
 30
0.0
 40
0
 41
0
  0
VERTEX
  8
0
 10
1.45107
 20
1.13303
 30
0.0
 40
0
 41
0
  0
VERTEX
  8
0
 10
1.44385
 20
1.1346
 30
0.0
 40
0
 41
0
  0
VERTEX
  8
0
 10
1.42589
 20
1.14041
 30
0.0
 40
0
 41
0
  0
VERTEX
  8
0
 10
1.4005
 20
1.15034
 30
0.0
 40
0
 41
0
  0
VERTEX
  8
0
 10
1.37012
 20
1.1633
 30
0.0
 40
0
 41
0
  0
VERTEX
  8
0
 10
1.33729
 20
1.17817
 30
0.0
 40
0
 41
0
  0
VERTEX
  8
0
 10
1.30447
 20
1.1939
 30
0.0
 40
0
 41
0
  0
VERTEX
  8
0
 10
1.27409
 20
1.20942
 30
0.0
 40
0
 41
0
  0
VERTEX
  8
0
 10
1.25494
 20
1.21983
 30
0.0
 40
0
 41
0
  0
VERTEX
  8
0
 10
1.2487
 20
1.22353
 30
0.0
 40
0
 41
0
  0
VERTEX
  8
0
 10
1.21273
 20
1.24485
 30
0.0
 40
0
 41
0
  0
VERTEX
  8
0
 10
1.11171
 20
1.3202
 30
0.0
 40
0
 41
0
  0
VERTEX
  8
0
 10
0.994629
 20
1.43468
 30
0.0
 40
0
 41
0
  0
VERTEX
  8
0
 10
0.898708
 20
1.5644
 30
0.0
 40
0
 41
0
  0
VERTEX
  8
0
 10
0.824924
 20
1.70665
 30
0.0
 40
0
 41
0
  0
VERTEX
  8
0
 10
0.774522
 20
1.85878
 30
0.0
 40
0
 41
0
  0
VERTEX
  8
0
 10
0.748481
 20
2.01812
 30
0.0
 40
0
 41
0
  0
VERTEX
  8
0
 10
0.748047
 20
2.18207
 30
0.0
 40
0
 41
0
  0
VERTEX
  8
0
 10
0.76454
 20
2.30718
 30
0.0
 40
0
 41
0
  0
VERTEX
  8
0
 10
0.77436
 20
2.34782
 30
0.0
 40
0
 41
0
  0
VERTEX
  8
0
 10
0.780219
 20
2.37224
 30
0.0
 40
0
 41
0
  0
VERTEX
  8
0
 10
0.821724
 20
2.49262
 30
0.0
 40
0
 41
0
  0
VERTEX
  8
0
 10
0.879015
 20
2.60986
 30
0.0
 40
0
 41
0
  0
VERTEX
  8
0
 10
0.89274
 20
2.63265
 30
0.0
 40
0
 41
0
  0
VERTEX
  8
0
 10
0.895074
 20
2.63656
 30
0.0
 40
0
 41
0
  0
VERTEX
  8
0
 10
0.902181
 20
2.64806
 30
0.0
 40
0
 41
0
  0
VERTEX
  8
0
 10
0.911893
 20
2.66297
 30
0.0
 40
0
 41
0
  0
VERTEX
  8
0
 10
0.924046
 20
2.68072
 30
0.0
 40
0
 41
0
  0
VERTEX
  8
0
 10
0.936686
 20
2.69874
 30
0.0
 40
0
 41
0
  0
VERTEX
  8
0
 10
0.940972
 20
2.70469
 30
0.0
 40
0
 41
0
  0
VERTEX
  8
0
 10
0.961481
 20
2.73372
 30
0.0
 40
0
 41
0
  0
VERTEX
  8
0
 10
1.03261
 20
2.81396
 30
0.0
 40
0
 41
0
  0
VERTEX
  8
0
 10
1.1428
 20
2.91124
 30
0.0
 40
0
 41
0
  0
VERTEX
  8
0
 10
1.26747
 20
2.99328
 30
0.0
 40
0
 41
0
  0
VERTEX
  8
0
 10
1.36773
 20
3.04363
 30
0.0
 40
0
 41
0
  0
VERTEX
  8
0
 10
1.40246
 20
3.05701
 30
0.0
 40
0
 41
0
  0
VERTEX
  8
0
 10
1.40767
 20
3.05903
 30
0.0
 40
0
 41
0
  0
VERTEX
  8
0
 10
1.42339
 20
3.06511
 30
0.0
 40
0
 41
0
  0
VERTEX
  8
0
 10
1.43397
 20
3.0689
 30
0.0
 40
0
 41
0
  0
VERTEX
  8
0
 10
1.43799
 20
3.06961
 30
0.0
 40
0
 41
0
  0
VERTEX
  8
0
 10
1.43896
 20
3.06874
 30
0.0
 40
0
 41
0
  0
VERTEX
  8
0
 10
1.43918
 20
3.06836
 30
0.0
 40
0
 41
0
  0
SEQEND
 8
0
  0
POLYLINE
  8
0
 62
     0
 66
     1
 10
0
 20
0
 30
0.0
 70
     1
 40
0
 41
0
  0
VERTEX
  8
0
 10
1.78336
 20
2.28662
 30
0.0
 40
0
 41
0
  0
VERTEX
  8
0
 10
1.79237
 20
2.285
 30
0.0
 40
0
 41
0
  0
VERTEX
  8
0
 10
1.81803
 20
2.27235
 30
0.0
 40
0
 41
0
  0
VERTEX
  8
0
 10
1.84494
 20
2.24713
 30
0.0
 40
0
 41
0
  0
VERTEX
  8
0
 10
1.85926
 20
2.21724
 30
0.0
 40
0
 41
0
  0
VERTEX
  8
0
 10
1.85943
 20
2.19482
 30
0.0
 40
0
 41
0
  0
VERTEX
  8
0
 10
1.85639
 20
2.18892
 30
0.0
 40
0
 41
0
  0
VERTEX
  8
0
 10
1.85444
 20
2.18522
 30
0.0
 40
0
 41
0
  0
VERTEX
  8
0
 10
1.84304
 20
2.17692
 30
0.0
 40
0
 41
0
  0
VERTEX
  8
0
 10
1.82585
 20
2.17583
 30
0.0
 40
0
 41
0
  0
VERTEX
  8
0
 10
1.81099
 20
2.18435
 30
0.0
 40
0
 41
0
  0
VERTEX
  8
0
 10
1.80464
 20
2.19678
 30
0.0
 40
0
 41
0
  0
VERTEX
  8
0
 10
1.80464
 20
2.2009
 30
0.0
 40
0
 41
0
  0
VERTEX
  8
0
 10
1.80458
 20
2.2079
 30
0.0
 40
0
 41
0
  0
VERTEX
  8
0
 10
1.79135
 20
2.22874
 30
0.0
 40
0
 41
0
  0
VERTEX
  8
0
 10
1.76156
 20
2.23969
 30
0.0
 40
0
 41
0
  0
VERTEX
  8
0
 10
1.72999
 20
2.23281
 30
0.0
 40
0
 41
0
  0
VERTEX
  8
0
 10
1.71262
 20
2.21419
 30
0.0
 40
0
 41
0
  0
VERTEX
  8
0
 10
1.71115
 20
2.20708
 30
0.0
 40
0
 41
0
  0
VERTEX
  8
0
 10
1.71007
 20
2.20215
 30
0.0
 40
0
 41
0
  0
VERTEX
  8
0
 10
1.71035
 20
2.18658
 30
0.0
 40
0
 41
0
  0
VERTEX
  8
0
 10
1.71978
 20
2.16824
 30
0.0
 40
0
 41
0
  0
VERTEX
  8
0
 10
1.74268
 20
2.14839
 30
0.0
 40
0
 41
0
  0
VERTEX
  8
0
 10
1.77197
 20
2.12935
 30
0.0
 40
0
 41
0
  0
VERTEX
  8
0
 10
1.78201
 20
2.12337
 30
0.0
 40
0
 41
0
  0
VERTEX
  8
0
 10
1.79324
 20
2.11675
 30
0.0
 40
0
 41
0
  0
VERTEX
  8
0
 10
1.82471
 20
2.09283
 30
0.0
 40
0
 41
0
  0
VERTEX
  8
0
 10
1.85211
 20
2.06049
 30
0.0
 40
0
 41
0
  0
VERTEX
  8
0
 10
1.86464
 20
2.02582
 30
0.0
 40
0
 41
0
  0
VERTEX
  8
0
 10
1.86469
 20
1.99724
 30
0.0
 40
0
 41
0
  0
VERTEX
  8
0
 10
1.86257
 20
1.98817
 30
0.0
 40
0
 41
0
  0
VERTEX
  8
0
 10
1.86046
 20
1.97933
 30
0.0
 40
0
 41
0
  0
VERTEX
  8
0
 10
1.84668
 20
1.95454
 30
0.0
 40
0
 41
0
  0
VERTEX
  8
0
 10
1.81999
 20
1.93143
 30
0.0
 40
0
 41
0
  0
VERTEX
  8
0
 10
1.7864
 20
1.91857
 30
0.0
 40
0
 41
0
  0
VERTEX
  8
0
 10
1.74978
 20
1.91581
 30
0.0
 40
0
 41
0
  0
VERTEX
  8
0
 10
1.71403
 20
1.92285
 30
0.0
 40
0
 41
0
  0
VERTEX
  8
0
 10
1.68294
 20
1.93951
 30
0.0
 40
0
 41
0
  0
VERTEX
  8
0
 10
1.66043
 20
1.96556
 30
0.0
 40
0
 41
0
  0
VERTEX
  8
0
 10
1.65099
 20
1.99181
 30
0.0
 40
0
 41
0
  0
VERTEX
  8
0
 10
1.65044
 20
2.00071
 30
0.0
 40
0
 41
0
  0
VERTEX
  8
0
 10
1.65007
 20
2.00672
 30
0.0
 40
0
 41
0
  0
VERTEX
  8
0
 10
1.65696
 20
2.02522
 30
0.0
 40
0
 41
0
  0
VERTEX
  8
0
 10
1.67458
 20
2.03353
 30
0.0
 40
0
 41
0
  0
VERTEX
  8
0
 10
1.69417
 20
2.02556
 30
0.0
 40
0
 41
0
  0
VERTEX
  8
0
 10
1.70551
 20
2.00765
 30
0.0
 40
0
 41
0
  0
VERTEX
  8
0
 10
1.70671
 20
2.00119
 30
0.0
 40
0
 41
0
  0
VERTEX
  8
0
 10
1.7079
 20
1.99436
 30
0.0
 40
0
 41
0
  0
VERTEX
  8
0
 10
1.72325
 20
1.97586
 30
0.0
 40
0
 41
0
  0
VERTEX
  8
0
 10
1.75331
 20
1.96479
 30
0.0
 40
0
 41
0
  0
VERTEX
  8
0
 10
1.78478
 20
1.96924
 30
0.0
 40
0
 41
0
  0
VERTEX
  8
0
 10
1.80322
 20
1.98421
 30
0.0
 40
0
 41
0
  0
VERTEX
  8
0
 10
1.80567
 20
1.99056
 30
0.0
 40
0
 41
0
  0
VERTEX
  8
0
 10
1.80789
 20
1.99647
 30
0.0
 40
0
 41
0
  0
VERTEX
  8
0
 10
1.81022
 20
2.0159
 30
0.0
 40
0
 41
0
  0
VERTEX
  8
0
 10
1.80306
 20
2.03907
 30
0.0
 40
0
 41
0
  0
VERTEX
  8
0
 10
1.78353
 20
2.06131
 30
0.0
 40
0
 41
0
  0
VERTEX
  8
0
 10
1.75944
 20
2.07872
 30
0.0
 40
0
 41
0
  0
VERTEX
  8
0
 10
1.75097
 20
2.08365
 30
0.0
 40
0
 41
0
  0
VERTEX
  8
0
 10
1.73856
 20
2.09088
 30
0.0
 40
0
 41
0
  0
VERTEX
  8
0
 10
1.70269
 20
2.11475
 30
0.0
 40
0
 41
0
  0
VERTEX
  8
0
 10
1.67242
 20
2.14264
 30
0.0
 40
0
 41
0
  0
VERTEX
  8
0
 10
1.65733
 20
2.17096
 30
0.0
 40
0
 41
0
  0
VERTEX
  8
0
 10
1.65403
 20
2.19521
 30
0.0
 40
0
 41
0
  0
VERTEX
  8
0
 10
1.65457
 20
2.20313
 30
0.0
 40
0
 41
0
  0
VERTEX
  8
0
 10
1.65528
 20
2.21332
 30
0.0
 40
0
 41
0
  0
VERTEX
  8
0
 10
1.66672
 20
2.24317
 30
0.0
 40
0
 41
0
  0
VERTEX
  8
0
 10
1.69472
 20
2.27197
 30
0.0
 40
0
 41
0
  0
VERTEX
  8
0
 10
1.73475
 20
2.28728
 30
0.0
 40
0
 41
0
  0
VERTEX
  8
0
 10
1.77154
 20
2.28879
 30
0.0
 40
0
 41
0
  0
VERTEX
  8
0
 10
1.78336
 20
2.28662
 30
0.0
 40
0
 41
0
  0
SEQEND
 8
0
  0
POLYLINE
  8
0
 62
     0
 66
     1
 10
0
 20
0
 30
0.0
 70
     1
 40
0
 41
0
  0
VERTEX
  8
0
 10
2.10856
 20
2.27681
 30
0.0
 40
0
 41
0
  0
VERTEX
  8
0
 10
2.11074
 20
2.27474
 30
0.0
 40
0
 41
0
  0
VERTEX
  8
0
 10
2.11615
 20
2.25396
 30
0.0
 40
0
 41
0
  0
VERTEX
  8
0
 10
2.11518
 20
2.25157
 30
0.0
 40
0
 41
0
  0
VERTEX
  8
0
 10
2.11426
 20
2.2494
 30
0.0
 40
0
 41
0
  0
VERTEX
  8
0
 10
2.11046
 20
2.24328
 30
0.0
 40
0
 41
0
  0
VERTEX
  8
0
 10
2.10069
 20
2.23888
 30
0.0
 40
0
 41
0
  0
VERTEX
  8
0
 10
2.07904
 20
2.23687
 30
0.0
 40
0
 41
0
  0
VERTEX
  8
0
 10
2.04878
 20
2.23606
 30
0.0
 40
0
 41
0
  0
VERTEX
  8
0
 10
2.03868
 20
2.23589
 30
0.0
 40
0
 41
0
  0
VERTEX
  8
0
 10
1.97651
 20
2.23492
 30
0.0
 40
0
 41
0
  0
VERTEX
  8
0
 10
1.97597
 20
2.18787
 30
0.0
 40
0
 41
0
  0
VERTEX
  8
0
 10
1.97542
 20
2.1409
 30
0.0
 40
0
 41
0
  0
VERTEX
  8
0
 10
2.02881
 20
2.13938
 30
0.0
 40
0
 41
0
  0
VERTEX
  8
0
 10
2.03831
 20
2.13917
 30
0.0
 40
0
 41
0
  0
VERTEX
  8
0
 10
2.06685
 20
2.13753
 30
0.0
 40
0
 41
0
  0
VERTEX
  8
0
 10
2.08892
 20
2.13363
 30
0.0
 40
0
 41
0
  0
VERTEX
  8
0
 10
2.09912
 20
2.12625
 30
0.0
 40
0
 41
0
  0
VERTEX
  8
0
 10
2.10161
 20
2.11697
 30
0.0
 40
0
 41
0
  0
VERTEX
  8
0
 10
2.10161
 20
2.11388
 30
0.0
 40
0
 41
0
  0
VERTEX
  8
0
 10
2.10161
 20
2.11074
 30
0.0
 40
0
 41
0
  0
VERTEX
  8
0
 10
2.0989
 20
2.10129
 30
0.0
 40
0
 41
0
  0
VERTEX
  8
0
 10
2.08832
 20
2.09386
 30
0.0
 40
0
 41
0
  0
VERTEX
  8
0
 10
2.06586
 20
2.09039
 30
0.0
 40
0
 41
0
  0
VERTEX
  8
0
 10
2.03728
 20
2.08946
 30
0.0
 40
0
 41
0
  0
VERTEX
  8
0
 10
2.02778
 20
2.08946
 30
0.0
 40
0
 41
0
  0
VERTEX
  8
0
 10
1.97613
 20
2.08946
 30
0.0
 40
0
 41
0
  0
VERTEX
  8
0
 10
1.97483
 20
2.05126
 30
0.0
 40
0
 41
0
  0
VERTEX
  8
0
 10
1.97461
 20
2.04606
 30
0.0
 40
0
 41
0
  0
VERTEX
  8
0
 10
1.97385
 20
2.01764
 30
0.0
 40
0
 41
0
  0
VERTEX
  8
0
 10
1.97347
 20
1.99713
 30
0.0
 40
0
 41
0
  0
VERTEX
  8
0
 10
1.97347
 20
1.99024
 30
0.0
 40
0
 41
0
  0
VERTEX
  8
0
 10
1.97347
 20
1.96733
 30
0.0
 40
0
 41
0
  0
VERTEX
  8
0
 10
2.01774
 20
1.96729
 30
0.0
 40
0
 41
0
  0
VERTEX
  8
0
 10
2.02832
 20
1.96729
 30
0.0
 40
0
 41
0
  0
VERTEX
  8
0
 10
2.06006
 20
1.96685
 30
0.0
 40
0
 41
0
  0
VERTEX
  8
0
 10
2.08615
 20
1.96528
 30
0.0
 40
0
 41
0
  0
VERTEX
  8
0
 10
2.10092
 20
1.96212
 30
0.0
 40
0
 41
0
  0
VERTEX
  8
0
 10
2.10747
 20
1.95844
 30
0.0
 40
0
 41
0
  0
VERTEX
  8
0
 10
2.10921
 20
1.95671
 30
0.0
 40
0
 41
0
  0
VERTEX
  8
0
 10
2.11225
 20
1.95367
 30
0.0
 40
0
 41
0
  0
VERTEX
  8
0
 10
2.11594
 20
1.93625
 30
0.0
 40
0
 41
0
  0
VERTEX
  8
0
 10
2.10499
 20
1.92042
 30
0.0
 40
0
 41
0
  0
VERTEX
  8
0
 10
2.10075
 20
1.91808
 30
0.0
 40
0
 41
0
  0
VERTEX
  8
0
 10
2.09907
 20
1.91721
 30
0.0
 40
0
 41
0
  0
VERTEX
  8
0
 10
2.0919
 20
1.91699
 30
0.0
 40
0
 41
0
  0
VERTEX
  8
0
 10
2.07269
 20
1.91635
 30
0.0
 40
0
 41
0
  0
VERTEX
  8
0
 10
2.0465
 20
1.91607
 30
0.0
 40
0
 41
0
  0
VERTEX
  8
0
 10
2.01687
 20
1.91618
 30
0.0
 40
0
 41
0
  0
VERTEX
  8
0
 10
1.98719
 20
1.91661
 30
0.0
 40
0
 41
0
  0
VERTEX
  8
0
 10
1.96094
 20
1.91737
 30
0.0
 40
0
 41
0
  0
VERTEX
  8
0
 10
1.94157
 20
1.9184
 30
0.0
 40
0
 41
0
  0
VERTEX
  8
0
 10
1.93435
 20
1.91872
 30
0.0
 40
0
 41
0
  0
VERTEX
  8
0
 10
1.93261
 20
1.91965
 30
0.0
 40
0
 41
0
  0
VERTEX
  8
0
 10
1.93138
 20
1.92031
 30
0.0
 40
0
 41
0
  0
VERTEX
  8
0
 10
1.92768
 20
1.92215
 30
0.0
 40
0
 41
0
  0
VERTEX
  8
0
 10
1.9241
 20
1.92497
 30
0.0
 40
0
 41
0
  0
VERTEX
  8
0
 10
1.9216
 20
1.93012
 30
0.0
 40
0
 41
0
  0
VERTEX
  8
0
 10
1.91997
 20
1.93946
 30
0.0
 40
0
 41
0
  0
VERTEX
  8
0
 10
1.91906
 20
1.95486
 30
0.0
 40
0
 41
0
  0
VERTEX
  8
0
 10
1.91863
 20
1.97831
 30
0.0
 40
0
 41
0
  0
VERTEX
  8
0
 10
1.91851
 20
2.01156
 30
0.0
 40
0
 41
0
  0
VERTEX
  8
0
 10
1.91857
 20
2.04542
 30
0.0
 40
0
 41
0
  0
VERTEX
  8
0
 10
1.91857
 20
2.05664
 30
0.0
 40
0
 41
0
  0
VERTEX
  8
0
 10
1.91857
 20
2.0695
 30
0.0
 40
0
 41
0
  0
VERTEX
  8
0
 10
1.91863
 20
2.10807
 30
0.0
 40
0
 41
0
  0
VERTEX
  8
0
 10
1.91894
 20
2.1569
 30
0.0
 40
0
 41
0
  0
VERTEX
  8
0
 10
1.91932
 20
2.19764
 30
0.0
 40
0
 41
0
  0
VERTEX
  8
0
 10
1.91965
 20
2.21858
 30
0.0
 40
0
 41
0
  0
VERTEX
  8
0
 10
1.91986
 20
2.22472
 30
0.0
 40
0
 41
0
  0
VERTEX
  8
0
 10
1.92122
 20
2.26947
 30
0.0
 40
0
 41
0
  0
VERTEX
  8
0
 10
1.92887
 20
2.27724
 30
0.0
 40
0
 41
0
  0
VERTEX
  8
0
 10
1.93653
 20
2.28494
 30
0.0
 40
0
 41
0
  0
VERTEX
  8
0
 10
2.10146
 20
2.28375
 30
0.0
 40
0
 41
0
  0
VERTEX
  8
0
 10
2.10856
 20
2.27681
 30
0.0
 40
0
 41
0
  0
SEQEND
 8
0
  0
POLYLINE
  8
0
 62
     0
 66
     1
 10
0
 20
0
 30
0.0
 70
     1
 40
0
 41
0
  0
VERTEX
  8
0
 10
2.29704
 20
2.27875
 30
0.0
 40
0
 41
0
  0
VERTEX
  8
0
 10
2.30431
 20
2.27653
 30
0.0
 40
0
 41
0
  0
VERTEX
  8
0
 10
2.32493
 20
2.26551
 30
0.0
 40
0
 41
0
  0
VERTEX
  8
0
 10
2.3481
 20
2.24533
 30
0.0
 40
0
 41
0
  0
VERTEX
  8
0
 10
2.36501
 20
2.21994
 30
0.0
 40
0
 41
0
  0
VERTEX
  8
0
 10
2.37299
 20
2.19857
 30
0.0
 40
0
 41
0
  0
VERTEX
  8
0
 10
2.37418
 20
2.19119
 30
0.0
 40
0
 41
0
  0
VERTEX
  8
0
 10
2.37494
 20
2.18631
 30
0.0
 40
0
 41
0
  0
VERTEX
  8
0
 10
2.37549
 20
2.15517
 30
0.0
 40
0
 41
0
  0
VERTEX
  8
0
 10
2.37511
 20
2.09375
 30
0.0
 40
0
 41
0
  0
VERTEX
  8
0
 10
2.37349
 20
2.03282
 30
0.0
 40
0
 41
0
  0
VERTEX
  8
0
 10
2.37196
 20
2.00256
 30
0.0
 40
0
 41
0
  0
VERTEX
  8
0
 10
2.37104
 20
1.99837
 30
0.0
 40
0
 41
0
  0
VERTEX
  8
0
 10
2.36882
 20
1.98856
 30
0.0
 40
0
 41
0
  0
VERTEX
  8
0
 10
2.35568
 20
1.96039
 30
0.0
 40
0
 41
0
  0
VERTEX
  8
0
 10
2.32829
 20
1.93431
 30
0.0
 40
0
 41
0
  0
VERTEX
  8
0
 10
2.28749
 20
1.91932
 30
0.0
 40
0
 41
0
  0
VERTEX
  8
0
 10
2.24576
 20
1.9145
 30
0.0
 40
0
 41
0
  0
VERTEX
  8
0
 10
2.23188
 20
1.9145
 30
0.0
 40
0
 41
0
  0
VERTEX
  8
0
 10
2.22401
 20
1.9145
 30
0.0
 40
0
 41
0
  0
VERTEX
  8
0
 10
2.20042
 20
1.91504
 30
0.0
 40
0
 41
0
  0
VERTEX
  8
0
 10
2.18164
 20
1.91699
 30
0.0
 40
0
 41
0
  0
VERTEX
  8
0
 10
2.17133
 20
1.92139
 30
0.0
 40
0
 41
0
  0
VERTEX
  8
0
 10
2.16661
 20
1.92697
 30
0.0
 40
0
 41
0
  0
VERTEX
  8
0
 10
2.16553
 20
1.92904
 30
0.0
 40
0
 41
0
  0
VERTEX
  8
0
 10
2.16422
 20
1.93158
 30
0.0
 40
0
 41
0
  0
VERTEX
  8
0
 10
2.1639
 20
1.94635
 30
0.0
 40
0
 41
0
  0
VERTEX
  8
0
 10
2.16292
 20
1.98574
 30
0.0
 40
0
 41
0
  0
VERTEX
  8
0
 10
2.16254
 20
2.03982
 30
0.0
 40
0
 41
0
  0
VERTEX
  8
0
 10
2.16271
 20
2.10118
 30
0.0
 40
0
 41
0
  0
VERTEX
  8
0
 10
2.16336
 20
2.16249
 30
0.0
 40
0
 41
0
  0
VERTEX
  8
0
 10
2.16444
 20
2.21631
 30
0.0
 40
0
 41
0
  0
VERTEX
  8
0
 10
2.16596
 20
2.25526
 30
0.0
 40
0
 41
0
  0
VERTEX
  8
0
 10
2.16644
 20
2.26986
 30
0.0
 40
0
 41
0
  0
VERTEX
  8
0
 10
2.16781
 20
2.27186
 30
0.0
 40
0
 41
0
  0
VERTEX
  8
0
 10
2.17003
 20
2.27533
 30
0.0
 40
0
 41
0
  0
VERTEX
  8
0
 10
2.18668
 20
2.28033
 30
0.0
 40
0
 41
0
  0
VERTEX
  8
0
 10
2.22217
 20
2.28472
 30
0.0
 40
0
 41
0
  0
VERTEX
  8
0
 10
2.26275
 20
2.2844
 30
0.0
 40
0
 41
0
  0
VERTEX
  8
0
 10
2.28879
 20
2.28131
 30
0.0
 40
0
 41
0
  0
VERTEX
  8
0
 10
2.29704
 20
2.27875
 30
0.0
 40
0
 41
0
  0
SEQEND
 8
0
  0
POLYLINE
  8
0
 62
     0
 66
     1
 10
0
 20
0
 30
0.0
 70
     1
 40
0
 41
0
  0
VERTEX
  8
0
 10
2.55643
 20
2.28162
 30
0.0
 40
0
 41
0
  0
VERTEX
  8
0
 10
2.56521
 20
2.2794
 30
0.0
 40
0
 41
0
  0
VERTEX
  8
0
 10
2.59
 20
2.26644
 30
0.0
 40
0
 41
0
  0
VERTEX
  8
0
 10
2.61529
 20
2.24251
 30
0.0
 40
0
 41
0
  0
VERTEX
  8
0
 10
2.62879
 20
2.21446
 30
0.0
 40
0
 41
0
  0
VERTEX
  8
0
 10
2.62961
 20
2.19293
 30
0.0
 40
0
 41
0
  0
VERTEX
  8
0
 10
2.62722
 20
2.18685
 30
0.0
 40
0
 41
0
  0
VERTEX
  8
0
 10
2.62554
 20
2.18278
 30
0.0
 40
0
 41
0
  0
VERTEX
  8
0
 10
2.61415
 20
2.17296
 30
0.0
 40
0
 41
0
  0
VERTEX
  8
0
 10
2.59625
 20
2.17144
 30
0.0
 40
0
 41
0
  0
VERTEX
  8
0
 10
2.5804
 20
2.18067
 30
0.0
 40
0
 41
0
  0
VERTEX
  8
0
 10
2.57362
 20
2.1945
 30
0.0
 40
0
 41
0
  0
VERTEX
  8
0
 10
2.57362
 20
2.19911
 30
0.0
 40
0
 41
0
  0
VERTEX
  8
0
 10
2.57362
 20
2.20529
 30
0.0
 40
0
 41
0
  0
VERTEX
  8
0
 10
2.56233
 20
2.22374
 30
0.0
 40
0
 41
0
  0
VERTEX
  8
0
 10
2.53614
 20
2.23497
 30
0.0
 40
0
 41
0
  0
VERTEX
  8
0
 10
2.50629
 20
2.23139
 30
0.0
 40
0
 41
0
  0
VERTEX
  8
0
 10
2.48719
 20
2.21761
 30
0.0
 40
0
 41
0
  0
VERTEX
  8
0
 10
2.48406
 20
2.21137
 30
0.0
 40
0
 41
0
  0
VERTEX
  8
0
 10
2.48167
 20
2.20671
 30
0.0
 40
0
 41
0
  0
VERTEX
  8
0
 10
2.47894
 20
2.19032
 30
0.0
 40
0
 41
0
  0
VERTEX
  8
0
 10
2.48617
 20
2.16976
 30
0.0
 40
0
 41
0
  0
VERTEX
  8
0
 10
2.5064
 20
2.1486
 30
0.0
 40
0
 41
0
  0
VERTEX
  8
0
 10
2.53162
 20
2.13092
 30
0.0
 40
0
 41
0
  0
VERTEX
  8
0
 10
2.54047
 20
2.12571
 30
0.0
 40
0
 41
0
  0
VERTEX
  8
0
 10
2.55094
 20
2.11963
 30
0.0
 40
0
 41
0
  0
VERTEX
  8
0
 10
2.58137
 20
2.0995
 30
0.0
 40
0
 41
0
  0
VERTEX
  8
0
 10
2.60867
 20
2.07557
 30
0.0
 40
0
 41
0
  0
VERTEX
  8
0
 10
2.62522
 20
2.05083
 30
0.0
 40
0
 41
0
  0
VERTEX
  8
0
 10
2.63249
 20
2.02946
 30
0.0
 40
0
 41
0
  0
VERTEX
  8
0
 10
2.63379
 20
2.02214
 30
0.0
 40
0
 41
0
  0
VERTEX
  8
0
 10
2.63504
 20
2.01497
 30
0.0
 40
0
 41
0
  0
VERTEX
  8
0
 10
2.63422
 20
1.99268
 30
0.0
 40
0
 41
0
  0
VERTEX
  8
0
 10
2.62582
 20
1.96631
 30
0.0
 40
0
 41
0
  0
VERTEX
  8
0
 10
2.61003
 20
1.94396
 30
0.0
 40
0
 41
0
  0
VERTEX
  8
0
 10
2.58832
 20
1.92643
 30
0.0
 40
0
 41
0
  0
VERTEX
  8
0
 10
2.56213
 20
1.91471
 30
0.0
 40
0
 41
0
  0
VERTEX
  8
0
 10
2.53282
 20
1.90967
 30
0.0
 40
0
 41
0
  0
VERTEX
  8
0
 10
2.50201
 20
1.91217
 30
0.0
 40
0
 41
0
  0
VERTEX
  8
0
 10
2.47831
 20
1.91938
 30
0.0
 40
0
 41
0
  0
VERTEX
  8
0
 10
2.47108
 20
1.92301
 30
0.0
 40
0
 41
0
  0
VERTEX
  8
0
 10
2.46382
 20
1.92671
 30
0.0
 40
0
 41
0
  0
VERTEX
  8
0
 10
2.44488
 20
1.94331
 30
0.0
 40
0
 41
0
  0
VERTEX
  8
0
 10
2.42676
 20
1.97038
 30
0.0
 40
0
 41
0
  0
VERTEX
  8
0
 10
2.4196
 20
1.99772
 30
0.0
 40
0
 41
0
  0
VERTEX
  8
0
 10
2.42312
 20
2.01514
 30
0.0
 40
0
 41
0
  0
VERTEX
  8
0
 10
2.4266
 20
2.01872
 30
0.0
 40
0
 41
0
  0
VERTEX
  8
0
 10
2.42942
 20
2.02171
 30
0.0
 40
0
 41
0
  0
VERTEX
  8
0
 10
2.44119
 20
2.02735
 30
0.0
 40
0
 41
0
  0
VERTEX
  8
0
 10
2.45643
 20
2.02632
 30
0.0
 40
0
 41
0
  0
VERTEX
  8
0
 10
2.46907
 20
2.01687
 30
0.0
 40
0
 41
0
  0
VERTEX
  8
0
 10
2.47532
 20
2.00461
 30
0.0
 40
0
 41
0
  0
VERTEX
  8
0
 10
2.47592
 20
2.00028
 30
0.0
 40
0
 41
0
  0
VERTEX
  8
0
 10
2.477
 20
1.99262
 30
0.0
 40
0
 41
0
  0
VERTEX
  8
0
 10
2.49268
 20
1.97131
 30
0.0
 40
0
 41
0
  0
VERTEX
  8
0
 10
2.52387
 20
1.95936
 30
0.0
 40
0
 41
0
  0
VERTEX
  8
0
 10
2.55626
 20
1.96565
 30
0.0
 40
0
 41
0
  0
VERTEX
  8
0
 10
2.57482
 20
1.98406
 30
0.0
 40
0
 41
0
  0
VERTEX
  8
0
 10
2.57693
 20
1.99132
 30
0.0
 40
0
 41
0
  0
VERTEX
  8
0
 10
2.57861
 20
1.99718
 30
0.0
 40
0
 41
0
  0
VERTEX
  8
0
 10
2.57969
 20
2.0159
 30
0.0
 40
0
 41
0
  0
VERTEX
  8
0
 10
2.57167
 20
2.03771
 30
0.0
 40
0
 41
0
  0
VERTEX
  8
0
 10
2.5516
 20
2.05871
 30
0.0
 40
0
 41
0
  0
VERTEX
  8
0
 10
2.52681
 20
2.07596
 30
0.0
 40
0
 41
0
  0
VERTEX
  8
0
 10
2.51818
 20
2.08094
 30
0.0
 40
0
 41
0
  0
VERTEX
  8
0
 10
2.50586
 20
2.08806
 30
0.0
 40
0
 41
0
  0
VERTEX
  8
0
 10
2.47054
 20
2.11193
 30
0.0
 40
0
 41
0
  0
VERTEX
  8
0
 10
2.44086
 20
2.14063
 30
0.0
 40
0
 41
0
  0
VERTEX
  8
0
 10
2.42671
 20
2.17036
 30
0.0
 40
0
 41
0
  0
VERTEX
  8
0
 10
2.42449
 20
2.19613
 30
0.0
 40
0
 41
0
  0
VERTEX
  8
0
 10
2.42546
 20
2.20449
 30
0.0
 40
0
 41
0
  0
VERTEX
  8
0
 10
2.4266
 20
2.21431
 30
0.0
 40
0
 41
0
  0
VERTEX
  8
0
 10
2.43994
 20
2.24257
 30
0.0
 40
0
 41
0
  0
VERTEX
  8
0
 10
2.47011
 20
2.27018
 30
0.0
 40
0
 41
0
  0
VERTEX
  8
0
 10
2.51064
 20
2.28424
 30
0.0
 40
0
 41
0
  0
VERTEX
  8
0
 10
2.54551
 20
2.28444
 30
0.0
 40
0
 41
0
  0
VERTEX
  8
0
 10
2.55643
 20
2.28162
 30
0.0
 40
0
 41
0
  0
SEQEND
 8
0
  0
POLYLINE
  8
0
 62
     0
 66
     1
 10
0
 20
0
 30
0.0
 70
     1
 40
0
 41
0
  0
VERTEX
  8
0
 10
3.10161
 20
2.27957
 30
0.0
 40
0
 41
0
  0
VERTEX
  8
0
 10
3.10047
 20
2.27919
 30
0.0
 40
0
 41
0
  0
VERTEX
  8
0
 10
3.09483
 20
2.27664
 30
0.0
 40
0
 41
0
  0
VERTEX
  8
0
 10
3.09299
 20
2.27664
 30
0.0
 40
0
 41
0
  0
VERTEX
  8
0
 10
3.09196
 20
2.27658
 30
0.0
 40
0
 41
0
  0
VERTEX
  8
0
 10
3.08925
 20
2.27246
 30
0.0
 40
0
 41
0
  0
VERTEX
  8
0
 10
3.08724
 20
2.25364
 30
0.0
 40
0
 41
0
  0
VERTEX
  8
0
 10
3.08658
 20
2.21012
 30
0.0
 40
0
 41
0
  0
VERTEX
  8
0
 10
3.08664
 20
2.15126
 30
0.0
 40
0
 41
0
  0
VERTEX
  8
0
 10
3.08675
 20
2.13163
 30
0.0
 40
0
 41
0
  0
VERTEX
  8
0
 10
3.08735
 20
1.99892
 30
0.0
 40
0
 41
0
  0
VERTEX
  8
0
 10
3.09278
 20
1.9854
 30
0.0
 40
0
 41
0
  0
VERTEX
  8
0
 10
3.09586
 20
1.97771
 30
0.0
 40
0
 41
0
  0
VERTEX
  8
0
 10
3.10969
 20
1.95637
 30
0.0
 40
0
 41
0
  0
VERTEX
  8
0
 10
3.13265
 20
1.93544
 30
0.0
 40
0
 41
0
  0
VERTEX
  8
0
 10
3.15967
 20
1.92275
 30
0.0
 40
0
 41
0
  0
VERTEX
  8
0
 10
3.18892
 20
1.91818
 30
0.0
 40
0
 41
0
  0
VERTEX
  8
0
 10
3.21838
 20
1.92193
 30
0.0
 40
0
 41
0
  0
VERTEX
  8
0
 10
3.24615
 20
1.93392
 30
0.0
 40
0
 41
0
  0
VERTEX
  8
0
 10
3.2704
 20
1.95421
 30
0.0
 40
0
 41
0
  0
VERTEX
  8
0
 10
3.28554
 20
1.97515
 30
0.0
 40
0
 41
0
  0
VERTEX
  8
0
 10
3.28911
 20
1.98275
 30
0.0
 40
0
 41
0
  0
VERTEX
  8
0
 10
3.29031
 20
1.98535
 30
0.0
 40
0
 41
0
  0
VERTEX
  8
0
 10
3.29215
 20
2.03114
 30
0.0
 40
0
 41
0
  0
VERTEX
  8
0
 10
3.29378
 20
2.1281
 30
0.0
 40
0
 41
0
  0
VERTEX
  8
0
 10
3.29357
 20
2.22487
 30
0.0
 40
0
 41
0
  0
VERTEX
  8
0
 10
3.29243
 20
2.27024
 30
0.0
 40
0
 41
0
  0
VERTEX
  8
0
 10
3.29129
 20
2.27251
 30
0.0
 40
0
 41
0
  0
VERTEX
  8
0
 10
3.28988
 20
2.27522
 30
0.0
 40
0
 41
0
  0
VERTEX
  8
0
 10
3.27408
 20
2.28097
 30
0.0
 40
0
 41
0
  0
VERTEX
  8
0
 10
3.25592
 20
2.27626
 30
0.0
 40
0
 41
0
  0
VERTEX
  8
0
 10
3.25336
 20
2.27365
 30
0.0
 40
0
 41
0
  0
VERTEX
  8
0
 10
3.2481
 20
2.26839
 30
0.0
 40
0
 41
0
  0
VERTEX
  8
0
 10
3.24604
 20
1.99854
 30
0.0
 40
0
 41
0
  0
VERTEX
  8
0
 10
3.2385
 20
1.98719
 30
0.0
 40
0
 41
0
  0
VERTEX
  8
0
 10
3.23421
 20
1.98074
 30
0.0
 40
0
 41
0
  0
VERTEX
  8
0
 10
3.21485
 20
1.9656
 30
0.0
 40
0
 41
0
  0
VERTEX
  8
0
 10
3.18696
 20
1.96007
 30
0.0
 40
0
 41
0
  0
VERTEX
  8
0
 10
3.15994
 20
1.97011
 30
0.0
 40
0
 41
0
  0
VERTEX
  8
0
 10
3.14247
 20
1.98828
 30
0.0
 40
0
 41
0
  0
VERTEX
  8
0
 10
3.13894
 20
1.99539
 30
0.0
 40
0
 41
0
  0
VERTEX
  8
0
 10
3.13417
 20
2.00499
 30
0.0
 40
0
 41
0
  0
VERTEX
  8
0
 10
3.13314
 20
2.13743
 30
0.0
 40
0
 41
0
  0
VERTEX
  8
0
 10
3.13297
 20
2.15429
 30
0.0
 40
0
 41
0
  0
VERTEX
  8
0
 10
3.13249
 20
2.20481
 30
0.0
 40
0
 41
0
  0
VERTEX
  8
0
 10
3.13172
 20
2.24567
 30
0.0
 40
0
 41
0
  0
VERTEX
  8
0
 10
3.13069
 20
2.26644
 30
0.0
 40
0
 41
0
  0
VERTEX
  8
0
 10
3.12983
 20
2.27268
 30
0.0
 40
0
 41
0
  0
VERTEX
  8
0
 10
3.12924
 20
2.27339
 30
0.0
 40
0
 41
0
  0
VERTEX
  8
0
 10
3.12761
 20
2.27533
 30
0.0
 40
0
 41
0
  0
VERTEX
  8
0
 10
3.11708
 20
2.28082
 30
0.0
 40
0
 41
0
  0
VERTEX
  8
0
 10
3.10428
 20
2.28054
 30
0.0
 40
0
 41
0
  0
VERTEX
  8
0
 10
3.10161
 20
2.27957
 30
0.0
 40
0
 41
0
  0
SEQEND
 8
0
  0
POLYLINE
  8
0
 62
     0
 66
     1
 10
0
 20
0
 30
0.0
 70
     1
 40
0
 41
0
  0
VERTEX
  8
0
 10
3.46181
 20
2.28039
 30
0.0
 40
0
 41
0
  0
VERTEX
  8
0
 10
3.45404
 20
2.27929
 30
0.0
 40
0
 41
0
  0
VERTEX
  8
0
 10
3.43143
 20
2.27171
 30
0.0
 40
0
 41
0
  0
VERTEX
  8
0
 10
3.40608
 20
2.25526
 30
0.0
 40
0
 41
0
  0
VERTEX
  8
0
 10
3.38687
 20
2.23215
 30
0.0
 40
0
 41
0
  0
VERTEX
  8
0
 10
3.37685
 20
2.21083
 30
0.0
 40
0
 41
0
  0
VERTEX
  8
0
 10
3.375
 20
2.20335
 30
0.0
 40
0
 41
0
  0
VERTEX
  8
0
 10
3.37414
 20
2.19997
 30
0.0
 40
0
 41
0
  0
VERTEX
  8
0
 10
3.37343
 20
2.18935
 30
0.0
 40
0
 41
0
  0
VERTEX
  8
0
 10
3.3724
 20
2.16428
 30
0.0
 40
0
 41
0
  0
VERTEX
  8
0
 10
3.37185
 20
2.13189
 30
0.0
 40
0
 41
0
  0
VERTEX
  8
0
 10
3.37181
 20
2.09592
 30
0.0
 40
0
 41
0
  0
VERTEX
  8
0
 10
3.37218
 20
2.06022
 30
0.0
 40
0
 41
0
  0
VERTEX
  8
0
 10
3.37299
 20
2.02843
 30
0.0
 40
0
 41
0
  0
VERTEX
  8
0
 10
3.37429
 20
2.00439
 30
0.0
 40
0
 41
0
  0
VERTEX
  8
0
 10
3.37494
 20
1.99479
 30
0.0
 40
0
 41
0
  0
VERTEX
  8
0
 10
3.37597
 20
1.99181
 30
0.0
 40
0
 41
0
  0
VERTEX
  8
0
 10
3.37967
 20
1.98085
 30
0.0
 40
0
 41
0
  0
VERTEX
  8
0
 10
3.39979
 20
1.95101
 30
0.0
 40
0
 41
0
  0
VERTEX
  8
0
 10
3.43571
 20
1.926
 30
0.0
 40
0
 41
0
  0
VERTEX
  8
0
 10
3.47885
 20
1.91878
 30
0.0
 40
0
 41
0
  0
VERTEX
  8
0
 10
3.51421
 20
1.92594
 30
0.0
 40
0
 41
0
  0
VERTEX
  8
0
 10
3.52462
 20
1.93115
 30
0.0
 40
0
 41
0
  0
VERTEX
  8
0
 10
3.53358
 20
1.93571
 30
0.0
 40
0
 41
0
  0
VERTEX
  8
0
 10
3.55647
 20
1.95725
 30
0.0
 40
0
 41
0
  0
VERTEX
  8
0
 10
3.57503
 20
1.99024
 30
0.0
 40
0
 41
0
  0
VERTEX
  8
0
 10
3.57644
 20
2.0185
 30
0.0
 40
0
 41
0
  0
VERTEX
  8
0
 10
3.56185
 20
2.03043
 30
0.0
 40
0
 41
0
  0
VERTEX
  8
0
 10
3.55701
 20
2.03043
 30
0.0
 40
0
 41
0
  0
VERTEX
  8
0
 10
3.55274
 20
2.03043
 30
0.0
 40
0
 41
0
  0
VERTEX
  8
0
 10
3.53993
 20
2.02593
 30
0.0
 40
0
 41
0
  0
VERTEX
  8
0
 10
3.53342
 20
2.01389
 30
0.0
 40
0
 41
0
  0
VERTEX
  8
0
 10
3.53288
 20
2.01014
 30
0.0
 40
0
 41
0
  0
VERTEX
  8
0
 10
3.53153
 20
2.00114
 30
0.0
 40
0
 41
0
  0
VERTEX
  8
0
 10
3.51585
 20
1.97569
 30
0.0
 40
0
 41
0
  0
VERTEX
  8
0
 10
3.48503
 20
1.96078
 30
0.0
 40
0
 41
0
  0
VERTEX
  8
0
 10
3.45085
 20
1.96685
 30
0.0
 40
0
 41
0
  0
VERTEX
  8
0
 10
3.42796
 20
1.98693
 30
0.0
 40
0
 41
0
  0
VERTEX
  8
0
 10
3.42383
 20
1.99528
 30
0.0
 40
0
 41
0
  0
VERTEX
  8
0
 10
3.419
 20
2.00499
 30
0.0
 40
0
 41
0
  0
VERTEX
  8
0
 10
3.419
 20
2.09961
 30
0.0
 40
0
 41
0
  0
VERTEX
  8
0
 10
3.419
 20
2.11313
 30
0.0
 40
0
 41
0
  0
VERTEX
  8
0
 10
3.41906
 20
2.15354
 30
0.0
 40
0
 41
0
  0
VERTEX
  8
0
 10
3.41954
 20
2.18283
 30
0.0
 40
0
 41
0
  0
VERTEX
  8
0
 10
3.42085
 20
2.1965
 30
0.0
 40
0
 41
0
  0
VERTEX
  8
0
 10
3.42253
 20
2.20193
 30
0.0
 40
0
 41
0
  0
VERTEX
  8
0
 10
3.42333
 20
2.20361
 30
0.0
 40
0
 41
0
  0
VERTEX
  8
0
 10
3.42731
 20
2.21218
 30
0.0
 40
0
 41
0
  0
VERTEX
  8
0
 10
3.44928
 20
2.23329
 30
0.0
 40
0
 41
0
  0
VERTEX
  8
0
 10
3.48236
 20
2.23986
 30
0.0
 40
0
 41
0
  0
VERTEX
  8
0
 10
3.51335
 20
2.22456
 30
0.0
 40
0
 41
0
  0
VERTEX
  8
0
 10
3.5306
 20
2.19829
 30
0.0
 40
0
 41
0
  0
VERTEX
  8
0
 10
3.53282
 20
2.18869
 30
0.0
 40
0
 41
0
  0
VERTEX
  8
0
 10
3.53386
 20
2.18419
 30
0.0
 40
0
 41
0
  0
VERTEX
  8
0
 10
3.54297
 20
2.17193
 30
0.0
 40
0
 41
0
  0
VERTEX
  8
0
 10
3.55843
 20
2.16726
 30
0.0
 40
0
 41
0
  0
VERTEX
  8
0
 10
3.57254
 20
2.17426
 30
0.0
 40
0
 41
0
  0
VERTEX
  8
0
 10
3.57872
 20
2.18787
 30
0.0
 40
0
 41
0
  0
VERTEX
  8
0
 10
3.57872
 20
2.19239
 30
0.0
 40
0
 41
0
  0
VERTEX
  8
0
 10
3.57872
 20
2.20139
 30
0.0
 40
0
 41
0
  0
VERTEX
  8
0
 10
3.56825
 20
2.22825
 30
0.0
 40
0
 41
0
  0
VERTEX
  8
0
 10
3.54107
 20
2.25803
 30
0.0
 40
0
 41
0
  0
VERTEX
  8
0
 10
3.50353
 20
2.27696
 30
0.0
 40
0
 41
0
  0
VERTEX
  8
0
 10
3.4719
 20
2.28185
 30
0.0
 40
0
 41
0
  0
VERTEX
  8
0
 10
3.46181
 20
2.28039
 30
0.0
 40
0
 41
0
  0
SEQEND
 8
0
  0
POLYLINE
  8
0
 62
     0
 66
     1
 10
0
 20
0
 30
0.0
 70
     1
 40
0
 41
0
  0
VERTEX
  8
0
 10
3.64865
 20
2.27664
 30
0.0
 40
0
 41
0
  0
VERTEX
  8
0
 10
3.64806
 20
2.27642
 30
0.0
 40
0
 41
0
  0
VERTEX
  8
0
 10
3.64063
 20
2.27013
 30
0.0
 40
0
 41
0
  0
VERTEX
  8
0
 10
3.64003
 20
2.26938
 30
0.0
 40
0
 41
0
  0
VERTEX
  8
0
 10
3.63564
 20
2.26383
 30
0.0
 40
0
 41
0
  0
VERTEX
  8
0
 10
3.63564
 20
1.93311
 30
0.0
 40
0
 41
0
  0
VERTEX
  8
0
 10
3.64085
 20
1.92692
 30
0.0
 40
0
 41
0
  0
VERTEX
  8
0
 10
3.64236
 20
1.92507
 30
0.0
 40
0
 41
0
  0
VERTEX
  8
0
 10
3.65272
 20
1.91965
 30
0.0
 40
0
 41
0
  0
VERTEX
  8
0
 10
3.66542
 20
1.91949
 30
0.0
 40
0
 41
0
  0
VERTEX
  8
0
 10
3.66818
 20
1.92031
 30
0.0
 40
0
 41
0
  0
VERTEX
  8
0
 10
3.67019
 20
1.9209
 30
0.0
 40
0
 41
0
  0
VERTEX
  8
0
 10
3.676
 20
1.92356
 30
0.0
 40
0
 41
0
  0
VERTEX
  8
0
 10
3.68001
 20
1.93326
 30
0.0
 40
0
 41
0
  0
VERTEX
  8
0
 10
3.68164
 20
1.95865
 30
0.0
 40
0
 41
0
  0
VERTEX
  8
0
 10
3.68229
 20
1.99636
 30
0.0
 40
0
 41
0
  0
VERTEX
  8
0
 10
3.68246
 20
2.0089
 30
0.0
 40
0
 41
0
  0
VERTEX
  8
0
 10
3.68349
 20
2.08843
 30
0.0
 40
0
 41
0
  0
VERTEX
  8
0
 10
3.74349
 20
2.08946
 30
0.0
 40
0
 41
0
  0
VERTEX
  8
0
 10
3.75379
 20
2.08963
 30
0.0
 40
0
 41
0
  0
VERTEX
  8
0
 10
3.78483
 20
2.0906
 30
0.0
 40
0
 41
0
  0
VERTEX
  8
0
 10
3.80735
 20
2.09332
 30
0.0
 40
0
 41
0
  0
VERTEX
  8
0
 10
3.81674
 20
2.09912
 30
0.0
 40
0
 41
0
  0
VERTEX
  8
0
 10
3.81863
 20
2.10688
 30
0.0
 40
0
 41
0
  0
VERTEX
  8
0
 10
3.81868
 20
2.10943
 30
0.0
 40
0
 41
0
  0
VERTEX
  8
0
 10
3.81868
 20
2.11231
 30
0.0
 40
0
 41
0
  0
VERTEX
  8
0
 10
3.817
 20
2.12088
 30
0.0
 40
0
 41
0
  0
VERTEX
  8
0
 10
3.80794
 20
2.12706
 30
0.0
 40
0
 41
0
  0
VERTEX
  8
0
 10
3.78581
 20
2.12961
 30
0.0
 40
0
 41
0
  0
VERTEX
  8
0
 10
3.75521
 20
2.1301
 30
0.0
 40
0
 41
0
  0
VERTEX
  8
0
 10
3.74501
 20
2.1301
 30
0.0
 40
0
 41
0
  0
VERTEX
  8
0
 10
3.73367
 20
2.1301
 30
0.0
 40
0
 41
0
  0
VERTEX
  8
0
 10
3.69982
 20
2.13069
 30
0.0
 40
0
 41
0
  0
VERTEX
  8
0
 10
3.68533
 20
2.13217
 30
0.0
 40
0
 41
0
  0
VERTEX
  8
0
 10
3.6849
 20
2.1326
 30
0.0
 40
0
 41
0
  0
VERTEX
  8
0
 10
3.68403
 20
2.13346
 30
0.0
 40
0
 41
0
  0
VERTEX
  8
0
 10
3.68294
 20
2.14968
 30
0.0
 40
0
 41
0
  0
VERTEX
  8
0
 10
3.68229
 20
2.18408
 30
0.0
 40
0
 41
0
  0
VERTEX
  8
0
 10
3.68294
 20
2.21847
 30
0.0
 40
0
 41
0
  0
VERTEX
  8
0
 10
3.68403
 20
2.23465
 30
0.0
 40
0
 41
0
  0
VERTEX
  8
0
 10
3.6849
 20
2.23551
 30
0.0
 40
0
 41
0
  0
VERTEX
  8
0
 10
3.68533
 20
2.236
 30
0.0
 40
0
 41
0
  0
VERTEX
  8
0
 10
3.70144
 20
2.23742
 30
0.0
 40
0
 41
0
  0
VERTEX
  8
0
 10
3.74007
 20
2.23796
 30
0.0
 40
0
 41
0
  0
VERTEX
  8
0
 10
3.75299
 20
2.23796
 30
0.0
 40
0
 41
0
  0
VERTEX
  8
0
 10
3.76432
 20
2.23796
 30
0.0
 40
0
 41
0
  0
VERTEX
  8
0
 10
3.79839
 20
2.23839
 30
0.0
 40
0
 41
0
  0
VERTEX
  8
0
 10
3.82232
 20
2.24072
 30
0.0
 40
0
 41
0
  0
VERTEX
  8
0
 10
3.83165
 20
2.24685
 30
0.0
 40
0
 41
0
  0
VERTEX
  8
0
 10
3.83333
 20
2.25558
 30
0.0
 40
0
 41
0
  0
VERTEX
  8
0
 10
3.83339
 20
2.25846
 30
0.0
 40
0
 41
0
  0
VERTEX
  8
0
 10
3.83339
 20
2.26069
 30
0.0
 40
0
 41
0
  0
VERTEX
  8
0
 10
3.83117
 20
2.26882
 30
0.0
 40
0
 41
0
  0
VERTEX
  8
0
 10
3.82465
 20
2.27462
 30
0.0
 40
0
 41
0
  0
VERTEX
  8
0
 10
3.8226
 20
2.27572
 30
0.0
 40
0
 41
0
  0
VERTEX
  8
0
 10
3.82096
 20
2.27658
 30
0.0
 40
0
 41
0
  0
VERTEX
  8
0
 10
3.81358
 20
2.27686
 30
0.0
 40
0
 41
0
  0
VERTEX
  8
0
 10
3.79378
 20
2.27772
 30
0.0
 40
0
 41
0
  0
VERTEX
  8
0
 10
3.76682
 20
2.27838
 30
0.0
 40
0
 41
0
  0
VERTEX
  8
0
 10
3.73617
 20
2.27865
 30
0.0
 40
0
 41
0
  0
VERTEX
  8
0
 10
3.70551
 20
2.27869
 30
0.0
 40
0
 41
0
  0
VERTEX
  8
0
 10
3.67828
 20
2.27838
 30
0.0
 40
0
 41
0
  0
VERTEX
  8
0
 10
3.65815
 20
2.27767
 30
0.0
 40
0
 41
0
  0
VERTEX
  8
0
 10
3.65067
 20
2.27746
 30
0.0
 40
0
 41
0
  0
VERTEX
  8
0
 10
3.64865
 20
2.27664
 30
0.0
 40
0
 41
0
  0
SEQEND
 8
0
  0
POLYLINE
  8
0
 62
     0
 66
     1
 10
0
 20
0
 30
0.0
 70
     1
 40
0
 41
0
  0
VERTEX
  8
0
 10
2.77794
 20
2.22879
 30
0.0
 40
0
 41
0
  0
VERTEX
  8
0
 10
2.78065
 20
2.20714
 30
0.0
 40
0
 41
0
  0
VERTEX
  8
0
 10
2.78504
 20
2.09233
 30
0.0
 40
0
 41
0
  0
VERTEX
  8
0
 10
2.77724
 20
1.97401
 30
0.0
 40
0
 41
0
  0
VERTEX
  8
0
 10
2.77387
 20
1.95053
 30
0.0
 40
0
 41
0
  0
VERTEX
  8
0
 10
2.77349
 20
1.94786
 30
0.0
 40
0
 41
0
  0
VERTEX
  8
0
 10
2.77001
 20
1.94015
 30
0.0
 40
0
 41
0
  0
VERTEX
  8
0
 10
2.76085
 20
1.94353
 30
0.0
 40
0
 41
0
  0
VERTEX
  8
0
 10
2.75819
 20
1.94521
 30
0.0
 40
0
 41
0
  0
VERTEX
  8
0
 10
2.73921
 20
1.95714
 30
0.0
 40
0
 41
0
  0
VERTEX
  8
0
 10
2.69433
 20
2.01215
 30
0.0
 40
0
 41
0
  0
VERTEX
  8
0
 10
2.67296
 20
2.09565
 30
0.0
 40
0
 41
0
  0
VERTEX
  8
0
 10
2.69401
 20
2.17974
 30
0.0
 40
0
 41
0
  0
VERTEX
  8
0
 10
2.73861
 20
2.236
 30
0.0
 40
0
 41
0
  0
VERTEX
  8
0
 10
2.7576
 20
2.24849
 30
0.0
 40
0
 41
0
  0
VERTEX
  8
0
 10
2.76004
 20
2.25011
 30
0.0
 40
0
 41
0
  0
VERTEX
  8
0
 10
2.76753
 20
2.25483
 30
0.0
 40
0
 41
0
  0
VERTEX
  8
0
 10
2.77279
 20
2.2551
 30
0.0
 40
0
 41
0
  0
VERTEX
  8
0
 10
2.7755
 20
2.24713
 30
0.0
 40
0
 41
0
  0
VERTEX
  8
0
 10
2.77735
 20
2.2334
 30
0.0
 40
0
 41
0
  0
VERTEX
  8
0
 10
2.77794
 20
2.22879
 30
0.0
 40
0
 41
0
  0
SEQEND
 8
0
  0
POLYLINE
  8
0
 62
     0
 66
     1
 10
0
 20
0
 30
0.0
 70
     1
 40
0
 41
0
  0
VERTEX
  8
0
 10
2.21963
 20
2.10742
 30
0.0
 40
0
 41
0
  0
VERTEX
  8
0
 10
2.21963
 20
2.095
 30
0.0
 40
0
 41
0
  0
VERTEX
  8
0
 10
2.21951
 20
2.05757
 30
0.0
 40
0
 41
0
  0
VERTEX
  8
0
 10
2.21918
 20
2.01557
 30
0.0
 40
0
 41
0
  0
VERTEX
  8
0
 10
2.21881
 20
1.98583
 30
0.0
 40
0
 41
0
  0
VERTEX
  8
0
 10
2.21847
 20
1.97385
 30
0.0
 40
0
 41
0
  0
VERTEX
  8
0
 10
2.21832
 20
1.97276
 30
0.0
 40
0
 41
0
  0
VERTEX
  8
0
 10
2.21701
 20
1.96496
 30
0.0
 40
0
 41
0
  0
VERTEX
  8
0
 10
2.24935
 20
1.96571
 30
0.0
 40
0
 41
0
  0
VERTEX
  8
0
 10
2.25586
 20
1.96588
 30
0.0
 40
0
 41
0
  0
VERTEX
  8
0
 10
2.27556
 20
1.96744
 30
0.0
 40
0
 41
0
  0
VERTEX
  8
0
 10
2.29297
 20
1.97222
 30
0.0
 40
0
 41
0
  0
VERTEX
  8
0
 10
2.30464
 20
1.98156
 30
0.0
 40
0
 41
0
  0
VERTEX
  8
0
 10
2.31179
 20
1.99289
 30
0.0
 40
0
 41
0
  0
VERTEX
  8
0
 10
2.31364
 20
1.99685
 30
0.0
 40
0
 41
0
  0
VERTEX
  8
0
 10
2.31494
 20
1.99972
 30
0.0
 40
0
 41
0
  0
VERTEX
  8
0
 10
2.31597
 20
2.00976
 30
0.0
 40
0
 41
0
  0
VERTEX
  8
0
 10
2.31765
 20
2.03407
 30
0.0
 40
0
 41
0
  0
VERTEX
  8
0
 10
2.31874
 20
2.06592
 30
0.0
 40
0
 41
0
  0
VERTEX
  8
0
 10
2.31913
 20
2.10157
 30
0.0
 40
0
 41
0
  0
VERTEX
  8
0
 10
2.31879
 20
2.1371
 30
0.0
 40
0
 41
0
  0
VERTEX
  8
0
 10
2.31782
 20
2.16872
 30
0.0
 40
0
 41
0
  0
VERTEX
  8
0
 10
2.31619
 20
2.19249
 30
0.0
 40
0
 41
0
  0
VERTEX
  8
0
 10
2.31521
 20
2.20204
 30
0.0
 40
0
 41
0
  0
VERTEX
  8
0
 10
2.31386
 20
2.20458
 30
0.0
 40
0
 41
0
  0
VERTEX
  8
0
 10
2.3119
 20
2.20828
 30
0.0
 40
0
 41
0
  0
VERTEX
  8
0
 10
2.30436
 20
2.21832
 30
0.0
 40
0
 41
0
  0
VERTEX
  8
0
 10
2.29215
 20
2.22706
 30
0.0
 40
0
 41
0
  0
VERTEX
  8
0
 10
2.27501
 20
2.23178
 30
0.0
 40
0
 41
0
  0
VERTEX
  8
0
 10
2.25672
 20
2.2334
 30
0.0
 40
0
 41
0
  0
VERTEX
  8
0
 10
2.25065
 20
2.23351
 30
0.0
 40
0
 41
0
  0
VERTEX
  8
0
 10
2.21967
 20
2.23426
 30
0.0
 40
0
 41
0
  0
VERTEX
  8
0
 10
2.21963
 20
2.10742
 30
0.0
 40
0
 41
0
  0
SEQEND
 8
0
  0
ENDSEC
  0
EOF
