  0
SECTION
  2
BLOCKS
  0
ENDSEC
  0
SECTION
  2
ENTITIES
  0
LINE
  8
0
 10
-30
 11
-29.998
 20
-24.5
 21
-24.437
  0
LINE
  8
0
 10
-29.998
 11
-29.992
 20
-24.437
 21
-24.375
  0
LINE
  8
0
 10
-29.992
 11
-29.982
 20
-24.375
 21
-24.313
  0
LINE
  8
0
 10
-29.982
 11
-29.969
 20
-24.313
 21
-24.251
  0
LINE
  8
0
 10
-29.969
 11
-29.951
 20
-24.251
 21
-24.191
  0
LINE
  8
0
 10
-29.951
 11
-29.93
 20
-24.191
 21
-24.132
  0
LINE
  8
0
 10
-29.93
 11
-29.905
 20
-24.132
 21
-24.074
  0
LINE
  8
0
 10
-29.905
 11
-29.876
 20
-24.074
 21
-24.018
  0
LINE
  8
0
 10
-29.876
 11
-29.844
 20
-24.018
 21
-23.964
  0
LINE
  8
0
 10
-29.844
 11
-29.809
 20
-23.964
 21
-23.912
  0
LINE
  8
0
 10
-29.809
 11
-29.771
 20
-23.912
 21
-23.863
  0
LINE
  8
0
 10
-29.771
 11
-29.729
 20
-23.863
 21
-23.815
  0
LINE
  8
0
 10
-29.729
 11
-29.685
 20
-23.815
 21
-23.771
  0
LINE
  8
0
 10
-29.685
 11
-29.637
 20
-23.771
 21
-23.729
  0
LINE
  8
0
 10
-29.637
 11
-29.588
 20
-23.729
 21
-23.691
  0
LINE
  8
0
 10
-29.588
 11
-29.536
 20
-23.691
 21
-23.656
  0
LINE
  8
0
 10
-29.536
 11
-29.482
 20
-23.656
 21
-23.624
  0
LINE
  8
0
 10
-29.482
 11
-29.426
 20
-23.624
 21
-23.595
  0
LINE
  8
0
 10
-29.426
 11
-29.368
 20
-23.595
 21
-23.57
  0
LINE
  8
0
 10
-29.368
 11
-29.309
 20
-23.57
 21
-23.549
  0
LINE
  8
0
 10
-29.309
 11
-29.249
 20
-23.549
 21
-23.531
  0
LINE
  8
0
 10
-29.249
 11
-29.187
 20
-23.531
 21
-23.518
  0
LINE
  8
0
 10
-29.187
 11
-29.125
 20
-23.518
 21
-23.508
  0
LINE
  8
0
 10
-29.125
 11
-29.063
 20
-23.508
 21
-23.502
  0
LINE
  8
0
 10
-29.063
 11
-29
 20
-23.502
 21
-23.5
  0
LINE
  8
0
 10
-29
 11
-28.937
 20
-23.5
 21
-23.502
  0
LINE
  8
0
 10
-28.937
 11
-28.875
 20
-23.502
 21
-23.508
  0
LINE
  8
0
 10
-28.875
 11
-28.813
 20
-23.508
 21
-23.518
  0
LINE
  8
0
 10
-28.813
 11
-28.751
 20
-23.518
 21
-23.531
  0
LINE
  8
0
 10
-28.751
 11
-28.691
 20
-23.531
 21
-23.549
  0
LINE
  8
0
 10
-28.691
 11
-28.632
 20
-23.549
 21
-23.57
  0
LINE
  8
0
 10
-28.632
 11
-28.574
 20
-23.57
 21
-23.595
  0
LINE
  8
0
 10
-28.574
 11
-28.518
 20
-23.595
 21
-23.624
  0
LINE
  8
0
 10
-28.518
 11
-28.464
 20
-23.624
 21
-23.656
  0
LINE
  8
0
 10
-28.464
 11
-28.412
 20
-23.656
 21
-23.691
  0
LINE
  8
0
 10
-28.412
 11
-28.363
 20
-23.691
 21
-23.729
  0
LINE
  8
0
 10
-28.363
 11
-28.315
 20
-23.729
 21
-23.771
  0
LINE
  8
0
 10
-28.315
 11
-28.271
 20
-23.771
 21
-23.815
  0
LINE
  8
0
 10
-28.271
 11
-28.229
 20
-23.815
 21
-23.863
  0
LINE
  8
0
 10
-28.229
 11
-28.191
 20
-23.863
 21
-23.912
  0
LINE
  8
0
 10
-28.191
 11
-28.156
 20
-23.912
 21
-23.964
  0
LINE
  8
0
 10
-28.156
 11
-28.124
 20
-23.964
 21
-24.018
  0
LINE
  8
0
 10
-28.124
 11
-28.095
 20
-24.018
 21
-24.074
  0
LINE
  8
0
 10
-28.095
 11
-28.07
 20
-24.074
 21
-24.132
  0
LINE
  8
0
 10
-28.07
 11
-28.049
 20
-24.132
 21
-24.191
  0
LINE
  8
0
 10
-28.049
 11
-28.031
 20
-24.191
 21
-24.251
  0
LINE
  8
0
 10
-28.031
 11
-28.018
 20
-24.251
 21
-24.313
  0
LINE
  8
0
 10
-28.018
 11
-28.008
 20
-24.313
 21
-24.375
  0
LINE
  8
0
 10
-28.008
 11
-28.002
 20
-24.375
 21
-24.437
  0
LINE
  8
0
 10
-28.002
 11
-28
 20
-24.437
 21
-24.5
  0
LINE
  8
0
 10
-28
 11
-28.002
 20
-24.5
 21
-24.563
  0
LINE
  8
0
 10
-28.002
 11
-28.008
 20
-24.563
 21
-24.625
  0
LINE
  8
0
 10
-28.008
 11
-28.018
 20
-24.625
 21
-24.687
  0
LINE
  8
0
 10
-28.018
 11
-28.031
 20
-24.687
 21
-24.749
  0
LINE
  8
0
 10
-28.031
 11
-28.049
 20
-24.749
 21
-24.809
  0
LINE
  8
0
 10
-28.049
 11
-28.07
 20
-24.809
 21
-24.868
  0
LINE
  8
0
 10
-28.07
 11
-28.095
 20
-24.868
 21
-24.926
  0
LINE
  8
0
 10
-28.095
 11
-28.124
 20
-24.926
 21
-24.982
  0
LINE
  8
0
 10
-28.124
 11
-28.156
 20
-24.982
 21
-25.036
  0
LINE
  8
0
 10
-28.156
 11
-28.191
 20
-25.036
 21
-25.088
  0
LINE
  8
0
 10
-28.191
 11
-28.229
 20
-25.088
 21
-25.137
  0
LINE
  8
0
 10
-28.229
 11
-28.271
 20
-25.137
 21
-25.185
  0
LINE
  8
0
 10
-28.271
 11
-28.315
 20
-25.185
 21
-25.229
  0
LINE
  8
0
 10
-28.315
 11
-28.363
 20
-25.229
 21
-25.271
  0
LINE
  8
0
 10
-28.363
 11
-28.412
 20
-25.271
 21
-25.309
  0
LINE
  8
0
 10
-28.412
 11
-28.464
 20
-25.309
 21
-25.344
  0
LINE
  8
0
 10
-28.464
 11
-28.518
 20
-25.344
 21
-25.376
  0
LINE
  8
0
 10
-28.518
 11
-28.574
 20
-25.376
 21
-25.405
  0
LINE
  8
0
 10
-28.574
 11
-28.632
 20
-25.405
 21
-25.43
  0
LINE
  8
0
 10
-28.632
 11
-28.691
 20
-25.43
 21
-25.451
  0
LINE
  8
0
 10
-28.691
 11
-28.751
 20
-25.451
 21
-25.469
  0
LINE
  8
0
 10
-28.751
 11
-28.813
 20
-25.469
 21
-25.482
  0
LINE
  8
0
 10
-28.813
 11
-28.875
 20
-25.482
 21
-25.492
  0
LINE
  8
0
 10
-28.875
 11
-28.937
 20
-25.492
 21
-25.498
  0
LINE
  8
0
 10
-28.937
 11
-29
 20
-25.498
 21
-25.5
  0
LINE
  8
0
 10
-29
 11
-29.063
 20
-25.5
 21
-25.498
  0
LINE
  8
0
 10
-29.063
 11
-29.125
 20
-25.498
 21
-25.492
  0
LINE
  8
0
 10
-29.125
 11
-29.187
 20
-25.492
 21
-25.482
  0
LINE
  8
0
 10
-29.187
 11
-29.249
 20
-25.482
 21
-25.469
  0
LINE
  8
0
 10
-29.249
 11
-29.309
 20
-25.469
 21
-25.451
  0
LINE
  8
0
 10
-29.309
 11
-29.368
 20
-25.451
 21
-25.43
  0
LINE
  8
0
 10
-29.368
 11
-29.426
 20
-25.43
 21
-25.405
  0
LINE
  8
0
 10
-29.426
 11
-29.482
 20
-25.405
 21
-25.376
  0
LINE
  8
0
 10
-29.482
 11
-29.536
 20
-25.376
 21
-25.344
  0
LINE
  8
0
 10
-29.536
 11
-29.588
 20
-25.344
 21
-25.309
  0
LINE
  8
0
 10
-29.588
 11
-29.637
 20
-25.309
 21
-25.271
  0
LINE
  8
0
 10
-29.637
 11
-29.685
 20
-25.271
 21
-25.229
  0
LINE
  8
0
 10
-29.685
 11
-29.729
 20
-25.229
 21
-25.185
  0
LINE
  8
0
 10
-29.729
 11
-29.771
 20
-25.185
 21
-25.137
  0
LINE
  8
0
 10
-29.771
 11
-29.809
 20
-25.137
 21
-25.088
  0
LINE
  8
0
 10
-29.809
 11
-29.844
 20
-25.088
 21
-25.036
  0
LINE
  8
0
 10
-29.844
 11
-29.876
 20
-25.036
 21
-24.982
  0
LINE
  8
0
 10
-29.876
 11
-29.905
 20
-24.982
 21
-24.926
  0
LINE
  8
0
 10
-29.905
 11
-29.93
 20
-24.926
 21
-24.868
  0
LINE
  8
0
 10
-29.93
 11
-29.951
 20
-24.868
 21
-24.809
  0
LINE
  8
0
 10
-29.951
 11
-29.969
 20
-24.809
 21
-24.749
  0
LINE
  8
0
 10
-29.969
 11
-29.982
 20
-24.749
 21
-24.687
  0
LINE
  8
0
 10
-29.982
 11
-29.992
 20
-24.687
 21
-24.625
  0
LINE
  8
0
 10
-29.992
 11
-29.998
 20
-24.625
 21
-24.563
  0
LINE
  8
0
 10
-29.998
 11
-30
 20
-24.563
 21
-24.5
  0
LINE
  8
0
 10
-30
 11
-29.998
 20
24.5
 21
24.563
  0
LINE
  8
0
 10
-29.998
 11
-29.992
 20
24.563
 21
24.625
  0
LINE
  8
0
 10
-29.992
 11
-29.982
 20
24.625
 21
24.687
  0
LINE
  8
0
 10
-29.982
 11
-29.969
 20
24.687
 21
24.749
  0
LINE
  8
0
 10
-29.969
 11
-29.951
 20
24.749
 21
24.809
  0
LINE
  8
0
 10
-29.951
 11
-29.93
 20
24.809
 21
24.868
  0
LINE
  8
0
 10
-29.93
 11
-29.905
 20
24.868
 21
24.926
  0
LINE
  8
0
 10
-29.905
 11
-29.876
 20
24.926
 21
24.982
  0
LINE
  8
0
 10
-29.876
 11
-29.844
 20
24.982
 21
25.036
  0
LINE
  8
0
 10
-29.844
 11
-29.809
 20
25.036
 21
25.088
  0
LINE
  8
0
 10
-29.809
 11
-29.771
 20
25.088
 21
25.137
  0
LINE
  8
0
 10
-29.771
 11
-29.729
 20
25.137
 21
25.185
  0
LINE
  8
0
 10
-29.729
 11
-29.685
 20
25.185
 21
25.229
  0
LINE
  8
0
 10
-29.685
 11
-29.637
 20
25.229
 21
25.271
  0
LINE
  8
0
 10
-29.637
 11
-29.588
 20
25.271
 21
25.309
  0
LINE
  8
0
 10
-29.588
 11
-29.536
 20
25.309
 21
25.344
  0
LINE
  8
0
 10
-29.536
 11
-29.482
 20
25.344
 21
25.376
  0
LINE
  8
0
 10
-29.482
 11
-29.426
 20
25.376
 21
25.405
  0
LINE
  8
0
 10
-29.426
 11
-29.368
 20
25.405
 21
25.43
  0
LINE
  8
0
 10
-29.368
 11
-29.309
 20
25.43
 21
25.451
  0
LINE
  8
0
 10
-29.309
 11
-29.249
 20
25.451
 21
25.469
  0
LINE
  8
0
 10
-29.249
 11
-29.187
 20
25.469
 21
25.482
  0
LINE
  8
0
 10
-29.187
 11
-29.125
 20
25.482
 21
25.492
  0
LINE
  8
0
 10
-29.125
 11
-29.063
 20
25.492
 21
25.498
  0
LINE
  8
0
 10
-29.063
 11
-29
 20
25.498
 21
25.5
  0
LINE
  8
0
 10
-29
 11
-28.937
 20
25.5
 21
25.498
  0
LINE
  8
0
 10
-28.937
 11
-28.875
 20
25.498
 21
25.492
  0
LINE
  8
0
 10
-28.875
 11
-28.813
 20
25.492
 21
25.482
  0
LINE
  8
0
 10
-28.813
 11
-28.751
 20
25.482
 21
25.469
  0
LINE
  8
0
 10
-28.751
 11
-28.691
 20
25.469
 21
25.451
  0
LINE
  8
0
 10
-28.691
 11
-28.632
 20
25.451
 21
25.43
  0
LINE
  8
0
 10
-28.632
 11
-28.574
 20
25.43
 21
25.405
  0
LINE
  8
0
 10
-28.574
 11
-28.518
 20
25.405
 21
25.376
  0
LINE
  8
0
 10
-28.518
 11
-28.464
 20
25.376
 21
25.344
  0
LINE
  8
0
 10
-28.464
 11
-28.412
 20
25.344
 21
25.309
  0
LINE
  8
0
 10
-28.412
 11
-28.363
 20
25.309
 21
25.271
  0
LINE
  8
0
 10
-28.363
 11
-28.315
 20
25.271
 21
25.229
  0
LINE
  8
0
 10
-28.315
 11
-28.271
 20
25.229
 21
25.185
  0
LINE
  8
0
 10
-28.271
 11
-28.229
 20
25.185
 21
25.137
  0
LINE
  8
0
 10
-28.229
 11
-28.191
 20
25.137
 21
25.088
  0
LINE
  8
0
 10
-28.191
 11
-28.156
 20
25.088
 21
25.036
  0
LINE
  8
0
 10
-28.156
 11
-28.124
 20
25.036
 21
24.982
  0
LINE
  8
0
 10
-28.124
 11
-28.095
 20
24.982
 21
24.926
  0
LINE
  8
0
 10
-28.095
 11
-28.07
 20
24.926
 21
24.868
  0
LINE
  8
0
 10
-28.07
 11
-28.049
 20
24.868
 21
24.809
  0
LINE
  8
0
 10
-28.049
 11
-28.031
 20
24.809
 21
24.749
  0
LINE
  8
0
 10
-28.031
 11
-28.018
 20
24.749
 21
24.687
  0
LINE
  8
0
 10
-28.018
 11
-28.008
 20
24.687
 21
24.625
  0
LINE
  8
0
 10
-28.008
 11
-28.002
 20
24.625
 21
24.563
  0
LINE
  8
0
 10
-28.002
 11
-28
 20
24.563
 21
24.5
  0
LINE
  8
0
 10
-28
 11
-28.002
 20
24.5
 21
24.437
  0
LINE
  8
0
 10
-28.002
 11
-28.008
 20
24.437
 21
24.375
  0
LINE
  8
0
 10
-28.008
 11
-28.018
 20
24.375
 21
24.313
  0
LINE
  8
0
 10
-28.018
 11
-28.031
 20
24.313
 21
24.251
  0
LINE
  8
0
 10
-28.031
 11
-28.049
 20
24.251
 21
24.191
  0
LINE
  8
0
 10
-28.049
 11
-28.07
 20
24.191
 21
24.132
  0
LINE
  8
0
 10
-28.07
 11
-28.095
 20
24.132
 21
24.074
  0
LINE
  8
0
 10
-28.095
 11
-28.124
 20
24.074
 21
24.018
  0
LINE
  8
0
 10
-28.124
 11
-28.156
 20
24.018
 21
23.964
  0
LINE
  8
0
 10
-28.156
 11
-28.191
 20
23.964
 21
23.912
  0
LINE
  8
0
 10
-28.191
 11
-28.229
 20
23.912
 21
23.863
  0
LINE
  8
0
 10
-28.229
 11
-28.271
 20
23.863
 21
23.815
  0
LINE
  8
0
 10
-28.271
 11
-28.315
 20
23.815
 21
23.771
  0
LINE
  8
0
 10
-28.315
 11
-28.363
 20
23.771
 21
23.729
  0
LINE
  8
0
 10
-28.363
 11
-28.412
 20
23.729
 21
23.691
  0
LINE
  8
0
 10
-28.412
 11
-28.464
 20
23.691
 21
23.656
  0
LINE
  8
0
 10
-28.464
 11
-28.518
 20
23.656
 21
23.624
  0
LINE
  8
0
 10
-28.518
 11
-28.574
 20
23.624
 21
23.595
  0
LINE
  8
0
 10
-28.574
 11
-28.632
 20
23.595
 21
23.57
  0
LINE
  8
0
 10
-28.632
 11
-28.691
 20
23.57
 21
23.549
  0
LINE
  8
0
 10
-28.691
 11
-28.751
 20
23.549
 21
23.531
  0
LINE
  8
0
 10
-28.751
 11
-28.813
 20
23.531
 21
23.518
  0
LINE
  8
0
 10
-28.813
 11
-28.875
 20
23.518
 21
23.508
  0
LINE
  8
0
 10
-28.875
 11
-28.937
 20
23.508
 21
23.502
  0
LINE
  8
0
 10
-28.937
 11
-29
 20
23.502
 21
23.5
  0
LINE
  8
0
 10
-29
 11
-29.063
 20
23.5
 21
23.502
  0
LINE
  8
0
 10
-29.063
 11
-29.125
 20
23.502
 21
23.508
  0
LINE
  8
0
 10
-29.125
 11
-29.187
 20
23.508
 21
23.518
  0
LINE
  8
0
 10
-29.187
 11
-29.249
 20
23.518
 21
23.531
  0
LINE
  8
0
 10
-29.249
 11
-29.309
 20
23.531
 21
23.549
  0
LINE
  8
0
 10
-29.309
 11
-29.368
 20
23.549
 21
23.57
  0
LINE
  8
0
 10
-29.368
 11
-29.426
 20
23.57
 21
23.595
  0
LINE
  8
0
 10
-29.426
 11
-29.482
 20
23.595
 21
23.624
  0
LINE
  8
0
 10
-29.482
 11
-29.536
 20
23.624
 21
23.656
  0
LINE
  8
0
 10
-29.536
 11
-29.588
 20
23.656
 21
23.691
  0
LINE
  8
0
 10
-29.588
 11
-29.637
 20
23.691
 21
23.729
  0
LINE
  8
0
 10
-29.637
 11
-29.685
 20
23.729
 21
23.771
  0
LINE
  8
0
 10
-29.685
 11
-29.729
 20
23.771
 21
23.815
  0
LINE
  8
0
 10
-29.729
 11
-29.771
 20
23.815
 21
23.863
  0
LINE
  8
0
 10
-29.771
 11
-29.809
 20
23.863
 21
23.912
  0
LINE
  8
0
 10
-29.809
 11
-29.844
 20
23.912
 21
23.964
  0
LINE
  8
0
 10
-29.844
 11
-29.876
 20
23.964
 21
24.018
  0
LINE
  8
0
 10
-29.876
 11
-29.905
 20
24.018
 21
24.074
  0
LINE
  8
0
 10
-29.905
 11
-29.93
 20
24.074
 21
24.132
  0
LINE
  8
0
 10
-29.93
 11
-29.951
 20
24.132
 21
24.191
  0
LINE
  8
0
 10
-29.951
 11
-29.969
 20
24.191
 21
24.251
  0
LINE
  8
0
 10
-29.969
 11
-29.982
 20
24.251
 21
24.313
  0
LINE
  8
0
 10
-29.982
 11
-29.992
 20
24.313
 21
24.375
  0
LINE
  8
0
 10
-29.992
 11
-29.998
 20
24.375
 21
24.437
  0
LINE
  8
0
 10
-29.998
 11
-30
 20
24.437
 21
24.5
  0
LINE
  8
0
 10
-32.5
 11
-32.5
 20
-25.25
 21
-9.314
  0
LINE
  8
0
 10
-32.5
 11
-32.476
 20
-9.314
 21
-9.268
  0
LINE
  8
0
 10
-32.476
 11
-32.444
 20
-9.268
 21
-9.214
  0
LINE
  8
0
 10
-32.444
 11
-32.409
 20
-9.214
 21
-9.162
  0
LINE
  8
0
 10
-32.409
 11
-32.371
 20
-9.162
 21
-9.113
  0
LINE
  8
0
 10
-32.371
 11
-32.329
 20
-9.113
 21
-9.065
  0
LINE
  8
0
 10
-32.329
 11
-32.285
 20
-9.065
 21
-9.021
  0
LINE
  8
0
 10
-32.285
 11
-32.237
 20
-9.021
 21
-8.979
  0
LINE
  8
0
 10
-32.237
 11
-32.188
 20
-8.979
 21
-8.941
  0
LINE
  8
0
 10
-32.188
 11
-32.136
 20
-8.941
 21
-8.906
  0
LINE
  8
0
 10
-32.136
 11
-32.082
 20
-8.906
 21
-8.874
  0
LINE
  8
0
 10
-32.082
 11
-32.026
 20
-8.874
 21
-8.845
  0
LINE
  8
0
 10
-32.026
 11
-31.968
 20
-8.845
 21
-8.82
  0
LINE
  8
0
 10
-31.968
 11
-31.909
 20
-8.82
 21
-8.799
  0
LINE
  8
0
 10
-31.909
 11
-31.849
 20
-8.799
 21
-8.781
  0
LINE
  8
0
 10
-31.849
 11
-31.787
 20
-8.781
 21
-8.768
  0
LINE
  8
0
 10
-31.787
 11
-31.725
 20
-8.768
 21
-8.758
  0
LINE
  8
0
 10
-31.725
 11
-31.663
 20
-8.758
 21
-8.752
  0
LINE
  8
0
 10
-31.663
 11
-31.6
 20
-8.752
 21
-8.75
  0
LINE
  8
0
 10
-31.6
 11
-28.6
 20
-8.75
 21
-8.75
  0
LINE
  8
0
 10
-28.6
 11
-28.537
 20
-8.75
 21
-8.748
  0
LINE
  8
0
 10
-28.537
 11
-28.475
 20
-8.748
 21
-8.742
  0
LINE
  8
0
 10
-28.475
 11
-28.413
 20
-8.742
 21
-8.732
  0
LINE
  8
0
 10
-28.413
 11
-28.351
 20
-8.732
 21
-8.719
  0
LINE
  8
0
 10
-28.351
 11
-28.291
 20
-8.719
 21
-8.701
  0
LINE
  8
0
 10
-28.291
 11
-28.232
 20
-8.701
 21
-8.68
  0
LINE
  8
0
 10
-28.232
 11
-28.174
 20
-8.68
 21
-8.655
  0
LINE
  8
0
 10
-28.174
 11
-28.118
 20
-8.655
 21
-8.626
  0
LINE
  8
0
 10
-28.118
 11
-28.064
 20
-8.626
 21
-8.594
  0
LINE
  8
0
 10
-28.064
 11
-28.012
 20
-8.594
 21
-8.559
  0
LINE
  8
0
 10
-28.012
 11
-27.963
 20
-8.559
 21
-8.521
  0
LINE
  8
0
 10
-27.963
 11
-27.915
 20
-8.521
 21
-8.479
  0
LINE
  8
0
 10
-27.915
 11
-27.871
 20
-8.479
 21
-8.435
  0
LINE
  8
0
 10
-27.871
 11
-27.829
 20
-8.435
 21
-8.387
  0
LINE
  8
0
 10
-27.829
 11
-27.791
 20
-8.387
 21
-8.338
  0
LINE
  8
0
 10
-27.791
 11
-27.756
 20
-8.338
 21
-8.286
  0
LINE
  8
0
 10
-27.756
 11
-27.724
 20
-8.286
 21
-8.232
  0
LINE
  8
0
 10
-27.724
 11
-27.695
 20
-8.232
 21
-8.176
  0
LINE
  8
0
 10
-27.695
 11
-27.67
 20
-8.176
 21
-8.118
  0
LINE
  8
0
 10
-27.67
 11
-27.649
 20
-8.118
 21
-8.059
  0
LINE
  8
0
 10
-27.649
 11
-27.631
 20
-8.059
 21
-7.999
  0
LINE
  8
0
 10
-27.631
 11
-27.618
 20
-7.999
 21
-7.937
  0
LINE
  8
0
 10
-27.618
 11
-27.608
 20
-7.937
 21
-7.875
  0
LINE
  8
0
 10
-27.608
 11
-27.602
 20
-7.875
 21
-7.813
  0
LINE
  8
0
 10
-27.602
 11
-27.6
 20
-7.813
 21
-7.75
  0
LINE
  8
0
 10
-27.6
 11
-27.6
 20
-7.75
 21
7.25
  0
LINE
  8
0
 10
-27.6
 11
-27.602
 20
7.25
 21
7.313
  0
LINE
  8
0
 10
-27.602
 11
-27.608
 20
7.313
 21
7.375
  0
LINE
  8
0
 10
-27.608
 11
-27.618
 20
7.375
 21
7.437
  0
LINE
  8
0
 10
-27.618
 11
-27.631
 20
7.437
 21
7.499
  0
LINE
  8
0
 10
-27.631
 11
-27.649
 20
7.499
 21
7.559
  0
LINE
  8
0
 10
-27.649
 11
-27.67
 20
7.559
 21
7.618
  0
LINE
  8
0
 10
-27.67
 11
-27.695
 20
7.618
 21
7.676
  0
LINE
  8
0
 10
-27.695
 11
-27.724
 20
7.676
 21
7.732
  0
LINE
  8
0
 10
-27.724
 11
-27.756
 20
7.732
 21
7.786
  0
LINE
  8
0
 10
-27.756
 11
-27.791
 20
7.786
 21
7.838
  0
LINE
  8
0
 10
-27.791
 11
-27.829
 20
7.838
 21
7.887
  0
LINE
  8
0
 10
-27.829
 11
-27.871
 20
7.887
 21
7.935
  0
LINE
  8
0
 10
-27.871
 11
-27.915
 20
7.935
 21
7.979
  0
LINE
  8
0
 10
-27.915
 11
-27.963
 20
7.979
 21
8.021
  0
LINE
  8
0
 10
-27.963
 11
-28.012
 20
8.021
 21
8.059
  0
LINE
  8
0
 10
-28.012
 11
-28.064
 20
8.059
 21
8.094
  0
LINE
  8
0
 10
-28.064
 11
-28.118
 20
8.094
 21
8.126
  0
LINE
  8
0
 10
-28.118
 11
-28.174
 20
8.126
 21
8.155
  0
LINE
  8
0
 10
-28.174
 11
-28.232
 20
8.155
 21
8.18
  0
LINE
  8
0
 10
-28.232
 11
-28.291
 20
8.18
 21
8.201
  0
LINE
  8
0
 10
-28.291
 11
-28.351
 20
8.201
 21
8.219
  0
LINE
  8
0
 10
-28.351
 11
-28.413
 20
8.219
 21
8.232
  0
LINE
  8
0
 10
-28.413
 11
-28.475
 20
8.232
 21
8.242
  0
LINE
  8
0
 10
-28.475
 11
-28.537
 20
8.242
 21
8.248
  0
LINE
  8
0
 10
-28.537
 11
-28.6
 20
8.248
 21
8.25
  0
LINE
  8
0
 10
-28.6
 11
-31.6
 20
8.25
 21
8.25
  0
LINE
  8
0
 10
-31.6
 11
-31.663
 20
8.25
 21
8.252
  0
LINE
  8
0
 10
-31.663
 11
-31.725
 20
8.252
 21
8.258
  0
LINE
  8
0
 10
-31.725
 11
-31.787
 20
8.258
 21
8.268
  0
LINE
  8
0
 10
-31.787
 11
-31.849
 20
8.268
 21
8.281
  0
LINE
  8
0
 10
-31.849
 11
-31.909
 20
8.281
 21
8.299
  0
LINE
  8
0
 10
-31.909
 11
-31.968
 20
8.299
 21
8.32
  0
LINE
  8
0
 10
-31.968
 11
-32.026
 20
8.32
 21
8.345
  0
LINE
  8
0
 10
-32.026
 11
-32.082
 20
8.345
 21
8.374
  0
LINE
  8
0
 10
-32.082
 11
-32.136
 20
8.374
 21
8.406
  0
LINE
  8
0
 10
-32.136
 11
-32.188
 20
8.406
 21
8.441
  0
LINE
  8
0
 10
-32.188
 11
-32.237
 20
8.441
 21
8.479
  0
LINE
  8
0
 10
-32.237
 11
-32.285
 20
8.479
 21
8.521
  0
LINE
  8
0
 10
-32.285
 11
-32.329
 20
8.521
 21
8.565
  0
LINE
  8
0
 10
-32.329
 11
-32.371
 20
8.565
 21
8.613
  0
LINE
  8
0
 10
-32.371
 11
-32.409
 20
8.613
 21
8.662
  0
LINE
  8
0
 10
-32.409
 11
-32.444
 20
8.662
 21
8.714
  0
LINE
  8
0
 10
-32.444
 11
-32.476
 20
8.714
 21
8.768
  0
LINE
  8
0
 10
-32.476
 11
-32.5
 20
8.768
 21
8.814
  0
LINE
  8
0
 10
-32.5
 11
-32.5
 20
8.814
 21
25.25
  0
LINE
  8
0
 10
-32.5
 11
-32.494
 20
25.25
 21
25.438
  0
LINE
  8
0
 10
-32.494
 11
-32.476
 20
25.438
 21
25.626
  0
LINE
  8
0
 10
-32.476
 11
-32.447
 20
25.626
 21
25.812
  0
LINE
  8
0
 10
-32.447
 11
-32.406
 20
25.812
 21
25.996
  0
LINE
  8
0
 10
-32.406
 11
-32.353
 20
25.996
 21
26.177
  0
LINE
  8
0
 10
-32.353
 11
-32.289
 20
26.177
 21
26.354
  0
LINE
  8
0
 10
-32.289
 11
-32.214
 20
26.354
 21
26.527
  0
LINE
  8
0
 10
-32.214
 11
-32.129
 20
26.527
 21
26.695
  0
LINE
  8
0
 10
-32.129
 11
-32.033
 20
26.695
 21
26.857
  0
LINE
  8
0
 10
-32.033
 11
-31.927
 20
26.857
 21
27.013
  0
LINE
  8
0
 10
-31.927
 11
-31.812
 20
27.013
 21
27.162
  0
LINE
  8
0
 10
-31.812
 11
-31.687
 20
27.162
 21
27.304
  0
LINE
  8
0
 10
-31.687
 11
-31.554
 20
27.304
 21
27.437
  0
LINE
  8
0
 10
-31.554
 11
-31.412
 20
27.437
 21
27.562
  0
LINE
  8
0
 10
-31.412
 11
-31.263
 20
27.562
 21
27.677
  0
LINE
  8
0
 10
-31.263
 11
-31.107
 20
27.677
 21
27.783
  0
LINE
  8
0
 10
-31.107
 11
-30.945
 20
27.783
 21
27.879
  0
LINE
  8
0
 10
-30.945
 11
-30.777
 20
27.879
 21
27.964
  0
LINE
  8
0
 10
-30.777
 11
-30.604
 20
27.964
 21
28.039
  0
LINE
  8
0
 10
-30.604
 11
-30.427
 20
28.039
 21
28.103
  0
LINE
  8
0
 10
-30.427
 11
-30.246
 20
28.103
 21
28.156
  0
LINE
  8
0
 10
-30.246
 11
-30.062
 20
28.156
 21
28.197
  0
LINE
  8
0
 10
-30.062
 11
-29.876
 20
28.197
 21
28.226
  0
LINE
  8
0
 10
-29.876
 11
-29.688
 20
28.226
 21
28.244
  0
LINE
  8
0
 10
-29.688
 11
-29.5
 20
28.244
 21
28.25
  0
LINE
  8
0
 10
-29.5
 11
29.5
 20
28.25
 21
28.25
  0
LINE
  8
0
 10
29.5
 11
29.688
 20
28.25
 21
28.244
  0
LINE
  8
0
 10
29.688
 11
29.876
 20
28.244
 21
28.226
  0
LINE
  8
0
 10
29.876
 11
30.062
 20
28.226
 21
28.197
  0
LINE
  8
0
 10
30.062
 11
30.246
 20
28.197
 21
28.156
  0
LINE
  8
0
 10
30.246
 11
30.427
 20
28.156
 21
28.103
  0
LINE
  8
0
 10
30.427
 11
30.604
 20
28.103
 21
28.039
  0
LINE
  8
0
 10
30.604
 11
30.777
 20
28.039
 21
27.964
  0
LINE
  8
0
 10
30.777
 11
30.945
 20
27.964
 21
27.879
  0
LINE
  8
0
 10
30.945
 11
31.107
 20
27.879
 21
27.783
  0
LINE
  8
0
 10
31.107
 11
31.263
 20
27.783
 21
27.677
  0
LINE
  8
0
 10
31.263
 11
31.412
 20
27.677
 21
27.562
  0
LINE
  8
0
 10
31.412
 11
31.554
 20
27.562
 21
27.437
  0
LINE
  8
0
 10
31.554
 11
31.687
 20
27.437
 21
27.304
  0
LINE
  8
0
 10
31.687
 11
31.812
 20
27.304
 21
27.162
  0
LINE
  8
0
 10
31.812
 11
31.927
 20
27.162
 21
27.013
  0
LINE
  8
0
 10
31.927
 11
32.033
 20
27.013
 21
26.857
  0
LINE
  8
0
 10
32.033
 11
32.129
 20
26.857
 21
26.695
  0
LINE
  8
0
 10
32.129
 11
32.214
 20
26.695
 21
26.527
  0
LINE
  8
0
 10
32.214
 11
32.289
 20
26.527
 21
26.354
  0
LINE
  8
0
 10
32.289
 11
32.353
 20
26.354
 21
26.177
  0
LINE
  8
0
 10
32.353
 11
32.406
 20
26.177
 21
25.996
  0
LINE
  8
0
 10
32.406
 11
32.447
 20
25.996
 21
25.812
  0
LINE
  8
0
 10
32.447
 11
32.476
 20
25.812
 21
25.626
  0
LINE
  8
0
 10
32.476
 11
32.494
 20
25.626
 21
25.438
  0
LINE
  8
0
 10
32.494
 11
32.5
 20
25.438
 21
25.25
  0
LINE
  8
0
 10
32.5
 11
32.5
 20
25.25
 21
-25.25
  0
LINE
  8
0
 10
32.5
 11
32.494
 20
-25.25
 21
-25.438
  0
LINE
  8
0
 10
32.494
 11
32.476
 20
-25.438
 21
-25.626
  0
LINE
  8
0
 10
32.476
 11
32.447
 20
-25.626
 21
-25.812
  0
LINE
  8
0
 10
32.447
 11
32.406
 20
-25.812
 21
-25.996
  0
LINE
  8
0
 10
32.406
 11
32.353
 20
-25.996
 21
-26.177
  0
LINE
  8
0
 10
32.353
 11
32.289
 20
-26.177
 21
-26.354
  0
LINE
  8
0
 10
32.289
 11
32.214
 20
-26.354
 21
-26.527
  0
LINE
  8
0
 10
32.214
 11
32.129
 20
-26.527
 21
-26.695
  0
LINE
  8
0
 10
32.129
 11
32.033
 20
-26.695
 21
-26.857
  0
LINE
  8
0
 10
32.033
 11
31.927
 20
-26.857
 21
-27.013
  0
LINE
  8
0
 10
31.927
 11
31.812
 20
-27.013
 21
-27.162
  0
LINE
  8
0
 10
31.812
 11
31.687
 20
-27.162
 21
-27.304
  0
LINE
  8
0
 10
31.687
 11
31.554
 20
-27.304
 21
-27.437
  0
LINE
  8
0
 10
31.554
 11
31.412
 20
-27.437
 21
-27.562
  0
LINE
  8
0
 10
31.412
 11
31.263
 20
-27.562
 21
-27.677
  0
LINE
  8
0
 10
31.263
 11
31.107
 20
-27.677
 21
-27.783
  0
LINE
  8
0
 10
31.107
 11
30.945
 20
-27.783
 21
-27.879
  0
LINE
  8
0
 10
30.945
 11
30.777
 20
-27.879
 21
-27.964
  0
LINE
  8
0
 10
30.777
 11
30.604
 20
-27.964
 21
-28.039
  0
LINE
  8
0
 10
30.604
 11
30.427
 20
-28.039
 21
-28.103
  0
LINE
  8
0
 10
30.427
 11
30.246
 20
-28.103
 21
-28.156
  0
LINE
  8
0
 10
30.246
 11
30.062
 20
-28.156
 21
-28.197
  0
LINE
  8
0
 10
30.062
 11
29.876
 20
-28.197
 21
-28.226
  0
LINE
  8
0
 10
29.876
 11
29.688
 20
-28.226
 21
-28.244
  0
LINE
  8
0
 10
29.688
 11
29.5
 20
-28.244
 21
-28.25
  0
LINE
  8
0
 10
29.5
 11
-29.5
 20
-28.25
 21
-28.25
  0
LINE
  8
0
 10
-29.5
 11
-29.688
 20
-28.25
 21
-28.244
  0
LINE
  8
0
 10
-29.688
 11
-29.876
 20
-28.244
 21
-28.226
  0
LINE
  8
0
 10
-29.876
 11
-30.062
 20
-28.226
 21
-28.197
  0
LINE
  8
0
 10
-30.062
 11
-30.246
 20
-28.197
 21
-28.156
  0
LINE
  8
0
 10
-30.246
 11
-30.427
 20
-28.156
 21
-28.103
  0
LINE
  8
0
 10
-30.427
 11
-30.604
 20
-28.103
 21
-28.039
  0
LINE
  8
0
 10
-30.604
 11
-30.777
 20
-28.039
 21
-27.964
  0
LINE
  8
0
 10
-30.777
 11
-30.945
 20
-27.964
 21
-27.879
  0
LINE
  8
0
 10
-30.945
 11
-31.107
 20
-27.879
 21
-27.783
  0
LINE
  8
0
 10
-31.107
 11
-31.263
 20
-27.783
 21
-27.677
  0
LINE
  8
0
 10
-31.263
 11
-31.412
 20
-27.677
 21
-27.562
  0
LINE
  8
0
 10
-31.412
 11
-31.554
 20
-27.562
 21
-27.437
  0
LINE
  8
0
 10
-31.554
 11
-31.687
 20
-27.437
 21
-27.304
  0
LINE
  8
0
 10
-31.687
 11
-31.812
 20
-27.304
 21
-27.162
  0
LINE
  8
0
 10
-31.812
 11
-31.927
 20
-27.162
 21
-27.013
  0
LINE
  8
0
 10
-31.927
 11
-32.033
 20
-27.013
 21
-26.857
  0
LINE
  8
0
 10
-32.033
 11
-32.129
 20
-26.857
 21
-26.695
  0
LINE
  8
0
 10
-32.129
 11
-32.214
 20
-26.695
 21
-26.527
  0
LINE
  8
0
 10
-32.214
 11
-32.289
 20
-26.527
 21
-26.354
  0
LINE
  8
0
 10
-32.289
 11
-32.353
 20
-26.354
 21
-26.177
  0
LINE
  8
0
 10
-32.353
 11
-32.406
 20
-26.177
 21
-25.996
  0
LINE
  8
0
 10
-32.406
 11
-32.447
 20
-25.996
 21
-25.812
  0
LINE
  8
0
 10
-32.447
 11
-32.476
 20
-25.812
 21
-25.626
  0
LINE
  8
0
 10
-32.476
 11
-32.494
 20
-25.626
 21
-25.438
  0
LINE
  8
0
 10
-32.494
 11
-32.5
 20
-25.438
 21
-25.25
  0
LINE
  8
0
 10
11.5
 11
11.5
 20
-24.25
 21
-9.25
  0
LINE
  8
0
 10
11.5
 11
11.502
 20
-9.25
 21
-9.187
  0
LINE
  8
0
 10
11.502
 11
11.508
 20
-9.187
 21
-9.125
  0
LINE
  8
0
 10
11.508
 11
11.518
 20
-9.125
 21
-9.063
  0
LINE
  8
0
 10
11.518
 11
11.531
 20
-9.063
 21
-9.001
  0
LINE
  8
0
 10
11.531
 11
11.549
 20
-9.001
 21
-8.941
  0
LINE
  8
0
 10
11.549
 11
11.57
 20
-8.941
 21
-8.882
  0
LINE
  8
0
 10
11.57
 11
11.595
 20
-8.882
 21
-8.824
  0
LINE
  8
0
 10
11.595
 11
11.624
 20
-8.824
 21
-8.768
  0
LINE
  8
0
 10
11.624
 11
11.656
 20
-8.768
 21
-8.714
  0
LINE
  8
0
 10
11.656
 11
11.691
 20
-8.714
 21
-8.662
  0
LINE
  8
0
 10
11.691
 11
11.729
 20
-8.662
 21
-8.613
  0
LINE
  8
0
 10
11.729
 11
11.771
 20
-8.613
 21
-8.565
  0
LINE
  8
0
 10
11.771
 11
11.815
 20
-8.565
 21
-8.521
  0
LINE
  8
0
 10
11.815
 11
11.863
 20
-8.521
 21
-8.479
  0
LINE
  8
0
 10
11.863
 11
11.912
 20
-8.479
 21
-8.441
  0
LINE
  8
0
 10
11.912
 11
11.964
 20
-8.441
 21
-8.406
  0
LINE
  8
0
 10
11.964
 11
12.018
 20
-8.406
 21
-8.374
  0
LINE
  8
0
 10
12.018
 11
12.074
 20
-8.374
 21
-8.345
  0
LINE
  8
0
 10
12.074
 11
12.132
 20
-8.345
 21
-8.32
  0
LINE
  8
0
 10
12.132
 11
12.191
 20
-8.32
 21
-8.299
  0
LINE
  8
0
 10
12.191
 11
12.251
 20
-8.299
 21
-8.281
  0
LINE
  8
0
 10
12.251
 11
12.313
 20
-8.281
 21
-8.268
  0
LINE
  8
0
 10
12.313
 11
12.375
 20
-8.268
 21
-8.258
  0
LINE
  8
0
 10
12.375
 11
12.437
 20
-8.258
 21
-8.252
  0
LINE
  8
0
 10
12.437
 11
12.5
 20
-8.252
 21
-8.25
  0
LINE
  8
0
 10
12.5
 11
12.563
 20
-8.25
 21
-8.252
  0
LINE
  8
0
 10
12.563
 11
12.625
 20
-8.252
 21
-8.258
  0
LINE
  8
0
 10
12.625
 11
12.687
 20
-8.258
 21
-8.268
  0
LINE
  8
0
 10
12.687
 11
12.749
 20
-8.268
 21
-8.281
  0
LINE
  8
0
 10
12.749
 11
12.809
 20
-8.281
 21
-8.299
  0
LINE
  8
0
 10
12.809
 11
12.868
 20
-8.299
 21
-8.32
  0
LINE
  8
0
 10
12.868
 11
12.926
 20
-8.32
 21
-8.345
  0
LINE
  8
0
 10
12.926
 11
12.982
 20
-8.345
 21
-8.374
  0
LINE
  8
0
 10
12.982
 11
13.036
 20
-8.374
 21
-8.406
  0
LINE
  8
0
 10
13.036
 11
13.088
 20
-8.406
 21
-8.441
  0
LINE
  8
0
 10
13.088
 11
13.137
 20
-8.441
 21
-8.479
  0
LINE
  8
0
 10
13.137
 11
13.185
 20
-8.479
 21
-8.521
  0
LINE
  8
0
 10
13.185
 11
13.229
 20
-8.521
 21
-8.565
  0
LINE
  8
0
 10
13.229
 11
13.271
 20
-8.565
 21
-8.613
  0
LINE
  8
0
 10
13.271
 11
13.309
 20
-8.613
 21
-8.662
  0
LINE
  8
0
 10
13.309
 11
13.344
 20
-8.662
 21
-8.714
  0
LINE
  8
0
 10
13.344
 11
13.376
 20
-8.714
 21
-8.768
  0
LINE
  8
0
 10
13.376
 11
13.405
 20
-8.768
 21
-8.824
  0
LINE
  8
0
 10
13.405
 11
13.43
 20
-8.824
 21
-8.882
  0
LINE
  8
0
 10
13.43
 11
13.451
 20
-8.882
 21
-8.941
  0
LINE
  8
0
 10
13.451
 11
13.469
 20
-8.941
 21
-9.001
  0
LINE
  8
0
 10
13.469
 11
13.482
 20
-9.001
 21
-9.063
  0
LINE
  8
0
 10
13.482
 11
13.492
 20
-9.063
 21
-9.125
  0
LINE
  8
0
 10
13.492
 11
13.498
 20
-9.125
 21
-9.187
  0
LINE
  8
0
 10
13.498
 11
13.5
 20
-9.187
 21
-9.25
  0
LINE
  8
0
 10
13.5
 11
13.5
 20
-9.25
 21
-24.25
  0
LINE
  8
0
 10
13.5
 11
13.498
 20
-24.25
 21
-24.313
  0
LINE
  8
0
 10
13.498
 11
13.492
 20
-24.313
 21
-24.375
  0
LINE
  8
0
 10
13.492
 11
13.482
 20
-24.375
 21
-24.437
  0
LINE
  8
0
 10
13.482
 11
13.469
 20
-24.437
 21
-24.499
  0
LINE
  8
0
 10
13.469
 11
13.451
 20
-24.499
 21
-24.559
  0
LINE
  8
0
 10
13.451
 11
13.43
 20
-24.559
 21
-24.618
  0
LINE
  8
0
 10
13.43
 11
13.405
 20
-24.618
 21
-24.676
  0
LINE
  8
0
 10
13.405
 11
13.376
 20
-24.676
 21
-24.732
  0
LINE
  8
0
 10
13.376
 11
13.344
 20
-24.732
 21
-24.786
  0
LINE
  8
0
 10
13.344
 11
13.309
 20
-24.786
 21
-24.838
  0
LINE
  8
0
 10
13.309
 11
13.271
 20
-24.838
 21
-24.887
  0
LINE
  8
0
 10
13.271
 11
13.229
 20
-24.887
 21
-24.935
  0
LINE
  8
0
 10
13.229
 11
13.185
 20
-24.935
 21
-24.979
  0
LINE
  8
0
 10
13.185
 11
13.137
 20
-24.979
 21
-25.021
  0
LINE
  8
0
 10
13.137
 11
13.088
 20
-25.021
 21
-25.059
  0
LINE
  8
0
 10
13.088
 11
13.036
 20
-25.059
 21
-25.094
  0
LINE
  8
0
 10
13.036
 11
12.982
 20
-25.094
 21
-25.126
  0
LINE
  8
0
 10
12.982
 11
12.926
 20
-25.126
 21
-25.155
  0
LINE
  8
0
 10
12.926
 11
12.868
 20
-25.155
 21
-25.18
  0
LINE
  8
0
 10
12.868
 11
12.809
 20
-25.18
 21
-25.201
  0
LINE
  8
0
 10
12.809
 11
12.749
 20
-25.201
 21
-25.219
  0
LINE
  8
0
 10
12.749
 11
12.687
 20
-25.219
 21
-25.232
  0
LINE
  8
0
 10
12.687
 11
12.625
 20
-25.232
 21
-25.242
  0
LINE
  8
0
 10
12.625
 11
12.563
 20
-25.242
 21
-25.248
  0
LINE
  8
0
 10
12.563
 11
12.5
 20
-25.248
 21
-25.25
  0
LINE
  8
0
 10
12.5
 11
12.437
 20
-25.25
 21
-25.248
  0
LINE
  8
0
 10
12.437
 11
12.375
 20
-25.248
 21
-25.242
  0
LINE
  8
0
 10
12.375
 11
12.313
 20
-25.242
 21
-25.232
  0
LINE
  8
0
 10
12.313
 11
12.251
 20
-25.232
 21
-25.219
  0
LINE
  8
0
 10
12.251
 11
12.191
 20
-25.219
 21
-25.201
  0
LINE
  8
0
 10
12.191
 11
12.132
 20
-25.201
 21
-25.18
  0
LINE
  8
0
 10
12.132
 11
12.074
 20
-25.18
 21
-25.155
  0
LINE
  8
0
 10
12.074
 11
12.018
 20
-25.155
 21
-25.126
  0
LINE
  8
0
 10
12.018
 11
11.964
 20
-25.126
 21
-25.094
  0
LINE
  8
0
 10
11.964
 11
11.912
 20
-25.094
 21
-25.059
  0
LINE
  8
0
 10
11.912
 11
11.863
 20
-25.059
 21
-25.021
  0
LINE
  8
0
 10
11.863
 11
11.815
 20
-25.021
 21
-24.979
  0
LINE
  8
0
 10
11.815
 11
11.771
 20
-24.979
 21
-24.935
  0
LINE
  8
0
 10
11.771
 11
11.729
 20
-24.935
 21
-24.887
  0
LINE
  8
0
 10
11.729
 11
11.691
 20
-24.887
 21
-24.838
  0
LINE
  8
0
 10
11.691
 11
11.656
 20
-24.838
 21
-24.786
  0
LINE
  8
0
 10
11.656
 11
11.624
 20
-24.786
 21
-24.732
  0
LINE
  8
0
 10
11.624
 11
11.595
 20
-24.732
 21
-24.676
  0
LINE
  8
0
 10
11.595
 11
11.57
 20
-24.676
 21
-24.618
  0
LINE
  8
0
 10
11.57
 11
11.549
 20
-24.618
 21
-24.559
  0
LINE
  8
0
 10
11.549
 11
11.531
 20
-24.559
 21
-24.499
  0
LINE
  8
0
 10
11.531
 11
11.518
 20
-24.499
 21
-24.437
  0
LINE
  8
0
 10
11.518
 11
11.508
 20
-24.437
 21
-24.375
  0
LINE
  8
0
 10
11.508
 11
11.502
 20
-24.375
 21
-24.313
  0
LINE
  8
0
 10
11.502
 11
11.5
 20
-24.313
 21
-24.25
  0
LINE
  8
0
 10
28
 11
28.002
 20
-24.5
 21
-24.437
  0
LINE
  8
0
 10
28.002
 11
28.008
 20
-24.437
 21
-24.375
  0
LINE
  8
0
 10
28.008
 11
28.018
 20
-24.375
 21
-24.313
  0
LINE
  8
0
 10
28.018
 11
28.031
 20
-24.313
 21
-24.251
  0
LINE
  8
0
 10
28.031
 11
28.049
 20
-24.251
 21
-24.191
  0
LINE
  8
0
 10
28.049
 11
28.07
 20
-24.191
 21
-24.132
  0
LINE
  8
0
 10
28.07
 11
28.095
 20
-24.132
 21
-24.074
  0
LINE
  8
0
 10
28.095
 11
28.124
 20
-24.074
 21
-24.018
  0
LINE
  8
0
 10
28.124
 11
28.156
 20
-24.018
 21
-23.964
  0
LINE
  8
0
 10
28.156
 11
28.191
 20
-23.964
 21
-23.912
  0
LINE
  8
0
 10
28.191
 11
28.229
 20
-23.912
 21
-23.863
  0
LINE
  8
0
 10
28.229
 11
28.271
 20
-23.863
 21
-23.815
  0
LINE
  8
0
 10
28.271
 11
28.315
 20
-23.815
 21
-23.771
  0
LINE
  8
0
 10
28.315
 11
28.363
 20
-23.771
 21
-23.729
  0
LINE
  8
0
 10
28.363
 11
28.412
 20
-23.729
 21
-23.691
  0
LINE
  8
0
 10
28.412
 11
28.464
 20
-23.691
 21
-23.656
  0
LINE
  8
0
 10
28.464
 11
28.518
 20
-23.656
 21
-23.624
  0
LINE
  8
0
 10
28.518
 11
28.574
 20
-23.624
 21
-23.595
  0
LINE
  8
0
 10
28.574
 11
28.632
 20
-23.595
 21
-23.57
  0
LINE
  8
0
 10
28.632
 11
28.691
 20
-23.57
 21
-23.549
  0
LINE
  8
0
 10
28.691
 11
28.751
 20
-23.549
 21
-23.531
  0
LINE
  8
0
 10
28.751
 11
28.813
 20
-23.531
 21
-23.518
  0
LINE
  8
0
 10
28.813
 11
28.875
 20
-23.518
 21
-23.508
  0
LINE
  8
0
 10
28.875
 11
28.937
 20
-23.508
 21
-23.502
  0
LINE
  8
0
 10
28.937
 11
29
 20
-23.502
 21
-23.5
  0
LINE
  8
0
 10
29
 11
29.063
 20
-23.5
 21
-23.502
  0
LINE
  8
0
 10
29.063
 11
29.125
 20
-23.502
 21
-23.508
  0
LINE
  8
0
 10
29.125
 11
29.187
 20
-23.508
 21
-23.518
  0
LINE
  8
0
 10
29.187
 11
29.249
 20
-23.518
 21
-23.531
  0
LINE
  8
0
 10
29.249
 11
29.309
 20
-23.531
 21
-23.549
  0
LINE
  8
0
 10
29.309
 11
29.368
 20
-23.549
 21
-23.57
  0
LINE
  8
0
 10
29.368
 11
29.426
 20
-23.57
 21
-23.595
  0
LINE
  8
0
 10
29.426
 11
29.482
 20
-23.595
 21
-23.624
  0
LINE
  8
0
 10
29.482
 11
29.536
 20
-23.624
 21
-23.656
  0
LINE
  8
0
 10
29.536
 11
29.588
 20
-23.656
 21
-23.691
  0
LINE
  8
0
 10
29.588
 11
29.637
 20
-23.691
 21
-23.729
  0
LINE
  8
0
 10
29.637
 11
29.685
 20
-23.729
 21
-23.771
  0
LINE
  8
0
 10
29.685
 11
29.729
 20
-23.771
 21
-23.815
  0
LINE
  8
0
 10
29.729
 11
29.771
 20
-23.815
 21
-23.863
  0
LINE
  8
0
 10
29.771
 11
29.809
 20
-23.863
 21
-23.912
  0
LINE
  8
0
 10
29.809
 11
29.844
 20
-23.912
 21
-23.964
  0
LINE
  8
0
 10
29.844
 11
29.876
 20
-23.964
 21
-24.018
  0
LINE
  8
0
 10
29.876
 11
29.905
 20
-24.018
 21
-24.074
  0
LINE
  8
0
 10
29.905
 11
29.93
 20
-24.074
 21
-24.132
  0
LINE
  8
0
 10
29.93
 11
29.951
 20
-24.132
 21
-24.191
  0
LINE
  8
0
 10
29.951
 11
29.969
 20
-24.191
 21
-24.251
  0
LINE
  8
0
 10
29.969
 11
29.982
 20
-24.251
 21
-24.313
  0
LINE
  8
0
 10
29.982
 11
29.992
 20
-24.313
 21
-24.375
  0
LINE
  8
0
 10
29.992
 11
29.998
 20
-24.375
 21
-24.437
  0
LINE
  8
0
 10
29.998
 11
30
 20
-24.437
 21
-24.5
  0
LINE
  8
0
 10
30
 11
29.998
 20
-24.5
 21
-24.563
  0
LINE
  8
0
 10
29.998
 11
29.992
 20
-24.563
 21
-24.625
  0
LINE
  8
0
 10
29.992
 11
29.982
 20
-24.625
 21
-24.687
  0
LINE
  8
0
 10
29.982
 11
29.969
 20
-24.687
 21
-24.749
  0
LINE
  8
0
 10
29.969
 11
29.951
 20
-24.749
 21
-24.809
  0
LINE
  8
0
 10
29.951
 11
29.93
 20
-24.809
 21
-24.868
  0
LINE
  8
0
 10
29.93
 11
29.905
 20
-24.868
 21
-24.926
  0
LINE
  8
0
 10
29.905
 11
29.876
 20
-24.926
 21
-24.982
  0
LINE
  8
0
 10
29.876
 11
29.844
 20
-24.982
 21
-25.036
  0
LINE
  8
0
 10
29.844
 11
29.809
 20
-25.036
 21
-25.088
  0
LINE
  8
0
 10
29.809
 11
29.771
 20
-25.088
 21
-25.137
  0
LINE
  8
0
 10
29.771
 11
29.729
 20
-25.137
 21
-25.185
  0
LINE
  8
0
 10
29.729
 11
29.685
 20
-25.185
 21
-25.229
  0
LINE
  8
0
 10
29.685
 11
29.637
 20
-25.229
 21
-25.271
  0
LINE
  8
0
 10
29.637
 11
29.588
 20
-25.271
 21
-25.309
  0
LINE
  8
0
 10
29.588
 11
29.536
 20
-25.309
 21
-25.344
  0
LINE
  8
0
 10
29.536
 11
29.482
 20
-25.344
 21
-25.376
  0
LINE
  8
0
 10
29.482
 11
29.426
 20
-25.376
 21
-25.405
  0
LINE
  8
0
 10
29.426
 11
29.368
 20
-25.405
 21
-25.43
  0
LINE
  8
0
 10
29.368
 11
29.309
 20
-25.43
 21
-25.451
  0
LINE
  8
0
 10
29.309
 11
29.249
 20
-25.451
 21
-25.469
  0
LINE
  8
0
 10
29.249
 11
29.187
 20
-25.469
 21
-25.482
  0
LINE
  8
0
 10
29.187
 11
29.125
 20
-25.482
 21
-25.492
  0
LINE
  8
0
 10
29.125
 11
29.063
 20
-25.492
 21
-25.498
  0
LINE
  8
0
 10
29.063
 11
29
 20
-25.498
 21
-25.5
  0
LINE
  8
0
 10
29
 11
28.937
 20
-25.5
 21
-25.498
  0
LINE
  8
0
 10
28.937
 11
28.875
 20
-25.498
 21
-25.492
  0
LINE
  8
0
 10
28.875
 11
28.813
 20
-25.492
 21
-25.482
  0
LINE
  8
0
 10
28.813
 11
28.751
 20
-25.482
 21
-25.469
  0
LINE
  8
0
 10
28.751
 11
28.691
 20
-25.469
 21
-25.451
  0
LINE
  8
0
 10
28.691
 11
28.632
 20
-25.451
 21
-25.43
  0
LINE
  8
0
 10
28.632
 11
28.574
 20
-25.43
 21
-25.405
  0
LINE
  8
0
 10
28.574
 11
28.518
 20
-25.405
 21
-25.376
  0
LINE
  8
0
 10
28.518
 11
28.464
 20
-25.376
 21
-25.344
  0
LINE
  8
0
 10
28.464
 11
28.412
 20
-25.344
 21
-25.309
  0
LINE
  8
0
 10
28.412
 11
28.363
 20
-25.309
 21
-25.271
  0
LINE
  8
0
 10
28.363
 11
28.315
 20
-25.271
 21
-25.229
  0
LINE
  8
0
 10
28.315
 11
28.271
 20
-25.229
 21
-25.185
  0
LINE
  8
0
 10
28.271
 11
28.229
 20
-25.185
 21
-25.137
  0
LINE
  8
0
 10
28.229
 11
28.191
 20
-25.137
 21
-25.088
  0
LINE
  8
0
 10
28.191
 11
28.156
 20
-25.088
 21
-25.036
  0
LINE
  8
0
 10
28.156
 11
28.124
 20
-25.036
 21
-24.982
  0
LINE
  8
0
 10
28.124
 11
28.095
 20
-24.982
 21
-24.926
  0
LINE
  8
0
 10
28.095
 11
28.07
 20
-24.926
 21
-24.868
  0
LINE
  8
0
 10
28.07
 11
28.049
 20
-24.868
 21
-24.809
  0
LINE
  8
0
 10
28.049
 11
28.031
 20
-24.809
 21
-24.749
  0
LINE
  8
0
 10
28.031
 11
28.018
 20
-24.749
 21
-24.687
  0
LINE
  8
0
 10
28.018
 11
28.008
 20
-24.687
 21
-24.625
  0
LINE
  8
0
 10
28.008
 11
28.002
 20
-24.625
 21
-24.563
  0
LINE
  8
0
 10
28.002
 11
28
 20
-24.563
 21
-24.5
  0
LINE
  8
0
 10
28
 11
28.002
 20
24.5
 21
24.563
  0
LINE
  8
0
 10
28.002
 11
28.008
 20
24.563
 21
24.625
  0
LINE
  8
0
 10
28.008
 11
28.018
 20
24.625
 21
24.687
  0
LINE
  8
0
 10
28.018
 11
28.031
 20
24.687
 21
24.749
  0
LINE
  8
0
 10
28.031
 11
28.049
 20
24.749
 21
24.809
  0
LINE
  8
0
 10
28.049
 11
28.07
 20
24.809
 21
24.868
  0
LINE
  8
0
 10
28.07
 11
28.095
 20
24.868
 21
24.926
  0
LINE
  8
0
 10
28.095
 11
28.124
 20
24.926
 21
24.982
  0
LINE
  8
0
 10
28.124
 11
28.156
 20
24.982
 21
25.036
  0
LINE
  8
0
 10
28.156
 11
28.191
 20
25.036
 21
25.088
  0
LINE
  8
0
 10
28.191
 11
28.229
 20
25.088
 21
25.137
  0
LINE
  8
0
 10
28.229
 11
28.271
 20
25.137
 21
25.185
  0
LINE
  8
0
 10
28.271
 11
28.315
 20
25.185
 21
25.229
  0
LINE
  8
0
 10
28.315
 11
28.363
 20
25.229
 21
25.271
  0
LINE
  8
0
 10
28.363
 11
28.412
 20
25.271
 21
25.309
  0
LINE
  8
0
 10
28.412
 11
28.464
 20
25.309
 21
25.344
  0
LINE
  8
0
 10
28.464
 11
28.518
 20
25.344
 21
25.376
  0
LINE
  8
0
 10
28.518
 11
28.574
 20
25.376
 21
25.405
  0
LINE
  8
0
 10
28.574
 11
28.632
 20
25.405
 21
25.43
  0
LINE
  8
0
 10
28.632
 11
28.691
 20
25.43
 21
25.451
  0
LINE
  8
0
 10
28.691
 11
28.751
 20
25.451
 21
25.469
  0
LINE
  8
0
 10
28.751
 11
28.813
 20
25.469
 21
25.482
  0
LINE
  8
0
 10
28.813
 11
28.875
 20
25.482
 21
25.492
  0
LINE
  8
0
 10
28.875
 11
28.937
 20
25.492
 21
25.498
  0
LINE
  8
0
 10
28.937
 11
29
 20
25.498
 21
25.5
  0
LINE
  8
0
 10
29
 11
29.063
 20
25.5
 21
25.498
  0
LINE
  8
0
 10
29.063
 11
29.125
 20
25.498
 21
25.492
  0
LINE
  8
0
 10
29.125
 11
29.187
 20
25.492
 21
25.482
  0
LINE
  8
0
 10
29.187
 11
29.249
 20
25.482
 21
25.469
  0
LINE
  8
0
 10
29.249
 11
29.309
 20
25.469
 21
25.451
  0
LINE
  8
0
 10
29.309
 11
29.368
 20
25.451
 21
25.43
  0
LINE
  8
0
 10
29.368
 11
29.426
 20
25.43
 21
25.405
  0
LINE
  8
0
 10
29.426
 11
29.482
 20
25.405
 21
25.376
  0
LINE
  8
0
 10
29.482
 11
29.536
 20
25.376
 21
25.344
  0
LINE
  8
0
 10
29.536
 11
29.588
 20
25.344
 21
25.309
  0
LINE
  8
0
 10
29.588
 11
29.637
 20
25.309
 21
25.271
  0
LINE
  8
0
 10
29.637
 11
29.685
 20
25.271
 21
25.229
  0
LINE
  8
0
 10
29.685
 11
29.729
 20
25.229
 21
25.185
  0
LINE
  8
0
 10
29.729
 11
29.771
 20
25.185
 21
25.137
  0
LINE
  8
0
 10
29.771
 11
29.809
 20
25.137
 21
25.088
  0
LINE
  8
0
 10
29.809
 11
29.844
 20
25.088
 21
25.036
  0
LINE
  8
0
 10
29.844
 11
29.876
 20
25.036
 21
24.982
  0
LINE
  8
0
 10
29.876
 11
29.905
 20
24.982
 21
24.926
  0
LINE
  8
0
 10
29.905
 11
29.93
 20
24.926
 21
24.868
  0
LINE
  8
0
 10
29.93
 11
29.951
 20
24.868
 21
24.809
  0
LINE
  8
0
 10
29.951
 11
29.969
 20
24.809
 21
24.749
  0
LINE
  8
0
 10
29.969
 11
29.982
 20
24.749
 21
24.687
  0
LINE
  8
0
 10
29.982
 11
29.992
 20
24.687
 21
24.625
  0
LINE
  8
0
 10
29.992
 11
29.998
 20
24.625
 21
24.563
  0
LINE
  8
0
 10
29.998
 11
30
 20
24.563
 21
24.5
  0
LINE
  8
0
 10
30
 11
29.998
 20
24.5
 21
24.437
  0
LINE
  8
0
 10
29.998
 11
29.992
 20
24.437
 21
24.375
  0
LINE
  8
0
 10
29.992
 11
29.982
 20
24.375
 21
24.313
  0
LINE
  8
0
 10
29.982
 11
29.969
 20
24.313
 21
24.251
  0
LINE
  8
0
 10
29.969
 11
29.951
 20
24.251
 21
24.191
  0
LINE
  8
0
 10
29.951
 11
29.93
 20
24.191
 21
24.132
  0
LINE
  8
0
 10
29.93
 11
29.905
 20
24.132
 21
24.074
  0
LINE
  8
0
 10
29.905
 11
29.876
 20
24.074
 21
24.018
  0
LINE
  8
0
 10
29.876
 11
29.844
 20
24.018
 21
23.964
  0
LINE
  8
0
 10
29.844
 11
29.809
 20
23.964
 21
23.912
  0
LINE
  8
0
 10
29.809
 11
29.771
 20
23.912
 21
23.863
  0
LINE
  8
0
 10
29.771
 11
29.729
 20
23.863
 21
23.815
  0
LINE
  8
0
 10
29.729
 11
29.685
 20
23.815
 21
23.771
  0
LINE
  8
0
 10
29.685
 11
29.637
 20
23.771
 21
23.729
  0
LINE
  8
0
 10
29.637
 11
29.588
 20
23.729
 21
23.691
  0
LINE
  8
0
 10
29.588
 11
29.536
 20
23.691
 21
23.656
  0
LINE
  8
0
 10
29.536
 11
29.482
 20
23.656
 21
23.624
  0
LINE
  8
0
 10
29.482
 11
29.426
 20
23.624
 21
23.595
  0
LINE
  8
0
 10
29.426
 11
29.368
 20
23.595
 21
23.57
  0
LINE
  8
0
 10
29.368
 11
29.309
 20
23.57
 21
23.549
  0
LINE
  8
0
 10
29.309
 11
29.249
 20
23.549
 21
23.531
  0
LINE
  8
0
 10
29.249
 11
29.187
 20
23.531
 21
23.518
  0
LINE
  8
0
 10
29.187
 11
29.125
 20
23.518
 21
23.508
  0
LINE
  8
0
 10
29.125
 11
29.063
 20
23.508
 21
23.502
  0
LINE
  8
0
 10
29.063
 11
29
 20
23.502
 21
23.5
  0
LINE
  8
0
 10
29
 11
28.937
 20
23.5
 21
23.502
  0
LINE
  8
0
 10
28.937
 11
28.875
 20
23.502
 21
23.508
  0
LINE
  8
0
 10
28.875
 11
28.813
 20
23.508
 21
23.518
  0
LINE
  8
0
 10
28.813
 11
28.751
 20
23.518
 21
23.531
  0
LINE
  8
0
 10
28.751
 11
28.691
 20
23.531
 21
23.549
  0
LINE
  8
0
 10
28.691
 11
28.632
 20
23.549
 21
23.57
  0
LINE
  8
0
 10
28.632
 11
28.574
 20
23.57
 21
23.595
  0
LINE
  8
0
 10
28.574
 11
28.518
 20
23.595
 21
23.624
  0
LINE
  8
0
 10
28.518
 11
28.464
 20
23.624
 21
23.656
  0
LINE
  8
0
 10
28.464
 11
28.412
 20
23.656
 21
23.691
  0
LINE
  8
0
 10
28.412
 11
28.363
 20
23.691
 21
23.729
  0
LINE
  8
0
 10
28.363
 11
28.315
 20
23.729
 21
23.771
  0
LINE
  8
0
 10
28.315
 11
28.271
 20
23.771
 21
23.815
  0
LINE
  8
0
 10
28.271
 11
28.229
 20
23.815
 21
23.863
  0
LINE
  8
0
 10
28.229
 11
28.191
 20
23.863
 21
23.912
  0
LINE
  8
0
 10
28.191
 11
28.156
 20
23.912
 21
23.964
  0
LINE
  8
0
 10
28.156
 11
28.124
 20
23.964
 21
24.018
  0
LINE
  8
0
 10
28.124
 11
28.095
 20
24.018
 21
24.074
  0
LINE
  8
0
 10
28.095
 11
28.07
 20
24.074
 21
24.132
  0
LINE
  8
0
 10
28.07
 11
28.049
 20
24.132
 21
24.191
  0
LINE
  8
0
 10
28.049
 11
28.031
 20
24.191
 21
24.251
  0
LINE
  8
0
 10
28.031
 11
28.018
 20
24.251
 21
24.313
  0
LINE
  8
0
 10
28.018
 11
28.008
 20
24.313
 21
24.375
  0
LINE
  8
0
 10
28.008
 11
28.002
 20
24.375
 21
24.437
  0
LINE
  8
0
 10
28.002
 11
28
 20
24.437
 21
24.5
  0
ENDSEC
  0
SECTION
  2
OBJECTS
  0
DICTIONARY
  0
ENDSEC
  0
EOF
